M48
; DRILL file {KiCad 6.0.8-f2edbf62ab~116~ubuntu22.04.1} date jeu. 13 oct. 2022 11:14:01
; FORMAT={-:-/ absolute / metric / decimal}
; #@! TF.CreationDate,2022-10-13T11:14:01+02:00
; #@! TF.GenerationSoftware,Kicad,Pcbnew,6.0.8-f2edbf62ab~116~ubuntu22.04.1
; #@! TF.FileFunction,Plated,1,2,PTH
FMAT,2
METRIC
; #@! TA.AperFunction,Plated,PTH,ViaDrill
T1C0.400
; #@! TA.AperFunction,Plated,PTH,ComponentDrill
T2C1.000
%
G90
G05
T1
X168.275Y-90.17
X171.45Y-118.745
X172.085Y-118.11
X172.085Y-124.46
X172.72Y-117.475
X173.355Y-116.84
X173.99Y-104.14
X173.99Y-115.57
X174.62Y-97.795
X174.625Y-103.505
X174.625Y-114.935
X175.26Y-97.155
X175.89Y-96.525
X175.895Y-103.505
X175.895Y-109.855
X176.213Y-89.218
X176.53Y-95.885
X177.575Y-94.615
X178.435Y-83.82
X178.435Y-90.805
X178.435Y-121.92
X179.045Y-111.1
X179.07Y-98.425
X179.07Y-104.14
X179.07Y-121.285
X179.7Y-99.065
X179.705Y-104.775
X179.705Y-120.65
X179.845Y-110.475
X180.022Y-85.09
X180.34Y-99.695
X180.34Y-105.41
X180.645Y-109.855
X180.97Y-100.335
X180.975Y-106.045
X181.445Y-109.22
X181.61Y-88.265
X181.61Y-102.235
X181.61Y-121.92
X182.245Y-101.6
X182.245Y-108.585
X182.245Y-118.11
X182.945Y-86.992
X183.515Y-85.725
X184.15Y-84.459
X184.77Y-120.51
X184.785Y-86.36
X184.785Y-93.345
X186.055Y-121.92
X186.69Y-103.188
X186.69Y-107.315
X188.595Y-124.46
X190.5Y-92.075
X190.5Y-114.935
X190.5Y-118.11
X191.135Y-115.57
X191.135Y-117.475
X191.77Y-116.84
X192.405Y-113.665
X192.405Y-121.285
X193.041Y-85.089
X193.675Y-120.015
X193.675Y-123.19
X194.31Y-89.535
X197.075Y-92.71
X197.42Y-109.855
X198.279Y-103.098
X198.755Y-124.46
X199.39Y-85.09
X199.39Y-86.36
X200.025Y-87.63
X200.66Y-88.9
X200.66Y-92.075
X200.977Y-100.965
X201.295Y-118.745
X201.93Y-102.235
X201.93Y-115.57
X201.93Y-118.11
X201.93Y-120.65
X201.93Y-121.925
X202.565Y-82.55
X202.565Y-84.455
X202.565Y-85.725
X202.565Y-86.995
X202.565Y-88.265
X202.565Y-89.535
X202.565Y-90.805
X202.565Y-92.075
X202.565Y-93.345
X202.565Y-94.615
X202.565Y-95.885
X202.565Y-97.155
X202.565Y-98.425
X202.565Y-99.695
X202.565Y-102.87
X202.565Y-104.775
X202.565Y-106.045
X202.565Y-107.315
X202.565Y-108.585
X202.565Y-109.855
X202.565Y-111.125
X202.565Y-112.395
X202.565Y-113.665
X202.565Y-114.935
X202.565Y-117.475
X202.565Y-120.015
X202.565Y-121.285
X202.565Y-124.46
X202.57Y-123.195
T2
X167.64Y-110.49
X167.64Y-113.03
X167.64Y-115.57
X167.64Y-118.11
X167.64Y-120.65
X167.64Y-123.19
T0
M30
