G04 #@! TF.GenerationSoftware,KiCad,Pcbnew,6.0.8-f2edbf62ab~116~ubuntu22.04.1*
G04 #@! TF.CreationDate,2022-10-13T11:13:53+02:00*
G04 #@! TF.ProjectId,PCMCIA_SRAM,50434d43-4941-45f5-9352-414d2e6b6963,v1.0*
G04 #@! TF.SameCoordinates,Original*
G04 #@! TF.FileFunction,Soldermask,Top*
G04 #@! TF.FilePolarity,Negative*
%FSLAX46Y46*%
G04 Gerber Fmt 4.6, Leading zero omitted, Abs format (unit mm)*
G04 Created by KiCad (PCBNEW 6.0.8-f2edbf62ab~116~ubuntu22.04.1) date 2022-10-13 11:13:53*
%MOMM*%
%LPD*%
G01*
G04 APERTURE LIST*
G04 Aperture macros list*
%AMRoundRect*
0 Rectangle with rounded corners*
0 $1 Rounding radius*
0 $2 $3 $4 $5 $6 $7 $8 $9 X,Y pos of 4 corners*
0 Add a 4 corners polygon primitive as box body*
4,1,4,$2,$3,$4,$5,$6,$7,$8,$9,$2,$3,0*
0 Add four circle primitives for the rounded corners*
1,1,$1+$1,$2,$3*
1,1,$1+$1,$4,$5*
1,1,$1+$1,$6,$7*
1,1,$1+$1,$8,$9*
0 Add four rect primitives between the rounded corners*
20,1,$1+$1,$2,$3,$4,$5,0*
20,1,$1+$1,$4,$5,$6,$7,0*
20,1,$1+$1,$6,$7,$8,$9,0*
20,1,$1+$1,$8,$9,$2,$3,0*%
%AMFreePoly0*
4,1,37,0.536062,0.786062,0.551000,0.750000,0.551000,-0.750000,0.536062,-0.786062,0.500000,-0.801000,0.000000,-0.801000,-0.012525,-0.795812,-0.080875,-0.794559,-0.095149,-0.792248,-0.230464,-0.749973,-0.243516,-0.743747,-0.361526,-0.665192,-0.372306,-0.655554,-0.463526,-0.547035,-0.471167,-0.534759,-0.528262,-0.405000,-0.532150,-0.391073,-0.549733,-0.256613,-0.548336,-0.256430,-0.551000,-0.250000,
-0.551000,0.250000,-0.550512,0.251179,-0.550356,0.263956,-0.528545,0.404033,-0.524317,0.417860,-0.464069,0.546185,-0.456130,0.558271,-0.362286,0.664529,-0.351274,0.673901,-0.231379,0.749549,-0.218180,0.755454,-0.081873,0.794411,-0.067546,0.796373,-0.011990,0.796033,0.000000,0.801000,0.500000,0.801000,0.536062,0.786062,0.536062,0.786062,$1*%
%AMFreePoly1*
4,1,37,0.012349,0.795885,0.074216,0.795507,0.088518,0.793370,0.224339,0.752751,0.237465,0.746685,0.356427,0.669578,0.367324,0.660073,0.459862,0.552676,0.467652,0.540494,0.526329,0.411442,0.530388,0.397563,0.550485,0.257230,0.551000,0.250000,0.551000,-0.250000,0.550996,-0.250622,0.550847,-0.262838,0.550144,-0.270677,0.526624,-0.410478,0.522228,-0.424254,0.460416,-0.551833,
0.452330,-0.563821,0.357195,-0.668925,0.346069,-0.678161,0.225259,-0.752338,0.211989,-0.758081,0.075216,-0.795370,0.060866,-0.797157,0.011464,-0.796251,0.000000,-0.801000,-0.500000,-0.801000,-0.536062,-0.786062,-0.551000,-0.750000,-0.551000,0.750000,-0.536062,0.786062,-0.500000,0.801000,0.000000,0.801000,0.012349,0.795885,0.012349,0.795885,$1*%
%AMFreePoly2*
4,1,37,0.586062,0.786062,0.601000,0.750000,0.601000,-0.750000,0.586062,-0.786062,0.550000,-0.801000,0.000000,-0.801000,-0.012525,-0.795812,-0.080875,-0.794559,-0.095149,-0.792248,-0.230464,-0.749973,-0.243516,-0.743747,-0.361526,-0.665192,-0.372306,-0.655554,-0.463526,-0.547035,-0.471167,-0.534759,-0.528262,-0.405000,-0.532150,-0.391073,-0.549733,-0.256613,-0.548336,-0.256430,-0.551000,-0.250000,
-0.551000,0.250000,-0.550512,0.251179,-0.550356,0.263956,-0.528545,0.404033,-0.524317,0.417860,-0.464069,0.546185,-0.456130,0.558271,-0.362286,0.664529,-0.351274,0.673901,-0.231379,0.749549,-0.218180,0.755454,-0.081873,0.794411,-0.067546,0.796373,-0.011990,0.796033,0.000000,0.801000,0.550000,0.801000,0.586062,0.786062,0.586062,0.786062,$1*%
%AMFreePoly3*
4,1,37,0.012349,0.795885,0.074216,0.795507,0.088518,0.793370,0.224339,0.752751,0.237465,0.746685,0.356427,0.669578,0.367324,0.660073,0.459862,0.552676,0.467652,0.540494,0.526329,0.411442,0.530388,0.397563,0.550485,0.257230,0.551000,0.250000,0.551000,-0.250000,0.550996,-0.250622,0.550847,-0.262838,0.550144,-0.270677,0.526624,-0.410478,0.522228,-0.424254,0.460416,-0.551833,
0.452330,-0.563821,0.357195,-0.668925,0.346069,-0.678161,0.225259,-0.752338,0.211989,-0.758081,0.075216,-0.795370,0.060866,-0.797157,0.011464,-0.796251,0.000000,-0.801000,-0.550000,-0.801000,-0.586062,-0.786062,-0.601000,-0.750000,-0.601000,0.750000,-0.586062,0.786062,-0.550000,0.801000,0.000000,0.801000,0.012349,0.795885,0.012349,0.795885,$1*%
G04 Aperture macros list end*
%ADD10RoundRect,0.051000X-0.035355X-0.601041X0.601041X0.035355X0.035355X0.601041X-0.601041X-0.035355X0*%
%ADD11RoundRect,0.051000X-1.500000X0.300000X-1.500000X-0.300000X1.500000X-0.300000X1.500000X0.300000X0*%
%ADD12FreePoly0,180.000000*%
%ADD13FreePoly1,180.000000*%
%ADD14FreePoly0,0.000000*%
%ADD15FreePoly1,0.000000*%
%ADD16FreePoly2,0.000000*%
%ADD17RoundRect,0.051000X-0.500000X-0.750000X0.500000X-0.750000X0.500000X0.750000X-0.500000X0.750000X0*%
%ADD18FreePoly3,0.000000*%
%ADD19FreePoly2,180.000000*%
%ADD20RoundRect,0.051000X0.500000X0.750000X-0.500000X0.750000X-0.500000X-0.750000X0.500000X-0.750000X0*%
%ADD21FreePoly3,180.000000*%
%ADD22RoundRect,0.051000X-0.550000X-0.125000X0.550000X-0.125000X0.550000X0.125000X-0.550000X0.125000X0*%
%ADD23RoundRect,0.188500X-0.600000X-0.137500X0.600000X-0.137500X0.600000X0.137500X-0.600000X0.137500X0*%
%ADD24RoundRect,0.188500X-0.137500X-0.600000X0.137500X-0.600000X0.137500X0.600000X-0.137500X0.600000X0*%
%ADD25RoundRect,0.201000X-0.150000X0.512500X-0.150000X-0.512500X0.150000X-0.512500X0.150000X0.512500X0*%
%ADD26RoundRect,0.051000X-0.850000X-0.850000X0.850000X-0.850000X0.850000X0.850000X-0.850000X0.850000X0*%
%ADD27O,1.802000X1.802000*%
%ADD28RoundRect,0.301000X-0.250000X-0.475000X0.250000X-0.475000X0.250000X0.475000X-0.250000X0.475000X0*%
%ADD29RoundRect,0.301000X0.250000X0.475000X-0.250000X0.475000X-0.250000X-0.475000X0.250000X-0.475000X0*%
%ADD30RoundRect,0.301000X0.475000X-0.250000X0.475000X0.250000X-0.475000X0.250000X-0.475000X-0.250000X0*%
G04 APERTURE END LIST*
D10*
X194836142Y-116240355D03*
X196179645Y-117583858D03*
X196922107Y-115497893D03*
D11*
X205025000Y-124465000D03*
X205025000Y-123195000D03*
X205025000Y-121925000D03*
X205025000Y-120655000D03*
X205025000Y-119385000D03*
X205025000Y-118115000D03*
X205025000Y-116845000D03*
X205025000Y-115575000D03*
X205025000Y-114305000D03*
X205025000Y-113035000D03*
X205025000Y-111765000D03*
X205025000Y-110495000D03*
X205025000Y-109225000D03*
X205025000Y-107955000D03*
X205025000Y-106685000D03*
X205025000Y-105415000D03*
X205025000Y-104145000D03*
X205025000Y-102875000D03*
X205025000Y-101605000D03*
X205025000Y-100335000D03*
X205025000Y-99065000D03*
X205025000Y-97795000D03*
X205025000Y-96525000D03*
X205025000Y-95255000D03*
X205025000Y-93985000D03*
X205025000Y-92715000D03*
X205025000Y-91445000D03*
X205025000Y-90175000D03*
X205025000Y-88905000D03*
X205025000Y-87635000D03*
X205025000Y-86365000D03*
X205025000Y-85095000D03*
X205025000Y-83825000D03*
X205025000Y-82555000D03*
D12*
X170068000Y-82550000D03*
D13*
X168768000Y-82550000D03*
D12*
X173370000Y-82550000D03*
D13*
X172070000Y-82550000D03*
D14*
X175372000Y-82550000D03*
D15*
X176672000Y-82550000D03*
D16*
X171420000Y-111125000D03*
D17*
X172720000Y-111125000D03*
D18*
X174020000Y-111125000D03*
D19*
X192435000Y-124460000D03*
D20*
X191135000Y-124460000D03*
D21*
X189835000Y-124460000D03*
D19*
X197515000Y-124460000D03*
D20*
X196215000Y-124460000D03*
D21*
X194915000Y-124460000D03*
D19*
X181322500Y-82550000D03*
D20*
X180022500Y-82550000D03*
D21*
X178722500Y-82550000D03*
D22*
X166780000Y-84420000D03*
X166780000Y-84920000D03*
X166780000Y-85420000D03*
X166780000Y-85920000D03*
X166780000Y-86420000D03*
X166780000Y-86920000D03*
X166780000Y-87420000D03*
X166780000Y-87920000D03*
X166780000Y-88420000D03*
X166780000Y-88920000D03*
X166780000Y-89420000D03*
X166780000Y-89920000D03*
X166780000Y-90420000D03*
X166780000Y-90920000D03*
X166780000Y-91420000D03*
X166780000Y-91920000D03*
X166780000Y-92420000D03*
X166780000Y-92920000D03*
X166780000Y-93420000D03*
X166780000Y-93920000D03*
X166780000Y-94420000D03*
X166780000Y-94920000D03*
X166780000Y-95420000D03*
X166780000Y-95920000D03*
X186280000Y-95920000D03*
X186280000Y-95420000D03*
X186280000Y-94920000D03*
X186280000Y-94420000D03*
X186280000Y-93920000D03*
X186280000Y-93420000D03*
X186280000Y-92920000D03*
X186280000Y-92420000D03*
X186280000Y-91920000D03*
X186280000Y-91420000D03*
X186280000Y-90920000D03*
X186280000Y-90420000D03*
X186280000Y-89920000D03*
X186280000Y-89420000D03*
X186280000Y-88920000D03*
X186280000Y-88420000D03*
X186280000Y-87920000D03*
X186280000Y-87420000D03*
X186280000Y-86920000D03*
X186280000Y-86420000D03*
X186280000Y-85920000D03*
X186280000Y-85420000D03*
X186280000Y-84920000D03*
X186280000Y-84420000D03*
X177575000Y-97755000D03*
X177575000Y-98255000D03*
X177575000Y-98755000D03*
X177575000Y-99255000D03*
X177575000Y-99755000D03*
X177575000Y-100255000D03*
X177575000Y-100755000D03*
X177575000Y-101255000D03*
X177575000Y-101755000D03*
X177575000Y-102255000D03*
X177575000Y-102755000D03*
X177575000Y-103255000D03*
X177575000Y-103755000D03*
X177575000Y-104255000D03*
X177575000Y-104755000D03*
X177575000Y-105255000D03*
X177575000Y-105755000D03*
X177575000Y-106255000D03*
X177575000Y-106755000D03*
X177575000Y-107255000D03*
X177575000Y-107755000D03*
X177575000Y-108255000D03*
X177575000Y-108755000D03*
X177575000Y-109255000D03*
X197075000Y-109255000D03*
X197075000Y-108755000D03*
X197075000Y-108255000D03*
X197075000Y-107755000D03*
X197075000Y-107255000D03*
X197075000Y-106755000D03*
X197075000Y-106255000D03*
X197075000Y-105755000D03*
X197075000Y-105255000D03*
X197075000Y-104755000D03*
X197075000Y-104255000D03*
X197075000Y-103755000D03*
X197075000Y-103255000D03*
X197075000Y-102755000D03*
X197075000Y-102255000D03*
X197075000Y-101755000D03*
X197075000Y-101255000D03*
X197075000Y-100755000D03*
X197075000Y-100255000D03*
X197075000Y-99755000D03*
X197075000Y-99255000D03*
X197075000Y-98755000D03*
X197075000Y-98255000D03*
X197075000Y-97755000D03*
D23*
X176582500Y-114110000D03*
X176582500Y-114910000D03*
X176582500Y-115710000D03*
X176582500Y-116510000D03*
X176582500Y-117310000D03*
X176582500Y-118110000D03*
X176582500Y-118910000D03*
X176582500Y-119710000D03*
X176582500Y-120510000D03*
X176582500Y-121310000D03*
X176582500Y-122110000D03*
D24*
X178245000Y-123772500D03*
X179045000Y-123772500D03*
X179845000Y-123772500D03*
X180645000Y-123772500D03*
X181445000Y-123772500D03*
X182245000Y-123772500D03*
X183045000Y-123772500D03*
X183845000Y-123772500D03*
X184645000Y-123772500D03*
X185445000Y-123772500D03*
X186245000Y-123772500D03*
D23*
X187907500Y-122110000D03*
X187907500Y-121310000D03*
X187907500Y-120510000D03*
X187907500Y-119710000D03*
X187907500Y-118910000D03*
X187907500Y-118110000D03*
X187907500Y-117310000D03*
X187907500Y-116510000D03*
X187907500Y-115710000D03*
X187907500Y-114910000D03*
X187907500Y-114110000D03*
D24*
X186245000Y-112447500D03*
X185445000Y-112447500D03*
X184645000Y-112447500D03*
X183845000Y-112447500D03*
X183045000Y-112447500D03*
X182245000Y-112447500D03*
X181445000Y-112447500D03*
X180645000Y-112447500D03*
X179845000Y-112447500D03*
X179045000Y-112447500D03*
X178245000Y-112447500D03*
D25*
X195818800Y-115092900D03*
X194868800Y-115092900D03*
X193918800Y-115092900D03*
X193918800Y-117367900D03*
X195818800Y-117367900D03*
D26*
X167640000Y-110490000D03*
D27*
X167640000Y-113030000D03*
X167640000Y-115570000D03*
X167640000Y-118110000D03*
X167640000Y-120650000D03*
X167640000Y-123190000D03*
D28*
X190487500Y-112395000D03*
X192387500Y-112395000D03*
X190517500Y-120015000D03*
X192417500Y-120015000D03*
D29*
X175575000Y-124460000D03*
X173675000Y-124460000D03*
D28*
X183200000Y-82550000D03*
X185100000Y-82550000D03*
D30*
X199961500Y-104074000D03*
X199961500Y-102174000D03*
D28*
X194630000Y-120015000D03*
X196530000Y-120015000D03*
X194630000Y-112395000D03*
X196530000Y-112395000D03*
G36*
X195505660Y-123677493D02*
G01*
X195519452Y-123686709D01*
X195520615Y-123684969D01*
X195522409Y-123684084D01*
X195523560Y-123684545D01*
X195540952Y-123699078D01*
X195609670Y-123707704D01*
X195657288Y-123684918D01*
X195659282Y-123685072D01*
X195659814Y-123685611D01*
X195660548Y-123686709D01*
X195674340Y-123677493D01*
X195676336Y-123677362D01*
X195677447Y-123679025D01*
X195677114Y-123680267D01*
X195669767Y-123691262D01*
X195666000Y-123710199D01*
X195666000Y-125209801D01*
X195669767Y-125228738D01*
X195677114Y-125239733D01*
X195677245Y-125241729D01*
X195675582Y-125242840D01*
X195674340Y-125242507D01*
X195660548Y-125233291D01*
X195659385Y-125235031D01*
X195657591Y-125235916D01*
X195656440Y-125235455D01*
X195639048Y-125220922D01*
X195570330Y-125212296D01*
X195522712Y-125235082D01*
X195520718Y-125234928D01*
X195520186Y-125234389D01*
X195519452Y-125233291D01*
X195505660Y-125242507D01*
X195503664Y-125242638D01*
X195502553Y-125240975D01*
X195502886Y-125239733D01*
X195510233Y-125228738D01*
X195514000Y-125209801D01*
X195514000Y-123710199D01*
X195510233Y-123691262D01*
X195502886Y-123680267D01*
X195502755Y-123678271D01*
X195504418Y-123677160D01*
X195505660Y-123677493D01*
G37*
G36*
X190425660Y-123677493D02*
G01*
X190439452Y-123686709D01*
X190440615Y-123684969D01*
X190442409Y-123684084D01*
X190443560Y-123684545D01*
X190460952Y-123699078D01*
X190529670Y-123707704D01*
X190577288Y-123684918D01*
X190579282Y-123685072D01*
X190579814Y-123685611D01*
X190580548Y-123686709D01*
X190594340Y-123677493D01*
X190596336Y-123677362D01*
X190597447Y-123679025D01*
X190597114Y-123680267D01*
X190589767Y-123691262D01*
X190586000Y-123710199D01*
X190586000Y-125209801D01*
X190589767Y-125228738D01*
X190597114Y-125239733D01*
X190597245Y-125241729D01*
X190595582Y-125242840D01*
X190594340Y-125242507D01*
X190580548Y-125233291D01*
X190579385Y-125235031D01*
X190577591Y-125235916D01*
X190576440Y-125235455D01*
X190559048Y-125220922D01*
X190490330Y-125212296D01*
X190442712Y-125235082D01*
X190440718Y-125234928D01*
X190440186Y-125234389D01*
X190439452Y-125233291D01*
X190425660Y-125242507D01*
X190423664Y-125242638D01*
X190422553Y-125240975D01*
X190422886Y-125239733D01*
X190430233Y-125228738D01*
X190434000Y-125209801D01*
X190434000Y-123710199D01*
X190430233Y-123691262D01*
X190422886Y-123680267D01*
X190422755Y-123678271D01*
X190424418Y-123677160D01*
X190425660Y-123677493D01*
G37*
G36*
X196755660Y-123677493D02*
G01*
X196769452Y-123686709D01*
X196770615Y-123684969D01*
X196772409Y-123684084D01*
X196773560Y-123684545D01*
X196790952Y-123699078D01*
X196859670Y-123707704D01*
X196907288Y-123684918D01*
X196909282Y-123685072D01*
X196909814Y-123685611D01*
X196910548Y-123686709D01*
X196924340Y-123677493D01*
X196926336Y-123677362D01*
X196927447Y-123679025D01*
X196927114Y-123680267D01*
X196919767Y-123691262D01*
X196916000Y-123710199D01*
X196916000Y-125209801D01*
X196919767Y-125228738D01*
X196927114Y-125239733D01*
X196927245Y-125241729D01*
X196925582Y-125242840D01*
X196924340Y-125242507D01*
X196910548Y-125233291D01*
X196909385Y-125235031D01*
X196907591Y-125235916D01*
X196906440Y-125235455D01*
X196889048Y-125220922D01*
X196820330Y-125212296D01*
X196772712Y-125235082D01*
X196770718Y-125234928D01*
X196770186Y-125234389D01*
X196769452Y-125233291D01*
X196755660Y-125242507D01*
X196753664Y-125242638D01*
X196752553Y-125240975D01*
X196752886Y-125239733D01*
X196760233Y-125228738D01*
X196764000Y-125209801D01*
X196764000Y-123710199D01*
X196760233Y-123691262D01*
X196752886Y-123680267D01*
X196752755Y-123678271D01*
X196754418Y-123677160D01*
X196755660Y-123677493D01*
G37*
G36*
X191675660Y-123677493D02*
G01*
X191689452Y-123686709D01*
X191690615Y-123684969D01*
X191692409Y-123684084D01*
X191693560Y-123684545D01*
X191710952Y-123699078D01*
X191779670Y-123707704D01*
X191827288Y-123684918D01*
X191829282Y-123685072D01*
X191829814Y-123685611D01*
X191830548Y-123686709D01*
X191844340Y-123677493D01*
X191846336Y-123677362D01*
X191847447Y-123679025D01*
X191847114Y-123680267D01*
X191839767Y-123691262D01*
X191836000Y-123710199D01*
X191836000Y-125209801D01*
X191839767Y-125228738D01*
X191847114Y-125239733D01*
X191847245Y-125241729D01*
X191845582Y-125242840D01*
X191844340Y-125242507D01*
X191830548Y-125233291D01*
X191829385Y-125235031D01*
X191827591Y-125235916D01*
X191826440Y-125235455D01*
X191809048Y-125220922D01*
X191740330Y-125212296D01*
X191692712Y-125235082D01*
X191690718Y-125234928D01*
X191690186Y-125234389D01*
X191689452Y-125233291D01*
X191675660Y-125242507D01*
X191673664Y-125242638D01*
X191672553Y-125240975D01*
X191672886Y-125239733D01*
X191680233Y-125228738D01*
X191684000Y-125209801D01*
X191684000Y-123710199D01*
X191680233Y-123691262D01*
X191672886Y-123680267D01*
X191672755Y-123678271D01*
X191674418Y-123677160D01*
X191675660Y-123677493D01*
G37*
G36*
X180130769Y-123058098D02*
G01*
X180151316Y-123078645D01*
X180152152Y-123078421D01*
X180153135Y-123079031D01*
X180179372Y-123108828D01*
X180245976Y-123127812D01*
X180312279Y-123107771D01*
X180337024Y-123079213D01*
X180338694Y-123078635D01*
X180359231Y-123058098D01*
X180361163Y-123057580D01*
X180362577Y-123058994D01*
X180362308Y-123060623D01*
X180335234Y-123101143D01*
X180321000Y-123172699D01*
X180321000Y-124372301D01*
X180335234Y-124443857D01*
X180362308Y-124484377D01*
X180362439Y-124486373D01*
X180360776Y-124487484D01*
X180359231Y-124486902D01*
X180338684Y-124466355D01*
X180337848Y-124466579D01*
X180336865Y-124465969D01*
X180310628Y-124436172D01*
X180244024Y-124417188D01*
X180177721Y-124437229D01*
X180152976Y-124465787D01*
X180151306Y-124466365D01*
X180130769Y-124486902D01*
X180128837Y-124487420D01*
X180127423Y-124486006D01*
X180127692Y-124484377D01*
X180154766Y-124443857D01*
X180169000Y-124372301D01*
X180169000Y-123172699D01*
X180154766Y-123101143D01*
X180127692Y-123060623D01*
X180127561Y-123058627D01*
X180129224Y-123057516D01*
X180130769Y-123058098D01*
G37*
G36*
X180930769Y-123058098D02*
G01*
X180951316Y-123078645D01*
X180952152Y-123078421D01*
X180953135Y-123079031D01*
X180979372Y-123108828D01*
X181045976Y-123127812D01*
X181112279Y-123107771D01*
X181137024Y-123079213D01*
X181138694Y-123078635D01*
X181159231Y-123058098D01*
X181161163Y-123057580D01*
X181162577Y-123058994D01*
X181162308Y-123060623D01*
X181135234Y-123101143D01*
X181121000Y-123172699D01*
X181121000Y-124372301D01*
X181135234Y-124443857D01*
X181162308Y-124484377D01*
X181162439Y-124486373D01*
X181160776Y-124487484D01*
X181159231Y-124486902D01*
X181138684Y-124466355D01*
X181137848Y-124466579D01*
X181136865Y-124465969D01*
X181110628Y-124436172D01*
X181044024Y-124417188D01*
X180977721Y-124437229D01*
X180952976Y-124465787D01*
X180951306Y-124466365D01*
X180930769Y-124486902D01*
X180928837Y-124487420D01*
X180927423Y-124486006D01*
X180927692Y-124484377D01*
X180954766Y-124443857D01*
X180969000Y-124372301D01*
X180969000Y-123172699D01*
X180954766Y-123101143D01*
X180927692Y-123060623D01*
X180927561Y-123058627D01*
X180929224Y-123057516D01*
X180930769Y-123058098D01*
G37*
G36*
X184930769Y-123058098D02*
G01*
X184951316Y-123078645D01*
X184952152Y-123078421D01*
X184953135Y-123079031D01*
X184979372Y-123108828D01*
X185045976Y-123127812D01*
X185112279Y-123107771D01*
X185137024Y-123079213D01*
X185138694Y-123078635D01*
X185159231Y-123058098D01*
X185161163Y-123057580D01*
X185162577Y-123058994D01*
X185162308Y-123060623D01*
X185135234Y-123101143D01*
X185121000Y-123172699D01*
X185121000Y-124372301D01*
X185135234Y-124443857D01*
X185162308Y-124484377D01*
X185162439Y-124486373D01*
X185160776Y-124487484D01*
X185159231Y-124486902D01*
X185138684Y-124466355D01*
X185137848Y-124466579D01*
X185136865Y-124465969D01*
X185110628Y-124436172D01*
X185044024Y-124417188D01*
X184977721Y-124437229D01*
X184952976Y-124465787D01*
X184951306Y-124466365D01*
X184930769Y-124486902D01*
X184928837Y-124487420D01*
X184927423Y-124486006D01*
X184927692Y-124484377D01*
X184954766Y-124443857D01*
X184969000Y-124372301D01*
X184969000Y-123172699D01*
X184954766Y-123101143D01*
X184927692Y-123060623D01*
X184927561Y-123058627D01*
X184929224Y-123057516D01*
X184930769Y-123058098D01*
G37*
G36*
X182530769Y-123058098D02*
G01*
X182551316Y-123078645D01*
X182552152Y-123078421D01*
X182553135Y-123079031D01*
X182579372Y-123108828D01*
X182645976Y-123127812D01*
X182712279Y-123107771D01*
X182737024Y-123079213D01*
X182738694Y-123078635D01*
X182759231Y-123058098D01*
X182761163Y-123057580D01*
X182762577Y-123058994D01*
X182762308Y-123060623D01*
X182735234Y-123101143D01*
X182721000Y-123172699D01*
X182721000Y-124372301D01*
X182735234Y-124443857D01*
X182762308Y-124484377D01*
X182762439Y-124486373D01*
X182760776Y-124487484D01*
X182759231Y-124486902D01*
X182738684Y-124466355D01*
X182737848Y-124466579D01*
X182736865Y-124465969D01*
X182710628Y-124436172D01*
X182644024Y-124417188D01*
X182577721Y-124437229D01*
X182552976Y-124465787D01*
X182551306Y-124466365D01*
X182530769Y-124486902D01*
X182528837Y-124487420D01*
X182527423Y-124486006D01*
X182527692Y-124484377D01*
X182554766Y-124443857D01*
X182569000Y-124372301D01*
X182569000Y-123172699D01*
X182554766Y-123101143D01*
X182527692Y-123060623D01*
X182527561Y-123058627D01*
X182529224Y-123057516D01*
X182530769Y-123058098D01*
G37*
G36*
X185730769Y-123058098D02*
G01*
X185751316Y-123078645D01*
X185752152Y-123078421D01*
X185753135Y-123079031D01*
X185779372Y-123108828D01*
X185845976Y-123127812D01*
X185912279Y-123107771D01*
X185937024Y-123079213D01*
X185938694Y-123078635D01*
X185959231Y-123058098D01*
X185961163Y-123057580D01*
X185962577Y-123058994D01*
X185962308Y-123060623D01*
X185935234Y-123101143D01*
X185921000Y-123172699D01*
X185921000Y-124372301D01*
X185935234Y-124443857D01*
X185962308Y-124484377D01*
X185962439Y-124486373D01*
X185960776Y-124487484D01*
X185959231Y-124486902D01*
X185938684Y-124466355D01*
X185937848Y-124466579D01*
X185936865Y-124465969D01*
X185910628Y-124436172D01*
X185844024Y-124417188D01*
X185777721Y-124437229D01*
X185752976Y-124465787D01*
X185751306Y-124466365D01*
X185730769Y-124486902D01*
X185728837Y-124487420D01*
X185727423Y-124486006D01*
X185727692Y-124484377D01*
X185754766Y-124443857D01*
X185769000Y-124372301D01*
X185769000Y-123172699D01*
X185754766Y-123101143D01*
X185727692Y-123060623D01*
X185727561Y-123058627D01*
X185729224Y-123057516D01*
X185730769Y-123058098D01*
G37*
G36*
X181730769Y-123058098D02*
G01*
X181751316Y-123078645D01*
X181752152Y-123078421D01*
X181753135Y-123079031D01*
X181779372Y-123108828D01*
X181845976Y-123127812D01*
X181912279Y-123107771D01*
X181937024Y-123079213D01*
X181938694Y-123078635D01*
X181959231Y-123058098D01*
X181961163Y-123057580D01*
X181962577Y-123058994D01*
X181962308Y-123060623D01*
X181935234Y-123101143D01*
X181921000Y-123172699D01*
X181921000Y-124372301D01*
X181935234Y-124443857D01*
X181962308Y-124484377D01*
X181962439Y-124486373D01*
X181960776Y-124487484D01*
X181959231Y-124486902D01*
X181938684Y-124466355D01*
X181937848Y-124466579D01*
X181936865Y-124465969D01*
X181910628Y-124436172D01*
X181844024Y-124417188D01*
X181777721Y-124437229D01*
X181752976Y-124465787D01*
X181751306Y-124466365D01*
X181730769Y-124486902D01*
X181728837Y-124487420D01*
X181727423Y-124486006D01*
X181727692Y-124484377D01*
X181754766Y-124443857D01*
X181769000Y-124372301D01*
X181769000Y-123172699D01*
X181754766Y-123101143D01*
X181727692Y-123060623D01*
X181727561Y-123058627D01*
X181729224Y-123057516D01*
X181730769Y-123058098D01*
G37*
G36*
X179330769Y-123058098D02*
G01*
X179351316Y-123078645D01*
X179352152Y-123078421D01*
X179353135Y-123079031D01*
X179379372Y-123108828D01*
X179445976Y-123127812D01*
X179512279Y-123107771D01*
X179537024Y-123079213D01*
X179538694Y-123078635D01*
X179559231Y-123058098D01*
X179561163Y-123057580D01*
X179562577Y-123058994D01*
X179562308Y-123060623D01*
X179535234Y-123101143D01*
X179521000Y-123172699D01*
X179521000Y-124372301D01*
X179535234Y-124443857D01*
X179562308Y-124484377D01*
X179562439Y-124486373D01*
X179560776Y-124487484D01*
X179559231Y-124486902D01*
X179538684Y-124466355D01*
X179537848Y-124466579D01*
X179536865Y-124465969D01*
X179510628Y-124436172D01*
X179444024Y-124417188D01*
X179377721Y-124437229D01*
X179352976Y-124465787D01*
X179351306Y-124466365D01*
X179330769Y-124486902D01*
X179328837Y-124487420D01*
X179327423Y-124486006D01*
X179327692Y-124484377D01*
X179354766Y-124443857D01*
X179369000Y-124372301D01*
X179369000Y-123172699D01*
X179354766Y-123101143D01*
X179327692Y-123060623D01*
X179327561Y-123058627D01*
X179329224Y-123057516D01*
X179330769Y-123058098D01*
G37*
G36*
X178530769Y-123058098D02*
G01*
X178551316Y-123078645D01*
X178552152Y-123078421D01*
X178553135Y-123079031D01*
X178579372Y-123108828D01*
X178645976Y-123127812D01*
X178712279Y-123107771D01*
X178737024Y-123079213D01*
X178738694Y-123078635D01*
X178759231Y-123058098D01*
X178761163Y-123057580D01*
X178762577Y-123058994D01*
X178762308Y-123060623D01*
X178735234Y-123101143D01*
X178721000Y-123172699D01*
X178721000Y-124372301D01*
X178735234Y-124443857D01*
X178762308Y-124484377D01*
X178762439Y-124486373D01*
X178760776Y-124487484D01*
X178759231Y-124486902D01*
X178738684Y-124466355D01*
X178737848Y-124466579D01*
X178736865Y-124465969D01*
X178710628Y-124436172D01*
X178644024Y-124417188D01*
X178577721Y-124437229D01*
X178552976Y-124465787D01*
X178551306Y-124466365D01*
X178530769Y-124486902D01*
X178528837Y-124487420D01*
X178527423Y-124486006D01*
X178527692Y-124484377D01*
X178554766Y-124443857D01*
X178569000Y-124372301D01*
X178569000Y-123172699D01*
X178554766Y-123101143D01*
X178527692Y-123060623D01*
X178527561Y-123058627D01*
X178529224Y-123057516D01*
X178530769Y-123058098D01*
G37*
G36*
X183330769Y-123058098D02*
G01*
X183351316Y-123078645D01*
X183352152Y-123078421D01*
X183353135Y-123079031D01*
X183379372Y-123108828D01*
X183445976Y-123127812D01*
X183512279Y-123107771D01*
X183537024Y-123079213D01*
X183538694Y-123078635D01*
X183559231Y-123058098D01*
X183561163Y-123057580D01*
X183562577Y-123058994D01*
X183562308Y-123060623D01*
X183535234Y-123101143D01*
X183521000Y-123172699D01*
X183521000Y-124372301D01*
X183535234Y-124443857D01*
X183562308Y-124484377D01*
X183562439Y-124486373D01*
X183560776Y-124487484D01*
X183559231Y-124486902D01*
X183538684Y-124466355D01*
X183537848Y-124466579D01*
X183536865Y-124465969D01*
X183510628Y-124436172D01*
X183444024Y-124417188D01*
X183377721Y-124437229D01*
X183352976Y-124465787D01*
X183351306Y-124466365D01*
X183330769Y-124486902D01*
X183328837Y-124487420D01*
X183327423Y-124486006D01*
X183327692Y-124484377D01*
X183354766Y-124443857D01*
X183369000Y-124372301D01*
X183369000Y-123172699D01*
X183354766Y-123101143D01*
X183327692Y-123060623D01*
X183327561Y-123058627D01*
X183329224Y-123057516D01*
X183330769Y-123058098D01*
G37*
G36*
X184130769Y-123058098D02*
G01*
X184151316Y-123078645D01*
X184152152Y-123078421D01*
X184153135Y-123079031D01*
X184179372Y-123108828D01*
X184245976Y-123127812D01*
X184312279Y-123107771D01*
X184337024Y-123079213D01*
X184338694Y-123078635D01*
X184359231Y-123058098D01*
X184361163Y-123057580D01*
X184362577Y-123058994D01*
X184362308Y-123060623D01*
X184335234Y-123101143D01*
X184321000Y-123172699D01*
X184321000Y-124372301D01*
X184335234Y-124443857D01*
X184362308Y-124484377D01*
X184362439Y-124486373D01*
X184360776Y-124487484D01*
X184359231Y-124486902D01*
X184338684Y-124466355D01*
X184337848Y-124466579D01*
X184336865Y-124465969D01*
X184310628Y-124436172D01*
X184244024Y-124417188D01*
X184177721Y-124437229D01*
X184152976Y-124465787D01*
X184151306Y-124466365D01*
X184130769Y-124486902D01*
X184128837Y-124487420D01*
X184127423Y-124486006D01*
X184127692Y-124484377D01*
X184154766Y-124443857D01*
X184169000Y-124372301D01*
X184169000Y-123172699D01*
X184154766Y-123101143D01*
X184127692Y-123060623D01*
X184127561Y-123058627D01*
X184129224Y-123057516D01*
X184130769Y-123058098D01*
G37*
G36*
X187195623Y-121592692D02*
G01*
X187236143Y-121619766D01*
X187307699Y-121634000D01*
X188507301Y-121634000D01*
X188578857Y-121619766D01*
X188619377Y-121592692D01*
X188621373Y-121592561D01*
X188622484Y-121594224D01*
X188621902Y-121595769D01*
X188601355Y-121616316D01*
X188601579Y-121617152D01*
X188600969Y-121618135D01*
X188571172Y-121644372D01*
X188552188Y-121710976D01*
X188572229Y-121777279D01*
X188600787Y-121802024D01*
X188601365Y-121803694D01*
X188621902Y-121824231D01*
X188622420Y-121826163D01*
X188621006Y-121827577D01*
X188619377Y-121827308D01*
X188578857Y-121800234D01*
X188507301Y-121786000D01*
X187307699Y-121786000D01*
X187236143Y-121800234D01*
X187195623Y-121827308D01*
X187193627Y-121827439D01*
X187192516Y-121825776D01*
X187193098Y-121824231D01*
X187213645Y-121803684D01*
X187213421Y-121802848D01*
X187214031Y-121801865D01*
X187243828Y-121775628D01*
X187262812Y-121709024D01*
X187242771Y-121642721D01*
X187214213Y-121617976D01*
X187213635Y-121616306D01*
X187193098Y-121595769D01*
X187192580Y-121593837D01*
X187193994Y-121592423D01*
X187195623Y-121592692D01*
G37*
G36*
X175870623Y-121592692D02*
G01*
X175911143Y-121619766D01*
X175982699Y-121634000D01*
X177182301Y-121634000D01*
X177253857Y-121619766D01*
X177294377Y-121592692D01*
X177296373Y-121592561D01*
X177297484Y-121594224D01*
X177296902Y-121595769D01*
X177276355Y-121616316D01*
X177276579Y-121617152D01*
X177275969Y-121618135D01*
X177246172Y-121644372D01*
X177227188Y-121710976D01*
X177247229Y-121777279D01*
X177275787Y-121802024D01*
X177276365Y-121803694D01*
X177296902Y-121824231D01*
X177297420Y-121826163D01*
X177296006Y-121827577D01*
X177294377Y-121827308D01*
X177253857Y-121800234D01*
X177182301Y-121786000D01*
X175982699Y-121786000D01*
X175911143Y-121800234D01*
X175870623Y-121827308D01*
X175868627Y-121827439D01*
X175867516Y-121825776D01*
X175868098Y-121824231D01*
X175888645Y-121803684D01*
X175888421Y-121802848D01*
X175889031Y-121801865D01*
X175918828Y-121775628D01*
X175937812Y-121709024D01*
X175917771Y-121642721D01*
X175889213Y-121617976D01*
X175888635Y-121616306D01*
X175868098Y-121595769D01*
X175867580Y-121593837D01*
X175868994Y-121592423D01*
X175870623Y-121592692D01*
G37*
G36*
X187195623Y-120792692D02*
G01*
X187236143Y-120819766D01*
X187307699Y-120834000D01*
X188507301Y-120834000D01*
X188578857Y-120819766D01*
X188619377Y-120792692D01*
X188621373Y-120792561D01*
X188622484Y-120794224D01*
X188621902Y-120795769D01*
X188601355Y-120816316D01*
X188601579Y-120817152D01*
X188600969Y-120818135D01*
X188571172Y-120844372D01*
X188552188Y-120910976D01*
X188572229Y-120977279D01*
X188600787Y-121002024D01*
X188601365Y-121003694D01*
X188621902Y-121024231D01*
X188622420Y-121026163D01*
X188621006Y-121027577D01*
X188619377Y-121027308D01*
X188578857Y-121000234D01*
X188507301Y-120986000D01*
X187307699Y-120986000D01*
X187236143Y-121000234D01*
X187195623Y-121027308D01*
X187193627Y-121027439D01*
X187192516Y-121025776D01*
X187193098Y-121024231D01*
X187213645Y-121003684D01*
X187213421Y-121002848D01*
X187214031Y-121001865D01*
X187243828Y-120975628D01*
X187262812Y-120909024D01*
X187242771Y-120842721D01*
X187214213Y-120817976D01*
X187213635Y-120816306D01*
X187193098Y-120795769D01*
X187192580Y-120793837D01*
X187193994Y-120792423D01*
X187195623Y-120792692D01*
G37*
G36*
X175870623Y-120792692D02*
G01*
X175911143Y-120819766D01*
X175982699Y-120834000D01*
X177182301Y-120834000D01*
X177253857Y-120819766D01*
X177294377Y-120792692D01*
X177296373Y-120792561D01*
X177297484Y-120794224D01*
X177296902Y-120795769D01*
X177276355Y-120816316D01*
X177276579Y-120817152D01*
X177275969Y-120818135D01*
X177246172Y-120844372D01*
X177227188Y-120910976D01*
X177247229Y-120977279D01*
X177275787Y-121002024D01*
X177276365Y-121003694D01*
X177296902Y-121024231D01*
X177297420Y-121026163D01*
X177296006Y-121027577D01*
X177294377Y-121027308D01*
X177253857Y-121000234D01*
X177182301Y-120986000D01*
X175982699Y-120986000D01*
X175911143Y-121000234D01*
X175870623Y-121027308D01*
X175868627Y-121027439D01*
X175867516Y-121025776D01*
X175868098Y-121024231D01*
X175888645Y-121003684D01*
X175888421Y-121002848D01*
X175889031Y-121001865D01*
X175918828Y-120975628D01*
X175937812Y-120909024D01*
X175917771Y-120842721D01*
X175889213Y-120817976D01*
X175888635Y-120816306D01*
X175868098Y-120795769D01*
X175867580Y-120793837D01*
X175868994Y-120792423D01*
X175870623Y-120792692D01*
G37*
G36*
X187195623Y-119992692D02*
G01*
X187236143Y-120019766D01*
X187307699Y-120034000D01*
X188507301Y-120034000D01*
X188578857Y-120019766D01*
X188619377Y-119992692D01*
X188621373Y-119992561D01*
X188622484Y-119994224D01*
X188621902Y-119995769D01*
X188601355Y-120016316D01*
X188601579Y-120017152D01*
X188600969Y-120018135D01*
X188571172Y-120044372D01*
X188552188Y-120110976D01*
X188572229Y-120177279D01*
X188600787Y-120202024D01*
X188601365Y-120203694D01*
X188621902Y-120224231D01*
X188622420Y-120226163D01*
X188621006Y-120227577D01*
X188619377Y-120227308D01*
X188578857Y-120200234D01*
X188507301Y-120186000D01*
X187307699Y-120186000D01*
X187236143Y-120200234D01*
X187195623Y-120227308D01*
X187193627Y-120227439D01*
X187192516Y-120225776D01*
X187193098Y-120224231D01*
X187213645Y-120203684D01*
X187213421Y-120202848D01*
X187214031Y-120201865D01*
X187243828Y-120175628D01*
X187262812Y-120109024D01*
X187242771Y-120042721D01*
X187214213Y-120017976D01*
X187213635Y-120016306D01*
X187193098Y-119995769D01*
X187192580Y-119993837D01*
X187193994Y-119992423D01*
X187195623Y-119992692D01*
G37*
G36*
X175870623Y-119992692D02*
G01*
X175911143Y-120019766D01*
X175982699Y-120034000D01*
X177182301Y-120034000D01*
X177253857Y-120019766D01*
X177294377Y-119992692D01*
X177296373Y-119992561D01*
X177297484Y-119994224D01*
X177296902Y-119995769D01*
X177276355Y-120016316D01*
X177276579Y-120017152D01*
X177275969Y-120018135D01*
X177246172Y-120044372D01*
X177227188Y-120110976D01*
X177247229Y-120177279D01*
X177275787Y-120202024D01*
X177276365Y-120203694D01*
X177296902Y-120224231D01*
X177297420Y-120226163D01*
X177296006Y-120227577D01*
X177294377Y-120227308D01*
X177253857Y-120200234D01*
X177182301Y-120186000D01*
X175982699Y-120186000D01*
X175911143Y-120200234D01*
X175870623Y-120227308D01*
X175868627Y-120227439D01*
X175867516Y-120225776D01*
X175868098Y-120224231D01*
X175888645Y-120203684D01*
X175888421Y-120202848D01*
X175889031Y-120201865D01*
X175918828Y-120175628D01*
X175937812Y-120109024D01*
X175917771Y-120042721D01*
X175889213Y-120017976D01*
X175888635Y-120016306D01*
X175868098Y-119995769D01*
X175867580Y-119993837D01*
X175868994Y-119992423D01*
X175870623Y-119992692D01*
G37*
G36*
X187195623Y-119192692D02*
G01*
X187236143Y-119219766D01*
X187307699Y-119234000D01*
X188507301Y-119234000D01*
X188578857Y-119219766D01*
X188619377Y-119192692D01*
X188621373Y-119192561D01*
X188622484Y-119194224D01*
X188621902Y-119195769D01*
X188601355Y-119216316D01*
X188601579Y-119217152D01*
X188600969Y-119218135D01*
X188571172Y-119244372D01*
X188552188Y-119310976D01*
X188572229Y-119377279D01*
X188600787Y-119402024D01*
X188601365Y-119403694D01*
X188621902Y-119424231D01*
X188622420Y-119426163D01*
X188621006Y-119427577D01*
X188619377Y-119427308D01*
X188578857Y-119400234D01*
X188507301Y-119386000D01*
X187307699Y-119386000D01*
X187236143Y-119400234D01*
X187195623Y-119427308D01*
X187193627Y-119427439D01*
X187192516Y-119425776D01*
X187193098Y-119424231D01*
X187213645Y-119403684D01*
X187213421Y-119402848D01*
X187214031Y-119401865D01*
X187243828Y-119375628D01*
X187262812Y-119309024D01*
X187242771Y-119242721D01*
X187214213Y-119217976D01*
X187213635Y-119216306D01*
X187193098Y-119195769D01*
X187192580Y-119193837D01*
X187193994Y-119192423D01*
X187195623Y-119192692D01*
G37*
G36*
X175870623Y-119192692D02*
G01*
X175911143Y-119219766D01*
X175982699Y-119234000D01*
X177182301Y-119234000D01*
X177253857Y-119219766D01*
X177294377Y-119192692D01*
X177296373Y-119192561D01*
X177297484Y-119194224D01*
X177296902Y-119195769D01*
X177276355Y-119216316D01*
X177276579Y-119217152D01*
X177275969Y-119218135D01*
X177246172Y-119244372D01*
X177227188Y-119310976D01*
X177247229Y-119377279D01*
X177275787Y-119402024D01*
X177276365Y-119403694D01*
X177296902Y-119424231D01*
X177297420Y-119426163D01*
X177296006Y-119427577D01*
X177294377Y-119427308D01*
X177253857Y-119400234D01*
X177182301Y-119386000D01*
X175982699Y-119386000D01*
X175911143Y-119400234D01*
X175870623Y-119427308D01*
X175868627Y-119427439D01*
X175867516Y-119425776D01*
X175868098Y-119424231D01*
X175888645Y-119403684D01*
X175888421Y-119402848D01*
X175889031Y-119401865D01*
X175918828Y-119375628D01*
X175937812Y-119309024D01*
X175917771Y-119242721D01*
X175889213Y-119217976D01*
X175888635Y-119216306D01*
X175868098Y-119195769D01*
X175867580Y-119193837D01*
X175868994Y-119192423D01*
X175870623Y-119192692D01*
G37*
G36*
X187195623Y-118392692D02*
G01*
X187236143Y-118419766D01*
X187307699Y-118434000D01*
X188507301Y-118434000D01*
X188578857Y-118419766D01*
X188619377Y-118392692D01*
X188621373Y-118392561D01*
X188622484Y-118394224D01*
X188621902Y-118395769D01*
X188601355Y-118416316D01*
X188601579Y-118417152D01*
X188600969Y-118418135D01*
X188571172Y-118444372D01*
X188552188Y-118510976D01*
X188572229Y-118577279D01*
X188600787Y-118602024D01*
X188601365Y-118603694D01*
X188621902Y-118624231D01*
X188622420Y-118626163D01*
X188621006Y-118627577D01*
X188619377Y-118627308D01*
X188578857Y-118600234D01*
X188507301Y-118586000D01*
X187307699Y-118586000D01*
X187236143Y-118600234D01*
X187195623Y-118627308D01*
X187193627Y-118627439D01*
X187192516Y-118625776D01*
X187193098Y-118624231D01*
X187213645Y-118603684D01*
X187213421Y-118602848D01*
X187214031Y-118601865D01*
X187243828Y-118575628D01*
X187262812Y-118509024D01*
X187242771Y-118442721D01*
X187214213Y-118417976D01*
X187213635Y-118416306D01*
X187193098Y-118395769D01*
X187192580Y-118393837D01*
X187193994Y-118392423D01*
X187195623Y-118392692D01*
G37*
G36*
X175870623Y-118392692D02*
G01*
X175911143Y-118419766D01*
X175982699Y-118434000D01*
X177182301Y-118434000D01*
X177253857Y-118419766D01*
X177294377Y-118392692D01*
X177296373Y-118392561D01*
X177297484Y-118394224D01*
X177296902Y-118395769D01*
X177276355Y-118416316D01*
X177276579Y-118417152D01*
X177275969Y-118418135D01*
X177246172Y-118444372D01*
X177227188Y-118510976D01*
X177247229Y-118577279D01*
X177275787Y-118602024D01*
X177276365Y-118603694D01*
X177296902Y-118624231D01*
X177297420Y-118626163D01*
X177296006Y-118627577D01*
X177294377Y-118627308D01*
X177253857Y-118600234D01*
X177182301Y-118586000D01*
X175982699Y-118586000D01*
X175911143Y-118600234D01*
X175870623Y-118627308D01*
X175868627Y-118627439D01*
X175867516Y-118625776D01*
X175868098Y-118624231D01*
X175888645Y-118603684D01*
X175888421Y-118602848D01*
X175889031Y-118601865D01*
X175918828Y-118575628D01*
X175937812Y-118509024D01*
X175917771Y-118442721D01*
X175889213Y-118417976D01*
X175888635Y-118416306D01*
X175868098Y-118395769D01*
X175867580Y-118393837D01*
X175868994Y-118392423D01*
X175870623Y-118392692D01*
G37*
G36*
X175870623Y-117592692D02*
G01*
X175911143Y-117619766D01*
X175982699Y-117634000D01*
X177182301Y-117634000D01*
X177253857Y-117619766D01*
X177294377Y-117592692D01*
X177296373Y-117592561D01*
X177297484Y-117594224D01*
X177296902Y-117595769D01*
X177276355Y-117616316D01*
X177276579Y-117617152D01*
X177275969Y-117618135D01*
X177246172Y-117644372D01*
X177227188Y-117710976D01*
X177247229Y-117777279D01*
X177275787Y-117802024D01*
X177276365Y-117803694D01*
X177296902Y-117824231D01*
X177297420Y-117826163D01*
X177296006Y-117827577D01*
X177294377Y-117827308D01*
X177253857Y-117800234D01*
X177182301Y-117786000D01*
X175982699Y-117786000D01*
X175911143Y-117800234D01*
X175870623Y-117827308D01*
X175868627Y-117827439D01*
X175867516Y-117825776D01*
X175868098Y-117824231D01*
X175888645Y-117803684D01*
X175888421Y-117802848D01*
X175889031Y-117801865D01*
X175918828Y-117775628D01*
X175937812Y-117709024D01*
X175917771Y-117642721D01*
X175889213Y-117617976D01*
X175888635Y-117616306D01*
X175868098Y-117595769D01*
X175867580Y-117593837D01*
X175868994Y-117592423D01*
X175870623Y-117592692D01*
G37*
G36*
X187195623Y-117592692D02*
G01*
X187236143Y-117619766D01*
X187307699Y-117634000D01*
X188507301Y-117634000D01*
X188578857Y-117619766D01*
X188619377Y-117592692D01*
X188621373Y-117592561D01*
X188622484Y-117594224D01*
X188621902Y-117595769D01*
X188601355Y-117616316D01*
X188601579Y-117617152D01*
X188600969Y-117618135D01*
X188571172Y-117644372D01*
X188552188Y-117710976D01*
X188572229Y-117777279D01*
X188600787Y-117802024D01*
X188601365Y-117803694D01*
X188621902Y-117824231D01*
X188622420Y-117826163D01*
X188621006Y-117827577D01*
X188619377Y-117827308D01*
X188578857Y-117800234D01*
X188507301Y-117786000D01*
X187307699Y-117786000D01*
X187236143Y-117800234D01*
X187195623Y-117827308D01*
X187193627Y-117827439D01*
X187192516Y-117825776D01*
X187193098Y-117824231D01*
X187213645Y-117803684D01*
X187213421Y-117802848D01*
X187214031Y-117801865D01*
X187243828Y-117775628D01*
X187262812Y-117709024D01*
X187242771Y-117642721D01*
X187214213Y-117617976D01*
X187213635Y-117616306D01*
X187193098Y-117595769D01*
X187192580Y-117593837D01*
X187193994Y-117592423D01*
X187195623Y-117592692D01*
G37*
G36*
X175870623Y-116792692D02*
G01*
X175911143Y-116819766D01*
X175982699Y-116834000D01*
X177182301Y-116834000D01*
X177253857Y-116819766D01*
X177294377Y-116792692D01*
X177296373Y-116792561D01*
X177297484Y-116794224D01*
X177296902Y-116795769D01*
X177276355Y-116816316D01*
X177276579Y-116817152D01*
X177275969Y-116818135D01*
X177246172Y-116844372D01*
X177227188Y-116910976D01*
X177247229Y-116977279D01*
X177275787Y-117002024D01*
X177276365Y-117003694D01*
X177296902Y-117024231D01*
X177297420Y-117026163D01*
X177296006Y-117027577D01*
X177294377Y-117027308D01*
X177253857Y-117000234D01*
X177182301Y-116986000D01*
X175982699Y-116986000D01*
X175911143Y-117000234D01*
X175870623Y-117027308D01*
X175868627Y-117027439D01*
X175867516Y-117025776D01*
X175868098Y-117024231D01*
X175888645Y-117003684D01*
X175888421Y-117002848D01*
X175889031Y-117001865D01*
X175918828Y-116975628D01*
X175937812Y-116909024D01*
X175917771Y-116842721D01*
X175889213Y-116817976D01*
X175888635Y-116816306D01*
X175868098Y-116795769D01*
X175867580Y-116793837D01*
X175868994Y-116792423D01*
X175870623Y-116792692D01*
G37*
G36*
X187195623Y-116792692D02*
G01*
X187236143Y-116819766D01*
X187307699Y-116834000D01*
X188507301Y-116834000D01*
X188578857Y-116819766D01*
X188619377Y-116792692D01*
X188621373Y-116792561D01*
X188622484Y-116794224D01*
X188621902Y-116795769D01*
X188601355Y-116816316D01*
X188601579Y-116817152D01*
X188600969Y-116818135D01*
X188571172Y-116844372D01*
X188552188Y-116910976D01*
X188572229Y-116977279D01*
X188600787Y-117002024D01*
X188601365Y-117003694D01*
X188621902Y-117024231D01*
X188622420Y-117026163D01*
X188621006Y-117027577D01*
X188619377Y-117027308D01*
X188578857Y-117000234D01*
X188507301Y-116986000D01*
X187307699Y-116986000D01*
X187236143Y-117000234D01*
X187195623Y-117027308D01*
X187193627Y-117027439D01*
X187192516Y-117025776D01*
X187193098Y-117024231D01*
X187213645Y-117003684D01*
X187213421Y-117002848D01*
X187214031Y-117001865D01*
X187243828Y-116975628D01*
X187262812Y-116909024D01*
X187242771Y-116842721D01*
X187214213Y-116817976D01*
X187213635Y-116816306D01*
X187193098Y-116795769D01*
X187192580Y-116793837D01*
X187193994Y-116792423D01*
X187195623Y-116792692D01*
G37*
G36*
X175870623Y-115992692D02*
G01*
X175911143Y-116019766D01*
X175982699Y-116034000D01*
X177182301Y-116034000D01*
X177253857Y-116019766D01*
X177294377Y-115992692D01*
X177296373Y-115992561D01*
X177297484Y-115994224D01*
X177296902Y-115995769D01*
X177276355Y-116016316D01*
X177276579Y-116017152D01*
X177275969Y-116018135D01*
X177246172Y-116044372D01*
X177227188Y-116110976D01*
X177247229Y-116177279D01*
X177275787Y-116202024D01*
X177276365Y-116203694D01*
X177296902Y-116224231D01*
X177297420Y-116226163D01*
X177296006Y-116227577D01*
X177294377Y-116227308D01*
X177253857Y-116200234D01*
X177182301Y-116186000D01*
X175982699Y-116186000D01*
X175911143Y-116200234D01*
X175870623Y-116227308D01*
X175868627Y-116227439D01*
X175867516Y-116225776D01*
X175868098Y-116224231D01*
X175888645Y-116203684D01*
X175888421Y-116202848D01*
X175889031Y-116201865D01*
X175918828Y-116175628D01*
X175937812Y-116109024D01*
X175917771Y-116042721D01*
X175889213Y-116017976D01*
X175888635Y-116016306D01*
X175868098Y-115995769D01*
X175867580Y-115993837D01*
X175868994Y-115992423D01*
X175870623Y-115992692D01*
G37*
G36*
X187195623Y-115992692D02*
G01*
X187236143Y-116019766D01*
X187307699Y-116034000D01*
X188507301Y-116034000D01*
X188578857Y-116019766D01*
X188619377Y-115992692D01*
X188621373Y-115992561D01*
X188622484Y-115994224D01*
X188621902Y-115995769D01*
X188601355Y-116016316D01*
X188601579Y-116017152D01*
X188600969Y-116018135D01*
X188571172Y-116044372D01*
X188552188Y-116110976D01*
X188572229Y-116177279D01*
X188600787Y-116202024D01*
X188601365Y-116203694D01*
X188621902Y-116224231D01*
X188622420Y-116226163D01*
X188621006Y-116227577D01*
X188619377Y-116227308D01*
X188578857Y-116200234D01*
X188507301Y-116186000D01*
X187307699Y-116186000D01*
X187236143Y-116200234D01*
X187195623Y-116227308D01*
X187193627Y-116227439D01*
X187192516Y-116225776D01*
X187193098Y-116224231D01*
X187213645Y-116203684D01*
X187213421Y-116202848D01*
X187214031Y-116201865D01*
X187243828Y-116175628D01*
X187262812Y-116109024D01*
X187242771Y-116042721D01*
X187214213Y-116017976D01*
X187213635Y-116016306D01*
X187193098Y-115995769D01*
X187192580Y-115993837D01*
X187193994Y-115992423D01*
X187195623Y-115992692D01*
G37*
G36*
X196171719Y-115310054D02*
G01*
X196191396Y-115377069D01*
X196243739Y-115422424D01*
X196312292Y-115432281D01*
X196375529Y-115403401D01*
X196381809Y-115397554D01*
X196383758Y-115397106D01*
X196385121Y-115398570D01*
X196384586Y-115400432D01*
X196286558Y-115498460D01*
X196275833Y-115514510D01*
X196272107Y-115533248D01*
X196275833Y-115551986D01*
X196286558Y-115568037D01*
X196356002Y-115637481D01*
X196356520Y-115639413D01*
X196355106Y-115640827D01*
X196353630Y-115640650D01*
X196292329Y-115607178D01*
X196223247Y-115612118D01*
X196167647Y-115653740D01*
X196159347Y-115667603D01*
X196157599Y-115668576D01*
X196155883Y-115667548D01*
X196155669Y-115666186D01*
X196167800Y-115605201D01*
X196167800Y-115310617D01*
X196168800Y-115308885D01*
X196170800Y-115308885D01*
X196171719Y-115310054D01*
G37*
G36*
X194519018Y-114587009D02*
G01*
X194519800Y-114588595D01*
X194519800Y-115597195D01*
X194518800Y-115598927D01*
X194516800Y-115598927D01*
X194515817Y-115597456D01*
X194515785Y-115597217D01*
X194487646Y-115533604D01*
X194429835Y-115495470D01*
X194360580Y-115494644D01*
X194301886Y-115531383D01*
X194271815Y-115597225D01*
X194271783Y-115597468D01*
X194270565Y-115599054D01*
X194268582Y-115598792D01*
X194267800Y-115597206D01*
X194267800Y-114588605D01*
X194268800Y-114586873D01*
X194270800Y-114586873D01*
X194271783Y-114588344D01*
X194271815Y-114588583D01*
X194299954Y-114652196D01*
X194357765Y-114690330D01*
X194427020Y-114691156D01*
X194485714Y-114654417D01*
X194515785Y-114588575D01*
X194515817Y-114588333D01*
X194517036Y-114586747D01*
X194519018Y-114587009D01*
G37*
G36*
X195469018Y-114587009D02*
G01*
X195469800Y-114588595D01*
X195469800Y-115597195D01*
X195468800Y-115598927D01*
X195466800Y-115598927D01*
X195465817Y-115597456D01*
X195465785Y-115597217D01*
X195437646Y-115533604D01*
X195379835Y-115495470D01*
X195310580Y-115494644D01*
X195251886Y-115531383D01*
X195221815Y-115597225D01*
X195221783Y-115597468D01*
X195220565Y-115599054D01*
X195218582Y-115598792D01*
X195217800Y-115597206D01*
X195217800Y-114588605D01*
X195218800Y-114586873D01*
X195220800Y-114586873D01*
X195221783Y-114588344D01*
X195221815Y-114588583D01*
X195249954Y-114652196D01*
X195307765Y-114690330D01*
X195377020Y-114691156D01*
X195435714Y-114654417D01*
X195465785Y-114588575D01*
X195465817Y-114588333D01*
X195467036Y-114586747D01*
X195469018Y-114587009D01*
G37*
G36*
X187195623Y-115192692D02*
G01*
X187236143Y-115219766D01*
X187307699Y-115234000D01*
X188507301Y-115234000D01*
X188578857Y-115219766D01*
X188619377Y-115192692D01*
X188621373Y-115192561D01*
X188622484Y-115194224D01*
X188621902Y-115195769D01*
X188601355Y-115216316D01*
X188601579Y-115217152D01*
X188600969Y-115218135D01*
X188571172Y-115244372D01*
X188552188Y-115310976D01*
X188572229Y-115377279D01*
X188600787Y-115402024D01*
X188601365Y-115403694D01*
X188621902Y-115424231D01*
X188622420Y-115426163D01*
X188621006Y-115427577D01*
X188619377Y-115427308D01*
X188578857Y-115400234D01*
X188507301Y-115386000D01*
X187307699Y-115386000D01*
X187236143Y-115400234D01*
X187195623Y-115427308D01*
X187193627Y-115427439D01*
X187192516Y-115425776D01*
X187193098Y-115424231D01*
X187213645Y-115403684D01*
X187213421Y-115402848D01*
X187214031Y-115401865D01*
X187243828Y-115375628D01*
X187262812Y-115309024D01*
X187242771Y-115242721D01*
X187214213Y-115217976D01*
X187213635Y-115216306D01*
X187193098Y-115195769D01*
X187192580Y-115193837D01*
X187193994Y-115192423D01*
X187195623Y-115192692D01*
G37*
G36*
X175870623Y-115192692D02*
G01*
X175911143Y-115219766D01*
X175982699Y-115234000D01*
X177182301Y-115234000D01*
X177253857Y-115219766D01*
X177294377Y-115192692D01*
X177296373Y-115192561D01*
X177297484Y-115194224D01*
X177296902Y-115195769D01*
X177276355Y-115216316D01*
X177276579Y-115217152D01*
X177275969Y-115218135D01*
X177246172Y-115244372D01*
X177227188Y-115310976D01*
X177247229Y-115377279D01*
X177275787Y-115402024D01*
X177276365Y-115403694D01*
X177296902Y-115424231D01*
X177297420Y-115426163D01*
X177296006Y-115427577D01*
X177294377Y-115427308D01*
X177253857Y-115400234D01*
X177182301Y-115386000D01*
X175982699Y-115386000D01*
X175911143Y-115400234D01*
X175870623Y-115427308D01*
X175868627Y-115427439D01*
X175867516Y-115425776D01*
X175868098Y-115424231D01*
X175888645Y-115403684D01*
X175888421Y-115402848D01*
X175889031Y-115401865D01*
X175918828Y-115375628D01*
X175937812Y-115309024D01*
X175917771Y-115242721D01*
X175889213Y-115217976D01*
X175888635Y-115216306D01*
X175868098Y-115195769D01*
X175867580Y-115193837D01*
X175868994Y-115192423D01*
X175870623Y-115192692D01*
G37*
G36*
X187195623Y-114392692D02*
G01*
X187236143Y-114419766D01*
X187307699Y-114434000D01*
X188507301Y-114434000D01*
X188578857Y-114419766D01*
X188619377Y-114392692D01*
X188621373Y-114392561D01*
X188622484Y-114394224D01*
X188621902Y-114395769D01*
X188601355Y-114416316D01*
X188601579Y-114417152D01*
X188600969Y-114418135D01*
X188571172Y-114444372D01*
X188552188Y-114510976D01*
X188572229Y-114577279D01*
X188600787Y-114602024D01*
X188601365Y-114603694D01*
X188621902Y-114624231D01*
X188622420Y-114626163D01*
X188621006Y-114627577D01*
X188619377Y-114627308D01*
X188578857Y-114600234D01*
X188507301Y-114586000D01*
X187307699Y-114586000D01*
X187236143Y-114600234D01*
X187195623Y-114627308D01*
X187193627Y-114627439D01*
X187192516Y-114625776D01*
X187193098Y-114624231D01*
X187213645Y-114603684D01*
X187213421Y-114602848D01*
X187214031Y-114601865D01*
X187243828Y-114575628D01*
X187262812Y-114509024D01*
X187242771Y-114442721D01*
X187214213Y-114417976D01*
X187213635Y-114416306D01*
X187193098Y-114395769D01*
X187192580Y-114393837D01*
X187193994Y-114392423D01*
X187195623Y-114392692D01*
G37*
G36*
X175870623Y-114392692D02*
G01*
X175911143Y-114419766D01*
X175982699Y-114434000D01*
X177182301Y-114434000D01*
X177253857Y-114419766D01*
X177294377Y-114392692D01*
X177296373Y-114392561D01*
X177297484Y-114394224D01*
X177296902Y-114395769D01*
X177276355Y-114416316D01*
X177276579Y-114417152D01*
X177275969Y-114418135D01*
X177246172Y-114444372D01*
X177227188Y-114510976D01*
X177247229Y-114577279D01*
X177275787Y-114602024D01*
X177276365Y-114603694D01*
X177296902Y-114624231D01*
X177297420Y-114626163D01*
X177296006Y-114627577D01*
X177294377Y-114627308D01*
X177253857Y-114600234D01*
X177182301Y-114586000D01*
X175982699Y-114586000D01*
X175911143Y-114600234D01*
X175870623Y-114627308D01*
X175868627Y-114627439D01*
X175867516Y-114625776D01*
X175868098Y-114624231D01*
X175888645Y-114603684D01*
X175888421Y-114602848D01*
X175889031Y-114601865D01*
X175918828Y-114575628D01*
X175937812Y-114509024D01*
X175917771Y-114442721D01*
X175889213Y-114417976D01*
X175888635Y-114416306D01*
X175868098Y-114395769D01*
X175867580Y-114393837D01*
X175868994Y-114392423D01*
X175870623Y-114392692D01*
G37*
G36*
X184130769Y-111733098D02*
G01*
X184151316Y-111753645D01*
X184152152Y-111753421D01*
X184153135Y-111754031D01*
X184179372Y-111783828D01*
X184245976Y-111802812D01*
X184312279Y-111782771D01*
X184337024Y-111754213D01*
X184338694Y-111753635D01*
X184359231Y-111733098D01*
X184361163Y-111732580D01*
X184362577Y-111733994D01*
X184362308Y-111735623D01*
X184335234Y-111776143D01*
X184321000Y-111847699D01*
X184321000Y-113047301D01*
X184335234Y-113118857D01*
X184362308Y-113159377D01*
X184362439Y-113161373D01*
X184360776Y-113162484D01*
X184359231Y-113161902D01*
X184338684Y-113141355D01*
X184337848Y-113141579D01*
X184336865Y-113140969D01*
X184310628Y-113111172D01*
X184244024Y-113092188D01*
X184177721Y-113112229D01*
X184152976Y-113140787D01*
X184151306Y-113141365D01*
X184130769Y-113161902D01*
X184128837Y-113162420D01*
X184127423Y-113161006D01*
X184127692Y-113159377D01*
X184154766Y-113118857D01*
X184169000Y-113047301D01*
X184169000Y-111847699D01*
X184154766Y-111776143D01*
X184127692Y-111735623D01*
X184127561Y-111733627D01*
X184129224Y-111732516D01*
X184130769Y-111733098D01*
G37*
G36*
X183330769Y-111733098D02*
G01*
X183351316Y-111753645D01*
X183352152Y-111753421D01*
X183353135Y-111754031D01*
X183379372Y-111783828D01*
X183445976Y-111802812D01*
X183512279Y-111782771D01*
X183537024Y-111754213D01*
X183538694Y-111753635D01*
X183559231Y-111733098D01*
X183561163Y-111732580D01*
X183562577Y-111733994D01*
X183562308Y-111735623D01*
X183535234Y-111776143D01*
X183521000Y-111847699D01*
X183521000Y-113047301D01*
X183535234Y-113118857D01*
X183562308Y-113159377D01*
X183562439Y-113161373D01*
X183560776Y-113162484D01*
X183559231Y-113161902D01*
X183538684Y-113141355D01*
X183537848Y-113141579D01*
X183536865Y-113140969D01*
X183510628Y-113111172D01*
X183444024Y-113092188D01*
X183377721Y-113112229D01*
X183352976Y-113140787D01*
X183351306Y-113141365D01*
X183330769Y-113161902D01*
X183328837Y-113162420D01*
X183327423Y-113161006D01*
X183327692Y-113159377D01*
X183354766Y-113118857D01*
X183369000Y-113047301D01*
X183369000Y-111847699D01*
X183354766Y-111776143D01*
X183327692Y-111735623D01*
X183327561Y-111733627D01*
X183329224Y-111732516D01*
X183330769Y-111733098D01*
G37*
G36*
X185730769Y-111733098D02*
G01*
X185751316Y-111753645D01*
X185752152Y-111753421D01*
X185753135Y-111754031D01*
X185779372Y-111783828D01*
X185845976Y-111802812D01*
X185912279Y-111782771D01*
X185937024Y-111754213D01*
X185938694Y-111753635D01*
X185959231Y-111733098D01*
X185961163Y-111732580D01*
X185962577Y-111733994D01*
X185962308Y-111735623D01*
X185935234Y-111776143D01*
X185921000Y-111847699D01*
X185921000Y-113047301D01*
X185935234Y-113118857D01*
X185962308Y-113159377D01*
X185962439Y-113161373D01*
X185960776Y-113162484D01*
X185959231Y-113161902D01*
X185938684Y-113141355D01*
X185937848Y-113141579D01*
X185936865Y-113140969D01*
X185910628Y-113111172D01*
X185844024Y-113092188D01*
X185777721Y-113112229D01*
X185752976Y-113140787D01*
X185751306Y-113141365D01*
X185730769Y-113161902D01*
X185728837Y-113162420D01*
X185727423Y-113161006D01*
X185727692Y-113159377D01*
X185754766Y-113118857D01*
X185769000Y-113047301D01*
X185769000Y-111847699D01*
X185754766Y-111776143D01*
X185727692Y-111735623D01*
X185727561Y-111733627D01*
X185729224Y-111732516D01*
X185730769Y-111733098D01*
G37*
G36*
X182530769Y-111733098D02*
G01*
X182551316Y-111753645D01*
X182552152Y-111753421D01*
X182553135Y-111754031D01*
X182579372Y-111783828D01*
X182645976Y-111802812D01*
X182712279Y-111782771D01*
X182737024Y-111754213D01*
X182738694Y-111753635D01*
X182759231Y-111733098D01*
X182761163Y-111732580D01*
X182762577Y-111733994D01*
X182762308Y-111735623D01*
X182735234Y-111776143D01*
X182721000Y-111847699D01*
X182721000Y-113047301D01*
X182735234Y-113118857D01*
X182762308Y-113159377D01*
X182762439Y-113161373D01*
X182760776Y-113162484D01*
X182759231Y-113161902D01*
X182738684Y-113141355D01*
X182737848Y-113141579D01*
X182736865Y-113140969D01*
X182710628Y-113111172D01*
X182644024Y-113092188D01*
X182577721Y-113112229D01*
X182552976Y-113140787D01*
X182551306Y-113141365D01*
X182530769Y-113161902D01*
X182528837Y-113162420D01*
X182527423Y-113161006D01*
X182527692Y-113159377D01*
X182554766Y-113118857D01*
X182569000Y-113047301D01*
X182569000Y-111847699D01*
X182554766Y-111776143D01*
X182527692Y-111735623D01*
X182527561Y-111733627D01*
X182529224Y-111732516D01*
X182530769Y-111733098D01*
G37*
G36*
X178530769Y-111733098D02*
G01*
X178551316Y-111753645D01*
X178552152Y-111753421D01*
X178553135Y-111754031D01*
X178579372Y-111783828D01*
X178645976Y-111802812D01*
X178712279Y-111782771D01*
X178737024Y-111754213D01*
X178738694Y-111753635D01*
X178759231Y-111733098D01*
X178761163Y-111732580D01*
X178762577Y-111733994D01*
X178762308Y-111735623D01*
X178735234Y-111776143D01*
X178721000Y-111847699D01*
X178721000Y-113047301D01*
X178735234Y-113118857D01*
X178762308Y-113159377D01*
X178762439Y-113161373D01*
X178760776Y-113162484D01*
X178759231Y-113161902D01*
X178738684Y-113141355D01*
X178737848Y-113141579D01*
X178736865Y-113140969D01*
X178710628Y-113111172D01*
X178644024Y-113092188D01*
X178577721Y-113112229D01*
X178552976Y-113140787D01*
X178551306Y-113141365D01*
X178530769Y-113161902D01*
X178528837Y-113162420D01*
X178527423Y-113161006D01*
X178527692Y-113159377D01*
X178554766Y-113118857D01*
X178569000Y-113047301D01*
X178569000Y-111847699D01*
X178554766Y-111776143D01*
X178527692Y-111735623D01*
X178527561Y-111733627D01*
X178529224Y-111732516D01*
X178530769Y-111733098D01*
G37*
G36*
X181730769Y-111733098D02*
G01*
X181751316Y-111753645D01*
X181752152Y-111753421D01*
X181753135Y-111754031D01*
X181779372Y-111783828D01*
X181845976Y-111802812D01*
X181912279Y-111782771D01*
X181937024Y-111754213D01*
X181938694Y-111753635D01*
X181959231Y-111733098D01*
X181961163Y-111732580D01*
X181962577Y-111733994D01*
X181962308Y-111735623D01*
X181935234Y-111776143D01*
X181921000Y-111847699D01*
X181921000Y-113047301D01*
X181935234Y-113118857D01*
X181962308Y-113159377D01*
X181962439Y-113161373D01*
X181960776Y-113162484D01*
X181959231Y-113161902D01*
X181938684Y-113141355D01*
X181937848Y-113141579D01*
X181936865Y-113140969D01*
X181910628Y-113111172D01*
X181844024Y-113092188D01*
X181777721Y-113112229D01*
X181752976Y-113140787D01*
X181751306Y-113141365D01*
X181730769Y-113161902D01*
X181728837Y-113162420D01*
X181727423Y-113161006D01*
X181727692Y-113159377D01*
X181754766Y-113118857D01*
X181769000Y-113047301D01*
X181769000Y-111847699D01*
X181754766Y-111776143D01*
X181727692Y-111735623D01*
X181727561Y-111733627D01*
X181729224Y-111732516D01*
X181730769Y-111733098D01*
G37*
G36*
X180930769Y-111733098D02*
G01*
X180951316Y-111753645D01*
X180952152Y-111753421D01*
X180953135Y-111754031D01*
X180979372Y-111783828D01*
X181045976Y-111802812D01*
X181112279Y-111782771D01*
X181137024Y-111754213D01*
X181138694Y-111753635D01*
X181159231Y-111733098D01*
X181161163Y-111732580D01*
X181162577Y-111733994D01*
X181162308Y-111735623D01*
X181135234Y-111776143D01*
X181121000Y-111847699D01*
X181121000Y-113047301D01*
X181135234Y-113118857D01*
X181162308Y-113159377D01*
X181162439Y-113161373D01*
X181160776Y-113162484D01*
X181159231Y-113161902D01*
X181138684Y-113141355D01*
X181137848Y-113141579D01*
X181136865Y-113140969D01*
X181110628Y-113111172D01*
X181044024Y-113092188D01*
X180977721Y-113112229D01*
X180952976Y-113140787D01*
X180951306Y-113141365D01*
X180930769Y-113161902D01*
X180928837Y-113162420D01*
X180927423Y-113161006D01*
X180927692Y-113159377D01*
X180954766Y-113118857D01*
X180969000Y-113047301D01*
X180969000Y-111847699D01*
X180954766Y-111776143D01*
X180927692Y-111735623D01*
X180927561Y-111733627D01*
X180929224Y-111732516D01*
X180930769Y-111733098D01*
G37*
G36*
X180130769Y-111733098D02*
G01*
X180151316Y-111753645D01*
X180152152Y-111753421D01*
X180153135Y-111754031D01*
X180179372Y-111783828D01*
X180245976Y-111802812D01*
X180312279Y-111782771D01*
X180337024Y-111754213D01*
X180338694Y-111753635D01*
X180359231Y-111733098D01*
X180361163Y-111732580D01*
X180362577Y-111733994D01*
X180362308Y-111735623D01*
X180335234Y-111776143D01*
X180321000Y-111847699D01*
X180321000Y-113047301D01*
X180335234Y-113118857D01*
X180362308Y-113159377D01*
X180362439Y-113161373D01*
X180360776Y-113162484D01*
X180359231Y-113161902D01*
X180338684Y-113141355D01*
X180337848Y-113141579D01*
X180336865Y-113140969D01*
X180310628Y-113111172D01*
X180244024Y-113092188D01*
X180177721Y-113112229D01*
X180152976Y-113140787D01*
X180151306Y-113141365D01*
X180130769Y-113161902D01*
X180128837Y-113162420D01*
X180127423Y-113161006D01*
X180127692Y-113159377D01*
X180154766Y-113118857D01*
X180169000Y-113047301D01*
X180169000Y-111847699D01*
X180154766Y-111776143D01*
X180127692Y-111735623D01*
X180127561Y-111733627D01*
X180129224Y-111732516D01*
X180130769Y-111733098D01*
G37*
G36*
X179330769Y-111733098D02*
G01*
X179351316Y-111753645D01*
X179352152Y-111753421D01*
X179353135Y-111754031D01*
X179379372Y-111783828D01*
X179445976Y-111802812D01*
X179512279Y-111782771D01*
X179537024Y-111754213D01*
X179538694Y-111753635D01*
X179559231Y-111733098D01*
X179561163Y-111732580D01*
X179562577Y-111733994D01*
X179562308Y-111735623D01*
X179535234Y-111776143D01*
X179521000Y-111847699D01*
X179521000Y-113047301D01*
X179535234Y-113118857D01*
X179562308Y-113159377D01*
X179562439Y-113161373D01*
X179560776Y-113162484D01*
X179559231Y-113161902D01*
X179538684Y-113141355D01*
X179537848Y-113141579D01*
X179536865Y-113140969D01*
X179510628Y-113111172D01*
X179444024Y-113092188D01*
X179377721Y-113112229D01*
X179352976Y-113140787D01*
X179351306Y-113141365D01*
X179330769Y-113161902D01*
X179328837Y-113162420D01*
X179327423Y-113161006D01*
X179327692Y-113159377D01*
X179354766Y-113118857D01*
X179369000Y-113047301D01*
X179369000Y-111847699D01*
X179354766Y-111776143D01*
X179327692Y-111735623D01*
X179327561Y-111733627D01*
X179329224Y-111732516D01*
X179330769Y-111733098D01*
G37*
G36*
X184930769Y-111733098D02*
G01*
X184951316Y-111753645D01*
X184952152Y-111753421D01*
X184953135Y-111754031D01*
X184979372Y-111783828D01*
X185045976Y-111802812D01*
X185112279Y-111782771D01*
X185137024Y-111754213D01*
X185138694Y-111753635D01*
X185159231Y-111733098D01*
X185161163Y-111732580D01*
X185162577Y-111733994D01*
X185162308Y-111735623D01*
X185135234Y-111776143D01*
X185121000Y-111847699D01*
X185121000Y-113047301D01*
X185135234Y-113118857D01*
X185162308Y-113159377D01*
X185162439Y-113161373D01*
X185160776Y-113162484D01*
X185159231Y-113161902D01*
X185138684Y-113141355D01*
X185137848Y-113141579D01*
X185136865Y-113140969D01*
X185110628Y-113111172D01*
X185044024Y-113092188D01*
X184977721Y-113112229D01*
X184952976Y-113140787D01*
X184951306Y-113141365D01*
X184930769Y-113161902D01*
X184928837Y-113162420D01*
X184927423Y-113161006D01*
X184927692Y-113159377D01*
X184954766Y-113118857D01*
X184969000Y-113047301D01*
X184969000Y-111847699D01*
X184954766Y-111776143D01*
X184927692Y-111735623D01*
X184927561Y-111733627D01*
X184929224Y-111732516D01*
X184930769Y-111733098D01*
G37*
G36*
X173260660Y-110342493D02*
G01*
X173274452Y-110351709D01*
X173275615Y-110349969D01*
X173277409Y-110349084D01*
X173278560Y-110349545D01*
X173295952Y-110364078D01*
X173364670Y-110372704D01*
X173412288Y-110349918D01*
X173414282Y-110350072D01*
X173414814Y-110350611D01*
X173415548Y-110351709D01*
X173429340Y-110342493D01*
X173431336Y-110342362D01*
X173432447Y-110344025D01*
X173432114Y-110345267D01*
X173424767Y-110356262D01*
X173421000Y-110375199D01*
X173421000Y-111874801D01*
X173424767Y-111893738D01*
X173432114Y-111904733D01*
X173432245Y-111906729D01*
X173430582Y-111907840D01*
X173429340Y-111907507D01*
X173415548Y-111898291D01*
X173414385Y-111900031D01*
X173412591Y-111900916D01*
X173411440Y-111900455D01*
X173394048Y-111885922D01*
X173325330Y-111877296D01*
X173277712Y-111900082D01*
X173275718Y-111899928D01*
X173275186Y-111899389D01*
X173274452Y-111898291D01*
X173260660Y-111907507D01*
X173258664Y-111907638D01*
X173257553Y-111905975D01*
X173257886Y-111904733D01*
X173265233Y-111893738D01*
X173269000Y-111874801D01*
X173269000Y-110375199D01*
X173265233Y-110356262D01*
X173257886Y-110345267D01*
X173257755Y-110343271D01*
X173259418Y-110342160D01*
X173260660Y-110342493D01*
G37*
G36*
X172010660Y-110342493D02*
G01*
X172024452Y-110351709D01*
X172025615Y-110349969D01*
X172027409Y-110349084D01*
X172028560Y-110349545D01*
X172045952Y-110364078D01*
X172114670Y-110372704D01*
X172162288Y-110349918D01*
X172164282Y-110350072D01*
X172164814Y-110350611D01*
X172165548Y-110351709D01*
X172179340Y-110342493D01*
X172181336Y-110342362D01*
X172182447Y-110344025D01*
X172182114Y-110345267D01*
X172174767Y-110356262D01*
X172171000Y-110375199D01*
X172171000Y-111874801D01*
X172174767Y-111893738D01*
X172182114Y-111904733D01*
X172182245Y-111906729D01*
X172180582Y-111907840D01*
X172179340Y-111907507D01*
X172165548Y-111898291D01*
X172164385Y-111900031D01*
X172162591Y-111900916D01*
X172161440Y-111900455D01*
X172144048Y-111885922D01*
X172075330Y-111877296D01*
X172027712Y-111900082D01*
X172025718Y-111899928D01*
X172025186Y-111899389D01*
X172024452Y-111898291D01*
X172010660Y-111907507D01*
X172008664Y-111907638D01*
X172007553Y-111905975D01*
X172007886Y-111904733D01*
X172015233Y-111893738D01*
X172019000Y-111874801D01*
X172019000Y-110375199D01*
X172015233Y-110356262D01*
X172007886Y-110345267D01*
X172007755Y-110343271D01*
X172009418Y-110342160D01*
X172010660Y-110342493D01*
G37*
G36*
X176995267Y-108917886D02*
G01*
X177006262Y-108925233D01*
X177025199Y-108929000D01*
X178124801Y-108929000D01*
X178143738Y-108925233D01*
X178154733Y-108917886D01*
X178156729Y-108917755D01*
X178157840Y-108919418D01*
X178157507Y-108920660D01*
X178148291Y-108934452D01*
X178150031Y-108935615D01*
X178150916Y-108937409D01*
X178150455Y-108938560D01*
X178135922Y-108955952D01*
X178127296Y-109024670D01*
X178150082Y-109072288D01*
X178149928Y-109074282D01*
X178149389Y-109074814D01*
X178148291Y-109075548D01*
X178157507Y-109089340D01*
X178157638Y-109091336D01*
X178155975Y-109092447D01*
X178154733Y-109092114D01*
X178143738Y-109084767D01*
X178124801Y-109081000D01*
X177025199Y-109081000D01*
X177006262Y-109084767D01*
X176995267Y-109092114D01*
X176993271Y-109092245D01*
X176992160Y-109090582D01*
X176992493Y-109089340D01*
X177001709Y-109075548D01*
X176999969Y-109074385D01*
X176999084Y-109072591D01*
X176999545Y-109071440D01*
X177014078Y-109054048D01*
X177022704Y-108985330D01*
X176999918Y-108937712D01*
X177000072Y-108935718D01*
X177000611Y-108935186D01*
X177001709Y-108934452D01*
X176992493Y-108920660D01*
X176992362Y-108918664D01*
X176994025Y-108917553D01*
X176995267Y-108917886D01*
G37*
G36*
X196495267Y-108917886D02*
G01*
X196506262Y-108925233D01*
X196525199Y-108929000D01*
X197624801Y-108929000D01*
X197643738Y-108925233D01*
X197654733Y-108917886D01*
X197656729Y-108917755D01*
X197657840Y-108919418D01*
X197657507Y-108920660D01*
X197648291Y-108934452D01*
X197650031Y-108935615D01*
X197650916Y-108937409D01*
X197650455Y-108938560D01*
X197635922Y-108955952D01*
X197627296Y-109024670D01*
X197650082Y-109072288D01*
X197649928Y-109074282D01*
X197649389Y-109074814D01*
X197648291Y-109075548D01*
X197657507Y-109089340D01*
X197657638Y-109091336D01*
X197655975Y-109092447D01*
X197654733Y-109092114D01*
X197643738Y-109084767D01*
X197624801Y-109081000D01*
X196525199Y-109081000D01*
X196506262Y-109084767D01*
X196495267Y-109092114D01*
X196493271Y-109092245D01*
X196492160Y-109090582D01*
X196492493Y-109089340D01*
X196501709Y-109075548D01*
X196499969Y-109074385D01*
X196499084Y-109072591D01*
X196499545Y-109071440D01*
X196514078Y-109054048D01*
X196522704Y-108985330D01*
X196499918Y-108937712D01*
X196500072Y-108935718D01*
X196500611Y-108935186D01*
X196501709Y-108934452D01*
X196492493Y-108920660D01*
X196492362Y-108918664D01*
X196494025Y-108917553D01*
X196495267Y-108917886D01*
G37*
G36*
X176995267Y-108417886D02*
G01*
X177006262Y-108425233D01*
X177025199Y-108429000D01*
X178124801Y-108429000D01*
X178143738Y-108425233D01*
X178154733Y-108417886D01*
X178156729Y-108417755D01*
X178157840Y-108419418D01*
X178157507Y-108420660D01*
X178148291Y-108434452D01*
X178150031Y-108435615D01*
X178150916Y-108437409D01*
X178150455Y-108438560D01*
X178135922Y-108455952D01*
X178127296Y-108524670D01*
X178150082Y-108572288D01*
X178149928Y-108574282D01*
X178149389Y-108574814D01*
X178148291Y-108575548D01*
X178157507Y-108589340D01*
X178157638Y-108591336D01*
X178155975Y-108592447D01*
X178154733Y-108592114D01*
X178143738Y-108584767D01*
X178124801Y-108581000D01*
X177025199Y-108581000D01*
X177006262Y-108584767D01*
X176995267Y-108592114D01*
X176993271Y-108592245D01*
X176992160Y-108590582D01*
X176992493Y-108589340D01*
X177001709Y-108575548D01*
X176999969Y-108574385D01*
X176999084Y-108572591D01*
X176999545Y-108571440D01*
X177014078Y-108554048D01*
X177022704Y-108485330D01*
X176999918Y-108437712D01*
X177000072Y-108435718D01*
X177000611Y-108435186D01*
X177001709Y-108434452D01*
X176992493Y-108420660D01*
X176992362Y-108418664D01*
X176994025Y-108417553D01*
X176995267Y-108417886D01*
G37*
G36*
X196495267Y-108417886D02*
G01*
X196506262Y-108425233D01*
X196525199Y-108429000D01*
X197624801Y-108429000D01*
X197643738Y-108425233D01*
X197654733Y-108417886D01*
X197656729Y-108417755D01*
X197657840Y-108419418D01*
X197657507Y-108420660D01*
X197648291Y-108434452D01*
X197650031Y-108435615D01*
X197650916Y-108437409D01*
X197650455Y-108438560D01*
X197635922Y-108455952D01*
X197627296Y-108524670D01*
X197650082Y-108572288D01*
X197649928Y-108574282D01*
X197649389Y-108574814D01*
X197648291Y-108575548D01*
X197657507Y-108589340D01*
X197657638Y-108591336D01*
X197655975Y-108592447D01*
X197654733Y-108592114D01*
X197643738Y-108584767D01*
X197624801Y-108581000D01*
X196525199Y-108581000D01*
X196506262Y-108584767D01*
X196495267Y-108592114D01*
X196493271Y-108592245D01*
X196492160Y-108590582D01*
X196492493Y-108589340D01*
X196501709Y-108575548D01*
X196499969Y-108574385D01*
X196499084Y-108572591D01*
X196499545Y-108571440D01*
X196514078Y-108554048D01*
X196522704Y-108485330D01*
X196499918Y-108437712D01*
X196500072Y-108435718D01*
X196500611Y-108435186D01*
X196501709Y-108434452D01*
X196492493Y-108420660D01*
X196492362Y-108418664D01*
X196494025Y-108417553D01*
X196495267Y-108417886D01*
G37*
G36*
X196495267Y-107917886D02*
G01*
X196506262Y-107925233D01*
X196525199Y-107929000D01*
X197624801Y-107929000D01*
X197643738Y-107925233D01*
X197654733Y-107917886D01*
X197656729Y-107917755D01*
X197657840Y-107919418D01*
X197657507Y-107920660D01*
X197648291Y-107934452D01*
X197650031Y-107935615D01*
X197650916Y-107937409D01*
X197650455Y-107938560D01*
X197635922Y-107955952D01*
X197627296Y-108024670D01*
X197650082Y-108072288D01*
X197649928Y-108074282D01*
X197649389Y-108074814D01*
X197648291Y-108075548D01*
X197657507Y-108089340D01*
X197657638Y-108091336D01*
X197655975Y-108092447D01*
X197654733Y-108092114D01*
X197643738Y-108084767D01*
X197624801Y-108081000D01*
X196525199Y-108081000D01*
X196506262Y-108084767D01*
X196495267Y-108092114D01*
X196493271Y-108092245D01*
X196492160Y-108090582D01*
X196492493Y-108089340D01*
X196501709Y-108075548D01*
X196499969Y-108074385D01*
X196499084Y-108072591D01*
X196499545Y-108071440D01*
X196514078Y-108054048D01*
X196522704Y-107985330D01*
X196499918Y-107937712D01*
X196500072Y-107935718D01*
X196500611Y-107935186D01*
X196501709Y-107934452D01*
X196492493Y-107920660D01*
X196492362Y-107918664D01*
X196494025Y-107917553D01*
X196495267Y-107917886D01*
G37*
G36*
X176995267Y-107917886D02*
G01*
X177006262Y-107925233D01*
X177025199Y-107929000D01*
X178124801Y-107929000D01*
X178143738Y-107925233D01*
X178154733Y-107917886D01*
X178156729Y-107917755D01*
X178157840Y-107919418D01*
X178157507Y-107920660D01*
X178148291Y-107934452D01*
X178150031Y-107935615D01*
X178150916Y-107937409D01*
X178150455Y-107938560D01*
X178135922Y-107955952D01*
X178127296Y-108024670D01*
X178150082Y-108072288D01*
X178149928Y-108074282D01*
X178149389Y-108074814D01*
X178148291Y-108075548D01*
X178157507Y-108089340D01*
X178157638Y-108091336D01*
X178155975Y-108092447D01*
X178154733Y-108092114D01*
X178143738Y-108084767D01*
X178124801Y-108081000D01*
X177025199Y-108081000D01*
X177006262Y-108084767D01*
X176995267Y-108092114D01*
X176993271Y-108092245D01*
X176992160Y-108090582D01*
X176992493Y-108089340D01*
X177001709Y-108075548D01*
X176999969Y-108074385D01*
X176999084Y-108072591D01*
X176999545Y-108071440D01*
X177014078Y-108054048D01*
X177022704Y-107985330D01*
X176999918Y-107937712D01*
X177000072Y-107935718D01*
X177000611Y-107935186D01*
X177001709Y-107934452D01*
X176992493Y-107920660D01*
X176992362Y-107918664D01*
X176994025Y-107917553D01*
X176995267Y-107917886D01*
G37*
G36*
X196495267Y-107417886D02*
G01*
X196506262Y-107425233D01*
X196525199Y-107429000D01*
X197624801Y-107429000D01*
X197643738Y-107425233D01*
X197654733Y-107417886D01*
X197656729Y-107417755D01*
X197657840Y-107419418D01*
X197657507Y-107420660D01*
X197648291Y-107434452D01*
X197650031Y-107435615D01*
X197650916Y-107437409D01*
X197650455Y-107438560D01*
X197635922Y-107455952D01*
X197627296Y-107524670D01*
X197650082Y-107572288D01*
X197649928Y-107574282D01*
X197649389Y-107574814D01*
X197648291Y-107575548D01*
X197657507Y-107589340D01*
X197657638Y-107591336D01*
X197655975Y-107592447D01*
X197654733Y-107592114D01*
X197643738Y-107584767D01*
X197624801Y-107581000D01*
X196525199Y-107581000D01*
X196506262Y-107584767D01*
X196495267Y-107592114D01*
X196493271Y-107592245D01*
X196492160Y-107590582D01*
X196492493Y-107589340D01*
X196501709Y-107575548D01*
X196499969Y-107574385D01*
X196499084Y-107572591D01*
X196499545Y-107571440D01*
X196514078Y-107554048D01*
X196522704Y-107485330D01*
X196499918Y-107437712D01*
X196500072Y-107435718D01*
X196500611Y-107435186D01*
X196501709Y-107434452D01*
X196492493Y-107420660D01*
X196492362Y-107418664D01*
X196494025Y-107417553D01*
X196495267Y-107417886D01*
G37*
G36*
X176995267Y-107417886D02*
G01*
X177006262Y-107425233D01*
X177025199Y-107429000D01*
X178124801Y-107429000D01*
X178143738Y-107425233D01*
X178154733Y-107417886D01*
X178156729Y-107417755D01*
X178157840Y-107419418D01*
X178157507Y-107420660D01*
X178148291Y-107434452D01*
X178150031Y-107435615D01*
X178150916Y-107437409D01*
X178150455Y-107438560D01*
X178135922Y-107455952D01*
X178127296Y-107524670D01*
X178150082Y-107572288D01*
X178149928Y-107574282D01*
X178149389Y-107574814D01*
X178148291Y-107575548D01*
X178157507Y-107589340D01*
X178157638Y-107591336D01*
X178155975Y-107592447D01*
X178154733Y-107592114D01*
X178143738Y-107584767D01*
X178124801Y-107581000D01*
X177025199Y-107581000D01*
X177006262Y-107584767D01*
X176995267Y-107592114D01*
X176993271Y-107592245D01*
X176992160Y-107590582D01*
X176992493Y-107589340D01*
X177001709Y-107575548D01*
X176999969Y-107574385D01*
X176999084Y-107572591D01*
X176999545Y-107571440D01*
X177014078Y-107554048D01*
X177022704Y-107485330D01*
X176999918Y-107437712D01*
X177000072Y-107435718D01*
X177000611Y-107435186D01*
X177001709Y-107434452D01*
X176992493Y-107420660D01*
X176992362Y-107418664D01*
X176994025Y-107417553D01*
X176995267Y-107417886D01*
G37*
G36*
X196495267Y-106917886D02*
G01*
X196506262Y-106925233D01*
X196525199Y-106929000D01*
X197624801Y-106929000D01*
X197643738Y-106925233D01*
X197654733Y-106917886D01*
X197656729Y-106917755D01*
X197657840Y-106919418D01*
X197657507Y-106920660D01*
X197648291Y-106934452D01*
X197650031Y-106935615D01*
X197650916Y-106937409D01*
X197650455Y-106938560D01*
X197635922Y-106955952D01*
X197627296Y-107024670D01*
X197650082Y-107072288D01*
X197649928Y-107074282D01*
X197649389Y-107074814D01*
X197648291Y-107075548D01*
X197657507Y-107089340D01*
X197657638Y-107091336D01*
X197655975Y-107092447D01*
X197654733Y-107092114D01*
X197643738Y-107084767D01*
X197624801Y-107081000D01*
X196525199Y-107081000D01*
X196506262Y-107084767D01*
X196495267Y-107092114D01*
X196493271Y-107092245D01*
X196492160Y-107090582D01*
X196492493Y-107089340D01*
X196501709Y-107075548D01*
X196499969Y-107074385D01*
X196499084Y-107072591D01*
X196499545Y-107071440D01*
X196514078Y-107054048D01*
X196522704Y-106985330D01*
X196499918Y-106937712D01*
X196500072Y-106935718D01*
X196500611Y-106935186D01*
X196501709Y-106934452D01*
X196492493Y-106920660D01*
X196492362Y-106918664D01*
X196494025Y-106917553D01*
X196495267Y-106917886D01*
G37*
G36*
X176995267Y-106917886D02*
G01*
X177006262Y-106925233D01*
X177025199Y-106929000D01*
X178124801Y-106929000D01*
X178143738Y-106925233D01*
X178154733Y-106917886D01*
X178156729Y-106917755D01*
X178157840Y-106919418D01*
X178157507Y-106920660D01*
X178148291Y-106934452D01*
X178150031Y-106935615D01*
X178150916Y-106937409D01*
X178150455Y-106938560D01*
X178135922Y-106955952D01*
X178127296Y-107024670D01*
X178150082Y-107072288D01*
X178149928Y-107074282D01*
X178149389Y-107074814D01*
X178148291Y-107075548D01*
X178157507Y-107089340D01*
X178157638Y-107091336D01*
X178155975Y-107092447D01*
X178154733Y-107092114D01*
X178143738Y-107084767D01*
X178124801Y-107081000D01*
X177025199Y-107081000D01*
X177006262Y-107084767D01*
X176995267Y-107092114D01*
X176993271Y-107092245D01*
X176992160Y-107090582D01*
X176992493Y-107089340D01*
X177001709Y-107075548D01*
X176999969Y-107074385D01*
X176999084Y-107072591D01*
X176999545Y-107071440D01*
X177014078Y-107054048D01*
X177022704Y-106985330D01*
X176999918Y-106937712D01*
X177000072Y-106935718D01*
X177000611Y-106935186D01*
X177001709Y-106934452D01*
X176992493Y-106920660D01*
X176992362Y-106918664D01*
X176994025Y-106917553D01*
X176995267Y-106917886D01*
G37*
G36*
X176995267Y-106417886D02*
G01*
X177006262Y-106425233D01*
X177025199Y-106429000D01*
X178124801Y-106429000D01*
X178143738Y-106425233D01*
X178154733Y-106417886D01*
X178156729Y-106417755D01*
X178157840Y-106419418D01*
X178157507Y-106420660D01*
X178148291Y-106434452D01*
X178150031Y-106435615D01*
X178150916Y-106437409D01*
X178150455Y-106438560D01*
X178135922Y-106455952D01*
X178127296Y-106524670D01*
X178150082Y-106572288D01*
X178149928Y-106574282D01*
X178149389Y-106574814D01*
X178148291Y-106575548D01*
X178157507Y-106589340D01*
X178157638Y-106591336D01*
X178155975Y-106592447D01*
X178154733Y-106592114D01*
X178143738Y-106584767D01*
X178124801Y-106581000D01*
X177025199Y-106581000D01*
X177006262Y-106584767D01*
X176995267Y-106592114D01*
X176993271Y-106592245D01*
X176992160Y-106590582D01*
X176992493Y-106589340D01*
X177001709Y-106575548D01*
X176999969Y-106574385D01*
X176999084Y-106572591D01*
X176999545Y-106571440D01*
X177014078Y-106554048D01*
X177022704Y-106485330D01*
X176999918Y-106437712D01*
X177000072Y-106435718D01*
X177000611Y-106435186D01*
X177001709Y-106434452D01*
X176992493Y-106420660D01*
X176992362Y-106418664D01*
X176994025Y-106417553D01*
X176995267Y-106417886D01*
G37*
G36*
X196495267Y-106417886D02*
G01*
X196506262Y-106425233D01*
X196525199Y-106429000D01*
X197624801Y-106429000D01*
X197643738Y-106425233D01*
X197654733Y-106417886D01*
X197656729Y-106417755D01*
X197657840Y-106419418D01*
X197657507Y-106420660D01*
X197648291Y-106434452D01*
X197650031Y-106435615D01*
X197650916Y-106437409D01*
X197650455Y-106438560D01*
X197635922Y-106455952D01*
X197627296Y-106524670D01*
X197650082Y-106572288D01*
X197649928Y-106574282D01*
X197649389Y-106574814D01*
X197648291Y-106575548D01*
X197657507Y-106589340D01*
X197657638Y-106591336D01*
X197655975Y-106592447D01*
X197654733Y-106592114D01*
X197643738Y-106584767D01*
X197624801Y-106581000D01*
X196525199Y-106581000D01*
X196506262Y-106584767D01*
X196495267Y-106592114D01*
X196493271Y-106592245D01*
X196492160Y-106590582D01*
X196492493Y-106589340D01*
X196501709Y-106575548D01*
X196499969Y-106574385D01*
X196499084Y-106572591D01*
X196499545Y-106571440D01*
X196514078Y-106554048D01*
X196522704Y-106485330D01*
X196499918Y-106437712D01*
X196500072Y-106435718D01*
X196500611Y-106435186D01*
X196501709Y-106434452D01*
X196492493Y-106420660D01*
X196492362Y-106418664D01*
X196494025Y-106417553D01*
X196495267Y-106417886D01*
G37*
G36*
X176995267Y-105917886D02*
G01*
X177006262Y-105925233D01*
X177025199Y-105929000D01*
X178124801Y-105929000D01*
X178143738Y-105925233D01*
X178154733Y-105917886D01*
X178156729Y-105917755D01*
X178157840Y-105919418D01*
X178157507Y-105920660D01*
X178148291Y-105934452D01*
X178150031Y-105935615D01*
X178150916Y-105937409D01*
X178150455Y-105938560D01*
X178135922Y-105955952D01*
X178127296Y-106024670D01*
X178150082Y-106072288D01*
X178149928Y-106074282D01*
X178149389Y-106074814D01*
X178148291Y-106075548D01*
X178157507Y-106089340D01*
X178157638Y-106091336D01*
X178155975Y-106092447D01*
X178154733Y-106092114D01*
X178143738Y-106084767D01*
X178124801Y-106081000D01*
X177025199Y-106081000D01*
X177006262Y-106084767D01*
X176995267Y-106092114D01*
X176993271Y-106092245D01*
X176992160Y-106090582D01*
X176992493Y-106089340D01*
X177001709Y-106075548D01*
X176999969Y-106074385D01*
X176999084Y-106072591D01*
X176999545Y-106071440D01*
X177014078Y-106054048D01*
X177022704Y-105985330D01*
X176999918Y-105937712D01*
X177000072Y-105935718D01*
X177000611Y-105935186D01*
X177001709Y-105934452D01*
X176992493Y-105920660D01*
X176992362Y-105918664D01*
X176994025Y-105917553D01*
X176995267Y-105917886D01*
G37*
G36*
X196495267Y-105917886D02*
G01*
X196506262Y-105925233D01*
X196525199Y-105929000D01*
X197624801Y-105929000D01*
X197643738Y-105925233D01*
X197654733Y-105917886D01*
X197656729Y-105917755D01*
X197657840Y-105919418D01*
X197657507Y-105920660D01*
X197648291Y-105934452D01*
X197650031Y-105935615D01*
X197650916Y-105937409D01*
X197650455Y-105938560D01*
X197635922Y-105955952D01*
X197627296Y-106024670D01*
X197650082Y-106072288D01*
X197649928Y-106074282D01*
X197649389Y-106074814D01*
X197648291Y-106075548D01*
X197657507Y-106089340D01*
X197657638Y-106091336D01*
X197655975Y-106092447D01*
X197654733Y-106092114D01*
X197643738Y-106084767D01*
X197624801Y-106081000D01*
X196525199Y-106081000D01*
X196506262Y-106084767D01*
X196495267Y-106092114D01*
X196493271Y-106092245D01*
X196492160Y-106090582D01*
X196492493Y-106089340D01*
X196501709Y-106075548D01*
X196499969Y-106074385D01*
X196499084Y-106072591D01*
X196499545Y-106071440D01*
X196514078Y-106054048D01*
X196522704Y-105985330D01*
X196499918Y-105937712D01*
X196500072Y-105935718D01*
X196500611Y-105935186D01*
X196501709Y-105934452D01*
X196492493Y-105920660D01*
X196492362Y-105918664D01*
X196494025Y-105917553D01*
X196495267Y-105917886D01*
G37*
G36*
X196495267Y-105417886D02*
G01*
X196506262Y-105425233D01*
X196525199Y-105429000D01*
X197624801Y-105429000D01*
X197643738Y-105425233D01*
X197654733Y-105417886D01*
X197656729Y-105417755D01*
X197657840Y-105419418D01*
X197657507Y-105420660D01*
X197648291Y-105434452D01*
X197650031Y-105435615D01*
X197650916Y-105437409D01*
X197650455Y-105438560D01*
X197635922Y-105455952D01*
X197627296Y-105524670D01*
X197650082Y-105572288D01*
X197649928Y-105574282D01*
X197649389Y-105574814D01*
X197648291Y-105575548D01*
X197657507Y-105589340D01*
X197657638Y-105591336D01*
X197655975Y-105592447D01*
X197654733Y-105592114D01*
X197643738Y-105584767D01*
X197624801Y-105581000D01*
X196525199Y-105581000D01*
X196506262Y-105584767D01*
X196495267Y-105592114D01*
X196493271Y-105592245D01*
X196492160Y-105590582D01*
X196492493Y-105589340D01*
X196501709Y-105575548D01*
X196499969Y-105574385D01*
X196499084Y-105572591D01*
X196499545Y-105571440D01*
X196514078Y-105554048D01*
X196522704Y-105485330D01*
X196499918Y-105437712D01*
X196500072Y-105435718D01*
X196500611Y-105435186D01*
X196501709Y-105434452D01*
X196492493Y-105420660D01*
X196492362Y-105418664D01*
X196494025Y-105417553D01*
X196495267Y-105417886D01*
G37*
G36*
X176995267Y-105417886D02*
G01*
X177006262Y-105425233D01*
X177025199Y-105429000D01*
X178124801Y-105429000D01*
X178143738Y-105425233D01*
X178154733Y-105417886D01*
X178156729Y-105417755D01*
X178157840Y-105419418D01*
X178157507Y-105420660D01*
X178148291Y-105434452D01*
X178150031Y-105435615D01*
X178150916Y-105437409D01*
X178150455Y-105438560D01*
X178135922Y-105455952D01*
X178127296Y-105524670D01*
X178150082Y-105572288D01*
X178149928Y-105574282D01*
X178149389Y-105574814D01*
X178148291Y-105575548D01*
X178157507Y-105589340D01*
X178157638Y-105591336D01*
X178155975Y-105592447D01*
X178154733Y-105592114D01*
X178143738Y-105584767D01*
X178124801Y-105581000D01*
X177025199Y-105581000D01*
X177006262Y-105584767D01*
X176995267Y-105592114D01*
X176993271Y-105592245D01*
X176992160Y-105590582D01*
X176992493Y-105589340D01*
X177001709Y-105575548D01*
X176999969Y-105574385D01*
X176999084Y-105572591D01*
X176999545Y-105571440D01*
X177014078Y-105554048D01*
X177022704Y-105485330D01*
X176999918Y-105437712D01*
X177000072Y-105435718D01*
X177000611Y-105435186D01*
X177001709Y-105434452D01*
X176992493Y-105420660D01*
X176992362Y-105418664D01*
X176994025Y-105417553D01*
X176995267Y-105417886D01*
G37*
G36*
X196495267Y-104917886D02*
G01*
X196506262Y-104925233D01*
X196525199Y-104929000D01*
X197624801Y-104929000D01*
X197643738Y-104925233D01*
X197654733Y-104917886D01*
X197656729Y-104917755D01*
X197657840Y-104919418D01*
X197657507Y-104920660D01*
X197648291Y-104934452D01*
X197650031Y-104935615D01*
X197650916Y-104937409D01*
X197650455Y-104938560D01*
X197635922Y-104955952D01*
X197627296Y-105024670D01*
X197650082Y-105072288D01*
X197649928Y-105074282D01*
X197649389Y-105074814D01*
X197648291Y-105075548D01*
X197657507Y-105089340D01*
X197657638Y-105091336D01*
X197655975Y-105092447D01*
X197654733Y-105092114D01*
X197643738Y-105084767D01*
X197624801Y-105081000D01*
X196525199Y-105081000D01*
X196506262Y-105084767D01*
X196495267Y-105092114D01*
X196493271Y-105092245D01*
X196492160Y-105090582D01*
X196492493Y-105089340D01*
X196501709Y-105075548D01*
X196499969Y-105074385D01*
X196499084Y-105072591D01*
X196499545Y-105071440D01*
X196514078Y-105054048D01*
X196522704Y-104985330D01*
X196499918Y-104937712D01*
X196500072Y-104935718D01*
X196500611Y-104935186D01*
X196501709Y-104934452D01*
X196492493Y-104920660D01*
X196492362Y-104918664D01*
X196494025Y-104917553D01*
X196495267Y-104917886D01*
G37*
G36*
X176995267Y-104917886D02*
G01*
X177006262Y-104925233D01*
X177025199Y-104929000D01*
X178124801Y-104929000D01*
X178143738Y-104925233D01*
X178154733Y-104917886D01*
X178156729Y-104917755D01*
X178157840Y-104919418D01*
X178157507Y-104920660D01*
X178148291Y-104934452D01*
X178150031Y-104935615D01*
X178150916Y-104937409D01*
X178150455Y-104938560D01*
X178135922Y-104955952D01*
X178127296Y-105024670D01*
X178150082Y-105072288D01*
X178149928Y-105074282D01*
X178149389Y-105074814D01*
X178148291Y-105075548D01*
X178157507Y-105089340D01*
X178157638Y-105091336D01*
X178155975Y-105092447D01*
X178154733Y-105092114D01*
X178143738Y-105084767D01*
X178124801Y-105081000D01*
X177025199Y-105081000D01*
X177006262Y-105084767D01*
X176995267Y-105092114D01*
X176993271Y-105092245D01*
X176992160Y-105090582D01*
X176992493Y-105089340D01*
X177001709Y-105075548D01*
X176999969Y-105074385D01*
X176999084Y-105072591D01*
X176999545Y-105071440D01*
X177014078Y-105054048D01*
X177022704Y-104985330D01*
X176999918Y-104937712D01*
X177000072Y-104935718D01*
X177000611Y-104935186D01*
X177001709Y-104934452D01*
X176992493Y-104920660D01*
X176992362Y-104918664D01*
X176994025Y-104917553D01*
X176995267Y-104917886D01*
G37*
G36*
X176995267Y-104417886D02*
G01*
X177006262Y-104425233D01*
X177025199Y-104429000D01*
X178124801Y-104429000D01*
X178143738Y-104425233D01*
X178154733Y-104417886D01*
X178156729Y-104417755D01*
X178157840Y-104419418D01*
X178157507Y-104420660D01*
X178148291Y-104434452D01*
X178150031Y-104435615D01*
X178150916Y-104437409D01*
X178150455Y-104438560D01*
X178135922Y-104455952D01*
X178127296Y-104524670D01*
X178150082Y-104572288D01*
X178149928Y-104574282D01*
X178149389Y-104574814D01*
X178148291Y-104575548D01*
X178157507Y-104589340D01*
X178157638Y-104591336D01*
X178155975Y-104592447D01*
X178154733Y-104592114D01*
X178143738Y-104584767D01*
X178124801Y-104581000D01*
X177025199Y-104581000D01*
X177006262Y-104584767D01*
X176995267Y-104592114D01*
X176993271Y-104592245D01*
X176992160Y-104590582D01*
X176992493Y-104589340D01*
X177001709Y-104575548D01*
X176999969Y-104574385D01*
X176999084Y-104572591D01*
X176999545Y-104571440D01*
X177014078Y-104554048D01*
X177022704Y-104485330D01*
X176999918Y-104437712D01*
X177000072Y-104435718D01*
X177000611Y-104435186D01*
X177001709Y-104434452D01*
X176992493Y-104420660D01*
X176992362Y-104418664D01*
X176994025Y-104417553D01*
X176995267Y-104417886D01*
G37*
G36*
X196495267Y-104417886D02*
G01*
X196506262Y-104425233D01*
X196525199Y-104429000D01*
X197624801Y-104429000D01*
X197643738Y-104425233D01*
X197654733Y-104417886D01*
X197656729Y-104417755D01*
X197657840Y-104419418D01*
X197657507Y-104420660D01*
X197648291Y-104434452D01*
X197650031Y-104435615D01*
X197650916Y-104437409D01*
X197650455Y-104438560D01*
X197635922Y-104455952D01*
X197627296Y-104524670D01*
X197650082Y-104572288D01*
X197649928Y-104574282D01*
X197649389Y-104574814D01*
X197648291Y-104575548D01*
X197657507Y-104589340D01*
X197657638Y-104591336D01*
X197655975Y-104592447D01*
X197654733Y-104592114D01*
X197643738Y-104584767D01*
X197624801Y-104581000D01*
X196525199Y-104581000D01*
X196506262Y-104584767D01*
X196495267Y-104592114D01*
X196493271Y-104592245D01*
X196492160Y-104590582D01*
X196492493Y-104589340D01*
X196501709Y-104575548D01*
X196499969Y-104574385D01*
X196499084Y-104572591D01*
X196499545Y-104571440D01*
X196514078Y-104554048D01*
X196522704Y-104485330D01*
X196499918Y-104437712D01*
X196500072Y-104435718D01*
X196500611Y-104435186D01*
X196501709Y-104434452D01*
X196492493Y-104420660D01*
X196492362Y-104418664D01*
X196494025Y-104417553D01*
X196495267Y-104417886D01*
G37*
G36*
X196495267Y-103917886D02*
G01*
X196506262Y-103925233D01*
X196525199Y-103929000D01*
X197624801Y-103929000D01*
X197643738Y-103925233D01*
X197654733Y-103917886D01*
X197656729Y-103917755D01*
X197657840Y-103919418D01*
X197657507Y-103920660D01*
X197648291Y-103934452D01*
X197650031Y-103935615D01*
X197650916Y-103937409D01*
X197650455Y-103938560D01*
X197635922Y-103955952D01*
X197627296Y-104024670D01*
X197650082Y-104072288D01*
X197649928Y-104074282D01*
X197649389Y-104074814D01*
X197648291Y-104075548D01*
X197657507Y-104089340D01*
X197657638Y-104091336D01*
X197655975Y-104092447D01*
X197654733Y-104092114D01*
X197643738Y-104084767D01*
X197624801Y-104081000D01*
X196525199Y-104081000D01*
X196506262Y-104084767D01*
X196495267Y-104092114D01*
X196493271Y-104092245D01*
X196492160Y-104090582D01*
X196492493Y-104089340D01*
X196501709Y-104075548D01*
X196499969Y-104074385D01*
X196499084Y-104072591D01*
X196499545Y-104071440D01*
X196514078Y-104054048D01*
X196522704Y-103985330D01*
X196499918Y-103937712D01*
X196500072Y-103935718D01*
X196500611Y-103935186D01*
X196501709Y-103934452D01*
X196492493Y-103920660D01*
X196492362Y-103918664D01*
X196494025Y-103917553D01*
X196495267Y-103917886D01*
G37*
G36*
X176995267Y-103917886D02*
G01*
X177006262Y-103925233D01*
X177025199Y-103929000D01*
X178124801Y-103929000D01*
X178143738Y-103925233D01*
X178154733Y-103917886D01*
X178156729Y-103917755D01*
X178157840Y-103919418D01*
X178157507Y-103920660D01*
X178148291Y-103934452D01*
X178150031Y-103935615D01*
X178150916Y-103937409D01*
X178150455Y-103938560D01*
X178135922Y-103955952D01*
X178127296Y-104024670D01*
X178150082Y-104072288D01*
X178149928Y-104074282D01*
X178149389Y-104074814D01*
X178148291Y-104075548D01*
X178157507Y-104089340D01*
X178157638Y-104091336D01*
X178155975Y-104092447D01*
X178154733Y-104092114D01*
X178143738Y-104084767D01*
X178124801Y-104081000D01*
X177025199Y-104081000D01*
X177006262Y-104084767D01*
X176995267Y-104092114D01*
X176993271Y-104092245D01*
X176992160Y-104090582D01*
X176992493Y-104089340D01*
X177001709Y-104075548D01*
X176999969Y-104074385D01*
X176999084Y-104072591D01*
X176999545Y-104071440D01*
X177014078Y-104054048D01*
X177022704Y-103985330D01*
X176999918Y-103937712D01*
X177000072Y-103935718D01*
X177000611Y-103935186D01*
X177001709Y-103934452D01*
X176992493Y-103920660D01*
X176992362Y-103918664D01*
X176994025Y-103917553D01*
X176995267Y-103917886D01*
G37*
G36*
X176995267Y-103417886D02*
G01*
X177006262Y-103425233D01*
X177025199Y-103429000D01*
X178124801Y-103429000D01*
X178143738Y-103425233D01*
X178154733Y-103417886D01*
X178156729Y-103417755D01*
X178157840Y-103419418D01*
X178157507Y-103420660D01*
X178148291Y-103434452D01*
X178150031Y-103435615D01*
X178150916Y-103437409D01*
X178150455Y-103438560D01*
X178135922Y-103455952D01*
X178127296Y-103524670D01*
X178150082Y-103572288D01*
X178149928Y-103574282D01*
X178149389Y-103574814D01*
X178148291Y-103575548D01*
X178157507Y-103589340D01*
X178157638Y-103591336D01*
X178155975Y-103592447D01*
X178154733Y-103592114D01*
X178143738Y-103584767D01*
X178124801Y-103581000D01*
X177025199Y-103581000D01*
X177006262Y-103584767D01*
X176995267Y-103592114D01*
X176993271Y-103592245D01*
X176992160Y-103590582D01*
X176992493Y-103589340D01*
X177001709Y-103575548D01*
X176999969Y-103574385D01*
X176999084Y-103572591D01*
X176999545Y-103571440D01*
X177014078Y-103554048D01*
X177022704Y-103485330D01*
X176999918Y-103437712D01*
X177000072Y-103435718D01*
X177000611Y-103435186D01*
X177001709Y-103434452D01*
X176992493Y-103420660D01*
X176992362Y-103418664D01*
X176994025Y-103417553D01*
X176995267Y-103417886D01*
G37*
G36*
X196495267Y-103417886D02*
G01*
X196506262Y-103425233D01*
X196525199Y-103429000D01*
X197624801Y-103429000D01*
X197643738Y-103425233D01*
X197654733Y-103417886D01*
X197656729Y-103417755D01*
X197657840Y-103419418D01*
X197657507Y-103420660D01*
X197648291Y-103434452D01*
X197650031Y-103435615D01*
X197650916Y-103437409D01*
X197650455Y-103438560D01*
X197635922Y-103455952D01*
X197627296Y-103524670D01*
X197650082Y-103572288D01*
X197649928Y-103574282D01*
X197649389Y-103574814D01*
X197648291Y-103575548D01*
X197657507Y-103589340D01*
X197657638Y-103591336D01*
X197655975Y-103592447D01*
X197654733Y-103592114D01*
X197643738Y-103584767D01*
X197624801Y-103581000D01*
X196525199Y-103581000D01*
X196506262Y-103584767D01*
X196495267Y-103592114D01*
X196493271Y-103592245D01*
X196492160Y-103590582D01*
X196492493Y-103589340D01*
X196501709Y-103575548D01*
X196499969Y-103574385D01*
X196499084Y-103572591D01*
X196499545Y-103571440D01*
X196514078Y-103554048D01*
X196522704Y-103485330D01*
X196499918Y-103437712D01*
X196500072Y-103435718D01*
X196500611Y-103435186D01*
X196501709Y-103434452D01*
X196492493Y-103420660D01*
X196492362Y-103418664D01*
X196494025Y-103417553D01*
X196495267Y-103417886D01*
G37*
G36*
X176995267Y-102917886D02*
G01*
X177006262Y-102925233D01*
X177025199Y-102929000D01*
X178124801Y-102929000D01*
X178143738Y-102925233D01*
X178154733Y-102917886D01*
X178156729Y-102917755D01*
X178157840Y-102919418D01*
X178157507Y-102920660D01*
X178148291Y-102934452D01*
X178150031Y-102935615D01*
X178150916Y-102937409D01*
X178150455Y-102938560D01*
X178135922Y-102955952D01*
X178127296Y-103024670D01*
X178150082Y-103072288D01*
X178149928Y-103074282D01*
X178149389Y-103074814D01*
X178148291Y-103075548D01*
X178157507Y-103089340D01*
X178157638Y-103091336D01*
X178155975Y-103092447D01*
X178154733Y-103092114D01*
X178143738Y-103084767D01*
X178124801Y-103081000D01*
X177025199Y-103081000D01*
X177006262Y-103084767D01*
X176995267Y-103092114D01*
X176993271Y-103092245D01*
X176992160Y-103090582D01*
X176992493Y-103089340D01*
X177001709Y-103075548D01*
X176999969Y-103074385D01*
X176999084Y-103072591D01*
X176999545Y-103071440D01*
X177014078Y-103054048D01*
X177022704Y-102985330D01*
X176999918Y-102937712D01*
X177000072Y-102935718D01*
X177000611Y-102935186D01*
X177001709Y-102934452D01*
X176992493Y-102920660D01*
X176992362Y-102918664D01*
X176994025Y-102917553D01*
X176995267Y-102917886D01*
G37*
G36*
X196495267Y-102917886D02*
G01*
X196506262Y-102925233D01*
X196525199Y-102929000D01*
X197624801Y-102929000D01*
X197643738Y-102925233D01*
X197654733Y-102917886D01*
X197656729Y-102917755D01*
X197657840Y-102919418D01*
X197657507Y-102920660D01*
X197648291Y-102934452D01*
X197650031Y-102935615D01*
X197650916Y-102937409D01*
X197650455Y-102938560D01*
X197635922Y-102955952D01*
X197627296Y-103024670D01*
X197650082Y-103072288D01*
X197649928Y-103074282D01*
X197649389Y-103074814D01*
X197648291Y-103075548D01*
X197657507Y-103089340D01*
X197657638Y-103091336D01*
X197655975Y-103092447D01*
X197654733Y-103092114D01*
X197643738Y-103084767D01*
X197624801Y-103081000D01*
X196525199Y-103081000D01*
X196506262Y-103084767D01*
X196495267Y-103092114D01*
X196493271Y-103092245D01*
X196492160Y-103090582D01*
X196492493Y-103089340D01*
X196501709Y-103075548D01*
X196499969Y-103074385D01*
X196499084Y-103072591D01*
X196499545Y-103071440D01*
X196514078Y-103054048D01*
X196522704Y-102985330D01*
X196499918Y-102937712D01*
X196500072Y-102935718D01*
X196500611Y-102935186D01*
X196501709Y-102934452D01*
X196492493Y-102920660D01*
X196492362Y-102918664D01*
X196494025Y-102917553D01*
X196495267Y-102917886D01*
G37*
G36*
X176995267Y-102417886D02*
G01*
X177006262Y-102425233D01*
X177025199Y-102429000D01*
X178124801Y-102429000D01*
X178143738Y-102425233D01*
X178154733Y-102417886D01*
X178156729Y-102417755D01*
X178157840Y-102419418D01*
X178157507Y-102420660D01*
X178148291Y-102434452D01*
X178150031Y-102435615D01*
X178150916Y-102437409D01*
X178150455Y-102438560D01*
X178135922Y-102455952D01*
X178127296Y-102524670D01*
X178150082Y-102572288D01*
X178149928Y-102574282D01*
X178149389Y-102574814D01*
X178148291Y-102575548D01*
X178157507Y-102589340D01*
X178157638Y-102591336D01*
X178155975Y-102592447D01*
X178154733Y-102592114D01*
X178143738Y-102584767D01*
X178124801Y-102581000D01*
X177025199Y-102581000D01*
X177006262Y-102584767D01*
X176995267Y-102592114D01*
X176993271Y-102592245D01*
X176992160Y-102590582D01*
X176992493Y-102589340D01*
X177001709Y-102575548D01*
X176999969Y-102574385D01*
X176999084Y-102572591D01*
X176999545Y-102571440D01*
X177014078Y-102554048D01*
X177022704Y-102485330D01*
X176999918Y-102437712D01*
X177000072Y-102435718D01*
X177000611Y-102435186D01*
X177001709Y-102434452D01*
X176992493Y-102420660D01*
X176992362Y-102418664D01*
X176994025Y-102417553D01*
X176995267Y-102417886D01*
G37*
G36*
X196495267Y-102417886D02*
G01*
X196506262Y-102425233D01*
X196525199Y-102429000D01*
X197624801Y-102429000D01*
X197643738Y-102425233D01*
X197654733Y-102417886D01*
X197656729Y-102417755D01*
X197657840Y-102419418D01*
X197657507Y-102420660D01*
X197648291Y-102434452D01*
X197650031Y-102435615D01*
X197650916Y-102437409D01*
X197650455Y-102438560D01*
X197635922Y-102455952D01*
X197627296Y-102524670D01*
X197650082Y-102572288D01*
X197649928Y-102574282D01*
X197649389Y-102574814D01*
X197648291Y-102575548D01*
X197657507Y-102589340D01*
X197657638Y-102591336D01*
X197655975Y-102592447D01*
X197654733Y-102592114D01*
X197643738Y-102584767D01*
X197624801Y-102581000D01*
X196525199Y-102581000D01*
X196506262Y-102584767D01*
X196495267Y-102592114D01*
X196493271Y-102592245D01*
X196492160Y-102590582D01*
X196492493Y-102589340D01*
X196501709Y-102575548D01*
X196499969Y-102574385D01*
X196499084Y-102572591D01*
X196499545Y-102571440D01*
X196514078Y-102554048D01*
X196522704Y-102485330D01*
X196499918Y-102437712D01*
X196500072Y-102435718D01*
X196500611Y-102435186D01*
X196501709Y-102434452D01*
X196492493Y-102420660D01*
X196492362Y-102418664D01*
X196494025Y-102417553D01*
X196495267Y-102417886D01*
G37*
G36*
X176995267Y-101917886D02*
G01*
X177006262Y-101925233D01*
X177025199Y-101929000D01*
X178124801Y-101929000D01*
X178143738Y-101925233D01*
X178154733Y-101917886D01*
X178156729Y-101917755D01*
X178157840Y-101919418D01*
X178157507Y-101920660D01*
X178148291Y-101934452D01*
X178150031Y-101935615D01*
X178150916Y-101937409D01*
X178150455Y-101938560D01*
X178135922Y-101955952D01*
X178127296Y-102024670D01*
X178150082Y-102072288D01*
X178149928Y-102074282D01*
X178149389Y-102074814D01*
X178148291Y-102075548D01*
X178157507Y-102089340D01*
X178157638Y-102091336D01*
X178155975Y-102092447D01*
X178154733Y-102092114D01*
X178143738Y-102084767D01*
X178124801Y-102081000D01*
X177025199Y-102081000D01*
X177006262Y-102084767D01*
X176995267Y-102092114D01*
X176993271Y-102092245D01*
X176992160Y-102090582D01*
X176992493Y-102089340D01*
X177001709Y-102075548D01*
X176999969Y-102074385D01*
X176999084Y-102072591D01*
X176999545Y-102071440D01*
X177014078Y-102054048D01*
X177022704Y-101985330D01*
X176999918Y-101937712D01*
X177000072Y-101935718D01*
X177000611Y-101935186D01*
X177001709Y-101934452D01*
X176992493Y-101920660D01*
X176992362Y-101918664D01*
X176994025Y-101917553D01*
X176995267Y-101917886D01*
G37*
G36*
X196495267Y-101917886D02*
G01*
X196506262Y-101925233D01*
X196525199Y-101929000D01*
X197624801Y-101929000D01*
X197643738Y-101925233D01*
X197654733Y-101917886D01*
X197656729Y-101917755D01*
X197657840Y-101919418D01*
X197657507Y-101920660D01*
X197648291Y-101934452D01*
X197650031Y-101935615D01*
X197650916Y-101937409D01*
X197650455Y-101938560D01*
X197635922Y-101955952D01*
X197627296Y-102024670D01*
X197650082Y-102072288D01*
X197649928Y-102074282D01*
X197649389Y-102074814D01*
X197648291Y-102075548D01*
X197657507Y-102089340D01*
X197657638Y-102091336D01*
X197655975Y-102092447D01*
X197654733Y-102092114D01*
X197643738Y-102084767D01*
X197624801Y-102081000D01*
X196525199Y-102081000D01*
X196506262Y-102084767D01*
X196495267Y-102092114D01*
X196493271Y-102092245D01*
X196492160Y-102090582D01*
X196492493Y-102089340D01*
X196501709Y-102075548D01*
X196499969Y-102074385D01*
X196499084Y-102072591D01*
X196499545Y-102071440D01*
X196514078Y-102054048D01*
X196522704Y-101985330D01*
X196499918Y-101937712D01*
X196500072Y-101935718D01*
X196500611Y-101935186D01*
X196501709Y-101934452D01*
X196492493Y-101920660D01*
X196492362Y-101918664D01*
X196494025Y-101917553D01*
X196495267Y-101917886D01*
G37*
G36*
X196495267Y-101417886D02*
G01*
X196506262Y-101425233D01*
X196525199Y-101429000D01*
X197624801Y-101429000D01*
X197643738Y-101425233D01*
X197654733Y-101417886D01*
X197656729Y-101417755D01*
X197657840Y-101419418D01*
X197657507Y-101420660D01*
X197648291Y-101434452D01*
X197650031Y-101435615D01*
X197650916Y-101437409D01*
X197650455Y-101438560D01*
X197635922Y-101455952D01*
X197627296Y-101524670D01*
X197650082Y-101572288D01*
X197649928Y-101574282D01*
X197649389Y-101574814D01*
X197648291Y-101575548D01*
X197657507Y-101589340D01*
X197657638Y-101591336D01*
X197655975Y-101592447D01*
X197654733Y-101592114D01*
X197643738Y-101584767D01*
X197624801Y-101581000D01*
X196525199Y-101581000D01*
X196506262Y-101584767D01*
X196495267Y-101592114D01*
X196493271Y-101592245D01*
X196492160Y-101590582D01*
X196492493Y-101589340D01*
X196501709Y-101575548D01*
X196499969Y-101574385D01*
X196499084Y-101572591D01*
X196499545Y-101571440D01*
X196514078Y-101554048D01*
X196522704Y-101485330D01*
X196499918Y-101437712D01*
X196500072Y-101435718D01*
X196500611Y-101435186D01*
X196501709Y-101434452D01*
X196492493Y-101420660D01*
X196492362Y-101418664D01*
X196494025Y-101417553D01*
X196495267Y-101417886D01*
G37*
G36*
X176995267Y-101417886D02*
G01*
X177006262Y-101425233D01*
X177025199Y-101429000D01*
X178124801Y-101429000D01*
X178143738Y-101425233D01*
X178154733Y-101417886D01*
X178156729Y-101417755D01*
X178157840Y-101419418D01*
X178157507Y-101420660D01*
X178148291Y-101434452D01*
X178150031Y-101435615D01*
X178150916Y-101437409D01*
X178150455Y-101438560D01*
X178135922Y-101455952D01*
X178127296Y-101524670D01*
X178150082Y-101572288D01*
X178149928Y-101574282D01*
X178149389Y-101574814D01*
X178148291Y-101575548D01*
X178157507Y-101589340D01*
X178157638Y-101591336D01*
X178155975Y-101592447D01*
X178154733Y-101592114D01*
X178143738Y-101584767D01*
X178124801Y-101581000D01*
X177025199Y-101581000D01*
X177006262Y-101584767D01*
X176995267Y-101592114D01*
X176993271Y-101592245D01*
X176992160Y-101590582D01*
X176992493Y-101589340D01*
X177001709Y-101575548D01*
X176999969Y-101574385D01*
X176999084Y-101572591D01*
X176999545Y-101571440D01*
X177014078Y-101554048D01*
X177022704Y-101485330D01*
X176999918Y-101437712D01*
X177000072Y-101435718D01*
X177000611Y-101435186D01*
X177001709Y-101434452D01*
X176992493Y-101420660D01*
X176992362Y-101418664D01*
X176994025Y-101417553D01*
X176995267Y-101417886D01*
G37*
G36*
X196495267Y-100917886D02*
G01*
X196506262Y-100925233D01*
X196525199Y-100929000D01*
X197624801Y-100929000D01*
X197643738Y-100925233D01*
X197654733Y-100917886D01*
X197656729Y-100917755D01*
X197657840Y-100919418D01*
X197657507Y-100920660D01*
X197648291Y-100934452D01*
X197650031Y-100935615D01*
X197650916Y-100937409D01*
X197650455Y-100938560D01*
X197635922Y-100955952D01*
X197627296Y-101024670D01*
X197650082Y-101072288D01*
X197649928Y-101074282D01*
X197649389Y-101074814D01*
X197648291Y-101075548D01*
X197657507Y-101089340D01*
X197657638Y-101091336D01*
X197655975Y-101092447D01*
X197654733Y-101092114D01*
X197643738Y-101084767D01*
X197624801Y-101081000D01*
X196525199Y-101081000D01*
X196506262Y-101084767D01*
X196495267Y-101092114D01*
X196493271Y-101092245D01*
X196492160Y-101090582D01*
X196492493Y-101089340D01*
X196501709Y-101075548D01*
X196499969Y-101074385D01*
X196499084Y-101072591D01*
X196499545Y-101071440D01*
X196514078Y-101054048D01*
X196522704Y-100985330D01*
X196499918Y-100937712D01*
X196500072Y-100935718D01*
X196500611Y-100935186D01*
X196501709Y-100934452D01*
X196492493Y-100920660D01*
X196492362Y-100918664D01*
X196494025Y-100917553D01*
X196495267Y-100917886D01*
G37*
G36*
X176995267Y-100917886D02*
G01*
X177006262Y-100925233D01*
X177025199Y-100929000D01*
X178124801Y-100929000D01*
X178143738Y-100925233D01*
X178154733Y-100917886D01*
X178156729Y-100917755D01*
X178157840Y-100919418D01*
X178157507Y-100920660D01*
X178148291Y-100934452D01*
X178150031Y-100935615D01*
X178150916Y-100937409D01*
X178150455Y-100938560D01*
X178135922Y-100955952D01*
X178127296Y-101024670D01*
X178150082Y-101072288D01*
X178149928Y-101074282D01*
X178149389Y-101074814D01*
X178148291Y-101075548D01*
X178157507Y-101089340D01*
X178157638Y-101091336D01*
X178155975Y-101092447D01*
X178154733Y-101092114D01*
X178143738Y-101084767D01*
X178124801Y-101081000D01*
X177025199Y-101081000D01*
X177006262Y-101084767D01*
X176995267Y-101092114D01*
X176993271Y-101092245D01*
X176992160Y-101090582D01*
X176992493Y-101089340D01*
X177001709Y-101075548D01*
X176999969Y-101074385D01*
X176999084Y-101072591D01*
X176999545Y-101071440D01*
X177014078Y-101054048D01*
X177022704Y-100985330D01*
X176999918Y-100937712D01*
X177000072Y-100935718D01*
X177000611Y-100935186D01*
X177001709Y-100934452D01*
X176992493Y-100920660D01*
X176992362Y-100918664D01*
X176994025Y-100917553D01*
X176995267Y-100917886D01*
G37*
G36*
X196495267Y-100417886D02*
G01*
X196506262Y-100425233D01*
X196525199Y-100429000D01*
X197624801Y-100429000D01*
X197643738Y-100425233D01*
X197654733Y-100417886D01*
X197656729Y-100417755D01*
X197657840Y-100419418D01*
X197657507Y-100420660D01*
X197648291Y-100434452D01*
X197650031Y-100435615D01*
X197650916Y-100437409D01*
X197650455Y-100438560D01*
X197635922Y-100455952D01*
X197627296Y-100524670D01*
X197650082Y-100572288D01*
X197649928Y-100574282D01*
X197649389Y-100574814D01*
X197648291Y-100575548D01*
X197657507Y-100589340D01*
X197657638Y-100591336D01*
X197655975Y-100592447D01*
X197654733Y-100592114D01*
X197643738Y-100584767D01*
X197624801Y-100581000D01*
X196525199Y-100581000D01*
X196506262Y-100584767D01*
X196495267Y-100592114D01*
X196493271Y-100592245D01*
X196492160Y-100590582D01*
X196492493Y-100589340D01*
X196501709Y-100575548D01*
X196499969Y-100574385D01*
X196499084Y-100572591D01*
X196499545Y-100571440D01*
X196514078Y-100554048D01*
X196522704Y-100485330D01*
X196499918Y-100437712D01*
X196500072Y-100435718D01*
X196500611Y-100435186D01*
X196501709Y-100434452D01*
X196492493Y-100420660D01*
X196492362Y-100418664D01*
X196494025Y-100417553D01*
X196495267Y-100417886D01*
G37*
G36*
X176995267Y-100417886D02*
G01*
X177006262Y-100425233D01*
X177025199Y-100429000D01*
X178124801Y-100429000D01*
X178143738Y-100425233D01*
X178154733Y-100417886D01*
X178156729Y-100417755D01*
X178157840Y-100419418D01*
X178157507Y-100420660D01*
X178148291Y-100434452D01*
X178150031Y-100435615D01*
X178150916Y-100437409D01*
X178150455Y-100438560D01*
X178135922Y-100455952D01*
X178127296Y-100524670D01*
X178150082Y-100572288D01*
X178149928Y-100574282D01*
X178149389Y-100574814D01*
X178148291Y-100575548D01*
X178157507Y-100589340D01*
X178157638Y-100591336D01*
X178155975Y-100592447D01*
X178154733Y-100592114D01*
X178143738Y-100584767D01*
X178124801Y-100581000D01*
X177025199Y-100581000D01*
X177006262Y-100584767D01*
X176995267Y-100592114D01*
X176993271Y-100592245D01*
X176992160Y-100590582D01*
X176992493Y-100589340D01*
X177001709Y-100575548D01*
X176999969Y-100574385D01*
X176999084Y-100572591D01*
X176999545Y-100571440D01*
X177014078Y-100554048D01*
X177022704Y-100485330D01*
X176999918Y-100437712D01*
X177000072Y-100435718D01*
X177000611Y-100435186D01*
X177001709Y-100434452D01*
X176992493Y-100420660D01*
X176992362Y-100418664D01*
X176994025Y-100417553D01*
X176995267Y-100417886D01*
G37*
G36*
X196495267Y-99917886D02*
G01*
X196506262Y-99925233D01*
X196525199Y-99929000D01*
X197624801Y-99929000D01*
X197643738Y-99925233D01*
X197654733Y-99917886D01*
X197656729Y-99917755D01*
X197657840Y-99919418D01*
X197657507Y-99920660D01*
X197648291Y-99934452D01*
X197650031Y-99935615D01*
X197650916Y-99937409D01*
X197650455Y-99938560D01*
X197635922Y-99955952D01*
X197627296Y-100024670D01*
X197650082Y-100072288D01*
X197649928Y-100074282D01*
X197649389Y-100074814D01*
X197648291Y-100075548D01*
X197657507Y-100089340D01*
X197657638Y-100091336D01*
X197655975Y-100092447D01*
X197654733Y-100092114D01*
X197643738Y-100084767D01*
X197624801Y-100081000D01*
X196525199Y-100081000D01*
X196506262Y-100084767D01*
X196495267Y-100092114D01*
X196493271Y-100092245D01*
X196492160Y-100090582D01*
X196492493Y-100089340D01*
X196501709Y-100075548D01*
X196499969Y-100074385D01*
X196499084Y-100072591D01*
X196499545Y-100071440D01*
X196514078Y-100054048D01*
X196522704Y-99985330D01*
X196499918Y-99937712D01*
X196500072Y-99935718D01*
X196500611Y-99935186D01*
X196501709Y-99934452D01*
X196492493Y-99920660D01*
X196492362Y-99918664D01*
X196494025Y-99917553D01*
X196495267Y-99917886D01*
G37*
G36*
X176995267Y-99917886D02*
G01*
X177006262Y-99925233D01*
X177025199Y-99929000D01*
X178124801Y-99929000D01*
X178143738Y-99925233D01*
X178154733Y-99917886D01*
X178156729Y-99917755D01*
X178157840Y-99919418D01*
X178157507Y-99920660D01*
X178148291Y-99934452D01*
X178150031Y-99935615D01*
X178150916Y-99937409D01*
X178150455Y-99938560D01*
X178135922Y-99955952D01*
X178127296Y-100024670D01*
X178150082Y-100072288D01*
X178149928Y-100074282D01*
X178149389Y-100074814D01*
X178148291Y-100075548D01*
X178157507Y-100089340D01*
X178157638Y-100091336D01*
X178155975Y-100092447D01*
X178154733Y-100092114D01*
X178143738Y-100084767D01*
X178124801Y-100081000D01*
X177025199Y-100081000D01*
X177006262Y-100084767D01*
X176995267Y-100092114D01*
X176993271Y-100092245D01*
X176992160Y-100090582D01*
X176992493Y-100089340D01*
X177001709Y-100075548D01*
X176999969Y-100074385D01*
X176999084Y-100072591D01*
X176999545Y-100071440D01*
X177014078Y-100054048D01*
X177022704Y-99985330D01*
X176999918Y-99937712D01*
X177000072Y-99935718D01*
X177000611Y-99935186D01*
X177001709Y-99934452D01*
X176992493Y-99920660D01*
X176992362Y-99918664D01*
X176994025Y-99917553D01*
X176995267Y-99917886D01*
G37*
G36*
X176995267Y-99417886D02*
G01*
X177006262Y-99425233D01*
X177025199Y-99429000D01*
X178124801Y-99429000D01*
X178143738Y-99425233D01*
X178154733Y-99417886D01*
X178156729Y-99417755D01*
X178157840Y-99419418D01*
X178157507Y-99420660D01*
X178148291Y-99434452D01*
X178150031Y-99435615D01*
X178150916Y-99437409D01*
X178150455Y-99438560D01*
X178135922Y-99455952D01*
X178127296Y-99524670D01*
X178150082Y-99572288D01*
X178149928Y-99574282D01*
X178149389Y-99574814D01*
X178148291Y-99575548D01*
X178157507Y-99589340D01*
X178157638Y-99591336D01*
X178155975Y-99592447D01*
X178154733Y-99592114D01*
X178143738Y-99584767D01*
X178124801Y-99581000D01*
X177025199Y-99581000D01*
X177006262Y-99584767D01*
X176995267Y-99592114D01*
X176993271Y-99592245D01*
X176992160Y-99590582D01*
X176992493Y-99589340D01*
X177001709Y-99575548D01*
X176999969Y-99574385D01*
X176999084Y-99572591D01*
X176999545Y-99571440D01*
X177014078Y-99554048D01*
X177022704Y-99485330D01*
X176999918Y-99437712D01*
X177000072Y-99435718D01*
X177000611Y-99435186D01*
X177001709Y-99434452D01*
X176992493Y-99420660D01*
X176992362Y-99418664D01*
X176994025Y-99417553D01*
X176995267Y-99417886D01*
G37*
G36*
X196495267Y-99417886D02*
G01*
X196506262Y-99425233D01*
X196525199Y-99429000D01*
X197624801Y-99429000D01*
X197643738Y-99425233D01*
X197654733Y-99417886D01*
X197656729Y-99417755D01*
X197657840Y-99419418D01*
X197657507Y-99420660D01*
X197648291Y-99434452D01*
X197650031Y-99435615D01*
X197650916Y-99437409D01*
X197650455Y-99438560D01*
X197635922Y-99455952D01*
X197627296Y-99524670D01*
X197650082Y-99572288D01*
X197649928Y-99574282D01*
X197649389Y-99574814D01*
X197648291Y-99575548D01*
X197657507Y-99589340D01*
X197657638Y-99591336D01*
X197655975Y-99592447D01*
X197654733Y-99592114D01*
X197643738Y-99584767D01*
X197624801Y-99581000D01*
X196525199Y-99581000D01*
X196506262Y-99584767D01*
X196495267Y-99592114D01*
X196493271Y-99592245D01*
X196492160Y-99590582D01*
X196492493Y-99589340D01*
X196501709Y-99575548D01*
X196499969Y-99574385D01*
X196499084Y-99572591D01*
X196499545Y-99571440D01*
X196514078Y-99554048D01*
X196522704Y-99485330D01*
X196499918Y-99437712D01*
X196500072Y-99435718D01*
X196500611Y-99435186D01*
X196501709Y-99434452D01*
X196492493Y-99420660D01*
X196492362Y-99418664D01*
X196494025Y-99417553D01*
X196495267Y-99417886D01*
G37*
G36*
X176995267Y-98917886D02*
G01*
X177006262Y-98925233D01*
X177025199Y-98929000D01*
X178124801Y-98929000D01*
X178143738Y-98925233D01*
X178154733Y-98917886D01*
X178156729Y-98917755D01*
X178157840Y-98919418D01*
X178157507Y-98920660D01*
X178148291Y-98934452D01*
X178150031Y-98935615D01*
X178150916Y-98937409D01*
X178150455Y-98938560D01*
X178135922Y-98955952D01*
X178127296Y-99024670D01*
X178150082Y-99072288D01*
X178149928Y-99074282D01*
X178149389Y-99074814D01*
X178148291Y-99075548D01*
X178157507Y-99089340D01*
X178157638Y-99091336D01*
X178155975Y-99092447D01*
X178154733Y-99092114D01*
X178143738Y-99084767D01*
X178124801Y-99081000D01*
X177025199Y-99081000D01*
X177006262Y-99084767D01*
X176995267Y-99092114D01*
X176993271Y-99092245D01*
X176992160Y-99090582D01*
X176992493Y-99089340D01*
X177001709Y-99075548D01*
X176999969Y-99074385D01*
X176999084Y-99072591D01*
X176999545Y-99071440D01*
X177014078Y-99054048D01*
X177022704Y-98985330D01*
X176999918Y-98937712D01*
X177000072Y-98935718D01*
X177000611Y-98935186D01*
X177001709Y-98934452D01*
X176992493Y-98920660D01*
X176992362Y-98918664D01*
X176994025Y-98917553D01*
X176995267Y-98917886D01*
G37*
G36*
X196495267Y-98917886D02*
G01*
X196506262Y-98925233D01*
X196525199Y-98929000D01*
X197624801Y-98929000D01*
X197643738Y-98925233D01*
X197654733Y-98917886D01*
X197656729Y-98917755D01*
X197657840Y-98919418D01*
X197657507Y-98920660D01*
X197648291Y-98934452D01*
X197650031Y-98935615D01*
X197650916Y-98937409D01*
X197650455Y-98938560D01*
X197635922Y-98955952D01*
X197627296Y-99024670D01*
X197650082Y-99072288D01*
X197649928Y-99074282D01*
X197649389Y-99074814D01*
X197648291Y-99075548D01*
X197657507Y-99089340D01*
X197657638Y-99091336D01*
X197655975Y-99092447D01*
X197654733Y-99092114D01*
X197643738Y-99084767D01*
X197624801Y-99081000D01*
X196525199Y-99081000D01*
X196506262Y-99084767D01*
X196495267Y-99092114D01*
X196493271Y-99092245D01*
X196492160Y-99090582D01*
X196492493Y-99089340D01*
X196501709Y-99075548D01*
X196499969Y-99074385D01*
X196499084Y-99072591D01*
X196499545Y-99071440D01*
X196514078Y-99054048D01*
X196522704Y-98985330D01*
X196499918Y-98937712D01*
X196500072Y-98935718D01*
X196500611Y-98935186D01*
X196501709Y-98934452D01*
X196492493Y-98920660D01*
X196492362Y-98918664D01*
X196494025Y-98917553D01*
X196495267Y-98917886D01*
G37*
G36*
X196495267Y-98417886D02*
G01*
X196506262Y-98425233D01*
X196525199Y-98429000D01*
X197624801Y-98429000D01*
X197643738Y-98425233D01*
X197654733Y-98417886D01*
X197656729Y-98417755D01*
X197657840Y-98419418D01*
X197657507Y-98420660D01*
X197648291Y-98434452D01*
X197650031Y-98435615D01*
X197650916Y-98437409D01*
X197650455Y-98438560D01*
X197635922Y-98455952D01*
X197627296Y-98524670D01*
X197650082Y-98572288D01*
X197649928Y-98574282D01*
X197649389Y-98574814D01*
X197648291Y-98575548D01*
X197657507Y-98589340D01*
X197657638Y-98591336D01*
X197655975Y-98592447D01*
X197654733Y-98592114D01*
X197643738Y-98584767D01*
X197624801Y-98581000D01*
X196525199Y-98581000D01*
X196506262Y-98584767D01*
X196495267Y-98592114D01*
X196493271Y-98592245D01*
X196492160Y-98590582D01*
X196492493Y-98589340D01*
X196501709Y-98575548D01*
X196499969Y-98574385D01*
X196499084Y-98572591D01*
X196499545Y-98571440D01*
X196514078Y-98554048D01*
X196522704Y-98485330D01*
X196499918Y-98437712D01*
X196500072Y-98435718D01*
X196500611Y-98435186D01*
X196501709Y-98434452D01*
X196492493Y-98420660D01*
X196492362Y-98418664D01*
X196494025Y-98417553D01*
X196495267Y-98417886D01*
G37*
G36*
X176995267Y-98417886D02*
G01*
X177006262Y-98425233D01*
X177025199Y-98429000D01*
X178124801Y-98429000D01*
X178143738Y-98425233D01*
X178154733Y-98417886D01*
X178156729Y-98417755D01*
X178157840Y-98419418D01*
X178157507Y-98420660D01*
X178148291Y-98434452D01*
X178150031Y-98435615D01*
X178150916Y-98437409D01*
X178150455Y-98438560D01*
X178135922Y-98455952D01*
X178127296Y-98524670D01*
X178150082Y-98572288D01*
X178149928Y-98574282D01*
X178149389Y-98574814D01*
X178148291Y-98575548D01*
X178157507Y-98589340D01*
X178157638Y-98591336D01*
X178155975Y-98592447D01*
X178154733Y-98592114D01*
X178143738Y-98584767D01*
X178124801Y-98581000D01*
X177025199Y-98581000D01*
X177006262Y-98584767D01*
X176995267Y-98592114D01*
X176993271Y-98592245D01*
X176992160Y-98590582D01*
X176992493Y-98589340D01*
X177001709Y-98575548D01*
X176999969Y-98574385D01*
X176999084Y-98572591D01*
X176999545Y-98571440D01*
X177014078Y-98554048D01*
X177022704Y-98485330D01*
X176999918Y-98437712D01*
X177000072Y-98435718D01*
X177000611Y-98435186D01*
X177001709Y-98434452D01*
X176992493Y-98420660D01*
X176992362Y-98418664D01*
X176994025Y-98417553D01*
X176995267Y-98417886D01*
G37*
G36*
X196495267Y-97917886D02*
G01*
X196506262Y-97925233D01*
X196525199Y-97929000D01*
X197624801Y-97929000D01*
X197643738Y-97925233D01*
X197654733Y-97917886D01*
X197656729Y-97917755D01*
X197657840Y-97919418D01*
X197657507Y-97920660D01*
X197648291Y-97934452D01*
X197650031Y-97935615D01*
X197650916Y-97937409D01*
X197650455Y-97938560D01*
X197635922Y-97955952D01*
X197627296Y-98024670D01*
X197650082Y-98072288D01*
X197649928Y-98074282D01*
X197649389Y-98074814D01*
X197648291Y-98075548D01*
X197657507Y-98089340D01*
X197657638Y-98091336D01*
X197655975Y-98092447D01*
X197654733Y-98092114D01*
X197643738Y-98084767D01*
X197624801Y-98081000D01*
X196525199Y-98081000D01*
X196506262Y-98084767D01*
X196495267Y-98092114D01*
X196493271Y-98092245D01*
X196492160Y-98090582D01*
X196492493Y-98089340D01*
X196501709Y-98075548D01*
X196499969Y-98074385D01*
X196499084Y-98072591D01*
X196499545Y-98071440D01*
X196514078Y-98054048D01*
X196522704Y-97985330D01*
X196499918Y-97937712D01*
X196500072Y-97935718D01*
X196500611Y-97935186D01*
X196501709Y-97934452D01*
X196492493Y-97920660D01*
X196492362Y-97918664D01*
X196494025Y-97917553D01*
X196495267Y-97917886D01*
G37*
G36*
X176995267Y-97917886D02*
G01*
X177006262Y-97925233D01*
X177025199Y-97929000D01*
X178124801Y-97929000D01*
X178143738Y-97925233D01*
X178154733Y-97917886D01*
X178156729Y-97917755D01*
X178157840Y-97919418D01*
X178157507Y-97920660D01*
X178148291Y-97934452D01*
X178150031Y-97935615D01*
X178150916Y-97937409D01*
X178150455Y-97938560D01*
X178135922Y-97955952D01*
X178127296Y-98024670D01*
X178150082Y-98072288D01*
X178149928Y-98074282D01*
X178149389Y-98074814D01*
X178148291Y-98075548D01*
X178157507Y-98089340D01*
X178157638Y-98091336D01*
X178155975Y-98092447D01*
X178154733Y-98092114D01*
X178143738Y-98084767D01*
X178124801Y-98081000D01*
X177025199Y-98081000D01*
X177006262Y-98084767D01*
X176995267Y-98092114D01*
X176993271Y-98092245D01*
X176992160Y-98090582D01*
X176992493Y-98089340D01*
X177001709Y-98075548D01*
X176999969Y-98074385D01*
X176999084Y-98072591D01*
X176999545Y-98071440D01*
X177014078Y-98054048D01*
X177022704Y-97985330D01*
X176999918Y-97937712D01*
X177000072Y-97935718D01*
X177000611Y-97935186D01*
X177001709Y-97934452D01*
X176992493Y-97920660D01*
X176992362Y-97918664D01*
X176994025Y-97917553D01*
X176995267Y-97917886D01*
G37*
G36*
X166200267Y-95582886D02*
G01*
X166211262Y-95590233D01*
X166230199Y-95594000D01*
X167329801Y-95594000D01*
X167348738Y-95590233D01*
X167359733Y-95582886D01*
X167361729Y-95582755D01*
X167362840Y-95584418D01*
X167362507Y-95585660D01*
X167353291Y-95599452D01*
X167355031Y-95600615D01*
X167355916Y-95602409D01*
X167355455Y-95603560D01*
X167340922Y-95620952D01*
X167332296Y-95689670D01*
X167355082Y-95737288D01*
X167354928Y-95739282D01*
X167354389Y-95739814D01*
X167353291Y-95740548D01*
X167362507Y-95754340D01*
X167362638Y-95756336D01*
X167360975Y-95757447D01*
X167359733Y-95757114D01*
X167348738Y-95749767D01*
X167329801Y-95746000D01*
X166230199Y-95746000D01*
X166211262Y-95749767D01*
X166200267Y-95757114D01*
X166198271Y-95757245D01*
X166197160Y-95755582D01*
X166197493Y-95754340D01*
X166206709Y-95740548D01*
X166204969Y-95739385D01*
X166204084Y-95737591D01*
X166204545Y-95736440D01*
X166219078Y-95719048D01*
X166227704Y-95650330D01*
X166204918Y-95602712D01*
X166205072Y-95600718D01*
X166205611Y-95600186D01*
X166206709Y-95599452D01*
X166197493Y-95585660D01*
X166197362Y-95583664D01*
X166199025Y-95582553D01*
X166200267Y-95582886D01*
G37*
G36*
X185700267Y-95582886D02*
G01*
X185711262Y-95590233D01*
X185730199Y-95594000D01*
X186829801Y-95594000D01*
X186848738Y-95590233D01*
X186859733Y-95582886D01*
X186861729Y-95582755D01*
X186862840Y-95584418D01*
X186862507Y-95585660D01*
X186853291Y-95599452D01*
X186855031Y-95600615D01*
X186855916Y-95602409D01*
X186855455Y-95603560D01*
X186840922Y-95620952D01*
X186832296Y-95689670D01*
X186855082Y-95737288D01*
X186854928Y-95739282D01*
X186854389Y-95739814D01*
X186853291Y-95740548D01*
X186862507Y-95754340D01*
X186862638Y-95756336D01*
X186860975Y-95757447D01*
X186859733Y-95757114D01*
X186848738Y-95749767D01*
X186829801Y-95746000D01*
X185730199Y-95746000D01*
X185711262Y-95749767D01*
X185700267Y-95757114D01*
X185698271Y-95757245D01*
X185697160Y-95755582D01*
X185697493Y-95754340D01*
X185706709Y-95740548D01*
X185704969Y-95739385D01*
X185704084Y-95737591D01*
X185704545Y-95736440D01*
X185719078Y-95719048D01*
X185727704Y-95650330D01*
X185704918Y-95602712D01*
X185705072Y-95600718D01*
X185705611Y-95600186D01*
X185706709Y-95599452D01*
X185697493Y-95585660D01*
X185697362Y-95583664D01*
X185699025Y-95582553D01*
X185700267Y-95582886D01*
G37*
G36*
X185700267Y-95082886D02*
G01*
X185711262Y-95090233D01*
X185730199Y-95094000D01*
X186829801Y-95094000D01*
X186848738Y-95090233D01*
X186859733Y-95082886D01*
X186861729Y-95082755D01*
X186862840Y-95084418D01*
X186862507Y-95085660D01*
X186853291Y-95099452D01*
X186855031Y-95100615D01*
X186855916Y-95102409D01*
X186855455Y-95103560D01*
X186840922Y-95120952D01*
X186832296Y-95189670D01*
X186855082Y-95237288D01*
X186854928Y-95239282D01*
X186854389Y-95239814D01*
X186853291Y-95240548D01*
X186862507Y-95254340D01*
X186862638Y-95256336D01*
X186860975Y-95257447D01*
X186859733Y-95257114D01*
X186848738Y-95249767D01*
X186829801Y-95246000D01*
X185730199Y-95246000D01*
X185711262Y-95249767D01*
X185700267Y-95257114D01*
X185698271Y-95257245D01*
X185697160Y-95255582D01*
X185697493Y-95254340D01*
X185706709Y-95240548D01*
X185704969Y-95239385D01*
X185704084Y-95237591D01*
X185704545Y-95236440D01*
X185719078Y-95219048D01*
X185727704Y-95150330D01*
X185704918Y-95102712D01*
X185705072Y-95100718D01*
X185705611Y-95100186D01*
X185706709Y-95099452D01*
X185697493Y-95085660D01*
X185697362Y-95083664D01*
X185699025Y-95082553D01*
X185700267Y-95082886D01*
G37*
G36*
X166200267Y-95082886D02*
G01*
X166211262Y-95090233D01*
X166230199Y-95094000D01*
X167329801Y-95094000D01*
X167348738Y-95090233D01*
X167359733Y-95082886D01*
X167361729Y-95082755D01*
X167362840Y-95084418D01*
X167362507Y-95085660D01*
X167353291Y-95099452D01*
X167355031Y-95100615D01*
X167355916Y-95102409D01*
X167355455Y-95103560D01*
X167340922Y-95120952D01*
X167332296Y-95189670D01*
X167355082Y-95237288D01*
X167354928Y-95239282D01*
X167354389Y-95239814D01*
X167353291Y-95240548D01*
X167362507Y-95254340D01*
X167362638Y-95256336D01*
X167360975Y-95257447D01*
X167359733Y-95257114D01*
X167348738Y-95249767D01*
X167329801Y-95246000D01*
X166230199Y-95246000D01*
X166211262Y-95249767D01*
X166200267Y-95257114D01*
X166198271Y-95257245D01*
X166197160Y-95255582D01*
X166197493Y-95254340D01*
X166206709Y-95240548D01*
X166204969Y-95239385D01*
X166204084Y-95237591D01*
X166204545Y-95236440D01*
X166219078Y-95219048D01*
X166227704Y-95150330D01*
X166204918Y-95102712D01*
X166205072Y-95100718D01*
X166205611Y-95100186D01*
X166206709Y-95099452D01*
X166197493Y-95085660D01*
X166197362Y-95083664D01*
X166199025Y-95082553D01*
X166200267Y-95082886D01*
G37*
G36*
X185700267Y-94582886D02*
G01*
X185711262Y-94590233D01*
X185730199Y-94594000D01*
X186829801Y-94594000D01*
X186848738Y-94590233D01*
X186859733Y-94582886D01*
X186861729Y-94582755D01*
X186862840Y-94584418D01*
X186862507Y-94585660D01*
X186853291Y-94599452D01*
X186855031Y-94600615D01*
X186855916Y-94602409D01*
X186855455Y-94603560D01*
X186840922Y-94620952D01*
X186832296Y-94689670D01*
X186855082Y-94737288D01*
X186854928Y-94739282D01*
X186854389Y-94739814D01*
X186853291Y-94740548D01*
X186862507Y-94754340D01*
X186862638Y-94756336D01*
X186860975Y-94757447D01*
X186859733Y-94757114D01*
X186848738Y-94749767D01*
X186829801Y-94746000D01*
X185730199Y-94746000D01*
X185711262Y-94749767D01*
X185700267Y-94757114D01*
X185698271Y-94757245D01*
X185697160Y-94755582D01*
X185697493Y-94754340D01*
X185706709Y-94740548D01*
X185704969Y-94739385D01*
X185704084Y-94737591D01*
X185704545Y-94736440D01*
X185719078Y-94719048D01*
X185727704Y-94650330D01*
X185704918Y-94602712D01*
X185705072Y-94600718D01*
X185705611Y-94600186D01*
X185706709Y-94599452D01*
X185697493Y-94585660D01*
X185697362Y-94583664D01*
X185699025Y-94582553D01*
X185700267Y-94582886D01*
G37*
G36*
X166200267Y-94582886D02*
G01*
X166211262Y-94590233D01*
X166230199Y-94594000D01*
X167329801Y-94594000D01*
X167348738Y-94590233D01*
X167359733Y-94582886D01*
X167361729Y-94582755D01*
X167362840Y-94584418D01*
X167362507Y-94585660D01*
X167353291Y-94599452D01*
X167355031Y-94600615D01*
X167355916Y-94602409D01*
X167355455Y-94603560D01*
X167340922Y-94620952D01*
X167332296Y-94689670D01*
X167355082Y-94737288D01*
X167354928Y-94739282D01*
X167354389Y-94739814D01*
X167353291Y-94740548D01*
X167362507Y-94754340D01*
X167362638Y-94756336D01*
X167360975Y-94757447D01*
X167359733Y-94757114D01*
X167348738Y-94749767D01*
X167329801Y-94746000D01*
X166230199Y-94746000D01*
X166211262Y-94749767D01*
X166200267Y-94757114D01*
X166198271Y-94757245D01*
X166197160Y-94755582D01*
X166197493Y-94754340D01*
X166206709Y-94740548D01*
X166204969Y-94739385D01*
X166204084Y-94737591D01*
X166204545Y-94736440D01*
X166219078Y-94719048D01*
X166227704Y-94650330D01*
X166204918Y-94602712D01*
X166205072Y-94600718D01*
X166205611Y-94600186D01*
X166206709Y-94599452D01*
X166197493Y-94585660D01*
X166197362Y-94583664D01*
X166199025Y-94582553D01*
X166200267Y-94582886D01*
G37*
G36*
X185700267Y-94082886D02*
G01*
X185711262Y-94090233D01*
X185730199Y-94094000D01*
X186829801Y-94094000D01*
X186848738Y-94090233D01*
X186859733Y-94082886D01*
X186861729Y-94082755D01*
X186862840Y-94084418D01*
X186862507Y-94085660D01*
X186853291Y-94099452D01*
X186855031Y-94100615D01*
X186855916Y-94102409D01*
X186855455Y-94103560D01*
X186840922Y-94120952D01*
X186832296Y-94189670D01*
X186855082Y-94237288D01*
X186854928Y-94239282D01*
X186854389Y-94239814D01*
X186853291Y-94240548D01*
X186862507Y-94254340D01*
X186862638Y-94256336D01*
X186860975Y-94257447D01*
X186859733Y-94257114D01*
X186848738Y-94249767D01*
X186829801Y-94246000D01*
X185730199Y-94246000D01*
X185711262Y-94249767D01*
X185700267Y-94257114D01*
X185698271Y-94257245D01*
X185697160Y-94255582D01*
X185697493Y-94254340D01*
X185706709Y-94240548D01*
X185704969Y-94239385D01*
X185704084Y-94237591D01*
X185704545Y-94236440D01*
X185719078Y-94219048D01*
X185727704Y-94150330D01*
X185704918Y-94102712D01*
X185705072Y-94100718D01*
X185705611Y-94100186D01*
X185706709Y-94099452D01*
X185697493Y-94085660D01*
X185697362Y-94083664D01*
X185699025Y-94082553D01*
X185700267Y-94082886D01*
G37*
G36*
X166200267Y-94082886D02*
G01*
X166211262Y-94090233D01*
X166230199Y-94094000D01*
X167329801Y-94094000D01*
X167348738Y-94090233D01*
X167359733Y-94082886D01*
X167361729Y-94082755D01*
X167362840Y-94084418D01*
X167362507Y-94085660D01*
X167353291Y-94099452D01*
X167355031Y-94100615D01*
X167355916Y-94102409D01*
X167355455Y-94103560D01*
X167340922Y-94120952D01*
X167332296Y-94189670D01*
X167355082Y-94237288D01*
X167354928Y-94239282D01*
X167354389Y-94239814D01*
X167353291Y-94240548D01*
X167362507Y-94254340D01*
X167362638Y-94256336D01*
X167360975Y-94257447D01*
X167359733Y-94257114D01*
X167348738Y-94249767D01*
X167329801Y-94246000D01*
X166230199Y-94246000D01*
X166211262Y-94249767D01*
X166200267Y-94257114D01*
X166198271Y-94257245D01*
X166197160Y-94255582D01*
X166197493Y-94254340D01*
X166206709Y-94240548D01*
X166204969Y-94239385D01*
X166204084Y-94237591D01*
X166204545Y-94236440D01*
X166219078Y-94219048D01*
X166227704Y-94150330D01*
X166204918Y-94102712D01*
X166205072Y-94100718D01*
X166205611Y-94100186D01*
X166206709Y-94099452D01*
X166197493Y-94085660D01*
X166197362Y-94083664D01*
X166199025Y-94082553D01*
X166200267Y-94082886D01*
G37*
G36*
X185700267Y-93582886D02*
G01*
X185711262Y-93590233D01*
X185730199Y-93594000D01*
X186829801Y-93594000D01*
X186848738Y-93590233D01*
X186859733Y-93582886D01*
X186861729Y-93582755D01*
X186862840Y-93584418D01*
X186862507Y-93585660D01*
X186853291Y-93599452D01*
X186855031Y-93600615D01*
X186855916Y-93602409D01*
X186855455Y-93603560D01*
X186840922Y-93620952D01*
X186832296Y-93689670D01*
X186855082Y-93737288D01*
X186854928Y-93739282D01*
X186854389Y-93739814D01*
X186853291Y-93740548D01*
X186862507Y-93754340D01*
X186862638Y-93756336D01*
X186860975Y-93757447D01*
X186859733Y-93757114D01*
X186848738Y-93749767D01*
X186829801Y-93746000D01*
X185730199Y-93746000D01*
X185711262Y-93749767D01*
X185700267Y-93757114D01*
X185698271Y-93757245D01*
X185697160Y-93755582D01*
X185697493Y-93754340D01*
X185706709Y-93740548D01*
X185704969Y-93739385D01*
X185704084Y-93737591D01*
X185704545Y-93736440D01*
X185719078Y-93719048D01*
X185727704Y-93650330D01*
X185704918Y-93602712D01*
X185705072Y-93600718D01*
X185705611Y-93600186D01*
X185706709Y-93599452D01*
X185697493Y-93585660D01*
X185697362Y-93583664D01*
X185699025Y-93582553D01*
X185700267Y-93582886D01*
G37*
G36*
X166200267Y-93582886D02*
G01*
X166211262Y-93590233D01*
X166230199Y-93594000D01*
X167329801Y-93594000D01*
X167348738Y-93590233D01*
X167359733Y-93582886D01*
X167361729Y-93582755D01*
X167362840Y-93584418D01*
X167362507Y-93585660D01*
X167353291Y-93599452D01*
X167355031Y-93600615D01*
X167355916Y-93602409D01*
X167355455Y-93603560D01*
X167340922Y-93620952D01*
X167332296Y-93689670D01*
X167355082Y-93737288D01*
X167354928Y-93739282D01*
X167354389Y-93739814D01*
X167353291Y-93740548D01*
X167362507Y-93754340D01*
X167362638Y-93756336D01*
X167360975Y-93757447D01*
X167359733Y-93757114D01*
X167348738Y-93749767D01*
X167329801Y-93746000D01*
X166230199Y-93746000D01*
X166211262Y-93749767D01*
X166200267Y-93757114D01*
X166198271Y-93757245D01*
X166197160Y-93755582D01*
X166197493Y-93754340D01*
X166206709Y-93740548D01*
X166204969Y-93739385D01*
X166204084Y-93737591D01*
X166204545Y-93736440D01*
X166219078Y-93719048D01*
X166227704Y-93650330D01*
X166204918Y-93602712D01*
X166205072Y-93600718D01*
X166205611Y-93600186D01*
X166206709Y-93599452D01*
X166197493Y-93585660D01*
X166197362Y-93583664D01*
X166199025Y-93582553D01*
X166200267Y-93582886D01*
G37*
G36*
X166200267Y-93082886D02*
G01*
X166211262Y-93090233D01*
X166230199Y-93094000D01*
X167329801Y-93094000D01*
X167348738Y-93090233D01*
X167359733Y-93082886D01*
X167361729Y-93082755D01*
X167362840Y-93084418D01*
X167362507Y-93085660D01*
X167353291Y-93099452D01*
X167355031Y-93100615D01*
X167355916Y-93102409D01*
X167355455Y-93103560D01*
X167340922Y-93120952D01*
X167332296Y-93189670D01*
X167355082Y-93237288D01*
X167354928Y-93239282D01*
X167354389Y-93239814D01*
X167353291Y-93240548D01*
X167362507Y-93254340D01*
X167362638Y-93256336D01*
X167360975Y-93257447D01*
X167359733Y-93257114D01*
X167348738Y-93249767D01*
X167329801Y-93246000D01*
X166230199Y-93246000D01*
X166211262Y-93249767D01*
X166200267Y-93257114D01*
X166198271Y-93257245D01*
X166197160Y-93255582D01*
X166197493Y-93254340D01*
X166206709Y-93240548D01*
X166204969Y-93239385D01*
X166204084Y-93237591D01*
X166204545Y-93236440D01*
X166219078Y-93219048D01*
X166227704Y-93150330D01*
X166204918Y-93102712D01*
X166205072Y-93100718D01*
X166205611Y-93100186D01*
X166206709Y-93099452D01*
X166197493Y-93085660D01*
X166197362Y-93083664D01*
X166199025Y-93082553D01*
X166200267Y-93082886D01*
G37*
G36*
X185700267Y-93082886D02*
G01*
X185711262Y-93090233D01*
X185730199Y-93094000D01*
X186829801Y-93094000D01*
X186848738Y-93090233D01*
X186859733Y-93082886D01*
X186861729Y-93082755D01*
X186862840Y-93084418D01*
X186862507Y-93085660D01*
X186853291Y-93099452D01*
X186855031Y-93100615D01*
X186855916Y-93102409D01*
X186855455Y-93103560D01*
X186840922Y-93120952D01*
X186832296Y-93189670D01*
X186855082Y-93237288D01*
X186854928Y-93239282D01*
X186854389Y-93239814D01*
X186853291Y-93240548D01*
X186862507Y-93254340D01*
X186862638Y-93256336D01*
X186860975Y-93257447D01*
X186859733Y-93257114D01*
X186848738Y-93249767D01*
X186829801Y-93246000D01*
X185730199Y-93246000D01*
X185711262Y-93249767D01*
X185700267Y-93257114D01*
X185698271Y-93257245D01*
X185697160Y-93255582D01*
X185697493Y-93254340D01*
X185706709Y-93240548D01*
X185704969Y-93239385D01*
X185704084Y-93237591D01*
X185704545Y-93236440D01*
X185719078Y-93219048D01*
X185727704Y-93150330D01*
X185704918Y-93102712D01*
X185705072Y-93100718D01*
X185705611Y-93100186D01*
X185706709Y-93099452D01*
X185697493Y-93085660D01*
X185697362Y-93083664D01*
X185699025Y-93082553D01*
X185700267Y-93082886D01*
G37*
G36*
X185700267Y-92582886D02*
G01*
X185711262Y-92590233D01*
X185730199Y-92594000D01*
X186829801Y-92594000D01*
X186848738Y-92590233D01*
X186859733Y-92582886D01*
X186861729Y-92582755D01*
X186862840Y-92584418D01*
X186862507Y-92585660D01*
X186853291Y-92599452D01*
X186855031Y-92600615D01*
X186855916Y-92602409D01*
X186855455Y-92603560D01*
X186840922Y-92620952D01*
X186832296Y-92689670D01*
X186855082Y-92737288D01*
X186854928Y-92739282D01*
X186854389Y-92739814D01*
X186853291Y-92740548D01*
X186862507Y-92754340D01*
X186862638Y-92756336D01*
X186860975Y-92757447D01*
X186859733Y-92757114D01*
X186848738Y-92749767D01*
X186829801Y-92746000D01*
X185730199Y-92746000D01*
X185711262Y-92749767D01*
X185700267Y-92757114D01*
X185698271Y-92757245D01*
X185697160Y-92755582D01*
X185697493Y-92754340D01*
X185706709Y-92740548D01*
X185704969Y-92739385D01*
X185704084Y-92737591D01*
X185704545Y-92736440D01*
X185719078Y-92719048D01*
X185727704Y-92650330D01*
X185704918Y-92602712D01*
X185705072Y-92600718D01*
X185705611Y-92600186D01*
X185706709Y-92599452D01*
X185697493Y-92585660D01*
X185697362Y-92583664D01*
X185699025Y-92582553D01*
X185700267Y-92582886D01*
G37*
G36*
X166200267Y-92582886D02*
G01*
X166211262Y-92590233D01*
X166230199Y-92594000D01*
X167329801Y-92594000D01*
X167348738Y-92590233D01*
X167359733Y-92582886D01*
X167361729Y-92582755D01*
X167362840Y-92584418D01*
X167362507Y-92585660D01*
X167353291Y-92599452D01*
X167355031Y-92600615D01*
X167355916Y-92602409D01*
X167355455Y-92603560D01*
X167340922Y-92620952D01*
X167332296Y-92689670D01*
X167355082Y-92737288D01*
X167354928Y-92739282D01*
X167354389Y-92739814D01*
X167353291Y-92740548D01*
X167362507Y-92754340D01*
X167362638Y-92756336D01*
X167360975Y-92757447D01*
X167359733Y-92757114D01*
X167348738Y-92749767D01*
X167329801Y-92746000D01*
X166230199Y-92746000D01*
X166211262Y-92749767D01*
X166200267Y-92757114D01*
X166198271Y-92757245D01*
X166197160Y-92755582D01*
X166197493Y-92754340D01*
X166206709Y-92740548D01*
X166204969Y-92739385D01*
X166204084Y-92737591D01*
X166204545Y-92736440D01*
X166219078Y-92719048D01*
X166227704Y-92650330D01*
X166204918Y-92602712D01*
X166205072Y-92600718D01*
X166205611Y-92600186D01*
X166206709Y-92599452D01*
X166197493Y-92585660D01*
X166197362Y-92583664D01*
X166199025Y-92582553D01*
X166200267Y-92582886D01*
G37*
G36*
X185700267Y-92082886D02*
G01*
X185711262Y-92090233D01*
X185730199Y-92094000D01*
X186829801Y-92094000D01*
X186848738Y-92090233D01*
X186859733Y-92082886D01*
X186861729Y-92082755D01*
X186862840Y-92084418D01*
X186862507Y-92085660D01*
X186853291Y-92099452D01*
X186855031Y-92100615D01*
X186855916Y-92102409D01*
X186855455Y-92103560D01*
X186840922Y-92120952D01*
X186832296Y-92189670D01*
X186855082Y-92237288D01*
X186854928Y-92239282D01*
X186854389Y-92239814D01*
X186853291Y-92240548D01*
X186862507Y-92254340D01*
X186862638Y-92256336D01*
X186860975Y-92257447D01*
X186859733Y-92257114D01*
X186848738Y-92249767D01*
X186829801Y-92246000D01*
X185730199Y-92246000D01*
X185711262Y-92249767D01*
X185700267Y-92257114D01*
X185698271Y-92257245D01*
X185697160Y-92255582D01*
X185697493Y-92254340D01*
X185706709Y-92240548D01*
X185704969Y-92239385D01*
X185704084Y-92237591D01*
X185704545Y-92236440D01*
X185719078Y-92219048D01*
X185727704Y-92150330D01*
X185704918Y-92102712D01*
X185705072Y-92100718D01*
X185705611Y-92100186D01*
X185706709Y-92099452D01*
X185697493Y-92085660D01*
X185697362Y-92083664D01*
X185699025Y-92082553D01*
X185700267Y-92082886D01*
G37*
G36*
X166200267Y-92082886D02*
G01*
X166211262Y-92090233D01*
X166230199Y-92094000D01*
X167329801Y-92094000D01*
X167348738Y-92090233D01*
X167359733Y-92082886D01*
X167361729Y-92082755D01*
X167362840Y-92084418D01*
X167362507Y-92085660D01*
X167353291Y-92099452D01*
X167355031Y-92100615D01*
X167355916Y-92102409D01*
X167355455Y-92103560D01*
X167340922Y-92120952D01*
X167332296Y-92189670D01*
X167355082Y-92237288D01*
X167354928Y-92239282D01*
X167354389Y-92239814D01*
X167353291Y-92240548D01*
X167362507Y-92254340D01*
X167362638Y-92256336D01*
X167360975Y-92257447D01*
X167359733Y-92257114D01*
X167348738Y-92249767D01*
X167329801Y-92246000D01*
X166230199Y-92246000D01*
X166211262Y-92249767D01*
X166200267Y-92257114D01*
X166198271Y-92257245D01*
X166197160Y-92255582D01*
X166197493Y-92254340D01*
X166206709Y-92240548D01*
X166204969Y-92239385D01*
X166204084Y-92237591D01*
X166204545Y-92236440D01*
X166219078Y-92219048D01*
X166227704Y-92150330D01*
X166204918Y-92102712D01*
X166205072Y-92100718D01*
X166205611Y-92100186D01*
X166206709Y-92099452D01*
X166197493Y-92085660D01*
X166197362Y-92083664D01*
X166199025Y-92082553D01*
X166200267Y-92082886D01*
G37*
G36*
X185700267Y-91582886D02*
G01*
X185711262Y-91590233D01*
X185730199Y-91594000D01*
X186829801Y-91594000D01*
X186848738Y-91590233D01*
X186859733Y-91582886D01*
X186861729Y-91582755D01*
X186862840Y-91584418D01*
X186862507Y-91585660D01*
X186853291Y-91599452D01*
X186855031Y-91600615D01*
X186855916Y-91602409D01*
X186855455Y-91603560D01*
X186840922Y-91620952D01*
X186832296Y-91689670D01*
X186855082Y-91737288D01*
X186854928Y-91739282D01*
X186854389Y-91739814D01*
X186853291Y-91740548D01*
X186862507Y-91754340D01*
X186862638Y-91756336D01*
X186860975Y-91757447D01*
X186859733Y-91757114D01*
X186848738Y-91749767D01*
X186829801Y-91746000D01*
X185730199Y-91746000D01*
X185711262Y-91749767D01*
X185700267Y-91757114D01*
X185698271Y-91757245D01*
X185697160Y-91755582D01*
X185697493Y-91754340D01*
X185706709Y-91740548D01*
X185704969Y-91739385D01*
X185704084Y-91737591D01*
X185704545Y-91736440D01*
X185719078Y-91719048D01*
X185727704Y-91650330D01*
X185704918Y-91602712D01*
X185705072Y-91600718D01*
X185705611Y-91600186D01*
X185706709Y-91599452D01*
X185697493Y-91585660D01*
X185697362Y-91583664D01*
X185699025Y-91582553D01*
X185700267Y-91582886D01*
G37*
G36*
X166200267Y-91582886D02*
G01*
X166211262Y-91590233D01*
X166230199Y-91594000D01*
X167329801Y-91594000D01*
X167348738Y-91590233D01*
X167359733Y-91582886D01*
X167361729Y-91582755D01*
X167362840Y-91584418D01*
X167362507Y-91585660D01*
X167353291Y-91599452D01*
X167355031Y-91600615D01*
X167355916Y-91602409D01*
X167355455Y-91603560D01*
X167340922Y-91620952D01*
X167332296Y-91689670D01*
X167355082Y-91737288D01*
X167354928Y-91739282D01*
X167354389Y-91739814D01*
X167353291Y-91740548D01*
X167362507Y-91754340D01*
X167362638Y-91756336D01*
X167360975Y-91757447D01*
X167359733Y-91757114D01*
X167348738Y-91749767D01*
X167329801Y-91746000D01*
X166230199Y-91746000D01*
X166211262Y-91749767D01*
X166200267Y-91757114D01*
X166198271Y-91757245D01*
X166197160Y-91755582D01*
X166197493Y-91754340D01*
X166206709Y-91740548D01*
X166204969Y-91739385D01*
X166204084Y-91737591D01*
X166204545Y-91736440D01*
X166219078Y-91719048D01*
X166227704Y-91650330D01*
X166204918Y-91602712D01*
X166205072Y-91600718D01*
X166205611Y-91600186D01*
X166206709Y-91599452D01*
X166197493Y-91585660D01*
X166197362Y-91583664D01*
X166199025Y-91582553D01*
X166200267Y-91582886D01*
G37*
G36*
X185700267Y-91082886D02*
G01*
X185711262Y-91090233D01*
X185730199Y-91094000D01*
X186829801Y-91094000D01*
X186848738Y-91090233D01*
X186859733Y-91082886D01*
X186861729Y-91082755D01*
X186862840Y-91084418D01*
X186862507Y-91085660D01*
X186853291Y-91099452D01*
X186855031Y-91100615D01*
X186855916Y-91102409D01*
X186855455Y-91103560D01*
X186840922Y-91120952D01*
X186832296Y-91189670D01*
X186855082Y-91237288D01*
X186854928Y-91239282D01*
X186854389Y-91239814D01*
X186853291Y-91240548D01*
X186862507Y-91254340D01*
X186862638Y-91256336D01*
X186860975Y-91257447D01*
X186859733Y-91257114D01*
X186848738Y-91249767D01*
X186829801Y-91246000D01*
X185730199Y-91246000D01*
X185711262Y-91249767D01*
X185700267Y-91257114D01*
X185698271Y-91257245D01*
X185697160Y-91255582D01*
X185697493Y-91254340D01*
X185706709Y-91240548D01*
X185704969Y-91239385D01*
X185704084Y-91237591D01*
X185704545Y-91236440D01*
X185719078Y-91219048D01*
X185727704Y-91150330D01*
X185704918Y-91102712D01*
X185705072Y-91100718D01*
X185705611Y-91100186D01*
X185706709Y-91099452D01*
X185697493Y-91085660D01*
X185697362Y-91083664D01*
X185699025Y-91082553D01*
X185700267Y-91082886D01*
G37*
G36*
X166200267Y-91082886D02*
G01*
X166211262Y-91090233D01*
X166230199Y-91094000D01*
X167329801Y-91094000D01*
X167348738Y-91090233D01*
X167359733Y-91082886D01*
X167361729Y-91082755D01*
X167362840Y-91084418D01*
X167362507Y-91085660D01*
X167353291Y-91099452D01*
X167355031Y-91100615D01*
X167355916Y-91102409D01*
X167355455Y-91103560D01*
X167340922Y-91120952D01*
X167332296Y-91189670D01*
X167355082Y-91237288D01*
X167354928Y-91239282D01*
X167354389Y-91239814D01*
X167353291Y-91240548D01*
X167362507Y-91254340D01*
X167362638Y-91256336D01*
X167360975Y-91257447D01*
X167359733Y-91257114D01*
X167348738Y-91249767D01*
X167329801Y-91246000D01*
X166230199Y-91246000D01*
X166211262Y-91249767D01*
X166200267Y-91257114D01*
X166198271Y-91257245D01*
X166197160Y-91255582D01*
X166197493Y-91254340D01*
X166206709Y-91240548D01*
X166204969Y-91239385D01*
X166204084Y-91237591D01*
X166204545Y-91236440D01*
X166219078Y-91219048D01*
X166227704Y-91150330D01*
X166204918Y-91102712D01*
X166205072Y-91100718D01*
X166205611Y-91100186D01*
X166206709Y-91099452D01*
X166197493Y-91085660D01*
X166197362Y-91083664D01*
X166199025Y-91082553D01*
X166200267Y-91082886D01*
G37*
G36*
X185700267Y-90582886D02*
G01*
X185711262Y-90590233D01*
X185730199Y-90594000D01*
X186829801Y-90594000D01*
X186848738Y-90590233D01*
X186859733Y-90582886D01*
X186861729Y-90582755D01*
X186862840Y-90584418D01*
X186862507Y-90585660D01*
X186853291Y-90599452D01*
X186855031Y-90600615D01*
X186855916Y-90602409D01*
X186855455Y-90603560D01*
X186840922Y-90620952D01*
X186832296Y-90689670D01*
X186855082Y-90737288D01*
X186854928Y-90739282D01*
X186854389Y-90739814D01*
X186853291Y-90740548D01*
X186862507Y-90754340D01*
X186862638Y-90756336D01*
X186860975Y-90757447D01*
X186859733Y-90757114D01*
X186848738Y-90749767D01*
X186829801Y-90746000D01*
X185730199Y-90746000D01*
X185711262Y-90749767D01*
X185700267Y-90757114D01*
X185698271Y-90757245D01*
X185697160Y-90755582D01*
X185697493Y-90754340D01*
X185706709Y-90740548D01*
X185704969Y-90739385D01*
X185704084Y-90737591D01*
X185704545Y-90736440D01*
X185719078Y-90719048D01*
X185727704Y-90650330D01*
X185704918Y-90602712D01*
X185705072Y-90600718D01*
X185705611Y-90600186D01*
X185706709Y-90599452D01*
X185697493Y-90585660D01*
X185697362Y-90583664D01*
X185699025Y-90582553D01*
X185700267Y-90582886D01*
G37*
G36*
X166200267Y-90582886D02*
G01*
X166211262Y-90590233D01*
X166230199Y-90594000D01*
X167329801Y-90594000D01*
X167348738Y-90590233D01*
X167359733Y-90582886D01*
X167361729Y-90582755D01*
X167362840Y-90584418D01*
X167362507Y-90585660D01*
X167353291Y-90599452D01*
X167355031Y-90600615D01*
X167355916Y-90602409D01*
X167355455Y-90603560D01*
X167340922Y-90620952D01*
X167332296Y-90689670D01*
X167355082Y-90737288D01*
X167354928Y-90739282D01*
X167354389Y-90739814D01*
X167353291Y-90740548D01*
X167362507Y-90754340D01*
X167362638Y-90756336D01*
X167360975Y-90757447D01*
X167359733Y-90757114D01*
X167348738Y-90749767D01*
X167329801Y-90746000D01*
X166230199Y-90746000D01*
X166211262Y-90749767D01*
X166200267Y-90757114D01*
X166198271Y-90757245D01*
X166197160Y-90755582D01*
X166197493Y-90754340D01*
X166206709Y-90740548D01*
X166204969Y-90739385D01*
X166204084Y-90737591D01*
X166204545Y-90736440D01*
X166219078Y-90719048D01*
X166227704Y-90650330D01*
X166204918Y-90602712D01*
X166205072Y-90600718D01*
X166205611Y-90600186D01*
X166206709Y-90599452D01*
X166197493Y-90585660D01*
X166197362Y-90583664D01*
X166199025Y-90582553D01*
X166200267Y-90582886D01*
G37*
G36*
X185700267Y-90082886D02*
G01*
X185711262Y-90090233D01*
X185730199Y-90094000D01*
X186829801Y-90094000D01*
X186848738Y-90090233D01*
X186859733Y-90082886D01*
X186861729Y-90082755D01*
X186862840Y-90084418D01*
X186862507Y-90085660D01*
X186853291Y-90099452D01*
X186855031Y-90100615D01*
X186855916Y-90102409D01*
X186855455Y-90103560D01*
X186840922Y-90120952D01*
X186832296Y-90189670D01*
X186855082Y-90237288D01*
X186854928Y-90239282D01*
X186854389Y-90239814D01*
X186853291Y-90240548D01*
X186862507Y-90254340D01*
X186862638Y-90256336D01*
X186860975Y-90257447D01*
X186859733Y-90257114D01*
X186848738Y-90249767D01*
X186829801Y-90246000D01*
X185730199Y-90246000D01*
X185711262Y-90249767D01*
X185700267Y-90257114D01*
X185698271Y-90257245D01*
X185697160Y-90255582D01*
X185697493Y-90254340D01*
X185706709Y-90240548D01*
X185704969Y-90239385D01*
X185704084Y-90237591D01*
X185704545Y-90236440D01*
X185719078Y-90219048D01*
X185727704Y-90150330D01*
X185704918Y-90102712D01*
X185705072Y-90100718D01*
X185705611Y-90100186D01*
X185706709Y-90099452D01*
X185697493Y-90085660D01*
X185697362Y-90083664D01*
X185699025Y-90082553D01*
X185700267Y-90082886D01*
G37*
G36*
X166200267Y-90082886D02*
G01*
X166211262Y-90090233D01*
X166230199Y-90094000D01*
X167329801Y-90094000D01*
X167348738Y-90090233D01*
X167359733Y-90082886D01*
X167361729Y-90082755D01*
X167362840Y-90084418D01*
X167362507Y-90085660D01*
X167353291Y-90099452D01*
X167355031Y-90100615D01*
X167355916Y-90102409D01*
X167355455Y-90103560D01*
X167340922Y-90120952D01*
X167332296Y-90189670D01*
X167355082Y-90237288D01*
X167354928Y-90239282D01*
X167354389Y-90239814D01*
X167353291Y-90240548D01*
X167362507Y-90254340D01*
X167362638Y-90256336D01*
X167360975Y-90257447D01*
X167359733Y-90257114D01*
X167348738Y-90249767D01*
X167329801Y-90246000D01*
X166230199Y-90246000D01*
X166211262Y-90249767D01*
X166200267Y-90257114D01*
X166198271Y-90257245D01*
X166197160Y-90255582D01*
X166197493Y-90254340D01*
X166206709Y-90240548D01*
X166204969Y-90239385D01*
X166204084Y-90237591D01*
X166204545Y-90236440D01*
X166219078Y-90219048D01*
X166227704Y-90150330D01*
X166204918Y-90102712D01*
X166205072Y-90100718D01*
X166205611Y-90100186D01*
X166206709Y-90099452D01*
X166197493Y-90085660D01*
X166197362Y-90083664D01*
X166199025Y-90082553D01*
X166200267Y-90082886D01*
G37*
G36*
X166200267Y-89582886D02*
G01*
X166211262Y-89590233D01*
X166230199Y-89594000D01*
X167329801Y-89594000D01*
X167348738Y-89590233D01*
X167359733Y-89582886D01*
X167361729Y-89582755D01*
X167362840Y-89584418D01*
X167362507Y-89585660D01*
X167353291Y-89599452D01*
X167355031Y-89600615D01*
X167355916Y-89602409D01*
X167355455Y-89603560D01*
X167340922Y-89620952D01*
X167332296Y-89689670D01*
X167355082Y-89737288D01*
X167354928Y-89739282D01*
X167354389Y-89739814D01*
X167353291Y-89740548D01*
X167362507Y-89754340D01*
X167362638Y-89756336D01*
X167360975Y-89757447D01*
X167359733Y-89757114D01*
X167348738Y-89749767D01*
X167329801Y-89746000D01*
X166230199Y-89746000D01*
X166211262Y-89749767D01*
X166200267Y-89757114D01*
X166198271Y-89757245D01*
X166197160Y-89755582D01*
X166197493Y-89754340D01*
X166206709Y-89740548D01*
X166204969Y-89739385D01*
X166204084Y-89737591D01*
X166204545Y-89736440D01*
X166219078Y-89719048D01*
X166227704Y-89650330D01*
X166204918Y-89602712D01*
X166205072Y-89600718D01*
X166205611Y-89600186D01*
X166206709Y-89599452D01*
X166197493Y-89585660D01*
X166197362Y-89583664D01*
X166199025Y-89582553D01*
X166200267Y-89582886D01*
G37*
G36*
X185700267Y-89582886D02*
G01*
X185711262Y-89590233D01*
X185730199Y-89594000D01*
X186829801Y-89594000D01*
X186848738Y-89590233D01*
X186859733Y-89582886D01*
X186861729Y-89582755D01*
X186862840Y-89584418D01*
X186862507Y-89585660D01*
X186853291Y-89599452D01*
X186855031Y-89600615D01*
X186855916Y-89602409D01*
X186855455Y-89603560D01*
X186840922Y-89620952D01*
X186832296Y-89689670D01*
X186855082Y-89737288D01*
X186854928Y-89739282D01*
X186854389Y-89739814D01*
X186853291Y-89740548D01*
X186862507Y-89754340D01*
X186862638Y-89756336D01*
X186860975Y-89757447D01*
X186859733Y-89757114D01*
X186848738Y-89749767D01*
X186829801Y-89746000D01*
X185730199Y-89746000D01*
X185711262Y-89749767D01*
X185700267Y-89757114D01*
X185698271Y-89757245D01*
X185697160Y-89755582D01*
X185697493Y-89754340D01*
X185706709Y-89740548D01*
X185704969Y-89739385D01*
X185704084Y-89737591D01*
X185704545Y-89736440D01*
X185719078Y-89719048D01*
X185727704Y-89650330D01*
X185704918Y-89602712D01*
X185705072Y-89600718D01*
X185705611Y-89600186D01*
X185706709Y-89599452D01*
X185697493Y-89585660D01*
X185697362Y-89583664D01*
X185699025Y-89582553D01*
X185700267Y-89582886D01*
G37*
G36*
X185700267Y-89082886D02*
G01*
X185711262Y-89090233D01*
X185730199Y-89094000D01*
X186829801Y-89094000D01*
X186848738Y-89090233D01*
X186859733Y-89082886D01*
X186861729Y-89082755D01*
X186862840Y-89084418D01*
X186862507Y-89085660D01*
X186853291Y-89099452D01*
X186855031Y-89100615D01*
X186855916Y-89102409D01*
X186855455Y-89103560D01*
X186840922Y-89120952D01*
X186832296Y-89189670D01*
X186855082Y-89237288D01*
X186854928Y-89239282D01*
X186854389Y-89239814D01*
X186853291Y-89240548D01*
X186862507Y-89254340D01*
X186862638Y-89256336D01*
X186860975Y-89257447D01*
X186859733Y-89257114D01*
X186848738Y-89249767D01*
X186829801Y-89246000D01*
X185730199Y-89246000D01*
X185711262Y-89249767D01*
X185700267Y-89257114D01*
X185698271Y-89257245D01*
X185697160Y-89255582D01*
X185697493Y-89254340D01*
X185706709Y-89240548D01*
X185704969Y-89239385D01*
X185704084Y-89237591D01*
X185704545Y-89236440D01*
X185719078Y-89219048D01*
X185727704Y-89150330D01*
X185704918Y-89102712D01*
X185705072Y-89100718D01*
X185705611Y-89100186D01*
X185706709Y-89099452D01*
X185697493Y-89085660D01*
X185697362Y-89083664D01*
X185699025Y-89082553D01*
X185700267Y-89082886D01*
G37*
G36*
X166200267Y-89082886D02*
G01*
X166211262Y-89090233D01*
X166230199Y-89094000D01*
X167329801Y-89094000D01*
X167348738Y-89090233D01*
X167359733Y-89082886D01*
X167361729Y-89082755D01*
X167362840Y-89084418D01*
X167362507Y-89085660D01*
X167353291Y-89099452D01*
X167355031Y-89100615D01*
X167355916Y-89102409D01*
X167355455Y-89103560D01*
X167340922Y-89120952D01*
X167332296Y-89189670D01*
X167355082Y-89237288D01*
X167354928Y-89239282D01*
X167354389Y-89239814D01*
X167353291Y-89240548D01*
X167362507Y-89254340D01*
X167362638Y-89256336D01*
X167360975Y-89257447D01*
X167359733Y-89257114D01*
X167348738Y-89249767D01*
X167329801Y-89246000D01*
X166230199Y-89246000D01*
X166211262Y-89249767D01*
X166200267Y-89257114D01*
X166198271Y-89257245D01*
X166197160Y-89255582D01*
X166197493Y-89254340D01*
X166206709Y-89240548D01*
X166204969Y-89239385D01*
X166204084Y-89237591D01*
X166204545Y-89236440D01*
X166219078Y-89219048D01*
X166227704Y-89150330D01*
X166204918Y-89102712D01*
X166205072Y-89100718D01*
X166205611Y-89100186D01*
X166206709Y-89099452D01*
X166197493Y-89085660D01*
X166197362Y-89083664D01*
X166199025Y-89082553D01*
X166200267Y-89082886D01*
G37*
G36*
X185700267Y-88582886D02*
G01*
X185711262Y-88590233D01*
X185730199Y-88594000D01*
X186829801Y-88594000D01*
X186848738Y-88590233D01*
X186859733Y-88582886D01*
X186861729Y-88582755D01*
X186862840Y-88584418D01*
X186862507Y-88585660D01*
X186853291Y-88599452D01*
X186855031Y-88600615D01*
X186855916Y-88602409D01*
X186855455Y-88603560D01*
X186840922Y-88620952D01*
X186832296Y-88689670D01*
X186855082Y-88737288D01*
X186854928Y-88739282D01*
X186854389Y-88739814D01*
X186853291Y-88740548D01*
X186862507Y-88754340D01*
X186862638Y-88756336D01*
X186860975Y-88757447D01*
X186859733Y-88757114D01*
X186848738Y-88749767D01*
X186829801Y-88746000D01*
X185730199Y-88746000D01*
X185711262Y-88749767D01*
X185700267Y-88757114D01*
X185698271Y-88757245D01*
X185697160Y-88755582D01*
X185697493Y-88754340D01*
X185706709Y-88740548D01*
X185704969Y-88739385D01*
X185704084Y-88737591D01*
X185704545Y-88736440D01*
X185719078Y-88719048D01*
X185727704Y-88650330D01*
X185704918Y-88602712D01*
X185705072Y-88600718D01*
X185705611Y-88600186D01*
X185706709Y-88599452D01*
X185697493Y-88585660D01*
X185697362Y-88583664D01*
X185699025Y-88582553D01*
X185700267Y-88582886D01*
G37*
G36*
X166200267Y-88582886D02*
G01*
X166211262Y-88590233D01*
X166230199Y-88594000D01*
X167329801Y-88594000D01*
X167348738Y-88590233D01*
X167359733Y-88582886D01*
X167361729Y-88582755D01*
X167362840Y-88584418D01*
X167362507Y-88585660D01*
X167353291Y-88599452D01*
X167355031Y-88600615D01*
X167355916Y-88602409D01*
X167355455Y-88603560D01*
X167340922Y-88620952D01*
X167332296Y-88689670D01*
X167355082Y-88737288D01*
X167354928Y-88739282D01*
X167354389Y-88739814D01*
X167353291Y-88740548D01*
X167362507Y-88754340D01*
X167362638Y-88756336D01*
X167360975Y-88757447D01*
X167359733Y-88757114D01*
X167348738Y-88749767D01*
X167329801Y-88746000D01*
X166230199Y-88746000D01*
X166211262Y-88749767D01*
X166200267Y-88757114D01*
X166198271Y-88757245D01*
X166197160Y-88755582D01*
X166197493Y-88754340D01*
X166206709Y-88740548D01*
X166204969Y-88739385D01*
X166204084Y-88737591D01*
X166204545Y-88736440D01*
X166219078Y-88719048D01*
X166227704Y-88650330D01*
X166204918Y-88602712D01*
X166205072Y-88600718D01*
X166205611Y-88600186D01*
X166206709Y-88599452D01*
X166197493Y-88585660D01*
X166197362Y-88583664D01*
X166199025Y-88582553D01*
X166200267Y-88582886D01*
G37*
G36*
X166200267Y-88082886D02*
G01*
X166211262Y-88090233D01*
X166230199Y-88094000D01*
X167329801Y-88094000D01*
X167348738Y-88090233D01*
X167359733Y-88082886D01*
X167361729Y-88082755D01*
X167362840Y-88084418D01*
X167362507Y-88085660D01*
X167353291Y-88099452D01*
X167355031Y-88100615D01*
X167355916Y-88102409D01*
X167355455Y-88103560D01*
X167340922Y-88120952D01*
X167332296Y-88189670D01*
X167355082Y-88237288D01*
X167354928Y-88239282D01*
X167354389Y-88239814D01*
X167353291Y-88240548D01*
X167362507Y-88254340D01*
X167362638Y-88256336D01*
X167360975Y-88257447D01*
X167359733Y-88257114D01*
X167348738Y-88249767D01*
X167329801Y-88246000D01*
X166230199Y-88246000D01*
X166211262Y-88249767D01*
X166200267Y-88257114D01*
X166198271Y-88257245D01*
X166197160Y-88255582D01*
X166197493Y-88254340D01*
X166206709Y-88240548D01*
X166204969Y-88239385D01*
X166204084Y-88237591D01*
X166204545Y-88236440D01*
X166219078Y-88219048D01*
X166227704Y-88150330D01*
X166204918Y-88102712D01*
X166205072Y-88100718D01*
X166205611Y-88100186D01*
X166206709Y-88099452D01*
X166197493Y-88085660D01*
X166197362Y-88083664D01*
X166199025Y-88082553D01*
X166200267Y-88082886D01*
G37*
G36*
X185700267Y-88082886D02*
G01*
X185711262Y-88090233D01*
X185730199Y-88094000D01*
X186829801Y-88094000D01*
X186848738Y-88090233D01*
X186859733Y-88082886D01*
X186861729Y-88082755D01*
X186862840Y-88084418D01*
X186862507Y-88085660D01*
X186853291Y-88099452D01*
X186855031Y-88100615D01*
X186855916Y-88102409D01*
X186855455Y-88103560D01*
X186840922Y-88120952D01*
X186832296Y-88189670D01*
X186855082Y-88237288D01*
X186854928Y-88239282D01*
X186854389Y-88239814D01*
X186853291Y-88240548D01*
X186862507Y-88254340D01*
X186862638Y-88256336D01*
X186860975Y-88257447D01*
X186859733Y-88257114D01*
X186848738Y-88249767D01*
X186829801Y-88246000D01*
X185730199Y-88246000D01*
X185711262Y-88249767D01*
X185700267Y-88257114D01*
X185698271Y-88257245D01*
X185697160Y-88255582D01*
X185697493Y-88254340D01*
X185706709Y-88240548D01*
X185704969Y-88239385D01*
X185704084Y-88237591D01*
X185704545Y-88236440D01*
X185719078Y-88219048D01*
X185727704Y-88150330D01*
X185704918Y-88102712D01*
X185705072Y-88100718D01*
X185705611Y-88100186D01*
X185706709Y-88099452D01*
X185697493Y-88085660D01*
X185697362Y-88083664D01*
X185699025Y-88082553D01*
X185700267Y-88082886D01*
G37*
G36*
X166200267Y-87582886D02*
G01*
X166211262Y-87590233D01*
X166230199Y-87594000D01*
X167329801Y-87594000D01*
X167348738Y-87590233D01*
X167359733Y-87582886D01*
X167361729Y-87582755D01*
X167362840Y-87584418D01*
X167362507Y-87585660D01*
X167353291Y-87599452D01*
X167355031Y-87600615D01*
X167355916Y-87602409D01*
X167355455Y-87603560D01*
X167340922Y-87620952D01*
X167332296Y-87689670D01*
X167355082Y-87737288D01*
X167354928Y-87739282D01*
X167354389Y-87739814D01*
X167353291Y-87740548D01*
X167362507Y-87754340D01*
X167362638Y-87756336D01*
X167360975Y-87757447D01*
X167359733Y-87757114D01*
X167348738Y-87749767D01*
X167329801Y-87746000D01*
X166230199Y-87746000D01*
X166211262Y-87749767D01*
X166200267Y-87757114D01*
X166198271Y-87757245D01*
X166197160Y-87755582D01*
X166197493Y-87754340D01*
X166206709Y-87740548D01*
X166204969Y-87739385D01*
X166204084Y-87737591D01*
X166204545Y-87736440D01*
X166219078Y-87719048D01*
X166227704Y-87650330D01*
X166204918Y-87602712D01*
X166205072Y-87600718D01*
X166205611Y-87600186D01*
X166206709Y-87599452D01*
X166197493Y-87585660D01*
X166197362Y-87583664D01*
X166199025Y-87582553D01*
X166200267Y-87582886D01*
G37*
G36*
X185700267Y-87582886D02*
G01*
X185711262Y-87590233D01*
X185730199Y-87594000D01*
X186829801Y-87594000D01*
X186848738Y-87590233D01*
X186859733Y-87582886D01*
X186861729Y-87582755D01*
X186862840Y-87584418D01*
X186862507Y-87585660D01*
X186853291Y-87599452D01*
X186855031Y-87600615D01*
X186855916Y-87602409D01*
X186855455Y-87603560D01*
X186840922Y-87620952D01*
X186832296Y-87689670D01*
X186855082Y-87737288D01*
X186854928Y-87739282D01*
X186854389Y-87739814D01*
X186853291Y-87740548D01*
X186862507Y-87754340D01*
X186862638Y-87756336D01*
X186860975Y-87757447D01*
X186859733Y-87757114D01*
X186848738Y-87749767D01*
X186829801Y-87746000D01*
X185730199Y-87746000D01*
X185711262Y-87749767D01*
X185700267Y-87757114D01*
X185698271Y-87757245D01*
X185697160Y-87755582D01*
X185697493Y-87754340D01*
X185706709Y-87740548D01*
X185704969Y-87739385D01*
X185704084Y-87737591D01*
X185704545Y-87736440D01*
X185719078Y-87719048D01*
X185727704Y-87650330D01*
X185704918Y-87602712D01*
X185705072Y-87600718D01*
X185705611Y-87600186D01*
X185706709Y-87599452D01*
X185697493Y-87585660D01*
X185697362Y-87583664D01*
X185699025Y-87582553D01*
X185700267Y-87582886D01*
G37*
G36*
X166200267Y-87082886D02*
G01*
X166211262Y-87090233D01*
X166230199Y-87094000D01*
X167329801Y-87094000D01*
X167348738Y-87090233D01*
X167359733Y-87082886D01*
X167361729Y-87082755D01*
X167362840Y-87084418D01*
X167362507Y-87085660D01*
X167353291Y-87099452D01*
X167355031Y-87100615D01*
X167355916Y-87102409D01*
X167355455Y-87103560D01*
X167340922Y-87120952D01*
X167332296Y-87189670D01*
X167355082Y-87237288D01*
X167354928Y-87239282D01*
X167354389Y-87239814D01*
X167353291Y-87240548D01*
X167362507Y-87254340D01*
X167362638Y-87256336D01*
X167360975Y-87257447D01*
X167359733Y-87257114D01*
X167348738Y-87249767D01*
X167329801Y-87246000D01*
X166230199Y-87246000D01*
X166211262Y-87249767D01*
X166200267Y-87257114D01*
X166198271Y-87257245D01*
X166197160Y-87255582D01*
X166197493Y-87254340D01*
X166206709Y-87240548D01*
X166204969Y-87239385D01*
X166204084Y-87237591D01*
X166204545Y-87236440D01*
X166219078Y-87219048D01*
X166227704Y-87150330D01*
X166204918Y-87102712D01*
X166205072Y-87100718D01*
X166205611Y-87100186D01*
X166206709Y-87099452D01*
X166197493Y-87085660D01*
X166197362Y-87083664D01*
X166199025Y-87082553D01*
X166200267Y-87082886D01*
G37*
G36*
X185700267Y-87082886D02*
G01*
X185711262Y-87090233D01*
X185730199Y-87094000D01*
X186829801Y-87094000D01*
X186848738Y-87090233D01*
X186859733Y-87082886D01*
X186861729Y-87082755D01*
X186862840Y-87084418D01*
X186862507Y-87085660D01*
X186853291Y-87099452D01*
X186855031Y-87100615D01*
X186855916Y-87102409D01*
X186855455Y-87103560D01*
X186840922Y-87120952D01*
X186832296Y-87189670D01*
X186855082Y-87237288D01*
X186854928Y-87239282D01*
X186854389Y-87239814D01*
X186853291Y-87240548D01*
X186862507Y-87254340D01*
X186862638Y-87256336D01*
X186860975Y-87257447D01*
X186859733Y-87257114D01*
X186848738Y-87249767D01*
X186829801Y-87246000D01*
X185730199Y-87246000D01*
X185711262Y-87249767D01*
X185700267Y-87257114D01*
X185698271Y-87257245D01*
X185697160Y-87255582D01*
X185697493Y-87254340D01*
X185706709Y-87240548D01*
X185704969Y-87239385D01*
X185704084Y-87237591D01*
X185704545Y-87236440D01*
X185719078Y-87219048D01*
X185727704Y-87150330D01*
X185704918Y-87102712D01*
X185705072Y-87100718D01*
X185705611Y-87100186D01*
X185706709Y-87099452D01*
X185697493Y-87085660D01*
X185697362Y-87083664D01*
X185699025Y-87082553D01*
X185700267Y-87082886D01*
G37*
G36*
X166200267Y-86582886D02*
G01*
X166211262Y-86590233D01*
X166230199Y-86594000D01*
X167329801Y-86594000D01*
X167348738Y-86590233D01*
X167359733Y-86582886D01*
X167361729Y-86582755D01*
X167362840Y-86584418D01*
X167362507Y-86585660D01*
X167353291Y-86599452D01*
X167355031Y-86600615D01*
X167355916Y-86602409D01*
X167355455Y-86603560D01*
X167340922Y-86620952D01*
X167332296Y-86689670D01*
X167355082Y-86737288D01*
X167354928Y-86739282D01*
X167354389Y-86739814D01*
X167353291Y-86740548D01*
X167362507Y-86754340D01*
X167362638Y-86756336D01*
X167360975Y-86757447D01*
X167359733Y-86757114D01*
X167348738Y-86749767D01*
X167329801Y-86746000D01*
X166230199Y-86746000D01*
X166211262Y-86749767D01*
X166200267Y-86757114D01*
X166198271Y-86757245D01*
X166197160Y-86755582D01*
X166197493Y-86754340D01*
X166206709Y-86740548D01*
X166204969Y-86739385D01*
X166204084Y-86737591D01*
X166204545Y-86736440D01*
X166219078Y-86719048D01*
X166227704Y-86650330D01*
X166204918Y-86602712D01*
X166205072Y-86600718D01*
X166205611Y-86600186D01*
X166206709Y-86599452D01*
X166197493Y-86585660D01*
X166197362Y-86583664D01*
X166199025Y-86582553D01*
X166200267Y-86582886D01*
G37*
G36*
X185700267Y-86582886D02*
G01*
X185711262Y-86590233D01*
X185730199Y-86594000D01*
X186829801Y-86594000D01*
X186848738Y-86590233D01*
X186859733Y-86582886D01*
X186861729Y-86582755D01*
X186862840Y-86584418D01*
X186862507Y-86585660D01*
X186853291Y-86599452D01*
X186855031Y-86600615D01*
X186855916Y-86602409D01*
X186855455Y-86603560D01*
X186840922Y-86620952D01*
X186832296Y-86689670D01*
X186855082Y-86737288D01*
X186854928Y-86739282D01*
X186854389Y-86739814D01*
X186853291Y-86740548D01*
X186862507Y-86754340D01*
X186862638Y-86756336D01*
X186860975Y-86757447D01*
X186859733Y-86757114D01*
X186848738Y-86749767D01*
X186829801Y-86746000D01*
X185730199Y-86746000D01*
X185711262Y-86749767D01*
X185700267Y-86757114D01*
X185698271Y-86757245D01*
X185697160Y-86755582D01*
X185697493Y-86754340D01*
X185706709Y-86740548D01*
X185704969Y-86739385D01*
X185704084Y-86737591D01*
X185704545Y-86736440D01*
X185719078Y-86719048D01*
X185727704Y-86650330D01*
X185704918Y-86602712D01*
X185705072Y-86600718D01*
X185705611Y-86600186D01*
X185706709Y-86599452D01*
X185697493Y-86585660D01*
X185697362Y-86583664D01*
X185699025Y-86582553D01*
X185700267Y-86582886D01*
G37*
G36*
X185700267Y-86082886D02*
G01*
X185711262Y-86090233D01*
X185730199Y-86094000D01*
X186829801Y-86094000D01*
X186848738Y-86090233D01*
X186859733Y-86082886D01*
X186861729Y-86082755D01*
X186862840Y-86084418D01*
X186862507Y-86085660D01*
X186853291Y-86099452D01*
X186855031Y-86100615D01*
X186855916Y-86102409D01*
X186855455Y-86103560D01*
X186840922Y-86120952D01*
X186832296Y-86189670D01*
X186855082Y-86237288D01*
X186854928Y-86239282D01*
X186854389Y-86239814D01*
X186853291Y-86240548D01*
X186862507Y-86254340D01*
X186862638Y-86256336D01*
X186860975Y-86257447D01*
X186859733Y-86257114D01*
X186848738Y-86249767D01*
X186829801Y-86246000D01*
X185730199Y-86246000D01*
X185711262Y-86249767D01*
X185700267Y-86257114D01*
X185698271Y-86257245D01*
X185697160Y-86255582D01*
X185697493Y-86254340D01*
X185706709Y-86240548D01*
X185704969Y-86239385D01*
X185704084Y-86237591D01*
X185704545Y-86236440D01*
X185719078Y-86219048D01*
X185727704Y-86150330D01*
X185704918Y-86102712D01*
X185705072Y-86100718D01*
X185705611Y-86100186D01*
X185706709Y-86099452D01*
X185697493Y-86085660D01*
X185697362Y-86083664D01*
X185699025Y-86082553D01*
X185700267Y-86082886D01*
G37*
G36*
X166200267Y-86082886D02*
G01*
X166211262Y-86090233D01*
X166230199Y-86094000D01*
X167329801Y-86094000D01*
X167348738Y-86090233D01*
X167359733Y-86082886D01*
X167361729Y-86082755D01*
X167362840Y-86084418D01*
X167362507Y-86085660D01*
X167353291Y-86099452D01*
X167355031Y-86100615D01*
X167355916Y-86102409D01*
X167355455Y-86103560D01*
X167340922Y-86120952D01*
X167332296Y-86189670D01*
X167355082Y-86237288D01*
X167354928Y-86239282D01*
X167354389Y-86239814D01*
X167353291Y-86240548D01*
X167362507Y-86254340D01*
X167362638Y-86256336D01*
X167360975Y-86257447D01*
X167359733Y-86257114D01*
X167348738Y-86249767D01*
X167329801Y-86246000D01*
X166230199Y-86246000D01*
X166211262Y-86249767D01*
X166200267Y-86257114D01*
X166198271Y-86257245D01*
X166197160Y-86255582D01*
X166197493Y-86254340D01*
X166206709Y-86240548D01*
X166204969Y-86239385D01*
X166204084Y-86237591D01*
X166204545Y-86236440D01*
X166219078Y-86219048D01*
X166227704Y-86150330D01*
X166204918Y-86102712D01*
X166205072Y-86100718D01*
X166205611Y-86100186D01*
X166206709Y-86099452D01*
X166197493Y-86085660D01*
X166197362Y-86083664D01*
X166199025Y-86082553D01*
X166200267Y-86082886D01*
G37*
G36*
X185700267Y-85582886D02*
G01*
X185711262Y-85590233D01*
X185730199Y-85594000D01*
X186829801Y-85594000D01*
X186848738Y-85590233D01*
X186859733Y-85582886D01*
X186861729Y-85582755D01*
X186862840Y-85584418D01*
X186862507Y-85585660D01*
X186853291Y-85599452D01*
X186855031Y-85600615D01*
X186855916Y-85602409D01*
X186855455Y-85603560D01*
X186840922Y-85620952D01*
X186832296Y-85689670D01*
X186855082Y-85737288D01*
X186854928Y-85739282D01*
X186854389Y-85739814D01*
X186853291Y-85740548D01*
X186862507Y-85754340D01*
X186862638Y-85756336D01*
X186860975Y-85757447D01*
X186859733Y-85757114D01*
X186848738Y-85749767D01*
X186829801Y-85746000D01*
X185730199Y-85746000D01*
X185711262Y-85749767D01*
X185700267Y-85757114D01*
X185698271Y-85757245D01*
X185697160Y-85755582D01*
X185697493Y-85754340D01*
X185706709Y-85740548D01*
X185704969Y-85739385D01*
X185704084Y-85737591D01*
X185704545Y-85736440D01*
X185719078Y-85719048D01*
X185727704Y-85650330D01*
X185704918Y-85602712D01*
X185705072Y-85600718D01*
X185705611Y-85600186D01*
X185706709Y-85599452D01*
X185697493Y-85585660D01*
X185697362Y-85583664D01*
X185699025Y-85582553D01*
X185700267Y-85582886D01*
G37*
G36*
X166200267Y-85582886D02*
G01*
X166211262Y-85590233D01*
X166230199Y-85594000D01*
X167329801Y-85594000D01*
X167348738Y-85590233D01*
X167359733Y-85582886D01*
X167361729Y-85582755D01*
X167362840Y-85584418D01*
X167362507Y-85585660D01*
X167353291Y-85599452D01*
X167355031Y-85600615D01*
X167355916Y-85602409D01*
X167355455Y-85603560D01*
X167340922Y-85620952D01*
X167332296Y-85689670D01*
X167355082Y-85737288D01*
X167354928Y-85739282D01*
X167354389Y-85739814D01*
X167353291Y-85740548D01*
X167362507Y-85754340D01*
X167362638Y-85756336D01*
X167360975Y-85757447D01*
X167359733Y-85757114D01*
X167348738Y-85749767D01*
X167329801Y-85746000D01*
X166230199Y-85746000D01*
X166211262Y-85749767D01*
X166200267Y-85757114D01*
X166198271Y-85757245D01*
X166197160Y-85755582D01*
X166197493Y-85754340D01*
X166206709Y-85740548D01*
X166204969Y-85739385D01*
X166204084Y-85737591D01*
X166204545Y-85736440D01*
X166219078Y-85719048D01*
X166227704Y-85650330D01*
X166204918Y-85602712D01*
X166205072Y-85600718D01*
X166205611Y-85600186D01*
X166206709Y-85599452D01*
X166197493Y-85585660D01*
X166197362Y-85583664D01*
X166199025Y-85582553D01*
X166200267Y-85582886D01*
G37*
G36*
X185700267Y-85082886D02*
G01*
X185711262Y-85090233D01*
X185730199Y-85094000D01*
X186829801Y-85094000D01*
X186848738Y-85090233D01*
X186859733Y-85082886D01*
X186861729Y-85082755D01*
X186862840Y-85084418D01*
X186862507Y-85085660D01*
X186853291Y-85099452D01*
X186855031Y-85100615D01*
X186855916Y-85102409D01*
X186855455Y-85103560D01*
X186840922Y-85120952D01*
X186832296Y-85189670D01*
X186855082Y-85237288D01*
X186854928Y-85239282D01*
X186854389Y-85239814D01*
X186853291Y-85240548D01*
X186862507Y-85254340D01*
X186862638Y-85256336D01*
X186860975Y-85257447D01*
X186859733Y-85257114D01*
X186848738Y-85249767D01*
X186829801Y-85246000D01*
X185730199Y-85246000D01*
X185711262Y-85249767D01*
X185700267Y-85257114D01*
X185698271Y-85257245D01*
X185697160Y-85255582D01*
X185697493Y-85254340D01*
X185706709Y-85240548D01*
X185704969Y-85239385D01*
X185704084Y-85237591D01*
X185704545Y-85236440D01*
X185719078Y-85219048D01*
X185727704Y-85150330D01*
X185704918Y-85102712D01*
X185705072Y-85100718D01*
X185705611Y-85100186D01*
X185706709Y-85099452D01*
X185697493Y-85085660D01*
X185697362Y-85083664D01*
X185699025Y-85082553D01*
X185700267Y-85082886D01*
G37*
G36*
X166200267Y-85082886D02*
G01*
X166211262Y-85090233D01*
X166230199Y-85094000D01*
X167329801Y-85094000D01*
X167348738Y-85090233D01*
X167359733Y-85082886D01*
X167361729Y-85082755D01*
X167362840Y-85084418D01*
X167362507Y-85085660D01*
X167353291Y-85099452D01*
X167355031Y-85100615D01*
X167355916Y-85102409D01*
X167355455Y-85103560D01*
X167340922Y-85120952D01*
X167332296Y-85189670D01*
X167355082Y-85237288D01*
X167354928Y-85239282D01*
X167354389Y-85239814D01*
X167353291Y-85240548D01*
X167362507Y-85254340D01*
X167362638Y-85256336D01*
X167360975Y-85257447D01*
X167359733Y-85257114D01*
X167348738Y-85249767D01*
X167329801Y-85246000D01*
X166230199Y-85246000D01*
X166211262Y-85249767D01*
X166200267Y-85257114D01*
X166198271Y-85257245D01*
X166197160Y-85255582D01*
X166197493Y-85254340D01*
X166206709Y-85240548D01*
X166204969Y-85239385D01*
X166204084Y-85237591D01*
X166204545Y-85236440D01*
X166219078Y-85219048D01*
X166227704Y-85150330D01*
X166204918Y-85102712D01*
X166205072Y-85100718D01*
X166205611Y-85100186D01*
X166206709Y-85099452D01*
X166197493Y-85085660D01*
X166197362Y-85083664D01*
X166199025Y-85082553D01*
X166200267Y-85082886D01*
G37*
G36*
X185700267Y-84582886D02*
G01*
X185711262Y-84590233D01*
X185730199Y-84594000D01*
X186829801Y-84594000D01*
X186848738Y-84590233D01*
X186859733Y-84582886D01*
X186861729Y-84582755D01*
X186862840Y-84584418D01*
X186862507Y-84585660D01*
X186853291Y-84599452D01*
X186855031Y-84600615D01*
X186855916Y-84602409D01*
X186855455Y-84603560D01*
X186840922Y-84620952D01*
X186832296Y-84689670D01*
X186855082Y-84737288D01*
X186854928Y-84739282D01*
X186854389Y-84739814D01*
X186853291Y-84740548D01*
X186862507Y-84754340D01*
X186862638Y-84756336D01*
X186860975Y-84757447D01*
X186859733Y-84757114D01*
X186848738Y-84749767D01*
X186829801Y-84746000D01*
X185730199Y-84746000D01*
X185711262Y-84749767D01*
X185700267Y-84757114D01*
X185698271Y-84757245D01*
X185697160Y-84755582D01*
X185697493Y-84754340D01*
X185706709Y-84740548D01*
X185704969Y-84739385D01*
X185704084Y-84737591D01*
X185704545Y-84736440D01*
X185719078Y-84719048D01*
X185727704Y-84650330D01*
X185704918Y-84602712D01*
X185705072Y-84600718D01*
X185705611Y-84600186D01*
X185706709Y-84599452D01*
X185697493Y-84585660D01*
X185697362Y-84583664D01*
X185699025Y-84582553D01*
X185700267Y-84582886D01*
G37*
G36*
X166200267Y-84582886D02*
G01*
X166211262Y-84590233D01*
X166230199Y-84594000D01*
X167329801Y-84594000D01*
X167348738Y-84590233D01*
X167359733Y-84582886D01*
X167361729Y-84582755D01*
X167362840Y-84584418D01*
X167362507Y-84585660D01*
X167353291Y-84599452D01*
X167355031Y-84600615D01*
X167355916Y-84602409D01*
X167355455Y-84603560D01*
X167340922Y-84620952D01*
X167332296Y-84689670D01*
X167355082Y-84737288D01*
X167354928Y-84739282D01*
X167354389Y-84739814D01*
X167353291Y-84740548D01*
X167362507Y-84754340D01*
X167362638Y-84756336D01*
X167360975Y-84757447D01*
X167359733Y-84757114D01*
X167348738Y-84749767D01*
X167329801Y-84746000D01*
X166230199Y-84746000D01*
X166211262Y-84749767D01*
X166200267Y-84757114D01*
X166198271Y-84757245D01*
X166197160Y-84755582D01*
X166197493Y-84754340D01*
X166206709Y-84740548D01*
X166204969Y-84739385D01*
X166204084Y-84737591D01*
X166204545Y-84736440D01*
X166219078Y-84719048D01*
X166227704Y-84650330D01*
X166204918Y-84602712D01*
X166205072Y-84600718D01*
X166205611Y-84600186D01*
X166206709Y-84599452D01*
X166197493Y-84585660D01*
X166197362Y-84583664D01*
X166199025Y-84582553D01*
X166200267Y-84582886D01*
G37*
G36*
X180563160Y-81767493D02*
G01*
X180576952Y-81776709D01*
X180578115Y-81774969D01*
X180579909Y-81774084D01*
X180581060Y-81774545D01*
X180598452Y-81789078D01*
X180667170Y-81797704D01*
X180714788Y-81774918D01*
X180716782Y-81775072D01*
X180717314Y-81775611D01*
X180718048Y-81776709D01*
X180731840Y-81767493D01*
X180733836Y-81767362D01*
X180734947Y-81769025D01*
X180734614Y-81770267D01*
X180727267Y-81781262D01*
X180723500Y-81800199D01*
X180723500Y-83299801D01*
X180727267Y-83318738D01*
X180734614Y-83329733D01*
X180734745Y-83331729D01*
X180733082Y-83332840D01*
X180731840Y-83332507D01*
X180718048Y-83323291D01*
X180716885Y-83325031D01*
X180715091Y-83325916D01*
X180713940Y-83325455D01*
X180696548Y-83310922D01*
X180627830Y-83302296D01*
X180580212Y-83325082D01*
X180578218Y-83324928D01*
X180577686Y-83324389D01*
X180576952Y-83323291D01*
X180563160Y-83332507D01*
X180561164Y-83332638D01*
X180560053Y-83330975D01*
X180560386Y-83329733D01*
X180567733Y-83318738D01*
X180571500Y-83299801D01*
X180571500Y-81800199D01*
X180567733Y-81781262D01*
X180560386Y-81770267D01*
X180560255Y-81768271D01*
X180561918Y-81767160D01*
X180563160Y-81767493D01*
G37*
G36*
X179313160Y-81767493D02*
G01*
X179326952Y-81776709D01*
X179328115Y-81774969D01*
X179329909Y-81774084D01*
X179331060Y-81774545D01*
X179348452Y-81789078D01*
X179417170Y-81797704D01*
X179464788Y-81774918D01*
X179466782Y-81775072D01*
X179467314Y-81775611D01*
X179468048Y-81776709D01*
X179481840Y-81767493D01*
X179483836Y-81767362D01*
X179484947Y-81769025D01*
X179484614Y-81770267D01*
X179477267Y-81781262D01*
X179473500Y-81800199D01*
X179473500Y-83299801D01*
X179477267Y-83318738D01*
X179484614Y-83329733D01*
X179484745Y-83331729D01*
X179483082Y-83332840D01*
X179481840Y-83332507D01*
X179468048Y-83323291D01*
X179466885Y-83325031D01*
X179465091Y-83325916D01*
X179463940Y-83325455D01*
X179446548Y-83310922D01*
X179377830Y-83302296D01*
X179330212Y-83325082D01*
X179328218Y-83324928D01*
X179327686Y-83324389D01*
X179326952Y-83323291D01*
X179313160Y-83332507D01*
X179311164Y-83332638D01*
X179310053Y-83330975D01*
X179310386Y-83329733D01*
X179317733Y-83318738D01*
X179321500Y-83299801D01*
X179321500Y-81800199D01*
X179317733Y-81781262D01*
X179310386Y-81770267D01*
X179310255Y-81768271D01*
X179311918Y-81767160D01*
X179313160Y-81767493D01*
G37*
G36*
X172619267Y-81783301D02*
G01*
X172670946Y-81826489D01*
X172739661Y-81835120D01*
X172802291Y-81805156D01*
X172820348Y-81784318D01*
X172822238Y-81783664D01*
X172823749Y-81784974D01*
X172823821Y-81786018D01*
X172821000Y-81800199D01*
X172821000Y-83299801D01*
X172823978Y-83314774D01*
X172823335Y-83316668D01*
X172821373Y-83317058D01*
X172820733Y-83316699D01*
X172769054Y-83273511D01*
X172700339Y-83264880D01*
X172637709Y-83294844D01*
X172619652Y-83315682D01*
X172617762Y-83316336D01*
X172616251Y-83315026D01*
X172616179Y-83313982D01*
X172619000Y-83299801D01*
X172619000Y-81800199D01*
X172616022Y-81785226D01*
X172616665Y-81783332D01*
X172618627Y-81782942D01*
X172619267Y-81783301D01*
G37*
G36*
X169317267Y-81783301D02*
G01*
X169368946Y-81826489D01*
X169437661Y-81835120D01*
X169500291Y-81805156D01*
X169518348Y-81784318D01*
X169520238Y-81783664D01*
X169521749Y-81784974D01*
X169521821Y-81786018D01*
X169519000Y-81800199D01*
X169519000Y-83299801D01*
X169521978Y-83314774D01*
X169521335Y-83316668D01*
X169519373Y-83317058D01*
X169518733Y-83316699D01*
X169467054Y-83273511D01*
X169398339Y-83264880D01*
X169335709Y-83294844D01*
X169317652Y-83315682D01*
X169315762Y-83316336D01*
X169314251Y-83315026D01*
X169314179Y-83313982D01*
X169317000Y-83299801D01*
X169317000Y-81800199D01*
X169314022Y-81785226D01*
X169314665Y-81783332D01*
X169316627Y-81782942D01*
X169317267Y-81783301D01*
G37*
G36*
X175921267Y-81783301D02*
G01*
X175972946Y-81826489D01*
X176041661Y-81835120D01*
X176104291Y-81805156D01*
X176122348Y-81784318D01*
X176124238Y-81783664D01*
X176125749Y-81784974D01*
X176125821Y-81786018D01*
X176123000Y-81800199D01*
X176123000Y-83299801D01*
X176125978Y-83314774D01*
X176125335Y-83316668D01*
X176123373Y-83317058D01*
X176122733Y-83316699D01*
X176071054Y-83273511D01*
X176002339Y-83264880D01*
X175939709Y-83294844D01*
X175921652Y-83315682D01*
X175919762Y-83316336D01*
X175918251Y-83315026D01*
X175918179Y-83313982D01*
X175921000Y-83299801D01*
X175921000Y-81800199D01*
X175918022Y-81785226D01*
X175918665Y-81783332D01*
X175920627Y-81782942D01*
X175921267Y-81783301D01*
G37*
M02*
