G04 #@! TF.GenerationSoftware,KiCad,Pcbnew,6.0.8-f2edbf62ab~116~ubuntu22.04.1*
G04 #@! TF.CreationDate,2022-10-13T11:13:53+02:00*
G04 #@! TF.ProjectId,PCMCIA_SRAM,50434d43-4941-45f5-9352-414d2e6b6963,v1.0*
G04 #@! TF.SameCoordinates,Original*
G04 #@! TF.FileFunction,Soldermask,Bot*
G04 #@! TF.FilePolarity,Negative*
%FSLAX46Y46*%
G04 Gerber Fmt 4.6, Leading zero omitted, Abs format (unit mm)*
G04 Created by KiCad (PCBNEW 6.0.8-f2edbf62ab~116~ubuntu22.04.1) date 2022-10-13 11:13:53*
%MOMM*%
%LPD*%
G01*
G04 APERTURE LIST*
G04 Aperture macros list*
%AMRoundRect*
0 Rectangle with rounded corners*
0 $1 Rounding radius*
0 $2 $3 $4 $5 $6 $7 $8 $9 X,Y pos of 4 corners*
0 Add a 4 corners polygon primitive as box body*
4,1,4,$2,$3,$4,$5,$6,$7,$8,$9,$2,$3,0*
0 Add four circle primitives for the rounded corners*
1,1,$1+$1,$2,$3*
1,1,$1+$1,$4,$5*
1,1,$1+$1,$6,$7*
1,1,$1+$1,$8,$9*
0 Add four rect primitives between the rounded corners*
20,1,$1+$1,$2,$3,$4,$5,0*
20,1,$1+$1,$4,$5,$6,$7,0*
20,1,$1+$1,$6,$7,$8,$9,0*
20,1,$1+$1,$8,$9,$2,$3,0*%
G04 Aperture macros list end*
%ADD10RoundRect,0.051000X-1.500000X0.300000X-1.500000X-0.300000X1.500000X-0.300000X1.500000X0.300000X0*%
%ADD11RoundRect,0.051000X-0.850000X-0.850000X0.850000X-0.850000X0.850000X0.850000X-0.850000X0.850000X0*%
%ADD12O,1.802000X1.802000*%
G04 APERTURE END LIST*
D10*
X205025000Y-124465000D03*
X205025000Y-123195000D03*
X205025000Y-121925000D03*
X205025000Y-120655000D03*
X205025000Y-119385000D03*
X205025000Y-118115000D03*
X205025000Y-116845000D03*
X205025000Y-115575000D03*
X205025000Y-114305000D03*
X205025000Y-113035000D03*
X205025000Y-111765000D03*
X205025000Y-110495000D03*
X205025000Y-109225000D03*
X205025000Y-107955000D03*
X205025000Y-106685000D03*
X205025000Y-105415000D03*
X205025000Y-104145000D03*
X205025000Y-102875000D03*
X205025000Y-101605000D03*
X205025000Y-100335000D03*
X205025000Y-99065000D03*
X205025000Y-97795000D03*
X205025000Y-96525000D03*
X205025000Y-95255000D03*
X205025000Y-93985000D03*
X205025000Y-92715000D03*
X205025000Y-91445000D03*
X205025000Y-90175000D03*
X205025000Y-88905000D03*
X205025000Y-87635000D03*
X205025000Y-86365000D03*
X205025000Y-85095000D03*
X205025000Y-83825000D03*
X205025000Y-82555000D03*
D11*
X167640000Y-110490000D03*
D12*
X167640000Y-113030000D03*
X167640000Y-115570000D03*
X167640000Y-118110000D03*
X167640000Y-120650000D03*
X167640000Y-123190000D03*
M02*
