G04 #@! TF.GenerationSoftware,KiCad,Pcbnew,6.0.8-f2edbf62ab~116~ubuntu22.04.1*
G04 #@! TF.CreationDate,2022-10-13T11:13:52+02:00*
G04 #@! TF.ProjectId,PCMCIA_SRAM,50434d43-4941-45f5-9352-414d2e6b6963,v1.0*
G04 #@! TF.SameCoordinates,Original*
G04 #@! TF.FileFunction,Legend,Top*
G04 #@! TF.FilePolarity,Positive*
%FSLAX46Y46*%
G04 Gerber Fmt 4.6, Leading zero omitted, Abs format (unit mm)*
G04 Created by KiCad (PCBNEW 6.0.8-f2edbf62ab~116~ubuntu22.04.1) date 2022-10-13 11:13:52*
%MOMM*%
%LPD*%
G01*
G04 APERTURE LIST*
G04 Aperture macros list*
%AMRoundRect*
0 Rectangle with rounded corners*
0 $1 Rounding radius*
0 $2 $3 $4 $5 $6 $7 $8 $9 X,Y pos of 4 corners*
0 Add a 4 corners polygon primitive as box body*
4,1,4,$2,$3,$4,$5,$6,$7,$8,$9,$2,$3,0*
0 Add four circle primitives for the rounded corners*
1,1,$1+$1,$2,$3*
1,1,$1+$1,$4,$5*
1,1,$1+$1,$6,$7*
1,1,$1+$1,$8,$9*
0 Add four rect primitives between the rounded corners*
20,1,$1+$1,$2,$3,$4,$5,0*
20,1,$1+$1,$4,$5,$6,$7,0*
20,1,$1+$1,$6,$7,$8,$9,0*
20,1,$1+$1,$8,$9,$2,$3,0*%
%AMFreePoly0*
4,1,37,0.536062,0.786062,0.551000,0.750000,0.551000,-0.750000,0.536062,-0.786062,0.500000,-0.801000,0.000000,-0.801000,-0.012525,-0.795812,-0.080875,-0.794559,-0.095149,-0.792248,-0.230464,-0.749973,-0.243516,-0.743747,-0.361526,-0.665192,-0.372306,-0.655554,-0.463526,-0.547035,-0.471167,-0.534759,-0.528262,-0.405000,-0.532150,-0.391073,-0.549733,-0.256613,-0.548336,-0.256430,-0.551000,-0.250000,
-0.551000,0.250000,-0.550512,0.251179,-0.550356,0.263956,-0.528545,0.404033,-0.524317,0.417860,-0.464069,0.546185,-0.456130,0.558271,-0.362286,0.664529,-0.351274,0.673901,-0.231379,0.749549,-0.218180,0.755454,-0.081873,0.794411,-0.067546,0.796373,-0.011990,0.796033,0.000000,0.801000,0.500000,0.801000,0.536062,0.786062,0.536062,0.786062,$1*%
%AMFreePoly1*
4,1,37,0.012349,0.795885,0.074216,0.795507,0.088518,0.793370,0.224339,0.752751,0.237465,0.746685,0.356427,0.669578,0.367324,0.660073,0.459862,0.552676,0.467652,0.540494,0.526329,0.411442,0.530388,0.397563,0.550485,0.257230,0.551000,0.250000,0.551000,-0.250000,0.550996,-0.250622,0.550847,-0.262838,0.550144,-0.270677,0.526624,-0.410478,0.522228,-0.424254,0.460416,-0.551833,
0.452330,-0.563821,0.357195,-0.668925,0.346069,-0.678161,0.225259,-0.752338,0.211989,-0.758081,0.075216,-0.795370,0.060866,-0.797157,0.011464,-0.796251,0.000000,-0.801000,-0.500000,-0.801000,-0.536062,-0.786062,-0.551000,-0.750000,-0.551000,0.750000,-0.536062,0.786062,-0.500000,0.801000,0.000000,0.801000,0.012349,0.795885,0.012349,0.795885,$1*%
%AMFreePoly2*
4,1,37,0.586062,0.786062,0.601000,0.750000,0.601000,-0.750000,0.586062,-0.786062,0.550000,-0.801000,0.000000,-0.801000,-0.012525,-0.795812,-0.080875,-0.794559,-0.095149,-0.792248,-0.230464,-0.749973,-0.243516,-0.743747,-0.361526,-0.665192,-0.372306,-0.655554,-0.463526,-0.547035,-0.471167,-0.534759,-0.528262,-0.405000,-0.532150,-0.391073,-0.549733,-0.256613,-0.548336,-0.256430,-0.551000,-0.250000,
-0.551000,0.250000,-0.550512,0.251179,-0.550356,0.263956,-0.528545,0.404033,-0.524317,0.417860,-0.464069,0.546185,-0.456130,0.558271,-0.362286,0.664529,-0.351274,0.673901,-0.231379,0.749549,-0.218180,0.755454,-0.081873,0.794411,-0.067546,0.796373,-0.011990,0.796033,0.000000,0.801000,0.550000,0.801000,0.586062,0.786062,0.586062,0.786062,$1*%
%AMFreePoly3*
4,1,37,0.012349,0.795885,0.074216,0.795507,0.088518,0.793370,0.224339,0.752751,0.237465,0.746685,0.356427,0.669578,0.367324,0.660073,0.459862,0.552676,0.467652,0.540494,0.526329,0.411442,0.530388,0.397563,0.550485,0.257230,0.551000,0.250000,0.551000,-0.250000,0.550996,-0.250622,0.550847,-0.262838,0.550144,-0.270677,0.526624,-0.410478,0.522228,-0.424254,0.460416,-0.551833,
0.452330,-0.563821,0.357195,-0.668925,0.346069,-0.678161,0.225259,-0.752338,0.211989,-0.758081,0.075216,-0.795370,0.060866,-0.797157,0.011464,-0.796251,0.000000,-0.801000,-0.550000,-0.801000,-0.586062,-0.786062,-0.601000,-0.750000,-0.601000,0.750000,-0.586062,0.786062,-0.550000,0.801000,0.000000,0.801000,0.012349,0.795885,0.012349,0.795885,$1*%
G04 Aperture macros list end*
%ADD10C,0.150000*%
%ADD11C,0.100000*%
%ADD12C,0.120000*%
%ADD13C,0.010000*%
%ADD14RoundRect,0.051000X-0.035355X-0.601041X0.601041X0.035355X0.035355X0.601041X-0.601041X-0.035355X0*%
%ADD15RoundRect,0.051000X-1.500000X0.300000X-1.500000X-0.300000X1.500000X-0.300000X1.500000X0.300000X0*%
%ADD16FreePoly0,180.000000*%
%ADD17FreePoly1,180.000000*%
%ADD18FreePoly0,0.000000*%
%ADD19FreePoly1,0.000000*%
%ADD20FreePoly2,0.000000*%
%ADD21RoundRect,0.051000X-0.500000X-0.750000X0.500000X-0.750000X0.500000X0.750000X-0.500000X0.750000X0*%
%ADD22FreePoly3,0.000000*%
%ADD23FreePoly2,180.000000*%
%ADD24RoundRect,0.051000X0.500000X0.750000X-0.500000X0.750000X-0.500000X-0.750000X0.500000X-0.750000X0*%
%ADD25FreePoly3,180.000000*%
%ADD26RoundRect,0.051000X-0.550000X-0.125000X0.550000X-0.125000X0.550000X0.125000X-0.550000X0.125000X0*%
%ADD27RoundRect,0.188500X-0.600000X-0.137500X0.600000X-0.137500X0.600000X0.137500X-0.600000X0.137500X0*%
%ADD28RoundRect,0.188500X-0.137500X-0.600000X0.137500X-0.600000X0.137500X0.600000X-0.137500X0.600000X0*%
%ADD29RoundRect,0.201000X-0.150000X0.512500X-0.150000X-0.512500X0.150000X-0.512500X0.150000X0.512500X0*%
%ADD30RoundRect,0.051000X-0.850000X-0.850000X0.850000X-0.850000X0.850000X0.850000X-0.850000X0.850000X0*%
%ADD31O,1.802000X1.802000*%
%ADD32RoundRect,0.301000X-0.250000X-0.475000X0.250000X-0.475000X0.250000X0.475000X-0.250000X0.475000X0*%
%ADD33RoundRect,0.301000X0.250000X0.475000X-0.250000X0.475000X-0.250000X-0.475000X0.250000X-0.475000X0*%
%ADD34RoundRect,0.301000X0.475000X-0.250000X0.475000X0.250000X-0.475000X0.250000X-0.475000X-0.250000X0*%
G04 APERTURE END LIST*
D10*
X202064880Y-119052619D02*
X201064880Y-119052619D01*
X202064880Y-118624047D02*
X201541071Y-118624047D01*
X201445833Y-118671666D01*
X201398214Y-118766904D01*
X201398214Y-118909761D01*
X201445833Y-119005000D01*
X201493452Y-119052619D01*
X201398214Y-118290714D02*
X201398214Y-117909761D01*
X201064880Y-118147857D02*
X201922023Y-118147857D01*
X202017261Y-118100238D01*
X202064880Y-118005000D01*
X202064880Y-117909761D01*
X201398214Y-117719285D02*
X201398214Y-117338333D01*
X201064880Y-117576428D02*
X201922023Y-117576428D01*
X202017261Y-117528809D01*
X202064880Y-117433571D01*
X202064880Y-117338333D01*
X201398214Y-117005000D02*
X202398214Y-117005000D01*
X201445833Y-117005000D02*
X201398214Y-116909761D01*
X201398214Y-116719285D01*
X201445833Y-116624047D01*
X201493452Y-116576428D01*
X201588690Y-116528809D01*
X201874404Y-116528809D01*
X201969642Y-116576428D01*
X202017261Y-116624047D01*
X202064880Y-116719285D01*
X202064880Y-116909761D01*
X202017261Y-117005000D01*
X202017261Y-116147857D02*
X202064880Y-116052619D01*
X202064880Y-115862142D01*
X202017261Y-115766904D01*
X201922023Y-115719285D01*
X201874404Y-115719285D01*
X201779166Y-115766904D01*
X201731547Y-115862142D01*
X201731547Y-116005000D01*
X201683928Y-116100238D01*
X201588690Y-116147857D01*
X201541071Y-116147857D01*
X201445833Y-116100238D01*
X201398214Y-116005000D01*
X201398214Y-115862142D01*
X201445833Y-115766904D01*
X201969642Y-115290714D02*
X202017261Y-115243095D01*
X202064880Y-115290714D01*
X202017261Y-115338333D01*
X201969642Y-115290714D01*
X202064880Y-115290714D01*
X201445833Y-115290714D02*
X201493452Y-115243095D01*
X201541071Y-115290714D01*
X201493452Y-115338333D01*
X201445833Y-115290714D01*
X201541071Y-115290714D01*
X201017261Y-114100238D02*
X202302976Y-114957380D01*
X201017261Y-113052619D02*
X202302976Y-113909761D01*
X201398214Y-112290714D02*
X202207738Y-112290714D01*
X202302976Y-112338333D01*
X202350595Y-112385952D01*
X202398214Y-112481190D01*
X202398214Y-112624047D01*
X202350595Y-112719285D01*
X202017261Y-112290714D02*
X202064880Y-112385952D01*
X202064880Y-112576428D01*
X202017261Y-112671666D01*
X201969642Y-112719285D01*
X201874404Y-112766904D01*
X201588690Y-112766904D01*
X201493452Y-112719285D01*
X201445833Y-112671666D01*
X201398214Y-112576428D01*
X201398214Y-112385952D01*
X201445833Y-112290714D01*
X202064880Y-111814523D02*
X201398214Y-111814523D01*
X201064880Y-111814523D02*
X201112500Y-111862142D01*
X201160119Y-111814523D01*
X201112500Y-111766904D01*
X201064880Y-111814523D01*
X201160119Y-111814523D01*
X201398214Y-111481190D02*
X201398214Y-111100238D01*
X201064880Y-111338333D02*
X201922023Y-111338333D01*
X202017261Y-111290714D01*
X202064880Y-111195476D01*
X202064880Y-111100238D01*
X202064880Y-110766904D02*
X201064880Y-110766904D01*
X202064880Y-110338333D02*
X201541071Y-110338333D01*
X201445833Y-110385952D01*
X201398214Y-110481190D01*
X201398214Y-110624047D01*
X201445833Y-110719285D01*
X201493452Y-110766904D01*
X201398214Y-109433571D02*
X202064880Y-109433571D01*
X201398214Y-109862142D02*
X201922023Y-109862142D01*
X202017261Y-109814523D01*
X202064880Y-109719285D01*
X202064880Y-109576428D01*
X202017261Y-109481190D01*
X201969642Y-109433571D01*
X202064880Y-108957380D02*
X201064880Y-108957380D01*
X201445833Y-108957380D02*
X201398214Y-108862142D01*
X201398214Y-108671666D01*
X201445833Y-108576428D01*
X201493452Y-108528809D01*
X201588690Y-108481190D01*
X201874404Y-108481190D01*
X201969642Y-108528809D01*
X202017261Y-108576428D01*
X202064880Y-108671666D01*
X202064880Y-108862142D01*
X202017261Y-108957380D01*
X201969642Y-108052619D02*
X202017261Y-108005000D01*
X202064880Y-108052619D01*
X202017261Y-108100238D01*
X201969642Y-108052619D01*
X202064880Y-108052619D01*
X202017261Y-107147857D02*
X202064880Y-107243095D01*
X202064880Y-107433571D01*
X202017261Y-107528809D01*
X201969642Y-107576428D01*
X201874404Y-107624047D01*
X201588690Y-107624047D01*
X201493452Y-107576428D01*
X201445833Y-107528809D01*
X201398214Y-107433571D01*
X201398214Y-107243095D01*
X201445833Y-107147857D01*
X202064880Y-106576428D02*
X202017261Y-106671666D01*
X201969642Y-106719285D01*
X201874404Y-106766904D01*
X201588690Y-106766904D01*
X201493452Y-106719285D01*
X201445833Y-106671666D01*
X201398214Y-106576428D01*
X201398214Y-106433571D01*
X201445833Y-106338333D01*
X201493452Y-106290714D01*
X201588690Y-106243095D01*
X201874404Y-106243095D01*
X201969642Y-106290714D01*
X202017261Y-106338333D01*
X202064880Y-106433571D01*
X202064880Y-106576428D01*
X202064880Y-105814523D02*
X201398214Y-105814523D01*
X201493452Y-105814523D02*
X201445833Y-105766904D01*
X201398214Y-105671666D01*
X201398214Y-105528809D01*
X201445833Y-105433571D01*
X201541071Y-105385952D01*
X202064880Y-105385952D01*
X201541071Y-105385952D02*
X201445833Y-105338333D01*
X201398214Y-105243095D01*
X201398214Y-105100238D01*
X201445833Y-105005000D01*
X201541071Y-104957380D01*
X202064880Y-104957380D01*
X201017261Y-103766904D02*
X202302976Y-104624047D01*
X201398214Y-103576428D02*
X201398214Y-103195476D01*
X202064880Y-103433571D02*
X201207738Y-103433571D01*
X201112500Y-103385952D01*
X201064880Y-103290714D01*
X201064880Y-103195476D01*
X202064880Y-102338333D02*
X202064880Y-102909761D01*
X202064880Y-102624047D02*
X201064880Y-102624047D01*
X201207738Y-102719285D01*
X201302976Y-102814523D01*
X201350595Y-102909761D01*
X202064880Y-101481190D02*
X201541071Y-101481190D01*
X201445833Y-101528809D01*
X201398214Y-101624047D01*
X201398214Y-101814523D01*
X201445833Y-101909761D01*
X202017261Y-101481190D02*
X202064880Y-101576428D01*
X202064880Y-101814523D01*
X202017261Y-101909761D01*
X201922023Y-101957380D01*
X201826785Y-101957380D01*
X201731547Y-101909761D01*
X201683928Y-101814523D01*
X201683928Y-101576428D01*
X201636309Y-101481190D01*
X202017261Y-100576428D02*
X202064880Y-100671666D01*
X202064880Y-100862142D01*
X202017261Y-100957380D01*
X201969642Y-101005000D01*
X201874404Y-101052619D01*
X201588690Y-101052619D01*
X201493452Y-101005000D01*
X201445833Y-100957380D01*
X201398214Y-100862142D01*
X201398214Y-100671666D01*
X201445833Y-100576428D01*
X201064880Y-99957380D02*
X201064880Y-99862142D01*
X201112500Y-99766904D01*
X201160119Y-99719285D01*
X201255357Y-99671666D01*
X201445833Y-99624047D01*
X201683928Y-99624047D01*
X201874404Y-99671666D01*
X201969642Y-99719285D01*
X202017261Y-99766904D01*
X202064880Y-99862142D01*
X202064880Y-99957380D01*
X202017261Y-100052619D01*
X201969642Y-100100238D01*
X201874404Y-100147857D01*
X201683928Y-100195476D01*
X201445833Y-100195476D01*
X201255357Y-100147857D01*
X201160119Y-100100238D01*
X201112500Y-100052619D01*
X201064880Y-99957380D01*
X201017261Y-98481190D02*
X202302976Y-99338333D01*
X202064880Y-98147857D02*
X201064880Y-98147857D01*
X201064880Y-97766904D01*
X201112500Y-97671666D01*
X201160119Y-97624047D01*
X201255357Y-97576428D01*
X201398214Y-97576428D01*
X201493452Y-97624047D01*
X201541071Y-97671666D01*
X201588690Y-97766904D01*
X201588690Y-98147857D01*
X201969642Y-96576428D02*
X202017261Y-96624047D01*
X202064880Y-96766904D01*
X202064880Y-96862142D01*
X202017261Y-97005000D01*
X201922023Y-97100238D01*
X201826785Y-97147857D01*
X201636309Y-97195476D01*
X201493452Y-97195476D01*
X201302976Y-97147857D01*
X201207738Y-97100238D01*
X201112500Y-97005000D01*
X201064880Y-96862142D01*
X201064880Y-96766904D01*
X201112500Y-96624047D01*
X201160119Y-96576428D01*
X202064880Y-96147857D02*
X201064880Y-96147857D01*
X201779166Y-95814523D01*
X201064880Y-95481190D01*
X202064880Y-95481190D01*
X201969642Y-94433571D02*
X202017261Y-94481190D01*
X202064880Y-94624047D01*
X202064880Y-94719285D01*
X202017261Y-94862142D01*
X201922023Y-94957380D01*
X201826785Y-95005000D01*
X201636309Y-95052619D01*
X201493452Y-95052619D01*
X201302976Y-95005000D01*
X201207738Y-94957380D01*
X201112500Y-94862142D01*
X201064880Y-94719285D01*
X201064880Y-94624047D01*
X201112500Y-94481190D01*
X201160119Y-94433571D01*
X202064880Y-94005000D02*
X201064880Y-94005000D01*
X201779166Y-93576428D02*
X201779166Y-93100238D01*
X202064880Y-93671666D02*
X201064880Y-93338333D01*
X202064880Y-93005000D01*
X201683928Y-92671666D02*
X201683928Y-91909761D01*
X202017261Y-91481190D02*
X202064880Y-91338333D01*
X202064880Y-91100238D01*
X202017261Y-91005000D01*
X201969642Y-90957380D01*
X201874404Y-90909761D01*
X201779166Y-90909761D01*
X201683928Y-90957380D01*
X201636309Y-91005000D01*
X201588690Y-91100238D01*
X201541071Y-91290714D01*
X201493452Y-91385952D01*
X201445833Y-91433571D01*
X201350595Y-91481190D01*
X201255357Y-91481190D01*
X201160119Y-91433571D01*
X201112500Y-91385952D01*
X201064880Y-91290714D01*
X201064880Y-91052619D01*
X201112500Y-90909761D01*
X202064880Y-89909761D02*
X201588690Y-90243095D01*
X202064880Y-90481190D02*
X201064880Y-90481190D01*
X201064880Y-90100238D01*
X201112500Y-90005000D01*
X201160119Y-89957380D01*
X201255357Y-89909761D01*
X201398214Y-89909761D01*
X201493452Y-89957380D01*
X201541071Y-90005000D01*
X201588690Y-90100238D01*
X201588690Y-90481190D01*
X201779166Y-89528809D02*
X201779166Y-89052619D01*
X202064880Y-89624047D02*
X201064880Y-89290714D01*
X202064880Y-88957380D01*
X202064880Y-88624047D02*
X201064880Y-88624047D01*
X201779166Y-88290714D01*
X201064880Y-87957380D01*
X202064880Y-87957380D01*
X166759523Y-102322380D02*
X167330952Y-102322380D01*
X167045238Y-103322380D02*
X167045238Y-102322380D01*
X167664285Y-103322380D02*
X167664285Y-102322380D01*
X168092857Y-103322380D02*
X168092857Y-102798571D01*
X168045238Y-102703333D01*
X167950000Y-102655714D01*
X167807142Y-102655714D01*
X167711904Y-102703333D01*
X167664285Y-102750952D01*
X168569047Y-103322380D02*
X168569047Y-102655714D01*
X168569047Y-102322380D02*
X168521428Y-102370000D01*
X168569047Y-102417619D01*
X168616666Y-102370000D01*
X168569047Y-102322380D01*
X168569047Y-102417619D01*
X168997619Y-103274761D02*
X169092857Y-103322380D01*
X169283333Y-103322380D01*
X169378571Y-103274761D01*
X169426190Y-103179523D01*
X169426190Y-103131904D01*
X169378571Y-103036666D01*
X169283333Y-102989047D01*
X169140476Y-102989047D01*
X169045238Y-102941428D01*
X168997619Y-102846190D01*
X168997619Y-102798571D01*
X169045238Y-102703333D01*
X169140476Y-102655714D01*
X169283333Y-102655714D01*
X169378571Y-102703333D01*
X170569047Y-103274761D02*
X170664285Y-103322380D01*
X170854761Y-103322380D01*
X170950000Y-103274761D01*
X170997619Y-103179523D01*
X170997619Y-103131904D01*
X170950000Y-103036666D01*
X170854761Y-102989047D01*
X170711904Y-102989047D01*
X170616666Y-102941428D01*
X170569047Y-102846190D01*
X170569047Y-102798571D01*
X170616666Y-102703333D01*
X170711904Y-102655714D01*
X170854761Y-102655714D01*
X170950000Y-102703333D01*
X171426190Y-103322380D02*
X171426190Y-102655714D01*
X171426190Y-102322380D02*
X171378571Y-102370000D01*
X171426190Y-102417619D01*
X171473809Y-102370000D01*
X171426190Y-102322380D01*
X171426190Y-102417619D01*
X172330952Y-103322380D02*
X172330952Y-102322380D01*
X172330952Y-103274761D02*
X172235714Y-103322380D01*
X172045238Y-103322380D01*
X171950000Y-103274761D01*
X171902380Y-103227142D01*
X171854761Y-103131904D01*
X171854761Y-102846190D01*
X171902380Y-102750952D01*
X171950000Y-102703333D01*
X172045238Y-102655714D01*
X172235714Y-102655714D01*
X172330952Y-102703333D01*
X173188095Y-103274761D02*
X173092857Y-103322380D01*
X172902380Y-103322380D01*
X172807142Y-103274761D01*
X172759523Y-103179523D01*
X172759523Y-102798571D01*
X172807142Y-102703333D01*
X172902380Y-102655714D01*
X173092857Y-102655714D01*
X173188095Y-102703333D01*
X173235714Y-102798571D01*
X173235714Y-102893809D01*
X172759523Y-102989047D01*
X174426190Y-102322380D02*
X174426190Y-103131904D01*
X174473809Y-103227142D01*
X174521428Y-103274761D01*
X174616666Y-103322380D01*
X174807142Y-103322380D01*
X174902380Y-103274761D01*
X174950000Y-103227142D01*
X174997619Y-103131904D01*
X174997619Y-102322380D01*
X175473809Y-103322380D02*
X175473809Y-102322380D01*
X175854761Y-102322380D01*
X175950000Y-102370000D01*
X175997619Y-102417619D01*
X176045238Y-102512857D01*
X176045238Y-102655714D01*
X175997619Y-102750952D01*
X175950000Y-102798571D01*
X175854761Y-102846190D01*
X175473809Y-102846190D01*
X188817928Y-84186380D02*
X188817928Y-83186380D01*
X189198880Y-83186380D01*
X189294119Y-83234000D01*
X189341738Y-83281619D01*
X189389357Y-83376857D01*
X189389357Y-83519714D01*
X189341738Y-83614952D01*
X189294119Y-83662571D01*
X189198880Y-83710190D01*
X188817928Y-83710190D01*
X190389357Y-84091142D02*
X190341738Y-84138761D01*
X190198880Y-84186380D01*
X190103642Y-84186380D01*
X189960785Y-84138761D01*
X189865547Y-84043523D01*
X189817928Y-83948285D01*
X189770309Y-83757809D01*
X189770309Y-83614952D01*
X189817928Y-83424476D01*
X189865547Y-83329238D01*
X189960785Y-83234000D01*
X190103642Y-83186380D01*
X190198880Y-83186380D01*
X190341738Y-83234000D01*
X190389357Y-83281619D01*
X192151261Y-84091142D02*
X192103642Y-84138761D01*
X191960785Y-84186380D01*
X191865547Y-84186380D01*
X191722690Y-84138761D01*
X191627452Y-84043523D01*
X191579833Y-83948285D01*
X191532214Y-83757809D01*
X191532214Y-83614952D01*
X191579833Y-83424476D01*
X191627452Y-83329238D01*
X191722690Y-83234000D01*
X191865547Y-83186380D01*
X191960785Y-83186380D01*
X192103642Y-83234000D01*
X192151261Y-83281619D01*
X192532214Y-83900666D02*
X193008404Y-83900666D01*
X192436976Y-84186380D02*
X192770309Y-83186380D01*
X193103642Y-84186380D01*
X194008404Y-84186380D02*
X193675071Y-83710190D01*
X193436976Y-84186380D02*
X193436976Y-83186380D01*
X193817928Y-83186380D01*
X193913166Y-83234000D01*
X193960785Y-83281619D01*
X194008404Y-83376857D01*
X194008404Y-83519714D01*
X193960785Y-83614952D01*
X193913166Y-83662571D01*
X193817928Y-83710190D01*
X193436976Y-83710190D01*
X194436976Y-84186380D02*
X194436976Y-83186380D01*
X194675071Y-83186380D01*
X194817928Y-83234000D01*
X194913166Y-83329238D01*
X194960785Y-83424476D01*
X195008404Y-83614952D01*
X195008404Y-83757809D01*
X194960785Y-83948285D01*
X194913166Y-84043523D01*
X194817928Y-84138761D01*
X194675071Y-84186380D01*
X194436976Y-84186380D01*
X196151261Y-84138761D02*
X196294119Y-84186380D01*
X196532214Y-84186380D01*
X196627452Y-84138761D01*
X196675071Y-84091142D01*
X196722690Y-83995904D01*
X196722690Y-83900666D01*
X196675071Y-83805428D01*
X196627452Y-83757809D01*
X196532214Y-83710190D01*
X196341738Y-83662571D01*
X196246500Y-83614952D01*
X196198880Y-83567333D01*
X196151261Y-83472095D01*
X196151261Y-83376857D01*
X196198880Y-83281619D01*
X196246500Y-83234000D01*
X196341738Y-83186380D01*
X196579833Y-83186380D01*
X196722690Y-83234000D01*
X197722690Y-84186380D02*
X197389357Y-83710190D01*
X197151261Y-84186380D02*
X197151261Y-83186380D01*
X197532214Y-83186380D01*
X197627452Y-83234000D01*
X197675071Y-83281619D01*
X197722690Y-83376857D01*
X197722690Y-83519714D01*
X197675071Y-83614952D01*
X197627452Y-83662571D01*
X197532214Y-83710190D01*
X197151261Y-83710190D01*
X198103642Y-83900666D02*
X198579833Y-83900666D01*
X198008404Y-84186380D02*
X198341738Y-83186380D01*
X198675071Y-84186380D01*
X199008404Y-84186380D02*
X199008404Y-83186380D01*
X199341738Y-83900666D01*
X199675071Y-83186380D01*
X199675071Y-84186380D01*
X190246500Y-85272571D02*
X189913166Y-85272571D01*
X189913166Y-85796380D02*
X189913166Y-84796380D01*
X190389357Y-84796380D01*
X191246500Y-85796380D02*
X190770309Y-85796380D01*
X190770309Y-84796380D01*
X191532214Y-85510666D02*
X192008404Y-85510666D01*
X191436976Y-85796380D02*
X191770309Y-84796380D01*
X192103642Y-85796380D01*
X193008404Y-85701142D02*
X192960785Y-85748761D01*
X192817928Y-85796380D01*
X192722690Y-85796380D01*
X192579833Y-85748761D01*
X192484595Y-85653523D01*
X192436976Y-85558285D01*
X192389357Y-85367809D01*
X192389357Y-85224952D01*
X192436976Y-85034476D01*
X192484595Y-84939238D01*
X192579833Y-84844000D01*
X192722690Y-84796380D01*
X192817928Y-84796380D01*
X192960785Y-84844000D01*
X193008404Y-84891619D01*
X193627452Y-84796380D02*
X193817928Y-84796380D01*
X193913166Y-84844000D01*
X194008404Y-84939238D01*
X194056023Y-85129714D01*
X194056023Y-85463047D01*
X194008404Y-85653523D01*
X193913166Y-85748761D01*
X193817928Y-85796380D01*
X193627452Y-85796380D01*
X193532214Y-85748761D01*
X193436976Y-85653523D01*
X193389357Y-85463047D01*
X193389357Y-85129714D01*
X193436976Y-84939238D01*
X193532214Y-84844000D01*
X193627452Y-84796380D01*
X195198880Y-84891619D02*
X195246500Y-84844000D01*
X195341738Y-84796380D01*
X195579833Y-84796380D01*
X195675071Y-84844000D01*
X195722690Y-84891619D01*
X195770309Y-84986857D01*
X195770309Y-85082095D01*
X195722690Y-85224952D01*
X195151261Y-85796380D01*
X195770309Y-85796380D01*
X196389357Y-84796380D02*
X196484595Y-84796380D01*
X196579833Y-84844000D01*
X196627452Y-84891619D01*
X196675071Y-84986857D01*
X196722690Y-85177333D01*
X196722690Y-85415428D01*
X196675071Y-85605904D01*
X196627452Y-85701142D01*
X196579833Y-85748761D01*
X196484595Y-85796380D01*
X196389357Y-85796380D01*
X196294119Y-85748761D01*
X196246500Y-85701142D01*
X196198880Y-85605904D01*
X196151261Y-85415428D01*
X196151261Y-85177333D01*
X196198880Y-84986857D01*
X196246500Y-84891619D01*
X196294119Y-84844000D01*
X196389357Y-84796380D01*
X197103642Y-84891619D02*
X197151261Y-84844000D01*
X197246500Y-84796380D01*
X197484595Y-84796380D01*
X197579833Y-84844000D01*
X197627452Y-84891619D01*
X197675071Y-84986857D01*
X197675071Y-85082095D01*
X197627452Y-85224952D01*
X197056023Y-85796380D01*
X197675071Y-85796380D01*
X198294119Y-84796380D02*
X198389357Y-84796380D01*
X198484595Y-84844000D01*
X198532214Y-84891619D01*
X198579833Y-84986857D01*
X198627452Y-85177333D01*
X198627452Y-85415428D01*
X198579833Y-85605904D01*
X198532214Y-85701142D01*
X198484595Y-85748761D01*
X198389357Y-85796380D01*
X198294119Y-85796380D01*
X198198880Y-85748761D01*
X198151261Y-85701142D01*
X198103642Y-85605904D01*
X198056023Y-85415428D01*
X198056023Y-85177333D01*
X198103642Y-84986857D01*
X198151261Y-84891619D01*
X198198880Y-84844000D01*
X198294119Y-84796380D01*
X192817928Y-86739714D02*
X193056023Y-87406380D01*
X193294119Y-86739714D01*
X194198880Y-87406380D02*
X193627452Y-87406380D01*
X193913166Y-87406380D02*
X193913166Y-86406380D01*
X193817928Y-86549238D01*
X193722690Y-86644476D01*
X193627452Y-86692095D01*
X194627452Y-87311142D02*
X194675071Y-87358761D01*
X194627452Y-87406380D01*
X194579833Y-87358761D01*
X194627452Y-87311142D01*
X194627452Y-87406380D01*
X195294119Y-86406380D02*
X195389357Y-86406380D01*
X195484595Y-86454000D01*
X195532214Y-86501619D01*
X195579833Y-86596857D01*
X195627452Y-86787333D01*
X195627452Y-87025428D01*
X195579833Y-87215904D01*
X195532214Y-87311142D01*
X195484595Y-87358761D01*
X195389357Y-87406380D01*
X195294119Y-87406380D01*
X195198880Y-87358761D01*
X195151261Y-87311142D01*
X195103642Y-87215904D01*
X195056023Y-87025428D01*
X195056023Y-86787333D01*
X195103642Y-86596857D01*
X195151261Y-86501619D01*
X195198880Y-86454000D01*
X195294119Y-86406380D01*
X167229404Y-107450000D02*
X167134166Y-107402380D01*
X166991309Y-107402380D01*
X166848452Y-107450000D01*
X166753214Y-107545238D01*
X166705595Y-107640476D01*
X166657976Y-107830952D01*
X166657976Y-107973809D01*
X166705595Y-108164285D01*
X166753214Y-108259523D01*
X166848452Y-108354761D01*
X166991309Y-108402380D01*
X167086547Y-108402380D01*
X167229404Y-108354761D01*
X167277023Y-108307142D01*
X167277023Y-107973809D01*
X167086547Y-107973809D01*
X167705595Y-108402380D02*
X167705595Y-107402380D01*
X168277023Y-108402380D01*
X168277023Y-107402380D01*
X168753214Y-108402380D02*
X168753214Y-107402380D01*
X168991309Y-107402380D01*
X169134166Y-107450000D01*
X169229404Y-107545238D01*
X169277023Y-107640476D01*
X169324642Y-107830952D01*
X169324642Y-107973809D01*
X169277023Y-108164285D01*
X169229404Y-108259523D01*
X169134166Y-108354761D01*
X168991309Y-108402380D01*
X168753214Y-108402380D01*
X169785357Y-113117380D02*
X170404404Y-113117380D01*
X170071071Y-113498333D01*
X170213928Y-113498333D01*
X170309166Y-113545952D01*
X170356785Y-113593571D01*
X170404404Y-113688809D01*
X170404404Y-113926904D01*
X170356785Y-114022142D01*
X170309166Y-114069761D01*
X170213928Y-114117380D01*
X169928214Y-114117380D01*
X169832976Y-114069761D01*
X169785357Y-114022142D01*
X170832976Y-114022142D02*
X170880595Y-114069761D01*
X170832976Y-114117380D01*
X170785357Y-114069761D01*
X170832976Y-114022142D01*
X170832976Y-114117380D01*
X171213928Y-113117380D02*
X171832976Y-113117380D01*
X171499642Y-113498333D01*
X171642500Y-113498333D01*
X171737738Y-113545952D01*
X171785357Y-113593571D01*
X171832976Y-113688809D01*
X171832976Y-113926904D01*
X171785357Y-114022142D01*
X171737738Y-114069761D01*
X171642500Y-114117380D01*
X171356785Y-114117380D01*
X171261547Y-114069761D01*
X171213928Y-114022142D01*
X169737738Y-115022380D02*
X170309166Y-115022380D01*
X170023452Y-116022380D02*
X170023452Y-115022380D01*
X170642500Y-116022380D02*
X170642500Y-115022380D01*
X170975833Y-115736666D01*
X171309166Y-115022380D01*
X171309166Y-116022380D01*
X171737738Y-115974761D02*
X171880595Y-116022380D01*
X172118690Y-116022380D01*
X172213928Y-115974761D01*
X172261547Y-115927142D01*
X172309166Y-115831904D01*
X172309166Y-115736666D01*
X172261547Y-115641428D01*
X172213928Y-115593809D01*
X172118690Y-115546190D01*
X171928214Y-115498571D01*
X171832976Y-115450952D01*
X171785357Y-115403333D01*
X171737738Y-115308095D01*
X171737738Y-115212857D01*
X171785357Y-115117619D01*
X171832976Y-115070000D01*
X171928214Y-115022380D01*
X172166309Y-115022380D01*
X172309166Y-115070000D01*
X169737738Y-117562380D02*
X170309166Y-117562380D01*
X170023452Y-118562380D02*
X170023452Y-117562380D01*
X171213928Y-118467142D02*
X171166309Y-118514761D01*
X171023452Y-118562380D01*
X170928214Y-118562380D01*
X170785357Y-118514761D01*
X170690119Y-118419523D01*
X170642500Y-118324285D01*
X170594880Y-118133809D01*
X170594880Y-117990952D01*
X170642500Y-117800476D01*
X170690119Y-117705238D01*
X170785357Y-117610000D01*
X170928214Y-117562380D01*
X171023452Y-117562380D01*
X171166309Y-117610000D01*
X171213928Y-117657619D01*
X171642500Y-118562380D02*
X171642500Y-117562380D01*
X172213928Y-118562380D02*
X171785357Y-117990952D01*
X172213928Y-117562380D02*
X171642500Y-118133809D01*
X169737738Y-120102380D02*
X170309166Y-120102380D01*
X170023452Y-121102380D02*
X170023452Y-120102380D01*
X170642500Y-121102380D02*
X170642500Y-120102380D01*
X170880595Y-120102380D01*
X171023452Y-120150000D01*
X171118690Y-120245238D01*
X171166309Y-120340476D01*
X171213928Y-120530952D01*
X171213928Y-120673809D01*
X171166309Y-120864285D01*
X171118690Y-120959523D01*
X171023452Y-121054761D01*
X170880595Y-121102380D01*
X170642500Y-121102380D01*
X171832976Y-120102380D02*
X172023452Y-120102380D01*
X172118690Y-120150000D01*
X172213928Y-120245238D01*
X172261547Y-120435714D01*
X172261547Y-120769047D01*
X172213928Y-120959523D01*
X172118690Y-121054761D01*
X172023452Y-121102380D01*
X171832976Y-121102380D01*
X171737738Y-121054761D01*
X171642500Y-120959523D01*
X171594880Y-120769047D01*
X171594880Y-120435714D01*
X171642500Y-120245238D01*
X171737738Y-120150000D01*
X171832976Y-120102380D01*
X169737738Y-122642380D02*
X170309166Y-122642380D01*
X170023452Y-123642380D02*
X170023452Y-122642380D01*
X170642500Y-123642380D02*
X170642500Y-122642380D01*
X170880595Y-122642380D01*
X171023452Y-122690000D01*
X171118690Y-122785238D01*
X171166309Y-122880476D01*
X171213928Y-123070952D01*
X171213928Y-123213809D01*
X171166309Y-123404285D01*
X171118690Y-123499523D01*
X171023452Y-123594761D01*
X170880595Y-123642380D01*
X170642500Y-123642380D01*
X171642500Y-123642380D02*
X171642500Y-122642380D01*
X200485476Y-123912380D02*
X201104523Y-123912380D01*
X200771190Y-124293333D01*
X200914047Y-124293333D01*
X201009285Y-124340952D01*
X201056904Y-124388571D01*
X201104523Y-124483809D01*
X201104523Y-124721904D01*
X201056904Y-124817142D01*
X201009285Y-124864761D01*
X200914047Y-124912380D01*
X200628333Y-124912380D01*
X200533095Y-124864761D01*
X200485476Y-124817142D01*
X201961666Y-124245714D02*
X201961666Y-124912380D01*
X201723571Y-123864761D02*
X201485476Y-124579047D01*
X202104523Y-124579047D01*
X201580714Y-83002380D02*
X201009285Y-83002380D01*
X201295000Y-83002380D02*
X201295000Y-82002380D01*
X201199761Y-82145238D01*
X201104523Y-82240476D01*
X201009285Y-82288095D01*
D11*
X169377142Y-84916928D02*
X169377142Y-84316928D01*
X169520000Y-84316928D01*
X169605714Y-84345500D01*
X169662857Y-84402642D01*
X169691428Y-84459785D01*
X169720000Y-84574071D01*
X169720000Y-84659785D01*
X169691428Y-84774071D01*
X169662857Y-84831214D01*
X169605714Y-84888357D01*
X169520000Y-84916928D01*
X169377142Y-84916928D01*
X170291428Y-84916928D02*
X169948571Y-84916928D01*
X170120000Y-84916928D02*
X170120000Y-84316928D01*
X170062857Y-84402642D01*
X170005714Y-84459785D01*
X169948571Y-84488357D01*
X170834285Y-84316928D02*
X170548571Y-84316928D01*
X170520000Y-84602642D01*
X170548571Y-84574071D01*
X170605714Y-84545500D01*
X170748571Y-84545500D01*
X170805714Y-84574071D01*
X170834285Y-84602642D01*
X170862857Y-84659785D01*
X170862857Y-84802642D01*
X170834285Y-84859785D01*
X170805714Y-84888357D01*
X170748571Y-84916928D01*
X170605714Y-84916928D01*
X170548571Y-84888357D01*
X170520000Y-84859785D01*
X171548571Y-84288357D02*
X171034285Y-85059785D01*
X171720000Y-84745500D02*
X172005714Y-84745500D01*
X171662857Y-84916928D02*
X171862857Y-84316928D01*
X172062857Y-84916928D01*
X172377142Y-84316928D02*
X172434285Y-84316928D01*
X172491428Y-84345500D01*
X172520000Y-84374071D01*
X172548571Y-84431214D01*
X172577142Y-84545500D01*
X172577142Y-84688357D01*
X172548571Y-84802642D01*
X172520000Y-84859785D01*
X172491428Y-84888357D01*
X172434285Y-84916928D01*
X172377142Y-84916928D01*
X172320000Y-84888357D01*
X172291428Y-84859785D01*
X172262857Y-84802642D01*
X172234285Y-84688357D01*
X172234285Y-84545500D01*
X172262857Y-84431214D01*
X172291428Y-84374071D01*
X172320000Y-84345500D01*
X172377142Y-84316928D01*
X173291428Y-84916928D02*
X173291428Y-84316928D01*
X173291428Y-84545500D02*
X173348571Y-84516928D01*
X173462857Y-84516928D01*
X173520000Y-84545500D01*
X173548571Y-84574071D01*
X173577142Y-84631214D01*
X173577142Y-84802642D01*
X173548571Y-84859785D01*
X173520000Y-84888357D01*
X173462857Y-84916928D01*
X173348571Y-84916928D01*
X173291428Y-84888357D01*
X173777142Y-84516928D02*
X173920000Y-84916928D01*
X174062857Y-84516928D02*
X173920000Y-84916928D01*
X173862857Y-85059785D01*
X173834285Y-85088357D01*
X173777142Y-85116928D01*
X174291428Y-84516928D02*
X174291428Y-85116928D01*
X174291428Y-84545500D02*
X174348571Y-84516928D01*
X174462857Y-84516928D01*
X174520000Y-84545500D01*
X174548571Y-84574071D01*
X174577142Y-84631214D01*
X174577142Y-84802642D01*
X174548571Y-84859785D01*
X174520000Y-84888357D01*
X174462857Y-84916928D01*
X174348571Y-84916928D01*
X174291428Y-84888357D01*
X175091428Y-84916928D02*
X175091428Y-84602642D01*
X175062857Y-84545500D01*
X175005714Y-84516928D01*
X174891428Y-84516928D01*
X174834285Y-84545500D01*
X175091428Y-84888357D02*
X175034285Y-84916928D01*
X174891428Y-84916928D01*
X174834285Y-84888357D01*
X174805714Y-84831214D01*
X174805714Y-84774071D01*
X174834285Y-84716928D01*
X174891428Y-84688357D01*
X175034285Y-84688357D01*
X175091428Y-84659785D01*
X175348571Y-84888357D02*
X175405714Y-84916928D01*
X175520000Y-84916928D01*
X175577142Y-84888357D01*
X175605714Y-84831214D01*
X175605714Y-84802642D01*
X175577142Y-84745500D01*
X175520000Y-84716928D01*
X175434285Y-84716928D01*
X175377142Y-84688357D01*
X175348571Y-84631214D01*
X175348571Y-84602642D01*
X175377142Y-84545500D01*
X175434285Y-84516928D01*
X175520000Y-84516928D01*
X175577142Y-84545500D01*
X175834285Y-84888357D02*
X175891428Y-84916928D01*
X176005714Y-84916928D01*
X176062857Y-84888357D01*
X176091428Y-84831214D01*
X176091428Y-84802642D01*
X176062857Y-84745500D01*
X176005714Y-84716928D01*
X175920000Y-84716928D01*
X175862857Y-84688357D01*
X175834285Y-84631214D01*
X175834285Y-84602642D01*
X175862857Y-84545500D01*
X175920000Y-84516928D01*
X176005714Y-84516928D01*
X176062857Y-84545500D01*
X177879642Y-84602642D02*
X177965357Y-84631214D01*
X177993928Y-84659785D01*
X178022500Y-84716928D01*
X178022500Y-84802642D01*
X177993928Y-84859785D01*
X177965357Y-84888357D01*
X177908214Y-84916928D01*
X177679642Y-84916928D01*
X177679642Y-84316928D01*
X177879642Y-84316928D01*
X177936785Y-84345500D01*
X177965357Y-84374071D01*
X177993928Y-84431214D01*
X177993928Y-84488357D01*
X177965357Y-84545500D01*
X177936785Y-84574071D01*
X177879642Y-84602642D01*
X177679642Y-84602642D01*
X178393928Y-84631214D02*
X178393928Y-84916928D01*
X178193928Y-84316928D02*
X178393928Y-84631214D01*
X178593928Y-84316928D01*
X178708214Y-84316928D02*
X179051071Y-84316928D01*
X178879642Y-84916928D02*
X178879642Y-84316928D01*
X179251071Y-84602642D02*
X179451071Y-84602642D01*
X179536785Y-84916928D02*
X179251071Y-84916928D01*
X179251071Y-84316928D01*
X179536785Y-84316928D01*
X179765357Y-84516928D02*
X180193928Y-84516928D01*
X179936785Y-84259785D02*
X179765357Y-85031214D01*
X180136785Y-84774071D02*
X179708214Y-84774071D01*
X179965357Y-85031214D02*
X180136785Y-84259785D01*
X180536785Y-85116928D02*
X180536785Y-84259785D01*
X181279642Y-84916928D02*
X180936785Y-84916928D01*
X181108214Y-84916928D02*
X181108214Y-84316928D01*
X181051071Y-84402642D01*
X180993928Y-84459785D01*
X180936785Y-84488357D01*
X181793928Y-84316928D02*
X181679642Y-84316928D01*
X181622500Y-84345500D01*
X181593928Y-84374071D01*
X181536785Y-84459785D01*
X181508214Y-84574071D01*
X181508214Y-84802642D01*
X181536785Y-84859785D01*
X181565357Y-84888357D01*
X181622500Y-84916928D01*
X181736785Y-84916928D01*
X181793928Y-84888357D01*
X181822500Y-84859785D01*
X181851071Y-84802642D01*
X181851071Y-84659785D01*
X181822500Y-84602642D01*
X181793928Y-84574071D01*
X181736785Y-84545500D01*
X181622500Y-84545500D01*
X181565357Y-84574071D01*
X181536785Y-84602642D01*
X181508214Y-84659785D01*
X182108214Y-84916928D02*
X182108214Y-84316928D01*
X182108214Y-84545500D02*
X182165357Y-84516928D01*
X182279642Y-84516928D01*
X182336785Y-84545500D01*
X182365357Y-84574071D01*
X182393928Y-84631214D01*
X182393928Y-84802642D01*
X182365357Y-84859785D01*
X182336785Y-84888357D01*
X182279642Y-84916928D01*
X182165357Y-84916928D01*
X182108214Y-84888357D01*
D12*
X171520000Y-108836666D02*
X171386666Y-108836666D01*
X171320000Y-108870000D01*
X171286666Y-108903333D01*
X171220000Y-109003333D01*
X171186666Y-109136666D01*
X171186666Y-109403333D01*
X171220000Y-109470000D01*
X171253333Y-109503333D01*
X171320000Y-109536666D01*
X171453333Y-109536666D01*
X171520000Y-109503333D01*
X171553333Y-109470000D01*
X171586666Y-109403333D01*
X171586666Y-109236666D01*
X171553333Y-109170000D01*
X171520000Y-109136666D01*
X171453333Y-109103333D01*
X171320000Y-109103333D01*
X171253333Y-109136666D01*
X171220000Y-109170000D01*
X171186666Y-109236666D01*
X171820000Y-108836666D02*
X172286666Y-108836666D01*
X171986666Y-109536666D01*
X172720000Y-109770000D02*
X172720000Y-108770000D01*
X173153333Y-108836666D02*
X173620000Y-108836666D01*
X173320000Y-109536666D01*
X173820000Y-108836666D02*
X174286666Y-108836666D01*
X173986666Y-109536666D01*
X194548333Y-122111333D02*
X194581666Y-122078000D01*
X194648333Y-122044666D01*
X194815000Y-122044666D01*
X194881666Y-122078000D01*
X194915000Y-122111333D01*
X194948333Y-122178000D01*
X194948333Y-122244666D01*
X194915000Y-122344666D01*
X194515000Y-122744666D01*
X194948333Y-122744666D01*
X195248333Y-122744666D02*
X195248333Y-122044666D01*
X195481666Y-122544666D01*
X195715000Y-122044666D01*
X195715000Y-122744666D01*
X196215000Y-122978000D02*
X196215000Y-121978000D01*
X197015000Y-122278000D02*
X197015000Y-122744666D01*
X196848333Y-122011333D02*
X196681666Y-122511333D01*
X197115000Y-122511333D01*
X197381666Y-122744666D02*
X197381666Y-122044666D01*
X197615000Y-122544666D01*
X197848333Y-122044666D01*
X197848333Y-122744666D01*
X188885000Y-122744666D02*
X188885000Y-122044666D01*
X189051666Y-122044666D01*
X189151666Y-122078000D01*
X189218333Y-122144666D01*
X189251666Y-122211333D01*
X189285000Y-122344666D01*
X189285000Y-122444666D01*
X189251666Y-122578000D01*
X189218333Y-122644666D01*
X189151666Y-122711333D01*
X189051666Y-122744666D01*
X188885000Y-122744666D01*
X189551666Y-122711333D02*
X189651666Y-122744666D01*
X189818333Y-122744666D01*
X189885000Y-122711333D01*
X189918333Y-122678000D01*
X189951666Y-122611333D01*
X189951666Y-122544666D01*
X189918333Y-122478000D01*
X189885000Y-122444666D01*
X189818333Y-122411333D01*
X189685000Y-122378000D01*
X189618333Y-122344666D01*
X189585000Y-122311333D01*
X189551666Y-122244666D01*
X189551666Y-122178000D01*
X189585000Y-122111333D01*
X189618333Y-122078000D01*
X189685000Y-122044666D01*
X189851666Y-122044666D01*
X189951666Y-122078000D01*
X190251666Y-122744666D02*
X190251666Y-122044666D01*
X190651666Y-122744666D02*
X190351666Y-122344666D01*
X190651666Y-122044666D02*
X190251666Y-122444666D01*
X191118333Y-122978000D02*
X191118333Y-121978000D01*
X192018333Y-122744666D02*
X191785000Y-122411333D01*
X191618333Y-122744666D02*
X191618333Y-122044666D01*
X191885000Y-122044666D01*
X191951666Y-122078000D01*
X191985000Y-122111333D01*
X192018333Y-122178000D01*
X192018333Y-122278000D01*
X191985000Y-122344666D01*
X191951666Y-122378000D01*
X191885000Y-122411333D01*
X191618333Y-122411333D01*
X192285000Y-122544666D02*
X192618333Y-122544666D01*
X192218333Y-122744666D02*
X192451666Y-122044666D01*
X192685000Y-122744666D01*
X192918333Y-122744666D02*
X192918333Y-122044666D01*
X193151666Y-122544666D01*
X193385000Y-122044666D01*
X193385000Y-122744666D01*
D10*
X186539285Y-102347380D02*
X186063095Y-102347380D01*
X186063095Y-101347380D01*
X187063095Y-101347380D02*
X187253571Y-101347380D01*
X187348809Y-101395000D01*
X187444047Y-101490238D01*
X187491666Y-101680714D01*
X187491666Y-102014047D01*
X187444047Y-102204523D01*
X187348809Y-102299761D01*
X187253571Y-102347380D01*
X187063095Y-102347380D01*
X186967857Y-102299761D01*
X186872619Y-102204523D01*
X186825000Y-102014047D01*
X186825000Y-101680714D01*
X186872619Y-101490238D01*
X186967857Y-101395000D01*
X187063095Y-101347380D01*
X187825000Y-101347380D02*
X188063095Y-102347380D01*
X188253571Y-101633095D01*
X188444047Y-102347380D01*
X188682142Y-101347380D01*
X183563095Y-103862142D02*
X183515476Y-103909761D01*
X183372619Y-103957380D01*
X183277380Y-103957380D01*
X183134523Y-103909761D01*
X183039285Y-103814523D01*
X182991666Y-103719285D01*
X182944047Y-103528809D01*
X182944047Y-103385952D01*
X182991666Y-103195476D01*
X183039285Y-103100238D01*
X183134523Y-103005000D01*
X183277380Y-102957380D01*
X183372619Y-102957380D01*
X183515476Y-103005000D01*
X183563095Y-103052619D01*
X184182142Y-103481190D02*
X184182142Y-103957380D01*
X183848809Y-102957380D02*
X184182142Y-103481190D01*
X184515476Y-102957380D01*
X185277380Y-102957380D02*
X185086904Y-102957380D01*
X184991666Y-103005000D01*
X184944047Y-103052619D01*
X184848809Y-103195476D01*
X184801190Y-103385952D01*
X184801190Y-103766904D01*
X184848809Y-103862142D01*
X184896428Y-103909761D01*
X184991666Y-103957380D01*
X185182142Y-103957380D01*
X185277380Y-103909761D01*
X185325000Y-103862142D01*
X185372619Y-103766904D01*
X185372619Y-103528809D01*
X185325000Y-103433571D01*
X185277380Y-103385952D01*
X185182142Y-103338333D01*
X184991666Y-103338333D01*
X184896428Y-103385952D01*
X184848809Y-103433571D01*
X184801190Y-103528809D01*
X185753571Y-103052619D02*
X185801190Y-103005000D01*
X185896428Y-102957380D01*
X186134523Y-102957380D01*
X186229761Y-103005000D01*
X186277380Y-103052619D01*
X186325000Y-103147857D01*
X186325000Y-103243095D01*
X186277380Y-103385952D01*
X185705952Y-103957380D01*
X186325000Y-103957380D01*
X187277380Y-103957380D02*
X186705952Y-103957380D01*
X186991666Y-103957380D02*
X186991666Y-102957380D01*
X186896428Y-103100238D01*
X186801190Y-103195476D01*
X186705952Y-103243095D01*
X188134523Y-102957380D02*
X187944047Y-102957380D01*
X187848809Y-103005000D01*
X187801190Y-103052619D01*
X187705952Y-103195476D01*
X187658333Y-103385952D01*
X187658333Y-103766904D01*
X187705952Y-103862142D01*
X187753571Y-103909761D01*
X187848809Y-103957380D01*
X188039285Y-103957380D01*
X188134523Y-103909761D01*
X188182142Y-103862142D01*
X188229761Y-103766904D01*
X188229761Y-103528809D01*
X188182142Y-103433571D01*
X188134523Y-103385952D01*
X188039285Y-103338333D01*
X187848809Y-103338333D01*
X187753571Y-103385952D01*
X187705952Y-103433571D01*
X187658333Y-103528809D01*
X188563095Y-102957380D02*
X189229761Y-102957380D01*
X188801190Y-103957380D01*
X189610714Y-103433571D02*
X189944047Y-103433571D01*
X190086904Y-103957380D02*
X189610714Y-103957380D01*
X189610714Y-102957380D01*
X190086904Y-102957380D01*
X190991666Y-103957380D02*
X190515476Y-103957380D01*
X190515476Y-102957380D01*
X191801190Y-103957380D02*
X191325000Y-103957380D01*
X191325000Y-102957380D01*
X183491666Y-105472142D02*
X183444047Y-105519761D01*
X183301190Y-105567380D01*
X183205952Y-105567380D01*
X183063095Y-105519761D01*
X182967857Y-105424523D01*
X182920238Y-105329285D01*
X182872619Y-105138809D01*
X182872619Y-104995952D01*
X182920238Y-104805476D01*
X182967857Y-104710238D01*
X183063095Y-104615000D01*
X183205952Y-104567380D01*
X183301190Y-104567380D01*
X183444047Y-104615000D01*
X183491666Y-104662619D01*
X184110714Y-105091190D02*
X184110714Y-105567380D01*
X183777380Y-104567380D02*
X184110714Y-105091190D01*
X184444047Y-104567380D01*
X185205952Y-104567380D02*
X185015476Y-104567380D01*
X184920238Y-104615000D01*
X184872619Y-104662619D01*
X184777380Y-104805476D01*
X184729761Y-104995952D01*
X184729761Y-105376904D01*
X184777380Y-105472142D01*
X184825000Y-105519761D01*
X184920238Y-105567380D01*
X185110714Y-105567380D01*
X185205952Y-105519761D01*
X185253571Y-105472142D01*
X185301190Y-105376904D01*
X185301190Y-105138809D01*
X185253571Y-105043571D01*
X185205952Y-104995952D01*
X185110714Y-104948333D01*
X184920238Y-104948333D01*
X184825000Y-104995952D01*
X184777380Y-105043571D01*
X184729761Y-105138809D01*
X185682142Y-104662619D02*
X185729761Y-104615000D01*
X185825000Y-104567380D01*
X186063095Y-104567380D01*
X186158333Y-104615000D01*
X186205952Y-104662619D01*
X186253571Y-104757857D01*
X186253571Y-104853095D01*
X186205952Y-104995952D01*
X185634523Y-105567380D01*
X186253571Y-105567380D01*
X187205952Y-105567380D02*
X186634523Y-105567380D01*
X186920238Y-105567380D02*
X186920238Y-104567380D01*
X186825000Y-104710238D01*
X186729761Y-104805476D01*
X186634523Y-104853095D01*
X187539285Y-104567380D02*
X188205952Y-104567380D01*
X187777380Y-105567380D01*
X188491666Y-104567380D02*
X189158333Y-104567380D01*
X188729761Y-105567380D01*
X189539285Y-105043571D02*
X189872619Y-105043571D01*
X190015476Y-105567380D02*
X189539285Y-105567380D01*
X189539285Y-104567380D01*
X190015476Y-104567380D01*
X190396428Y-105519761D02*
X190539285Y-105567380D01*
X190777380Y-105567380D01*
X190872619Y-105519761D01*
X190920238Y-105472142D01*
X190967857Y-105376904D01*
X190967857Y-105281666D01*
X190920238Y-105186428D01*
X190872619Y-105138809D01*
X190777380Y-105091190D01*
X190586904Y-105043571D01*
X190491666Y-104995952D01*
X190444047Y-104948333D01*
X190396428Y-104853095D01*
X190396428Y-104757857D01*
X190444047Y-104662619D01*
X190491666Y-104615000D01*
X190586904Y-104567380D01*
X190825000Y-104567380D01*
X190967857Y-104615000D01*
X191872619Y-105567380D02*
X191396428Y-105567380D01*
X191396428Y-104567380D01*
X174982380Y-89817380D02*
X174982380Y-88817380D01*
X174982380Y-89293571D02*
X175553809Y-89293571D01*
X175553809Y-89817380D02*
X175553809Y-88817380D01*
X176030000Y-89817380D02*
X176030000Y-88817380D01*
X177030000Y-88865000D02*
X176934761Y-88817380D01*
X176791904Y-88817380D01*
X176649047Y-88865000D01*
X176553809Y-88960238D01*
X176506190Y-89055476D01*
X176458571Y-89245952D01*
X176458571Y-89388809D01*
X176506190Y-89579285D01*
X176553809Y-89674523D01*
X176649047Y-89769761D01*
X176791904Y-89817380D01*
X176887142Y-89817380D01*
X177030000Y-89769761D01*
X177077619Y-89722142D01*
X177077619Y-89388809D01*
X176887142Y-89388809D01*
X177506190Y-89817380D02*
X177506190Y-88817380D01*
X177506190Y-89293571D02*
X178077619Y-89293571D01*
X178077619Y-89817380D02*
X178077619Y-88817380D01*
X172768095Y-91332142D02*
X172720476Y-91379761D01*
X172577619Y-91427380D01*
X172482380Y-91427380D01*
X172339523Y-91379761D01*
X172244285Y-91284523D01*
X172196666Y-91189285D01*
X172149047Y-90998809D01*
X172149047Y-90855952D01*
X172196666Y-90665476D01*
X172244285Y-90570238D01*
X172339523Y-90475000D01*
X172482380Y-90427380D01*
X172577619Y-90427380D01*
X172720476Y-90475000D01*
X172768095Y-90522619D01*
X173387142Y-90951190D02*
X173387142Y-91427380D01*
X173053809Y-90427380D02*
X173387142Y-90951190D01*
X173720476Y-90427380D01*
X174482380Y-90427380D02*
X174291904Y-90427380D01*
X174196666Y-90475000D01*
X174149047Y-90522619D01*
X174053809Y-90665476D01*
X174006190Y-90855952D01*
X174006190Y-91236904D01*
X174053809Y-91332142D01*
X174101428Y-91379761D01*
X174196666Y-91427380D01*
X174387142Y-91427380D01*
X174482380Y-91379761D01*
X174530000Y-91332142D01*
X174577619Y-91236904D01*
X174577619Y-90998809D01*
X174530000Y-90903571D01*
X174482380Y-90855952D01*
X174387142Y-90808333D01*
X174196666Y-90808333D01*
X174101428Y-90855952D01*
X174053809Y-90903571D01*
X174006190Y-90998809D01*
X174958571Y-90522619D02*
X175006190Y-90475000D01*
X175101428Y-90427380D01*
X175339523Y-90427380D01*
X175434761Y-90475000D01*
X175482380Y-90522619D01*
X175530000Y-90617857D01*
X175530000Y-90713095D01*
X175482380Y-90855952D01*
X174910952Y-91427380D01*
X175530000Y-91427380D01*
X176482380Y-91427380D02*
X175910952Y-91427380D01*
X176196666Y-91427380D02*
X176196666Y-90427380D01*
X176101428Y-90570238D01*
X176006190Y-90665476D01*
X175910952Y-90713095D01*
X177339523Y-90427380D02*
X177149047Y-90427380D01*
X177053809Y-90475000D01*
X177006190Y-90522619D01*
X176910952Y-90665476D01*
X176863333Y-90855952D01*
X176863333Y-91236904D01*
X176910952Y-91332142D01*
X176958571Y-91379761D01*
X177053809Y-91427380D01*
X177244285Y-91427380D01*
X177339523Y-91379761D01*
X177387142Y-91332142D01*
X177434761Y-91236904D01*
X177434761Y-90998809D01*
X177387142Y-90903571D01*
X177339523Y-90855952D01*
X177244285Y-90808333D01*
X177053809Y-90808333D01*
X176958571Y-90855952D01*
X176910952Y-90903571D01*
X176863333Y-90998809D01*
X177768095Y-90427380D02*
X178434761Y-90427380D01*
X178006190Y-91427380D01*
X178815714Y-90903571D02*
X179149047Y-90903571D01*
X179291904Y-91427380D02*
X178815714Y-91427380D01*
X178815714Y-90427380D01*
X179291904Y-90427380D01*
X180196666Y-91427380D02*
X179720476Y-91427380D01*
X179720476Y-90427380D01*
X181006190Y-91427380D02*
X180530000Y-91427380D01*
X180530000Y-90427380D01*
X183597619Y-114490952D02*
X182597619Y-115157619D01*
X183597619Y-115157619D02*
X182597619Y-114490952D01*
X182692857Y-116110000D02*
X182645238Y-116062380D01*
X182597619Y-115919523D01*
X182597619Y-115824285D01*
X182645238Y-115681428D01*
X182740476Y-115586190D01*
X182835714Y-115538571D01*
X183026190Y-115490952D01*
X183169047Y-115490952D01*
X183359523Y-115538571D01*
X183454761Y-115586190D01*
X183550000Y-115681428D01*
X183597619Y-115824285D01*
X183597619Y-115919523D01*
X183550000Y-116062380D01*
X183502380Y-116110000D01*
X182597619Y-116586190D02*
X182597619Y-116776666D01*
X182645238Y-116871904D01*
X182692857Y-116919523D01*
X182835714Y-117014761D01*
X183026190Y-117062380D01*
X183407142Y-117062380D01*
X183502380Y-117014761D01*
X183550000Y-116967142D01*
X183597619Y-116871904D01*
X183597619Y-116681428D01*
X183550000Y-116586190D01*
X183502380Y-116538571D01*
X183407142Y-116490952D01*
X183169047Y-116490952D01*
X183073809Y-116538571D01*
X183026190Y-116586190D01*
X182978571Y-116681428D01*
X182978571Y-116871904D01*
X183026190Y-116967142D01*
X183073809Y-117014761D01*
X183169047Y-117062380D01*
X183597619Y-117967142D02*
X183597619Y-117490952D01*
X183121428Y-117443333D01*
X183169047Y-117490952D01*
X183216666Y-117586190D01*
X183216666Y-117824285D01*
X183169047Y-117919523D01*
X183121428Y-117967142D01*
X183026190Y-118014761D01*
X182788095Y-118014761D01*
X182692857Y-117967142D01*
X182645238Y-117919523D01*
X182597619Y-117824285D01*
X182597619Y-117586190D01*
X182645238Y-117490952D01*
X182692857Y-117443333D01*
X183597619Y-118348095D02*
X183597619Y-118967142D01*
X183216666Y-118633809D01*
X183216666Y-118776666D01*
X183169047Y-118871904D01*
X183121428Y-118919523D01*
X183026190Y-118967142D01*
X182788095Y-118967142D01*
X182692857Y-118919523D01*
X182645238Y-118871904D01*
X182597619Y-118776666D01*
X182597619Y-118490952D01*
X182645238Y-118395714D01*
X182692857Y-118348095D01*
X183597619Y-119824285D02*
X183597619Y-119633809D01*
X183550000Y-119538571D01*
X183502380Y-119490952D01*
X183359523Y-119395714D01*
X183169047Y-119348095D01*
X182788095Y-119348095D01*
X182692857Y-119395714D01*
X182645238Y-119443333D01*
X182597619Y-119538571D01*
X182597619Y-119729047D01*
X182645238Y-119824285D01*
X182692857Y-119871904D01*
X182788095Y-119919523D01*
X183026190Y-119919523D01*
X183121428Y-119871904D01*
X183169047Y-119824285D01*
X183216666Y-119729047D01*
X183216666Y-119538571D01*
X183169047Y-119443333D01*
X183121428Y-119395714D01*
X183026190Y-119348095D01*
X183597619Y-120252857D02*
X182597619Y-120919523D01*
X183597619Y-120919523D02*
X182597619Y-120252857D01*
X182597619Y-121776666D02*
X182597619Y-121300476D01*
X183597619Y-121300476D01*
X180987619Y-115514761D02*
X180987619Y-114943333D01*
X180987619Y-115229047D02*
X181987619Y-115229047D01*
X181844761Y-115133809D01*
X181749523Y-115038571D01*
X181701904Y-114943333D01*
X181987619Y-116133809D02*
X181987619Y-116229047D01*
X181940000Y-116324285D01*
X181892380Y-116371904D01*
X181797142Y-116419523D01*
X181606666Y-116467142D01*
X181368571Y-116467142D01*
X181178095Y-116419523D01*
X181082857Y-116371904D01*
X181035238Y-116324285D01*
X180987619Y-116229047D01*
X180987619Y-116133809D01*
X181035238Y-116038571D01*
X181082857Y-115990952D01*
X181178095Y-115943333D01*
X181368571Y-115895714D01*
X181606666Y-115895714D01*
X181797142Y-115943333D01*
X181892380Y-115990952D01*
X181940000Y-116038571D01*
X181987619Y-116133809D01*
X181987619Y-116752857D02*
X180987619Y-117086190D01*
X181987619Y-117419523D01*
X180892380Y-118419523D02*
X180940000Y-118324285D01*
X181035238Y-118229047D01*
X181178095Y-118086190D01*
X181225714Y-117990952D01*
X181225714Y-117895714D01*
X180987619Y-117943333D02*
X181035238Y-117848095D01*
X181130476Y-117752857D01*
X181320952Y-117705238D01*
X181654285Y-117705238D01*
X181844761Y-117752857D01*
X181940000Y-117848095D01*
X181987619Y-117943333D01*
X181987619Y-118133809D01*
X181940000Y-118229047D01*
X181844761Y-118324285D01*
X181654285Y-118371904D01*
X181320952Y-118371904D01*
X181130476Y-118324285D01*
X181035238Y-118229047D01*
X180987619Y-118133809D01*
X180987619Y-117943333D01*
X181940000Y-119324285D02*
X181987619Y-119229047D01*
X181987619Y-119086190D01*
X181940000Y-118943333D01*
X181844761Y-118848095D01*
X181749523Y-118800476D01*
X181559047Y-118752857D01*
X181416190Y-118752857D01*
X181225714Y-118800476D01*
X181130476Y-118848095D01*
X181035238Y-118943333D01*
X180987619Y-119086190D01*
X180987619Y-119181428D01*
X181035238Y-119324285D01*
X181082857Y-119371904D01*
X181416190Y-119371904D01*
X181416190Y-119181428D01*
X181654285Y-120229047D02*
X180987619Y-120229047D01*
X182035238Y-119990952D02*
X181320952Y-119752857D01*
X181320952Y-120371904D01*
X181654285Y-121181428D02*
X180987619Y-121181428D01*
X182035238Y-120943333D02*
X181320952Y-120705238D01*
X181320952Y-121324285D01*
D12*
X197869630Y-116784828D02*
X196837254Y-117817203D01*
X195635172Y-114550370D02*
X194107822Y-116077721D01*
X197869630Y-116784828D02*
X197212021Y-116127218D01*
X195635172Y-114550370D02*
X196292782Y-115207979D01*
G36*
X191325499Y-95275400D02*
G01*
X191520681Y-95284428D01*
X191646748Y-95316732D01*
X191731899Y-95377000D01*
X191815133Y-95476731D01*
X191822106Y-95558220D01*
X191765029Y-95654420D01*
X191724959Y-95735813D01*
X191758822Y-95808397D01*
X191790429Y-95841929D01*
X191872121Y-95963713D01*
X191860587Y-96084883D01*
X191759609Y-96217509D01*
X191669555Y-96290324D01*
X191562970Y-96328185D01*
X191403990Y-96341451D01*
X191327809Y-96342200D01*
X191020700Y-96342200D01*
X191020700Y-95986600D01*
X191274700Y-95986600D01*
X191287464Y-96094686D01*
X191346444Y-96134493D01*
X191421664Y-96139000D01*
X191547704Y-96111109D01*
X191600341Y-96056361D01*
X191597835Y-95946104D01*
X191517551Y-95863529D01*
X191395479Y-95834200D01*
X191308834Y-95851952D01*
X191277277Y-95925251D01*
X191274700Y-95986600D01*
X191020700Y-95986600D01*
X191020700Y-95580200D01*
X191274700Y-95580200D01*
X191311816Y-95659846D01*
X191397908Y-95681667D01*
X191495091Y-95640545D01*
X191522039Y-95613625D01*
X191553082Y-95534080D01*
X191490774Y-95488365D01*
X191393233Y-95478600D01*
X191298058Y-95506063D01*
X191274700Y-95580200D01*
X191020700Y-95580200D01*
X191020700Y-95275400D01*
X191325499Y-95275400D01*
G37*
D13*
X191325499Y-95275400D02*
X191520681Y-95284428D01*
X191646748Y-95316732D01*
X191731899Y-95377000D01*
X191815133Y-95476731D01*
X191822106Y-95558220D01*
X191765029Y-95654420D01*
X191724959Y-95735813D01*
X191758822Y-95808397D01*
X191790429Y-95841929D01*
X191872121Y-95963713D01*
X191860587Y-96084883D01*
X191759609Y-96217509D01*
X191669555Y-96290324D01*
X191562970Y-96328185D01*
X191403990Y-96341451D01*
X191327809Y-96342200D01*
X191020700Y-96342200D01*
X191020700Y-95986600D01*
X191274700Y-95986600D01*
X191287464Y-96094686D01*
X191346444Y-96134493D01*
X191421664Y-96139000D01*
X191547704Y-96111109D01*
X191600341Y-96056361D01*
X191597835Y-95946104D01*
X191517551Y-95863529D01*
X191395479Y-95834200D01*
X191308834Y-95851952D01*
X191277277Y-95925251D01*
X191274700Y-95986600D01*
X191020700Y-95986600D01*
X191020700Y-95580200D01*
X191274700Y-95580200D01*
X191311816Y-95659846D01*
X191397908Y-95681667D01*
X191495091Y-95640545D01*
X191522039Y-95613625D01*
X191553082Y-95534080D01*
X191490774Y-95488365D01*
X191393233Y-95478600D01*
X191298058Y-95506063D01*
X191274700Y-95580200D01*
X191020700Y-95580200D01*
X191020700Y-95275400D01*
X191325499Y-95275400D01*
G36*
X192721299Y-95283012D02*
G01*
X192747900Y-95296064D01*
X192728611Y-95349085D01*
X192677720Y-95469859D01*
X192605685Y-95633652D01*
X192595500Y-95656400D01*
X192518625Y-95851527D01*
X192463855Y-96035951D01*
X192443100Y-96169135D01*
X192432986Y-96287316D01*
X192387915Y-96334827D01*
X192316100Y-96342200D01*
X192234487Y-96331214D01*
X192198066Y-96279267D01*
X192189159Y-96157876D01*
X192189100Y-96137551D01*
X192157676Y-95939816D01*
X192070835Y-95702356D01*
X192036700Y-95631000D01*
X191959281Y-95473415D01*
X191904420Y-95353695D01*
X191884300Y-95298874D01*
X191927608Y-95281920D01*
X192020082Y-95284725D01*
X192113025Y-95314344D01*
X192178546Y-95393833D01*
X192232980Y-95529400D01*
X192310096Y-95758000D01*
X192411399Y-95516700D01*
X192485641Y-95365790D01*
X192555966Y-95292528D01*
X192630301Y-95275400D01*
X192721299Y-95283012D01*
G37*
X192721299Y-95283012D02*
X192747900Y-95296064D01*
X192728611Y-95349085D01*
X192677720Y-95469859D01*
X192605685Y-95633652D01*
X192595500Y-95656400D01*
X192518625Y-95851527D01*
X192463855Y-96035951D01*
X192443100Y-96169135D01*
X192432986Y-96287316D01*
X192387915Y-96334827D01*
X192316100Y-96342200D01*
X192234487Y-96331214D01*
X192198066Y-96279267D01*
X192189159Y-96157876D01*
X192189100Y-96137551D01*
X192157676Y-95939816D01*
X192070835Y-95702356D01*
X192036700Y-95631000D01*
X191959281Y-95473415D01*
X191904420Y-95353695D01*
X191884300Y-95298874D01*
X191927608Y-95281920D01*
X192020082Y-95284725D01*
X192113025Y-95314344D01*
X192178546Y-95393833D01*
X192232980Y-95529400D01*
X192310096Y-95758000D01*
X192411399Y-95516700D01*
X192485641Y-95365790D01*
X192555966Y-95292528D01*
X192630301Y-95275400D01*
X192721299Y-95283012D01*
G36*
X193581003Y-95301212D02*
G01*
X193664587Y-95392776D01*
X193714588Y-95481516D01*
X193803690Y-95649331D01*
X193893353Y-95808109D01*
X193912223Y-95839708D01*
X194004705Y-95991782D01*
X193979076Y-95633591D01*
X193953448Y-95275400D01*
X194221100Y-95275400D01*
X194221100Y-96348948D01*
X194081400Y-96332874D01*
X193999939Y-96308546D01*
X193924928Y-96243855D01*
X193839701Y-96120085D01*
X193750402Y-95961200D01*
X193559104Y-95605600D01*
X193591866Y-95973900D01*
X193624627Y-96342200D01*
X193357500Y-96342200D01*
X193357500Y-95275400D01*
X193483467Y-95275400D01*
X193581003Y-95301212D01*
G37*
X193581003Y-95301212D02*
X193664587Y-95392776D01*
X193714588Y-95481516D01*
X193803690Y-95649331D01*
X193893353Y-95808109D01*
X193912223Y-95839708D01*
X194004705Y-95991782D01*
X193979076Y-95633591D01*
X193953448Y-95275400D01*
X194221100Y-95275400D01*
X194221100Y-96348948D01*
X194081400Y-96332874D01*
X193999939Y-96308546D01*
X193924928Y-96243855D01*
X193839701Y-96120085D01*
X193750402Y-95961200D01*
X193559104Y-95605600D01*
X193591866Y-95973900D01*
X193624627Y-96342200D01*
X193357500Y-96342200D01*
X193357500Y-95275400D01*
X193483467Y-95275400D01*
X193581003Y-95301212D01*
G36*
X195142592Y-95332721D02*
G01*
X195158951Y-95343893D01*
X195223944Y-95423732D01*
X195202494Y-95485605D01*
X195109757Y-95511514D01*
X195025651Y-95502188D01*
X194860330Y-95508469D01*
X194740059Y-95597645D01*
X194681417Y-95755081D01*
X194678300Y-95808800D01*
X194714400Y-95982156D01*
X194811048Y-96091693D01*
X194950768Y-96122951D01*
X195034497Y-96103524D01*
X195154172Y-96073252D01*
X195225794Y-96101355D01*
X195237573Y-96114171D01*
X195257153Y-96179814D01*
X195191687Y-96251167D01*
X195177418Y-96261423D01*
X194989892Y-96334026D01*
X194779533Y-96316780D01*
X194679301Y-96276949D01*
X194530337Y-96149163D01*
X194445545Y-95965118D01*
X194431735Y-95752417D01*
X194495715Y-95538659D01*
X194496690Y-95536767D01*
X194619640Y-95390943D01*
X194789887Y-95302034D01*
X194975010Y-95279479D01*
X195142592Y-95332721D01*
G37*
X195142592Y-95332721D02*
X195158951Y-95343893D01*
X195223944Y-95423732D01*
X195202494Y-95485605D01*
X195109757Y-95511514D01*
X195025651Y-95502188D01*
X194860330Y-95508469D01*
X194740059Y-95597645D01*
X194681417Y-95755081D01*
X194678300Y-95808800D01*
X194714400Y-95982156D01*
X194811048Y-96091693D01*
X194950768Y-96122951D01*
X195034497Y-96103524D01*
X195154172Y-96073252D01*
X195225794Y-96101355D01*
X195237573Y-96114171D01*
X195257153Y-96179814D01*
X195191687Y-96251167D01*
X195177418Y-96261423D01*
X194989892Y-96334026D01*
X194779533Y-96316780D01*
X194679301Y-96276949D01*
X194530337Y-96149163D01*
X194445545Y-95965118D01*
X194431735Y-95752417D01*
X194495715Y-95538659D01*
X194496690Y-95536767D01*
X194619640Y-95390943D01*
X194789887Y-95302034D01*
X194975010Y-95279479D01*
X195142592Y-95332721D01*
G36*
X196542977Y-95341298D02*
G01*
X196619633Y-95410543D01*
X196605311Y-95469868D01*
X196510585Y-95506209D01*
X196405500Y-95511122D01*
X196262831Y-95520346D01*
X196215039Y-95559990D01*
X196261741Y-95625152D01*
X196402553Y-95710926D01*
X196421897Y-95720498D01*
X196594306Y-95826180D01*
X196681197Y-95938300D01*
X196691774Y-95970504D01*
X196681915Y-96108552D01*
X196594916Y-96223444D01*
X196454515Y-96304084D01*
X196284454Y-96339377D01*
X196108473Y-96318228D01*
X196024500Y-96282363D01*
X195926231Y-96223512D01*
X195901444Y-96183000D01*
X195934686Y-96130037D01*
X195943008Y-96119975D01*
X196012130Y-96074872D01*
X196117765Y-96091530D01*
X196145956Y-96101657D01*
X196286368Y-96130068D01*
X196400138Y-96111599D01*
X196455109Y-96052641D01*
X196456300Y-96039974D01*
X196414354Y-95990520D01*
X196306910Y-95919721D01*
X196218843Y-95873279D01*
X196027315Y-95754259D01*
X195936760Y-95631412D01*
X195946577Y-95503288D01*
X196022762Y-95399519D01*
X196190874Y-95297353D01*
X196386071Y-95285328D01*
X196542977Y-95341298D01*
G37*
X196542977Y-95341298D02*
X196619633Y-95410543D01*
X196605311Y-95469868D01*
X196510585Y-95506209D01*
X196405500Y-95511122D01*
X196262831Y-95520346D01*
X196215039Y-95559990D01*
X196261741Y-95625152D01*
X196402553Y-95710926D01*
X196421897Y-95720498D01*
X196594306Y-95826180D01*
X196681197Y-95938300D01*
X196691774Y-95970504D01*
X196681915Y-96108552D01*
X196594916Y-96223444D01*
X196454515Y-96304084D01*
X196284454Y-96339377D01*
X196108473Y-96318228D01*
X196024500Y-96282363D01*
X195926231Y-96223512D01*
X195901444Y-96183000D01*
X195934686Y-96130037D01*
X195943008Y-96119975D01*
X196012130Y-96074872D01*
X196117765Y-96091530D01*
X196145956Y-96101657D01*
X196286368Y-96130068D01*
X196400138Y-96111599D01*
X196455109Y-96052641D01*
X196456300Y-96039974D01*
X196414354Y-95990520D01*
X196306910Y-95919721D01*
X196218843Y-95873279D01*
X196027315Y-95754259D01*
X195936760Y-95631412D01*
X195946577Y-95503288D01*
X196022762Y-95399519D01*
X196190874Y-95297353D01*
X196386071Y-95285328D01*
X196542977Y-95341298D01*
G36*
X196998746Y-95549940D02*
G01*
X197053323Y-95405907D01*
X197099252Y-95323811D01*
X197147754Y-95286260D01*
X197210046Y-95275858D01*
X197245446Y-95275400D01*
X197320878Y-95279558D01*
X197374656Y-95304414D01*
X197418888Y-95368537D01*
X197465682Y-95490496D01*
X197527146Y-95688862D01*
X197537448Y-95723244D01*
X197600534Y-95931457D01*
X197655756Y-96109154D01*
X197694557Y-96228991D01*
X197704339Y-96256644D01*
X197706871Y-96320444D01*
X197632796Y-96341659D01*
X197605702Y-96342200D01*
X197494539Y-96312809D01*
X197442360Y-96215200D01*
X197400079Y-96125638D01*
X197312100Y-96091464D01*
X197239160Y-96088200D01*
X197114655Y-96102879D01*
X197053781Y-96161738D01*
X197035960Y-96215200D01*
X196978003Y-96317087D01*
X196882592Y-96342200D01*
X196789717Y-96329525D01*
X196761100Y-96306707D01*
X196776028Y-96246374D01*
X196816322Y-96111675D01*
X196875240Y-95924638D01*
X196900925Y-95845411D01*
X197135218Y-95845411D01*
X197178343Y-95881347D01*
X197237977Y-95885000D01*
X197316671Y-95877771D01*
X197338628Y-95836988D01*
X197314769Y-95734003D01*
X197306237Y-95705947D01*
X197258169Y-95590919D01*
X197213627Y-95576010D01*
X197170277Y-95661796D01*
X197147690Y-95745300D01*
X197135218Y-95845411D01*
X196900925Y-95845411D01*
X196924302Y-95773307D01*
X196998746Y-95549940D01*
G37*
X196998746Y-95549940D02*
X197053323Y-95405907D01*
X197099252Y-95323811D01*
X197147754Y-95286260D01*
X197210046Y-95275858D01*
X197245446Y-95275400D01*
X197320878Y-95279558D01*
X197374656Y-95304414D01*
X197418888Y-95368537D01*
X197465682Y-95490496D01*
X197527146Y-95688862D01*
X197537448Y-95723244D01*
X197600534Y-95931457D01*
X197655756Y-96109154D01*
X197694557Y-96228991D01*
X197704339Y-96256644D01*
X197706871Y-96320444D01*
X197632796Y-96341659D01*
X197605702Y-96342200D01*
X197494539Y-96312809D01*
X197442360Y-96215200D01*
X197400079Y-96125638D01*
X197312100Y-96091464D01*
X197239160Y-96088200D01*
X197114655Y-96102879D01*
X197053781Y-96161738D01*
X197035960Y-96215200D01*
X196978003Y-96317087D01*
X196882592Y-96342200D01*
X196789717Y-96329525D01*
X196761100Y-96306707D01*
X196776028Y-96246374D01*
X196816322Y-96111675D01*
X196875240Y-95924638D01*
X196900925Y-95845411D01*
X197135218Y-95845411D01*
X197178343Y-95881347D01*
X197237977Y-95885000D01*
X197316671Y-95877771D01*
X197338628Y-95836988D01*
X197314769Y-95734003D01*
X197306237Y-95705947D01*
X197258169Y-95590919D01*
X197213627Y-95576010D01*
X197170277Y-95661796D01*
X197147690Y-95745300D01*
X197135218Y-95845411D01*
X196900925Y-95845411D01*
X196924302Y-95773307D01*
X196998746Y-95549940D01*
G36*
X193093181Y-95820364D02*
G01*
X193103500Y-95881933D01*
X193087790Y-95949729D01*
X193022722Y-95980068D01*
X192896575Y-95986600D01*
X192763841Y-95978839D01*
X192709071Y-95948408D01*
X192706497Y-95897700D01*
X192760625Y-95828257D01*
X192897939Y-95794442D01*
X192913422Y-95793033D01*
X193039205Y-95790592D01*
X193093181Y-95820364D01*
G37*
X193093181Y-95820364D02*
X193103500Y-95881933D01*
X193087790Y-95949729D01*
X193022722Y-95980068D01*
X192896575Y-95986600D01*
X192763841Y-95978839D01*
X192709071Y-95948408D01*
X192706497Y-95897700D01*
X192760625Y-95828257D01*
X192897939Y-95794442D01*
X192913422Y-95793033D01*
X193039205Y-95790592D01*
X193093181Y-95820364D01*
G36*
X195734781Y-95820364D02*
G01*
X195745100Y-95881933D01*
X195729390Y-95949729D01*
X195664322Y-95980068D01*
X195538175Y-95986600D01*
X195405441Y-95978839D01*
X195350671Y-95948408D01*
X195348097Y-95897700D01*
X195402225Y-95828257D01*
X195539539Y-95794442D01*
X195555022Y-95793033D01*
X195680805Y-95790592D01*
X195734781Y-95820364D01*
G37*
X195734781Y-95820364D02*
X195745100Y-95881933D01*
X195729390Y-95949729D01*
X195664322Y-95980068D01*
X195538175Y-95986600D01*
X195405441Y-95978839D01*
X195350671Y-95948408D01*
X195348097Y-95897700D01*
X195402225Y-95828257D01*
X195539539Y-95794442D01*
X195555022Y-95793033D01*
X195680805Y-95790592D01*
X195734781Y-95820364D01*
G36*
X191092907Y-92923467D02*
G01*
X191163525Y-92725605D01*
X191191219Y-92682173D01*
X191511121Y-92682173D01*
X191795172Y-92812215D01*
X192079223Y-92942258D01*
X192208052Y-92813429D01*
X192315314Y-92726732D01*
X192407110Y-92685213D01*
X192415390Y-92684600D01*
X192479052Y-92640714D01*
X192493900Y-92557600D01*
X192517712Y-92458011D01*
X192595500Y-92430600D01*
X192675170Y-92460365D01*
X192697100Y-92557600D01*
X192723011Y-92659418D01*
X192788990Y-92684600D01*
X192902695Y-92713735D01*
X192978816Y-92756211D01*
X193044886Y-92814307D01*
X193037080Y-92867162D01*
X192985633Y-92928507D01*
X192901378Y-92995881D01*
X192805105Y-92993371D01*
X192752499Y-92975586D01*
X192617306Y-92947751D01*
X192507812Y-92963635D01*
X192453318Y-93015735D01*
X192455379Y-93051639D01*
X192506591Y-93093328D01*
X192630647Y-93164712D01*
X192806765Y-93256028D01*
X193014163Y-93357515D01*
X193232059Y-93459409D01*
X193439672Y-93551950D01*
X193616220Y-93625376D01*
X193740921Y-93669924D01*
X193789300Y-93678232D01*
X193814839Y-93624855D01*
X193831608Y-93498283D01*
X193835920Y-93339993D01*
X193792996Y-92998125D01*
X193668863Y-92709541D01*
X193456054Y-92457637D01*
X193427687Y-92432135D01*
X193194954Y-92261305D01*
X192955469Y-92164517D01*
X192671599Y-92128150D01*
X192584431Y-92126915D01*
X192240370Y-92165589D01*
X191949741Y-92283954D01*
X191694520Y-92489472D01*
X191685010Y-92499383D01*
X191511121Y-92682173D01*
X191191219Y-92682173D01*
X191343073Y-92444026D01*
X191579592Y-92191873D01*
X191842592Y-91999863D01*
X191927158Y-91956234D01*
X192204382Y-91871290D01*
X192526766Y-91838632D01*
X192856268Y-91857514D01*
X193154841Y-91927189D01*
X193284523Y-91982866D01*
X193544698Y-92158315D01*
X193784898Y-92389690D01*
X193968652Y-92640885D01*
X193991584Y-92682829D01*
X194102538Y-92998413D01*
X194140244Y-93354012D01*
X194104904Y-93719443D01*
X193996721Y-94064526D01*
X193982088Y-94096365D01*
X193793143Y-94381811D01*
X193530564Y-94619277D01*
X193214836Y-94799059D01*
X192866440Y-94911449D01*
X192505859Y-94946743D01*
X192247355Y-94918382D01*
X191904711Y-94796843D01*
X191591991Y-94586075D01*
X191322916Y-94297149D01*
X191161321Y-94042087D01*
X191079921Y-93808632D01*
X191041427Y-93519870D01*
X191043320Y-93386098D01*
X191325976Y-93386098D01*
X191335220Y-93601333D01*
X191370658Y-93766190D01*
X191444932Y-93930982D01*
X191477581Y-93989508D01*
X191691490Y-94272092D01*
X191957882Y-94480884D01*
X192260415Y-94610613D01*
X192582748Y-94656009D01*
X192908539Y-94611800D01*
X193132577Y-94523339D01*
X193288463Y-94423261D01*
X193456364Y-94286793D01*
X193527211Y-94218739D01*
X193722323Y-94017070D01*
X193429395Y-93882963D01*
X193258670Y-93811036D01*
X193156263Y-93786111D01*
X193102652Y-93804135D01*
X193095361Y-93813628D01*
X193057398Y-93895756D01*
X193053477Y-93917321D01*
X193011590Y-93961953D01*
X192908540Y-94024292D01*
X192874900Y-94041030D01*
X192749271Y-94124620D01*
X192697357Y-94212172D01*
X192697100Y-94218008D01*
X192657034Y-94295752D01*
X192595500Y-94310200D01*
X192509897Y-94273757D01*
X192493900Y-94215501D01*
X192451424Y-94133311D01*
X192318309Y-94055014D01*
X192265300Y-94033500D01*
X192113088Y-93968327D01*
X192049470Y-93913531D01*
X192065345Y-93851579D01*
X192134074Y-93780624D01*
X192228451Y-93722217D01*
X192325423Y-93743059D01*
X192339621Y-93750394D01*
X192474137Y-93792572D01*
X192613705Y-93793238D01*
X192724603Y-93757464D01*
X192773109Y-93690317D01*
X192773300Y-93685198D01*
X192747684Y-93635426D01*
X192664020Y-93571289D01*
X192512079Y-93486857D01*
X192281635Y-93376201D01*
X192094834Y-93291816D01*
X191851896Y-93186895D01*
X191641077Y-93101756D01*
X191479954Y-93043042D01*
X191386103Y-93017400D01*
X191370934Y-93018116D01*
X191347969Y-93079571D01*
X191331795Y-93213331D01*
X191325976Y-93386098D01*
X191043320Y-93386098D01*
X191045776Y-93212561D01*
X191092907Y-92923467D01*
G37*
X191092907Y-92923467D02*
X191163525Y-92725605D01*
X191191219Y-92682173D01*
X191511121Y-92682173D01*
X191795172Y-92812215D01*
X192079223Y-92942258D01*
X192208052Y-92813429D01*
X192315314Y-92726732D01*
X192407110Y-92685213D01*
X192415390Y-92684600D01*
X192479052Y-92640714D01*
X192493900Y-92557600D01*
X192517712Y-92458011D01*
X192595500Y-92430600D01*
X192675170Y-92460365D01*
X192697100Y-92557600D01*
X192723011Y-92659418D01*
X192788990Y-92684600D01*
X192902695Y-92713735D01*
X192978816Y-92756211D01*
X193044886Y-92814307D01*
X193037080Y-92867162D01*
X192985633Y-92928507D01*
X192901378Y-92995881D01*
X192805105Y-92993371D01*
X192752499Y-92975586D01*
X192617306Y-92947751D01*
X192507812Y-92963635D01*
X192453318Y-93015735D01*
X192455379Y-93051639D01*
X192506591Y-93093328D01*
X192630647Y-93164712D01*
X192806765Y-93256028D01*
X193014163Y-93357515D01*
X193232059Y-93459409D01*
X193439672Y-93551950D01*
X193616220Y-93625376D01*
X193740921Y-93669924D01*
X193789300Y-93678232D01*
X193814839Y-93624855D01*
X193831608Y-93498283D01*
X193835920Y-93339993D01*
X193792996Y-92998125D01*
X193668863Y-92709541D01*
X193456054Y-92457637D01*
X193427687Y-92432135D01*
X193194954Y-92261305D01*
X192955469Y-92164517D01*
X192671599Y-92128150D01*
X192584431Y-92126915D01*
X192240370Y-92165589D01*
X191949741Y-92283954D01*
X191694520Y-92489472D01*
X191685010Y-92499383D01*
X191511121Y-92682173D01*
X191191219Y-92682173D01*
X191343073Y-92444026D01*
X191579592Y-92191873D01*
X191842592Y-91999863D01*
X191927158Y-91956234D01*
X192204382Y-91871290D01*
X192526766Y-91838632D01*
X192856268Y-91857514D01*
X193154841Y-91927189D01*
X193284523Y-91982866D01*
X193544698Y-92158315D01*
X193784898Y-92389690D01*
X193968652Y-92640885D01*
X193991584Y-92682829D01*
X194102538Y-92998413D01*
X194140244Y-93354012D01*
X194104904Y-93719443D01*
X193996721Y-94064526D01*
X193982088Y-94096365D01*
X193793143Y-94381811D01*
X193530564Y-94619277D01*
X193214836Y-94799059D01*
X192866440Y-94911449D01*
X192505859Y-94946743D01*
X192247355Y-94918382D01*
X191904711Y-94796843D01*
X191591991Y-94586075D01*
X191322916Y-94297149D01*
X191161321Y-94042087D01*
X191079921Y-93808632D01*
X191041427Y-93519870D01*
X191043320Y-93386098D01*
X191325976Y-93386098D01*
X191335220Y-93601333D01*
X191370658Y-93766190D01*
X191444932Y-93930982D01*
X191477581Y-93989508D01*
X191691490Y-94272092D01*
X191957882Y-94480884D01*
X192260415Y-94610613D01*
X192582748Y-94656009D01*
X192908539Y-94611800D01*
X193132577Y-94523339D01*
X193288463Y-94423261D01*
X193456364Y-94286793D01*
X193527211Y-94218739D01*
X193722323Y-94017070D01*
X193429395Y-93882963D01*
X193258670Y-93811036D01*
X193156263Y-93786111D01*
X193102652Y-93804135D01*
X193095361Y-93813628D01*
X193057398Y-93895756D01*
X193053477Y-93917321D01*
X193011590Y-93961953D01*
X192908540Y-94024292D01*
X192874900Y-94041030D01*
X192749271Y-94124620D01*
X192697357Y-94212172D01*
X192697100Y-94218008D01*
X192657034Y-94295752D01*
X192595500Y-94310200D01*
X192509897Y-94273757D01*
X192493900Y-94215501D01*
X192451424Y-94133311D01*
X192318309Y-94055014D01*
X192265300Y-94033500D01*
X192113088Y-93968327D01*
X192049470Y-93913531D01*
X192065345Y-93851579D01*
X192134074Y-93780624D01*
X192228451Y-93722217D01*
X192325423Y-93743059D01*
X192339621Y-93750394D01*
X192474137Y-93792572D01*
X192613705Y-93793238D01*
X192724603Y-93757464D01*
X192773109Y-93690317D01*
X192773300Y-93685198D01*
X192747684Y-93635426D01*
X192664020Y-93571289D01*
X192512079Y-93486857D01*
X192281635Y-93376201D01*
X192094834Y-93291816D01*
X191851896Y-93186895D01*
X191641077Y-93101756D01*
X191479954Y-93043042D01*
X191386103Y-93017400D01*
X191370934Y-93018116D01*
X191347969Y-93079571D01*
X191331795Y-93213331D01*
X191325976Y-93386098D01*
X191043320Y-93386098D01*
X191045776Y-93212561D01*
X191092907Y-92923467D01*
G36*
X194650598Y-92913598D02*
G01*
X194711262Y-92741766D01*
X194794090Y-92594115D01*
X194919981Y-92438844D01*
X195054596Y-92298896D01*
X195236305Y-92127204D01*
X195386643Y-92014185D01*
X195537408Y-91938941D01*
X195669298Y-91894898D01*
X196053702Y-91829788D01*
X196421725Y-91854161D01*
X196762979Y-91958200D01*
X197067080Y-92132089D01*
X197323639Y-92366010D01*
X197522270Y-92650147D01*
X197652587Y-92974683D01*
X197704202Y-93329801D01*
X197666730Y-93705684D01*
X197651455Y-93768298D01*
X197503199Y-94144578D01*
X197277747Y-94457403D01*
X196981742Y-94700128D01*
X196621829Y-94866105D01*
X196526025Y-94893952D01*
X196287978Y-94947237D01*
X196097806Y-94962871D01*
X195909193Y-94941293D01*
X195742588Y-94901411D01*
X195383361Y-94755468D01*
X195081411Y-94534614D01*
X194844245Y-94252515D01*
X194679368Y-93922833D01*
X194594287Y-93559234D01*
X194595168Y-93406868D01*
X194882686Y-93406868D01*
X194932294Y-93750066D01*
X195071163Y-94061263D01*
X195288308Y-94325002D01*
X195572746Y-94525826D01*
X195726176Y-94593942D01*
X195969417Y-94644433D01*
X196252255Y-94643730D01*
X196528189Y-94594575D01*
X196682716Y-94537511D01*
X196945140Y-94363899D01*
X197168861Y-94125545D01*
X197325646Y-93854048D01*
X197348576Y-93792335D01*
X197414319Y-93448691D01*
X197388086Y-93118592D01*
X197279500Y-92815144D01*
X197098183Y-92551453D01*
X196853759Y-92340624D01*
X196555851Y-92195764D01*
X196214082Y-92129977D01*
X196126100Y-92127411D01*
X195790421Y-92165716D01*
X195505816Y-92285212D01*
X195251747Y-92495014D01*
X195219463Y-92529870D01*
X195035878Y-92767387D01*
X194929732Y-93001789D01*
X194886026Y-93272132D01*
X194882686Y-93406868D01*
X194595168Y-93406868D01*
X194596509Y-93175381D01*
X194650598Y-92913598D01*
G37*
X194650598Y-92913598D02*
X194711262Y-92741766D01*
X194794090Y-92594115D01*
X194919981Y-92438844D01*
X195054596Y-92298896D01*
X195236305Y-92127204D01*
X195386643Y-92014185D01*
X195537408Y-91938941D01*
X195669298Y-91894898D01*
X196053702Y-91829788D01*
X196421725Y-91854161D01*
X196762979Y-91958200D01*
X197067080Y-92132089D01*
X197323639Y-92366010D01*
X197522270Y-92650147D01*
X197652587Y-92974683D01*
X197704202Y-93329801D01*
X197666730Y-93705684D01*
X197651455Y-93768298D01*
X197503199Y-94144578D01*
X197277747Y-94457403D01*
X196981742Y-94700128D01*
X196621829Y-94866105D01*
X196526025Y-94893952D01*
X196287978Y-94947237D01*
X196097806Y-94962871D01*
X195909193Y-94941293D01*
X195742588Y-94901411D01*
X195383361Y-94755468D01*
X195081411Y-94534614D01*
X194844245Y-94252515D01*
X194679368Y-93922833D01*
X194594287Y-93559234D01*
X194595168Y-93406868D01*
X194882686Y-93406868D01*
X194932294Y-93750066D01*
X195071163Y-94061263D01*
X195288308Y-94325002D01*
X195572746Y-94525826D01*
X195726176Y-94593942D01*
X195969417Y-94644433D01*
X196252255Y-94643730D01*
X196528189Y-94594575D01*
X196682716Y-94537511D01*
X196945140Y-94363899D01*
X197168861Y-94125545D01*
X197325646Y-93854048D01*
X197348576Y-93792335D01*
X197414319Y-93448691D01*
X197388086Y-93118592D01*
X197279500Y-92815144D01*
X197098183Y-92551453D01*
X196853759Y-92340624D01*
X196555851Y-92195764D01*
X196214082Y-92129977D01*
X196126100Y-92127411D01*
X195790421Y-92165716D01*
X195505816Y-92285212D01*
X195251747Y-92495014D01*
X195219463Y-92529870D01*
X195035878Y-92767387D01*
X194929732Y-93001789D01*
X194886026Y-93272132D01*
X194882686Y-93406868D01*
X194595168Y-93406868D01*
X194596509Y-93175381D01*
X194650598Y-92913598D01*
G36*
X191052343Y-89657959D02*
G01*
X191071815Y-89489832D01*
X191113096Y-89349394D01*
X191183447Y-89199820D01*
X191183702Y-89199334D01*
X191372387Y-88920544D01*
X191618765Y-88674109D01*
X191895281Y-88483783D01*
X192127718Y-88385506D01*
X192518038Y-88321432D01*
X192900708Y-88351064D01*
X193260620Y-88467834D01*
X193582668Y-88665173D01*
X193851743Y-88936513D01*
X194022001Y-89209098D01*
X194110564Y-89474742D01*
X194150977Y-89788775D01*
X194143019Y-90112963D01*
X194086472Y-90409071D01*
X194029760Y-90556072D01*
X193811676Y-90889176D01*
X193526090Y-91152533D01*
X193186371Y-91337379D01*
X192805888Y-91434945D01*
X192671700Y-91446584D01*
X192472205Y-91448917D01*
X192297181Y-91439303D01*
X192189100Y-91420914D01*
X191811961Y-91244735D01*
X191486571Y-90986788D01*
X191228347Y-90660189D01*
X191166395Y-90551000D01*
X191103319Y-90409406D01*
X191066720Y-90262381D01*
X191050295Y-90074936D01*
X191047910Y-89921893D01*
X191326615Y-89921893D01*
X191374400Y-90253814D01*
X191504895Y-90547456D01*
X191703506Y-90793772D01*
X191955639Y-90983711D01*
X192246699Y-91108226D01*
X192562092Y-91158269D01*
X192887223Y-91124790D01*
X193128900Y-91039324D01*
X193442340Y-90844295D01*
X193668833Y-90596771D01*
X193809024Y-90295732D01*
X193863559Y-89940160D01*
X193864384Y-89879531D01*
X193827046Y-89540409D01*
X193711163Y-89253056D01*
X193507017Y-88994509D01*
X193477855Y-88965980D01*
X193227203Y-88771961D01*
X192955914Y-88660785D01*
X192634730Y-88621100D01*
X192587770Y-88620600D01*
X192245462Y-88660366D01*
X191951026Y-88784645D01*
X191688114Y-89000905D01*
X191639813Y-89053648D01*
X191452699Y-89324637D01*
X191351553Y-89624378D01*
X191326615Y-89921893D01*
X191047910Y-89921893D01*
X191047422Y-89890600D01*
X191052343Y-89657959D01*
G37*
X191052343Y-89657959D02*
X191071815Y-89489832D01*
X191113096Y-89349394D01*
X191183447Y-89199820D01*
X191183702Y-89199334D01*
X191372387Y-88920544D01*
X191618765Y-88674109D01*
X191895281Y-88483783D01*
X192127718Y-88385506D01*
X192518038Y-88321432D01*
X192900708Y-88351064D01*
X193260620Y-88467834D01*
X193582668Y-88665173D01*
X193851743Y-88936513D01*
X194022001Y-89209098D01*
X194110564Y-89474742D01*
X194150977Y-89788775D01*
X194143019Y-90112963D01*
X194086472Y-90409071D01*
X194029760Y-90556072D01*
X193811676Y-90889176D01*
X193526090Y-91152533D01*
X193186371Y-91337379D01*
X192805888Y-91434945D01*
X192671700Y-91446584D01*
X192472205Y-91448917D01*
X192297181Y-91439303D01*
X192189100Y-91420914D01*
X191811961Y-91244735D01*
X191486571Y-90986788D01*
X191228347Y-90660189D01*
X191166395Y-90551000D01*
X191103319Y-90409406D01*
X191066720Y-90262381D01*
X191050295Y-90074936D01*
X191047910Y-89921893D01*
X191326615Y-89921893D01*
X191374400Y-90253814D01*
X191504895Y-90547456D01*
X191703506Y-90793772D01*
X191955639Y-90983711D01*
X192246699Y-91108226D01*
X192562092Y-91158269D01*
X192887223Y-91124790D01*
X193128900Y-91039324D01*
X193442340Y-90844295D01*
X193668833Y-90596771D01*
X193809024Y-90295732D01*
X193863559Y-89940160D01*
X193864384Y-89879531D01*
X193827046Y-89540409D01*
X193711163Y-89253056D01*
X193507017Y-88994509D01*
X193477855Y-88965980D01*
X193227203Y-88771961D01*
X192955914Y-88660785D01*
X192634730Y-88621100D01*
X192587770Y-88620600D01*
X192245462Y-88660366D01*
X191951026Y-88784645D01*
X191688114Y-89000905D01*
X191639813Y-89053648D01*
X191452699Y-89324637D01*
X191351553Y-89624378D01*
X191326615Y-89921893D01*
X191047910Y-89921893D01*
X191047422Y-89890600D01*
X191052343Y-89657959D01*
G36*
X194608390Y-89549904D02*
G01*
X194710736Y-89250046D01*
X194894645Y-88969322D01*
X195055453Y-88792838D01*
X195237126Y-88621264D01*
X195387626Y-88508362D01*
X195538873Y-88433171D01*
X195669298Y-88389698D01*
X196069720Y-88322035D01*
X196457342Y-88349231D01*
X196819022Y-88465583D01*
X197141619Y-88665386D01*
X197411991Y-88942939D01*
X197583474Y-89220405D01*
X197665470Y-89469988D01*
X197704411Y-89772887D01*
X197700012Y-90090256D01*
X197651989Y-90383252D01*
X197593224Y-90551000D01*
X197435074Y-90801791D01*
X197211105Y-91042934D01*
X196954441Y-91241697D01*
X196816270Y-91318765D01*
X196621407Y-91384533D01*
X196375993Y-91430362D01*
X196118420Y-91452589D01*
X195887083Y-91447554D01*
X195745100Y-91420914D01*
X195379734Y-91253021D01*
X195070314Y-91014994D01*
X194827256Y-90720446D01*
X194660975Y-90382990D01*
X194581890Y-90016240D01*
X194580106Y-89974196D01*
X194882787Y-89974196D01*
X194936647Y-90287689D01*
X194989181Y-90425589D01*
X195118907Y-90630419D01*
X195301363Y-90829617D01*
X195505675Y-90994247D01*
X195700972Y-91095371D01*
X195705225Y-91096756D01*
X195927569Y-91141003D01*
X196186042Y-91152811D01*
X196435954Y-91132835D01*
X196629027Y-91083245D01*
X196849854Y-90955772D01*
X197066581Y-90771724D01*
X197244710Y-90563697D01*
X197326724Y-90424000D01*
X197395856Y-90184881D01*
X197419672Y-89900321D01*
X197398250Y-89614706D01*
X197331668Y-89372422D01*
X197324840Y-89357200D01*
X197182580Y-89133897D01*
X196981367Y-88921394D01*
X196756807Y-88754321D01*
X196648431Y-88699280D01*
X196442663Y-88645638D01*
X196188469Y-88623806D01*
X195930506Y-88634123D01*
X195713431Y-88676927D01*
X195672878Y-88691863D01*
X195447862Y-88825104D01*
X195228626Y-89021355D01*
X195050365Y-89246377D01*
X194987994Y-89358135D01*
X194899888Y-89650549D01*
X194882787Y-89974196D01*
X194580106Y-89974196D01*
X194576700Y-89893986D01*
X194608390Y-89549904D01*
G37*
X194608390Y-89549904D02*
X194710736Y-89250046D01*
X194894645Y-88969322D01*
X195055453Y-88792838D01*
X195237126Y-88621264D01*
X195387626Y-88508362D01*
X195538873Y-88433171D01*
X195669298Y-88389698D01*
X196069720Y-88322035D01*
X196457342Y-88349231D01*
X196819022Y-88465583D01*
X197141619Y-88665386D01*
X197411991Y-88942939D01*
X197583474Y-89220405D01*
X197665470Y-89469988D01*
X197704411Y-89772887D01*
X197700012Y-90090256D01*
X197651989Y-90383252D01*
X197593224Y-90551000D01*
X197435074Y-90801791D01*
X197211105Y-91042934D01*
X196954441Y-91241697D01*
X196816270Y-91318765D01*
X196621407Y-91384533D01*
X196375993Y-91430362D01*
X196118420Y-91452589D01*
X195887083Y-91447554D01*
X195745100Y-91420914D01*
X195379734Y-91253021D01*
X195070314Y-91014994D01*
X194827256Y-90720446D01*
X194660975Y-90382990D01*
X194581890Y-90016240D01*
X194580106Y-89974196D01*
X194882787Y-89974196D01*
X194936647Y-90287689D01*
X194989181Y-90425589D01*
X195118907Y-90630419D01*
X195301363Y-90829617D01*
X195505675Y-90994247D01*
X195700972Y-91095371D01*
X195705225Y-91096756D01*
X195927569Y-91141003D01*
X196186042Y-91152811D01*
X196435954Y-91132835D01*
X196629027Y-91083245D01*
X196849854Y-90955772D01*
X197066581Y-90771724D01*
X197244710Y-90563697D01*
X197326724Y-90424000D01*
X197395856Y-90184881D01*
X197419672Y-89900321D01*
X197398250Y-89614706D01*
X197331668Y-89372422D01*
X197324840Y-89357200D01*
X197182580Y-89133897D01*
X196981367Y-88921394D01*
X196756807Y-88754321D01*
X196648431Y-88699280D01*
X196442663Y-88645638D01*
X196188469Y-88623806D01*
X195930506Y-88634123D01*
X195713431Y-88676927D01*
X195672878Y-88691863D01*
X195447862Y-88825104D01*
X195228626Y-89021355D01*
X195050365Y-89246377D01*
X194987994Y-89358135D01*
X194899888Y-89650549D01*
X194882787Y-89974196D01*
X194580106Y-89974196D01*
X194576700Y-89893986D01*
X194608390Y-89549904D01*
G36*
X196187958Y-92593088D02*
G01*
X196391318Y-92615741D01*
X196529160Y-92660057D01*
X196637050Y-92737483D01*
X196637285Y-92737703D01*
X196804065Y-92937840D01*
X196891680Y-93165381D01*
X196913500Y-93406769D01*
X196876232Y-93702361D01*
X196762011Y-93934197D01*
X196567207Y-94108848D01*
X196506458Y-94143833D01*
X196244268Y-94240639D01*
X195993405Y-94241698D01*
X195809600Y-94184084D01*
X195680758Y-94096057D01*
X195557916Y-93962181D01*
X195468863Y-93817899D01*
X195440489Y-93713300D01*
X195487228Y-93668092D01*
X195616861Y-93649923D01*
X195631453Y-93649800D01*
X195772558Y-93665194D01*
X195850160Y-93722400D01*
X195872753Y-93764100D01*
X195948116Y-93852777D01*
X196088831Y-93891995D01*
X196108818Y-93893893D01*
X196292990Y-93876208D01*
X196417964Y-93783790D01*
X196487865Y-93611381D01*
X196507100Y-93386221D01*
X196479373Y-93138956D01*
X196396923Y-92974786D01*
X196260849Y-92895427D01*
X196188203Y-92887800D01*
X196049265Y-92917074D01*
X195933544Y-92989430D01*
X195870633Y-93081672D01*
X195870519Y-93136819D01*
X195853704Y-93239535D01*
X195770972Y-93344556D01*
X195643500Y-93464310D01*
X195503800Y-93341155D01*
X195405884Y-93256237D01*
X195344836Y-93205869D01*
X195340171Y-93202537D01*
X195351285Y-93167105D01*
X195371182Y-93151737D01*
X195430167Y-93085238D01*
X195500980Y-92969987D01*
X195508396Y-92955785D01*
X195642379Y-92755604D01*
X195807335Y-92638048D01*
X196024768Y-92591642D01*
X196187958Y-92593088D01*
G37*
X196187958Y-92593088D02*
X196391318Y-92615741D01*
X196529160Y-92660057D01*
X196637050Y-92737483D01*
X196637285Y-92737703D01*
X196804065Y-92937840D01*
X196891680Y-93165381D01*
X196913500Y-93406769D01*
X196876232Y-93702361D01*
X196762011Y-93934197D01*
X196567207Y-94108848D01*
X196506458Y-94143833D01*
X196244268Y-94240639D01*
X195993405Y-94241698D01*
X195809600Y-94184084D01*
X195680758Y-94096057D01*
X195557916Y-93962181D01*
X195468863Y-93817899D01*
X195440489Y-93713300D01*
X195487228Y-93668092D01*
X195616861Y-93649923D01*
X195631453Y-93649800D01*
X195772558Y-93665194D01*
X195850160Y-93722400D01*
X195872753Y-93764100D01*
X195948116Y-93852777D01*
X196088831Y-93891995D01*
X196108818Y-93893893D01*
X196292990Y-93876208D01*
X196417964Y-93783790D01*
X196487865Y-93611381D01*
X196507100Y-93386221D01*
X196479373Y-93138956D01*
X196396923Y-92974786D01*
X196260849Y-92895427D01*
X196188203Y-92887800D01*
X196049265Y-92917074D01*
X195933544Y-92989430D01*
X195870633Y-93081672D01*
X195870519Y-93136819D01*
X195853704Y-93239535D01*
X195770972Y-93344556D01*
X195643500Y-93464310D01*
X195503800Y-93341155D01*
X195405884Y-93256237D01*
X195344836Y-93205869D01*
X195340171Y-93202537D01*
X195351285Y-93167105D01*
X195371182Y-93151737D01*
X195430167Y-93085238D01*
X195500980Y-92969987D01*
X195508396Y-92955785D01*
X195642379Y-92755604D01*
X195807335Y-92638048D01*
X196024768Y-92591642D01*
X196187958Y-92593088D01*
G36*
X192368227Y-89443523D02*
G01*
X192497131Y-89527401D01*
X192614809Y-89622691D01*
X192498100Y-89685151D01*
X192387900Y-89720655D01*
X192325886Y-89692106D01*
X192224870Y-89642801D01*
X192108571Y-89646835D01*
X192025303Y-89700325D01*
X192016735Y-89716954D01*
X191987061Y-89874354D01*
X192008462Y-90019635D01*
X192046859Y-90083639D01*
X192138822Y-90131589D01*
X192250608Y-90141947D01*
X192335176Y-90113592D01*
X192350935Y-90090892D01*
X192400302Y-90059293D01*
X192476031Y-90082410D01*
X192534986Y-90140846D01*
X192544700Y-90178027D01*
X192501744Y-90239532D01*
X192396996Y-90309007D01*
X192266635Y-90367512D01*
X192146843Y-90396106D01*
X192127231Y-90396566D01*
X192037967Y-90372195D01*
X191926515Y-90320900D01*
X191787253Y-90193832D01*
X191714602Y-90019356D01*
X191707471Y-89825818D01*
X191764767Y-89641563D01*
X191885397Y-89494936D01*
X191960136Y-89448742D01*
X192167810Y-89396286D01*
X192368227Y-89443523D01*
G37*
X192368227Y-89443523D02*
X192497131Y-89527401D01*
X192614809Y-89622691D01*
X192498100Y-89685151D01*
X192387900Y-89720655D01*
X192325886Y-89692106D01*
X192224870Y-89642801D01*
X192108571Y-89646835D01*
X192025303Y-89700325D01*
X192016735Y-89716954D01*
X191987061Y-89874354D01*
X192008462Y-90019635D01*
X192046859Y-90083639D01*
X192138822Y-90131589D01*
X192250608Y-90141947D01*
X192335176Y-90113592D01*
X192350935Y-90090892D01*
X192400302Y-90059293D01*
X192476031Y-90082410D01*
X192534986Y-90140846D01*
X192544700Y-90178027D01*
X192501744Y-90239532D01*
X192396996Y-90309007D01*
X192266635Y-90367512D01*
X192146843Y-90396106D01*
X192127231Y-90396566D01*
X192037967Y-90372195D01*
X191926515Y-90320900D01*
X191787253Y-90193832D01*
X191714602Y-90019356D01*
X191707471Y-89825818D01*
X191764767Y-89641563D01*
X191885397Y-89494936D01*
X191960136Y-89448742D01*
X192167810Y-89396286D01*
X192368227Y-89443523D01*
G36*
X193205202Y-89416497D02*
G01*
X193382900Y-89504288D01*
X193452357Y-89566595D01*
X193440876Y-89620505D01*
X193395962Y-89669418D01*
X193315830Y-89727346D01*
X193251813Y-89703439D01*
X193246102Y-89697922D01*
X193148299Y-89648249D01*
X193068907Y-89636600D01*
X192968110Y-89680296D01*
X192912039Y-89795977D01*
X192909658Y-89960528D01*
X192921160Y-90017600D01*
X192969163Y-90112094D01*
X193069525Y-90143653D01*
X193104467Y-90144600D01*
X193211053Y-90129798D01*
X193255896Y-90094168D01*
X193255900Y-90093800D01*
X193288016Y-90046522D01*
X193381399Y-90076755D01*
X193408300Y-90092905D01*
X193452949Y-90137977D01*
X193426914Y-90196092D01*
X193382723Y-90243292D01*
X193221938Y-90344028D01*
X193033071Y-90375903D01*
X192858888Y-90331908D01*
X192855091Y-90329775D01*
X192734848Y-90229764D01*
X192666391Y-90139008D01*
X192600418Y-89935708D01*
X192618879Y-89745962D01*
X192705181Y-89584469D01*
X192842731Y-89465928D01*
X193014936Y-89405038D01*
X193205202Y-89416497D01*
G37*
X193205202Y-89416497D02*
X193382900Y-89504288D01*
X193452357Y-89566595D01*
X193440876Y-89620505D01*
X193395962Y-89669418D01*
X193315830Y-89727346D01*
X193251813Y-89703439D01*
X193246102Y-89697922D01*
X193148299Y-89648249D01*
X193068907Y-89636600D01*
X192968110Y-89680296D01*
X192912039Y-89795977D01*
X192909658Y-89960528D01*
X192921160Y-90017600D01*
X192969163Y-90112094D01*
X193069525Y-90143653D01*
X193104467Y-90144600D01*
X193211053Y-90129798D01*
X193255896Y-90094168D01*
X193255900Y-90093800D01*
X193288016Y-90046522D01*
X193381399Y-90076755D01*
X193408300Y-90092905D01*
X193452949Y-90137977D01*
X193426914Y-90196092D01*
X193382723Y-90243292D01*
X193221938Y-90344028D01*
X193033071Y-90375903D01*
X192858888Y-90331908D01*
X192855091Y-90329775D01*
X192734848Y-90229764D01*
X192666391Y-90139008D01*
X192600418Y-89935708D01*
X192618879Y-89745962D01*
X192705181Y-89584469D01*
X192842731Y-89465928D01*
X193014936Y-89405038D01*
X193205202Y-89416497D01*
G36*
X196547425Y-89776300D02*
G01*
X196551759Y-89970723D01*
X196542908Y-90083695D01*
X196517481Y-90134892D01*
X196483925Y-90144600D01*
X196442787Y-90162949D01*
X196418629Y-90230607D01*
X196407557Y-90366489D01*
X196405500Y-90525600D01*
X196405500Y-90906600D01*
X195897500Y-90906600D01*
X195897500Y-90525600D01*
X195893722Y-90325746D01*
X195879796Y-90208384D01*
X195851825Y-90154597D01*
X195819074Y-90144600D01*
X195778348Y-90127950D01*
X195756848Y-90064886D01*
X195751180Y-89935730D01*
X195755574Y-89776300D01*
X195770500Y-89408000D01*
X196532500Y-89408000D01*
X196547425Y-89776300D01*
G37*
X196547425Y-89776300D02*
X196551759Y-89970723D01*
X196542908Y-90083695D01*
X196517481Y-90134892D01*
X196483925Y-90144600D01*
X196442787Y-90162949D01*
X196418629Y-90230607D01*
X196407557Y-90366489D01*
X196405500Y-90525600D01*
X196405500Y-90906600D01*
X195897500Y-90906600D01*
X195897500Y-90525600D01*
X195893722Y-90325746D01*
X195879796Y-90208384D01*
X195851825Y-90154597D01*
X195819074Y-90144600D01*
X195778348Y-90127950D01*
X195756848Y-90064886D01*
X195751180Y-89935730D01*
X195755574Y-89776300D01*
X195770500Y-89408000D01*
X196532500Y-89408000D01*
X196547425Y-89776300D01*
G36*
X196273255Y-88910319D02*
G01*
X196327665Y-88957693D01*
X196345670Y-89042771D01*
X196329177Y-89199758D01*
X196249785Y-89303226D01*
X196151500Y-89331800D01*
X196043906Y-89295162D01*
X196001649Y-89258671D01*
X195961855Y-89156080D01*
X195957329Y-89042771D01*
X195981281Y-88945953D01*
X196044788Y-88906624D01*
X196151500Y-88900000D01*
X196273255Y-88910319D01*
G37*
X196273255Y-88910319D02*
X196327665Y-88957693D01*
X196345670Y-89042771D01*
X196329177Y-89199758D01*
X196249785Y-89303226D01*
X196151500Y-89331800D01*
X196043906Y-89295162D01*
X196001649Y-89258671D01*
X195961855Y-89156080D01*
X195957329Y-89042771D01*
X195981281Y-88945953D01*
X196044788Y-88906624D01*
X196151500Y-88900000D01*
X196273255Y-88910319D01*
D12*
X170118000Y-83550000D02*
X168718000Y-83550000D01*
X168718000Y-81550000D02*
X170118000Y-81550000D01*
X168018000Y-82850000D02*
X168018000Y-82250000D01*
X170818000Y-82250000D02*
X170818000Y-82850000D01*
X168018000Y-82850000D02*
G75*
G03*
X168718000Y-83550000I700000J0D01*
G01*
X170118000Y-83550000D02*
G75*
G03*
X170818000Y-82850000I1J699999D01*
G01*
X170818000Y-82250000D02*
G75*
G03*
X170118000Y-81550000I-699999J1D01*
G01*
X168718000Y-81550000D02*
G75*
G03*
X168018000Y-82250000I0J-700000D01*
G01*
X172020000Y-81550000D02*
X173420000Y-81550000D01*
X173420000Y-83550000D02*
X172020000Y-83550000D01*
X174120000Y-82250000D02*
X174120000Y-82850000D01*
X171320000Y-82850000D02*
X171320000Y-82250000D01*
X173420000Y-83550000D02*
G75*
G03*
X174120000Y-82850000I1J699999D01*
G01*
X174120000Y-82250000D02*
G75*
G03*
X173420000Y-81550000I-699999J1D01*
G01*
X172020000Y-81550000D02*
G75*
G03*
X171320000Y-82250000I0J-700000D01*
G01*
X171320000Y-82850000D02*
G75*
G03*
X172020000Y-83550000I700000J0D01*
G01*
X175322000Y-81550000D02*
X176722000Y-81550000D01*
X176722000Y-83550000D02*
X175322000Y-83550000D01*
X177422000Y-82250000D02*
X177422000Y-82850000D01*
X174622000Y-82850000D02*
X174622000Y-82250000D01*
X177422000Y-82250000D02*
G75*
G03*
X176722000Y-81550000I-700000J0D01*
G01*
X175322000Y-81550000D02*
G75*
G03*
X174622000Y-82250000I-1J-699999D01*
G01*
X174622000Y-82850000D02*
G75*
G03*
X175322000Y-83550000I699999J-1D01*
G01*
X176722000Y-83550000D02*
G75*
G03*
X177422000Y-82850000I0J700000D01*
G01*
X171520000Y-112325000D02*
X171820000Y-112625000D01*
X171220000Y-112625000D02*
X171820000Y-112625000D01*
X174770000Y-110825000D02*
X174770000Y-111425000D01*
X171320000Y-110125000D02*
X174120000Y-110125000D01*
X170670000Y-111425000D02*
X170670000Y-110825000D01*
X174120000Y-112125000D02*
X171320000Y-112125000D01*
X171520000Y-112325000D02*
X171220000Y-112625000D01*
X171370000Y-110125000D02*
G75*
G03*
X170670000Y-110825000I-1J-699999D01*
G01*
X170670000Y-111425000D02*
G75*
G03*
X171370000Y-112125000I699999J-1D01*
G01*
X174070000Y-112125000D02*
G75*
G03*
X174770000Y-111425000I0J700000D01*
G01*
X174770000Y-110825000D02*
G75*
G03*
X174070000Y-110125000I-700000J0D01*
G01*
X192335000Y-123260000D02*
X192035000Y-122960000D01*
X192635000Y-122960000D02*
X192035000Y-122960000D01*
X189085000Y-124760000D02*
X189085000Y-124160000D01*
X192535000Y-125460000D02*
X189735000Y-125460000D01*
X193185000Y-124160000D02*
X193185000Y-124760000D01*
X189735000Y-123460000D02*
X192535000Y-123460000D01*
X192335000Y-123260000D02*
X192635000Y-122960000D01*
X192485000Y-125460000D02*
G75*
G03*
X193185000Y-124760000I1J699999D01*
G01*
X193185000Y-124160000D02*
G75*
G03*
X192485000Y-123460000I-699999J1D01*
G01*
X189785000Y-123460000D02*
G75*
G03*
X189085000Y-124160000I0J-700000D01*
G01*
X189085000Y-124760000D02*
G75*
G03*
X189785000Y-125460000I700000J0D01*
G01*
X197415000Y-123260000D02*
X197115000Y-122960000D01*
X197715000Y-122960000D02*
X197115000Y-122960000D01*
X194165000Y-124760000D02*
X194165000Y-124160000D01*
X197615000Y-125460000D02*
X194815000Y-125460000D01*
X198265000Y-124160000D02*
X198265000Y-124760000D01*
X194815000Y-123460000D02*
X197615000Y-123460000D01*
X197415000Y-123260000D02*
X197715000Y-122960000D01*
X197565000Y-125460000D02*
G75*
G03*
X198265000Y-124760000I1J699999D01*
G01*
X198265000Y-124160000D02*
G75*
G03*
X197565000Y-123460000I-699999J1D01*
G01*
X194865000Y-123460000D02*
G75*
G03*
X194165000Y-124160000I0J-700000D01*
G01*
X194165000Y-124760000D02*
G75*
G03*
X194865000Y-125460000I700000J0D01*
G01*
X181222500Y-81350000D02*
X180922500Y-81050000D01*
X181522500Y-81050000D02*
X180922500Y-81050000D01*
X177972500Y-82850000D02*
X177972500Y-82250000D01*
X181422500Y-83550000D02*
X178622500Y-83550000D01*
X182072500Y-82250000D02*
X182072500Y-82850000D01*
X178622500Y-81550000D02*
X181422500Y-81550000D01*
X181222500Y-81350000D02*
X181522500Y-81050000D01*
X181372500Y-83550000D02*
G75*
G03*
X182072500Y-82850000I1J699999D01*
G01*
X182072500Y-82250000D02*
G75*
G03*
X181372500Y-81550000I-699999J1D01*
G01*
X178672500Y-81550000D02*
G75*
G03*
X177972500Y-82250000I0J-700000D01*
G01*
X177972500Y-82850000D02*
G75*
G03*
X178672500Y-83550000I700000J0D01*
G01*
X167330000Y-96290000D02*
X185730000Y-96290000D01*
D11*
X185730000Y-84050000D02*
X166330000Y-84050000D01*
D12*
X178125000Y-109625000D02*
X196525000Y-109625000D01*
D11*
X196525000Y-97385000D02*
X177125000Y-97385000D01*
D12*
X177135000Y-113000000D02*
X177135000Y-113575000D01*
X186780000Y-113000000D02*
X187355000Y-113000000D01*
X177710000Y-123220000D02*
X177135000Y-123220000D01*
X177710000Y-113000000D02*
X177135000Y-113000000D01*
X187355000Y-123220000D02*
X187355000Y-122645000D01*
X177135000Y-123220000D02*
X177135000Y-122645000D01*
X177135000Y-113575000D02*
X175845000Y-113575000D01*
X186780000Y-123220000D02*
X187355000Y-123220000D01*
X187355000Y-113000000D02*
X187355000Y-113575000D01*
X193308800Y-116230400D02*
X193308800Y-115430400D01*
X196428800Y-116230400D02*
X196428800Y-114430400D01*
X196428800Y-116230400D02*
X196428800Y-117030400D01*
X193308800Y-116230400D02*
X193308800Y-117030400D01*
X166310000Y-111760000D02*
X166310000Y-124520000D01*
X166310000Y-110490000D02*
X166310000Y-109160000D01*
X166310000Y-109160000D02*
X167640000Y-109160000D01*
X166310000Y-111760000D02*
X168970000Y-111760000D01*
X166310000Y-124520000D02*
X168970000Y-124520000D01*
X168970000Y-111760000D02*
X168970000Y-124520000D01*
X191176248Y-113130000D02*
X191698752Y-113130000D01*
X191176248Y-111660000D02*
X191698752Y-111660000D01*
X191206248Y-120750000D02*
X191728752Y-120750000D01*
X191206248Y-119280000D02*
X191728752Y-119280000D01*
X174886252Y-123725000D02*
X174363748Y-123725000D01*
X174886252Y-125195000D02*
X174363748Y-125195000D01*
X183888748Y-83285000D02*
X184411252Y-83285000D01*
X183888748Y-81815000D02*
X184411252Y-81815000D01*
X200696500Y-103385252D02*
X200696500Y-102862748D01*
X199226500Y-103385252D02*
X199226500Y-102862748D01*
X195318748Y-120750000D02*
X195841252Y-120750000D01*
X195318748Y-119280000D02*
X195841252Y-119280000D01*
X195318748Y-113130000D02*
X195841252Y-113130000D01*
X195318748Y-111660000D02*
X195841252Y-111660000D01*
%LPC*%
D14*
X194836142Y-116240355D03*
X196179645Y-117583858D03*
X196922107Y-115497893D03*
D15*
X205025000Y-124465000D03*
X205025000Y-123195000D03*
X205025000Y-121925000D03*
X205025000Y-120655000D03*
X205025000Y-119385000D03*
X205025000Y-118115000D03*
X205025000Y-116845000D03*
X205025000Y-115575000D03*
X205025000Y-114305000D03*
X205025000Y-113035000D03*
X205025000Y-111765000D03*
X205025000Y-110495000D03*
X205025000Y-109225000D03*
X205025000Y-107955000D03*
X205025000Y-106685000D03*
X205025000Y-105415000D03*
X205025000Y-104145000D03*
X205025000Y-102875000D03*
X205025000Y-101605000D03*
X205025000Y-100335000D03*
X205025000Y-99065000D03*
X205025000Y-97795000D03*
X205025000Y-96525000D03*
X205025000Y-95255000D03*
X205025000Y-93985000D03*
X205025000Y-92715000D03*
X205025000Y-91445000D03*
X205025000Y-90175000D03*
X205025000Y-88905000D03*
X205025000Y-87635000D03*
X205025000Y-86365000D03*
X205025000Y-85095000D03*
X205025000Y-83825000D03*
X205025000Y-82555000D03*
D16*
X170068000Y-82550000D03*
D17*
X168768000Y-82550000D03*
D16*
X173370000Y-82550000D03*
D17*
X172070000Y-82550000D03*
D18*
X175372000Y-82550000D03*
D19*
X176672000Y-82550000D03*
D20*
X171420000Y-111125000D03*
D21*
X172720000Y-111125000D03*
D22*
X174020000Y-111125000D03*
D23*
X192435000Y-124460000D03*
D24*
X191135000Y-124460000D03*
D25*
X189835000Y-124460000D03*
D23*
X197515000Y-124460000D03*
D24*
X196215000Y-124460000D03*
D25*
X194915000Y-124460000D03*
D23*
X181322500Y-82550000D03*
D24*
X180022500Y-82550000D03*
D25*
X178722500Y-82550000D03*
D26*
X166780000Y-84420000D03*
X166780000Y-84920000D03*
X166780000Y-85420000D03*
X166780000Y-85920000D03*
X166780000Y-86420000D03*
X166780000Y-86920000D03*
X166780000Y-87420000D03*
X166780000Y-87920000D03*
X166780000Y-88420000D03*
X166780000Y-88920000D03*
X166780000Y-89420000D03*
X166780000Y-89920000D03*
X166780000Y-90420000D03*
X166780000Y-90920000D03*
X166780000Y-91420000D03*
X166780000Y-91920000D03*
X166780000Y-92420000D03*
X166780000Y-92920000D03*
X166780000Y-93420000D03*
X166780000Y-93920000D03*
X166780000Y-94420000D03*
X166780000Y-94920000D03*
X166780000Y-95420000D03*
X166780000Y-95920000D03*
X186280000Y-95920000D03*
X186280000Y-95420000D03*
X186280000Y-94920000D03*
X186280000Y-94420000D03*
X186280000Y-93920000D03*
X186280000Y-93420000D03*
X186280000Y-92920000D03*
X186280000Y-92420000D03*
X186280000Y-91920000D03*
X186280000Y-91420000D03*
X186280000Y-90920000D03*
X186280000Y-90420000D03*
X186280000Y-89920000D03*
X186280000Y-89420000D03*
X186280000Y-88920000D03*
X186280000Y-88420000D03*
X186280000Y-87920000D03*
X186280000Y-87420000D03*
X186280000Y-86920000D03*
X186280000Y-86420000D03*
X186280000Y-85920000D03*
X186280000Y-85420000D03*
X186280000Y-84920000D03*
X186280000Y-84420000D03*
X177575000Y-97755000D03*
X177575000Y-98255000D03*
X177575000Y-98755000D03*
X177575000Y-99255000D03*
X177575000Y-99755000D03*
X177575000Y-100255000D03*
X177575000Y-100755000D03*
X177575000Y-101255000D03*
X177575000Y-101755000D03*
X177575000Y-102255000D03*
X177575000Y-102755000D03*
X177575000Y-103255000D03*
X177575000Y-103755000D03*
X177575000Y-104255000D03*
X177575000Y-104755000D03*
X177575000Y-105255000D03*
X177575000Y-105755000D03*
X177575000Y-106255000D03*
X177575000Y-106755000D03*
X177575000Y-107255000D03*
X177575000Y-107755000D03*
X177575000Y-108255000D03*
X177575000Y-108755000D03*
X177575000Y-109255000D03*
X197075000Y-109255000D03*
X197075000Y-108755000D03*
X197075000Y-108255000D03*
X197075000Y-107755000D03*
X197075000Y-107255000D03*
X197075000Y-106755000D03*
X197075000Y-106255000D03*
X197075000Y-105755000D03*
X197075000Y-105255000D03*
X197075000Y-104755000D03*
X197075000Y-104255000D03*
X197075000Y-103755000D03*
X197075000Y-103255000D03*
X197075000Y-102755000D03*
X197075000Y-102255000D03*
X197075000Y-101755000D03*
X197075000Y-101255000D03*
X197075000Y-100755000D03*
X197075000Y-100255000D03*
X197075000Y-99755000D03*
X197075000Y-99255000D03*
X197075000Y-98755000D03*
X197075000Y-98255000D03*
X197075000Y-97755000D03*
D27*
X176582500Y-114110000D03*
X176582500Y-114910000D03*
X176582500Y-115710000D03*
X176582500Y-116510000D03*
X176582500Y-117310000D03*
X176582500Y-118110000D03*
X176582500Y-118910000D03*
X176582500Y-119710000D03*
X176582500Y-120510000D03*
X176582500Y-121310000D03*
X176582500Y-122110000D03*
D28*
X178245000Y-123772500D03*
X179045000Y-123772500D03*
X179845000Y-123772500D03*
X180645000Y-123772500D03*
X181445000Y-123772500D03*
X182245000Y-123772500D03*
X183045000Y-123772500D03*
X183845000Y-123772500D03*
X184645000Y-123772500D03*
X185445000Y-123772500D03*
X186245000Y-123772500D03*
D27*
X187907500Y-122110000D03*
X187907500Y-121310000D03*
X187907500Y-120510000D03*
X187907500Y-119710000D03*
X187907500Y-118910000D03*
X187907500Y-118110000D03*
X187907500Y-117310000D03*
X187907500Y-116510000D03*
X187907500Y-115710000D03*
X187907500Y-114910000D03*
X187907500Y-114110000D03*
D28*
X186245000Y-112447500D03*
X185445000Y-112447500D03*
X184645000Y-112447500D03*
X183845000Y-112447500D03*
X183045000Y-112447500D03*
X182245000Y-112447500D03*
X181445000Y-112447500D03*
X180645000Y-112447500D03*
X179845000Y-112447500D03*
X179045000Y-112447500D03*
X178245000Y-112447500D03*
D29*
X195818800Y-115092900D03*
X194868800Y-115092900D03*
X193918800Y-115092900D03*
X193918800Y-117367900D03*
X195818800Y-117367900D03*
D30*
X167640000Y-110490000D03*
D31*
X167640000Y-113030000D03*
X167640000Y-115570000D03*
X167640000Y-118110000D03*
X167640000Y-120650000D03*
X167640000Y-123190000D03*
D32*
X190487500Y-112395000D03*
X192387500Y-112395000D03*
X190517500Y-120015000D03*
X192417500Y-120015000D03*
D33*
X175575000Y-124460000D03*
X173675000Y-124460000D03*
D32*
X183200000Y-82550000D03*
X185100000Y-82550000D03*
D34*
X199961500Y-104074000D03*
X199961500Y-102174000D03*
D32*
X194630000Y-120015000D03*
X196530000Y-120015000D03*
X194630000Y-112395000D03*
X196530000Y-112395000D03*
M02*
