G04 #@! TF.GenerationSoftware,KiCad,Pcbnew,6.0.8-f2edbf62ab~116~ubuntu22.04.1*
G04 #@! TF.CreationDate,2022-10-13T11:13:52+02:00*
G04 #@! TF.ProjectId,PCMCIA_SRAM,50434d43-4941-45f5-9352-414d2e6b6963,v1.0*
G04 #@! TF.SameCoordinates,Original*
G04 #@! TF.FileFunction,Copper,L2,Bot*
G04 #@! TF.FilePolarity,Positive*
%FSLAX46Y46*%
G04 Gerber Fmt 4.6, Leading zero omitted, Abs format (unit mm)*
G04 Created by KiCad (PCBNEW 6.0.8-f2edbf62ab~116~ubuntu22.04.1) date 2022-10-13 11:13:52*
%MOMM*%
%LPD*%
G01*
G04 APERTURE LIST*
G04 #@! TA.AperFunction,SMDPad,CuDef*
%ADD10R,3.000000X0.600000*%
G04 #@! TD*
G04 #@! TA.AperFunction,ComponentPad*
%ADD11R,1.700000X1.700000*%
G04 #@! TD*
G04 #@! TA.AperFunction,ComponentPad*
%ADD12O,1.700000X1.700000*%
G04 #@! TD*
G04 #@! TA.AperFunction,ViaPad*
%ADD13C,0.600000*%
G04 #@! TD*
G04 #@! TA.AperFunction,Conductor*
%ADD14C,0.400000*%
G04 #@! TD*
G04 #@! TA.AperFunction,Conductor*
%ADD15C,0.250000*%
G04 #@! TD*
G04 APERTURE END LIST*
D10*
X205025000Y-124465000D03*
X205025000Y-123195000D03*
X205025000Y-121925000D03*
X205025000Y-120655000D03*
X205025000Y-119385000D03*
X205025000Y-118115000D03*
X205025000Y-116845000D03*
X205025000Y-115575000D03*
X205025000Y-114305000D03*
X205025000Y-113035000D03*
X205025000Y-111765000D03*
X205025000Y-110495000D03*
X205025000Y-109225000D03*
X205025000Y-107955000D03*
X205025000Y-106685000D03*
X205025000Y-105415000D03*
X205025000Y-104145000D03*
X205025000Y-102875000D03*
X205025000Y-101605000D03*
X205025000Y-100335000D03*
X205025000Y-99065000D03*
X205025000Y-97795000D03*
X205025000Y-96525000D03*
X205025000Y-95255000D03*
X205025000Y-93985000D03*
X205025000Y-92715000D03*
X205025000Y-91445000D03*
X205025000Y-90175000D03*
X205025000Y-88905000D03*
X205025000Y-87635000D03*
X205025000Y-86365000D03*
X205025000Y-85095000D03*
X205025000Y-83825000D03*
X205025000Y-82555000D03*
D11*
X167640000Y-110490000D03*
D12*
X167640000Y-113030000D03*
X167640000Y-115570000D03*
X167640000Y-118110000D03*
X167640000Y-120650000D03*
X167640000Y-123190000D03*
D13*
X172085000Y-124460000D03*
X184770000Y-120510000D03*
X188595000Y-124460000D03*
X198755000Y-124460000D03*
X192405000Y-121285000D03*
X182245000Y-118110000D03*
X202565000Y-124460000D03*
X202570000Y-123195000D03*
X202565000Y-82550000D03*
X186690000Y-107315000D03*
X192405000Y-113665000D03*
X200977500Y-100965000D03*
X186690000Y-103187500D03*
X198278936Y-103098436D03*
X202565000Y-102870000D03*
X193675000Y-120015000D03*
X193675000Y-123190000D03*
X181610000Y-121920000D03*
X179705000Y-120650000D03*
X184150000Y-84458607D03*
X202565000Y-84455000D03*
X171450000Y-118745000D03*
X183515000Y-85725000D03*
X202565000Y-85725000D03*
X172085000Y-118110000D03*
X182945010Y-86992000D03*
X202565000Y-86995000D03*
X172720000Y-117475008D03*
X181610000Y-88265000D03*
X202565000Y-88265000D03*
X194310000Y-89535000D03*
X173355000Y-116840000D03*
X202565000Y-89535000D03*
X173990000Y-104140000D03*
X173990000Y-115570000D03*
X202565000Y-90805000D03*
X197075000Y-92710000D03*
X202565000Y-92075000D03*
X184785000Y-93345000D03*
X202565000Y-93345000D03*
X177575000Y-94615000D03*
X202565000Y-94615000D03*
X176530000Y-95885000D03*
X202565000Y-95885000D03*
X175260000Y-97155000D03*
X202565000Y-97155000D03*
X179070000Y-98425000D03*
X202565000Y-98425000D03*
X180340000Y-99695000D03*
X202565000Y-99695000D03*
X181610000Y-102235000D03*
X201930000Y-102235000D03*
X179070000Y-104140000D03*
X202565000Y-104775000D03*
X179705000Y-104775000D03*
X202565000Y-106045000D03*
X180340000Y-105410000D03*
X202565000Y-107315000D03*
X180975000Y-106045000D03*
X202565000Y-108585000D03*
X197419990Y-109855000D03*
X202565000Y-109855000D03*
X182245000Y-108585000D03*
X202565000Y-111125000D03*
X181445000Y-109220000D03*
X202565000Y-112395000D03*
X180645000Y-109855000D03*
X202565000Y-113665000D03*
X179845000Y-110474990D03*
X202565000Y-114935000D03*
X179045000Y-111100000D03*
X201930000Y-115570000D03*
X202565000Y-117475000D03*
X191135000Y-115570000D03*
X201295000Y-118745000D03*
X191770000Y-116840000D03*
X191135000Y-117475000D03*
X201930000Y-120650000D03*
X190500000Y-118110000D03*
X201930000Y-121925000D03*
X199390000Y-85090000D03*
X199390000Y-86360000D03*
X200025000Y-87630000D03*
X190500000Y-92075000D03*
X200660000Y-88900000D03*
X200660000Y-92075000D03*
X178435000Y-90805000D03*
X174625000Y-103505000D03*
X174625000Y-114935000D03*
X175890000Y-96525000D03*
X174620000Y-97795000D03*
X179700000Y-99065000D03*
X180970000Y-100335000D03*
X182245000Y-101600000D03*
X190500000Y-114935000D03*
X201930000Y-118110000D03*
X202565000Y-120015000D03*
X202565000Y-121285000D03*
X186055000Y-121920000D03*
X184785000Y-86360000D03*
X176212500Y-89217500D03*
X175895000Y-103505000D03*
X175895010Y-109855000D03*
X168275000Y-90170000D03*
X178435008Y-121920000D03*
X180022500Y-85090000D03*
X193040705Y-85089295D03*
X179070000Y-121285000D03*
X178435000Y-83820000D03*
D14*
X203835000Y-123190000D02*
X203835000Y-123190000D01*
X172085000Y-124460000D02*
X188595000Y-124460000D01*
X182370000Y-118110000D02*
X182245000Y-118110000D01*
X184770000Y-120510000D02*
X182370000Y-118110000D01*
X188595000Y-124460000D02*
X198755000Y-124460000D01*
X203835000Y-124460000D02*
X202565000Y-124460000D01*
X198755000Y-124460000D02*
X203835000Y-124460000D01*
X202565000Y-123200000D02*
X202570000Y-123195000D01*
X202565000Y-124460000D02*
X202565000Y-123200000D01*
X186690000Y-113665000D02*
X191980736Y-113665000D01*
X182245000Y-118110000D02*
X186690000Y-113665000D01*
X191980736Y-113665000D02*
X192405000Y-113665000D01*
X202570000Y-124465000D02*
X202565000Y-124460000D01*
X205025000Y-124465000D02*
X202570000Y-124465000D01*
X205025000Y-123195000D02*
X202570000Y-123195000D01*
X202565000Y-83185000D02*
X202565000Y-82550000D01*
X203205000Y-83825000D02*
X202565000Y-83185000D01*
X205100000Y-83825000D02*
X203205000Y-83825000D01*
X202570000Y-82555000D02*
X202565000Y-82550000D01*
X205105000Y-82555000D02*
X202570000Y-82555000D01*
D15*
X200977500Y-100965000D02*
X181954998Y-100965000D01*
X181954998Y-100965000D02*
X181610000Y-100965000D01*
X181610000Y-100965000D02*
X181229000Y-101346000D01*
D14*
X202247500Y-103187500D02*
X202565000Y-102870000D01*
X186690000Y-103187500D02*
X202247500Y-103187500D01*
X202570000Y-102875000D02*
X202565000Y-102870000D01*
X205025000Y-102875000D02*
X202570000Y-102875000D01*
D15*
X193675000Y-123190000D02*
X193675000Y-120015000D01*
X168815001Y-120556411D02*
X170813590Y-122555000D01*
X167640000Y-113030000D02*
X168815001Y-114205001D01*
X168815001Y-114205001D02*
X168815001Y-120556411D01*
X170813590Y-122555000D02*
X180975000Y-122555000D01*
X180975000Y-122555000D02*
X181610000Y-121920000D01*
X170180000Y-106680000D02*
X170180000Y-93346410D01*
X170815000Y-107315000D02*
X170180000Y-106680000D01*
X170180000Y-93346410D02*
X179071410Y-84455000D01*
X179071410Y-84455000D02*
X202140736Y-84455000D01*
X170815000Y-119380000D02*
X170815000Y-107315000D01*
X202140736Y-84455000D02*
X202565000Y-84455000D01*
X172085000Y-120650000D02*
X170815000Y-119380000D01*
X179705000Y-120650000D02*
X172085000Y-120650000D01*
X202140736Y-85725000D02*
X202565000Y-85725000D01*
X170815000Y-93347820D02*
X178437820Y-85725000D01*
X170815000Y-106045000D02*
X170815000Y-93347820D01*
X171450000Y-118745000D02*
X171450000Y-106680000D01*
X171450000Y-106680000D02*
X170815000Y-106045000D01*
X178437820Y-85725000D02*
X202140736Y-85725000D01*
X182520746Y-86992000D02*
X182945010Y-86992000D01*
X172085000Y-118110000D02*
X172085000Y-106045000D01*
X179708000Y-86992000D02*
X182520746Y-86992000D01*
X172085000Y-106045000D02*
X171450000Y-105410000D01*
X171450000Y-105410000D02*
X171450000Y-95250000D01*
X171450000Y-95250000D02*
X179708000Y-86992000D01*
X182945010Y-86992000D02*
X202562000Y-86992000D01*
X202562000Y-86992000D02*
X202565000Y-86995000D01*
X172720000Y-105410000D02*
X172085000Y-104775000D01*
X179071410Y-88265000D02*
X202140736Y-88265000D01*
X172085000Y-95251410D02*
X179071410Y-88265000D01*
X202140736Y-88265000D02*
X202565000Y-88265000D01*
X172085000Y-104775000D02*
X172085000Y-95251410D01*
X172720000Y-117475008D02*
X172720000Y-105410000D01*
X172720000Y-95252820D02*
X178437820Y-89535000D01*
X178437820Y-89535000D02*
X202140736Y-89535000D01*
X173355000Y-116840000D02*
X173355000Y-104775000D01*
X173355000Y-104775000D02*
X172720000Y-104140000D01*
X172720000Y-104140000D02*
X172720000Y-95252820D01*
X202140736Y-89535000D02*
X202565000Y-89535000D01*
X173990000Y-115570000D02*
X173990000Y-104140000D01*
X173355000Y-103505000D02*
X173355000Y-97156410D01*
X179706410Y-90805000D02*
X202140736Y-90805000D01*
X173990000Y-104140000D02*
X173355000Y-103505000D01*
X202140736Y-90805000D02*
X202565000Y-90805000D01*
X173355000Y-97156410D02*
X179706410Y-90805000D01*
X197075000Y-92710000D02*
X201930000Y-92710000D01*
X201930000Y-92710000D02*
X202565000Y-92075000D01*
X184785000Y-93345000D02*
X202565000Y-93345000D01*
X177575000Y-94615000D02*
X202565000Y-94615000D01*
X176530000Y-95885000D02*
X202565000Y-95885000D01*
X175260000Y-97155000D02*
X202565000Y-97155000D01*
X179070000Y-98425000D02*
X179070000Y-98425000D01*
X179070000Y-98425000D02*
X202565000Y-98425000D01*
X180340000Y-99695000D02*
X202565000Y-99695000D01*
X181610000Y-102235000D02*
X201930000Y-102235000D01*
X201930000Y-104140000D02*
X202565000Y-104775000D01*
X179070000Y-104140000D02*
X201930000Y-104140000D01*
X201295000Y-104775000D02*
X202565000Y-106045000D01*
X179705000Y-104775000D02*
X201295000Y-104775000D01*
X200660000Y-105410000D02*
X202565000Y-107315000D01*
X180340000Y-105410000D02*
X200660000Y-105410000D01*
X202265001Y-108285001D02*
X202565000Y-108585000D01*
X180975000Y-106045000D02*
X200025000Y-106045000D01*
X200025000Y-106045000D02*
X202265001Y-108285001D01*
X197419990Y-109855000D02*
X202565000Y-109855000D01*
X194950640Y-108585000D02*
X197490640Y-111125000D01*
X182245000Y-108585000D02*
X194950640Y-108585000D01*
X202140736Y-111125000D02*
X202565000Y-111125000D01*
X197490640Y-111125000D02*
X202140736Y-111125000D01*
X194949230Y-109220000D02*
X198124230Y-112395000D01*
X198124230Y-112395000D02*
X202140736Y-112395000D01*
X181445000Y-109220000D02*
X194949230Y-109220000D01*
X202140736Y-112395000D02*
X202565000Y-112395000D01*
X202140736Y-113665000D02*
X202565000Y-113665000D01*
X180645000Y-109855000D02*
X194947820Y-109855000D01*
X194947820Y-109855000D02*
X198757820Y-113665000D01*
X198757820Y-113665000D02*
X202140736Y-113665000D01*
X180269264Y-110474990D02*
X180284274Y-110490000D01*
X198756410Y-114300000D02*
X201930000Y-114300000D01*
X201930000Y-114300000D02*
X202265001Y-114635001D01*
X194946410Y-110490000D02*
X198756410Y-114300000D01*
X179845000Y-110474990D02*
X180269264Y-110474990D01*
X202265001Y-114635001D02*
X202565000Y-114935000D01*
X180284274Y-110490000D02*
X194946410Y-110490000D01*
X201295000Y-114935000D02*
X201630001Y-115270001D01*
X198755000Y-114935000D02*
X201295000Y-114935000D01*
X201630001Y-115270001D02*
X201930000Y-115570000D01*
X194920000Y-111100000D02*
X198755000Y-114935000D01*
X179045000Y-111100000D02*
X194920000Y-111100000D01*
X199394232Y-117475000D02*
X197489232Y-115570000D01*
X202565000Y-117475000D02*
X199394232Y-117475000D01*
X191559264Y-115570000D02*
X191135000Y-115570000D01*
X197489232Y-115570000D02*
X191559264Y-115570000D01*
X198122820Y-116840000D02*
X192194264Y-116840000D01*
X192194264Y-116840000D02*
X191770000Y-116840000D01*
X200027820Y-118745000D02*
X198122820Y-116840000D01*
X201295000Y-118745000D02*
X200027820Y-118745000D01*
X201505736Y-120650000D02*
X201930000Y-120650000D01*
X201296410Y-120650000D02*
X201505736Y-120650000D01*
X191135000Y-117475000D02*
X198121410Y-117475000D01*
X198121410Y-117475000D02*
X201296410Y-120650000D01*
X190500000Y-118110000D02*
X198120000Y-118110000D01*
X201930000Y-121920000D02*
X201930000Y-121925000D01*
X198120000Y-118110000D02*
X201930000Y-121920000D01*
X199395000Y-85095000D02*
X199390000Y-85090000D01*
X205100000Y-85095000D02*
X199395000Y-85095000D01*
X205105000Y-85090000D02*
X205100000Y-85095000D01*
X199395000Y-86365000D02*
X199390000Y-86360000D01*
X205105000Y-86365000D02*
X199395000Y-86365000D01*
X200030000Y-87635000D02*
X200025000Y-87630000D01*
X205105000Y-87635000D02*
X200030000Y-87635000D01*
X190500000Y-92075000D02*
X200660000Y-92075000D01*
X200665000Y-88905000D02*
X200660000Y-88900000D01*
X205105000Y-88905000D02*
X200665000Y-88905000D01*
X179065000Y-90175000D02*
X178435000Y-90805000D01*
X205105000Y-90175000D02*
X179065000Y-90175000D01*
X174625000Y-103504296D02*
X174625000Y-114935000D01*
X173990352Y-102869648D02*
X174625000Y-103504296D01*
X173990000Y-97157820D02*
X173990000Y-102870000D01*
X173990000Y-102870000D02*
X173990352Y-102869648D01*
X179702820Y-91445000D02*
X173990000Y-97157820D01*
X205105000Y-91445000D02*
X179702820Y-91445000D01*
X205105000Y-96525000D02*
X175890000Y-96525000D01*
X205105000Y-97795000D02*
X174620000Y-97795000D01*
X205105000Y-99065000D02*
X179700000Y-99065000D01*
X205100000Y-100335000D02*
X180970000Y-100335000D01*
X205105000Y-100330000D02*
X205100000Y-100335000D01*
X182250000Y-101605000D02*
X182245000Y-101600000D01*
X205100000Y-101605000D02*
X182250000Y-101605000D01*
X205105000Y-101600000D02*
X205100000Y-101605000D01*
X197490642Y-114935000D02*
X190924264Y-114935000D01*
X202574999Y-116195001D02*
X198750643Y-116195001D01*
X190924264Y-114935000D02*
X190500000Y-114935000D01*
X198750643Y-116195001D02*
X197490642Y-114935000D01*
X203200000Y-115570000D02*
X202574999Y-116195001D01*
X205105000Y-115570000D02*
X203200000Y-115570000D01*
X202229999Y-118409999D02*
X201930000Y-118110000D01*
X203205000Y-119385000D02*
X202229999Y-118409999D01*
X205105000Y-119385000D02*
X203205000Y-119385000D01*
X203205000Y-120655000D02*
X202565000Y-120015000D01*
X205105000Y-120655000D02*
X203205000Y-120655000D01*
X203205000Y-121925000D02*
X202565000Y-121285000D01*
X205100000Y-121925000D02*
X203205000Y-121925000D01*
X205105000Y-121920000D02*
X205100000Y-121925000D01*
X184785000Y-123190000D02*
X186055000Y-121920000D01*
X167640000Y-120650000D02*
X170180000Y-123190000D01*
X170180000Y-123190000D02*
X184785000Y-123190000D01*
X179070000Y-86360000D02*
X176512499Y-88917501D01*
X176512499Y-88917501D02*
X176212500Y-89217500D01*
X184785000Y-86360000D02*
X179070000Y-86360000D01*
X175895000Y-103505000D02*
X175895000Y-109854990D01*
X175895000Y-109854990D02*
X175895010Y-109855000D01*
X178010744Y-121920000D02*
X178435008Y-121920000D01*
X168910000Y-90805000D02*
X168910000Y-107950000D01*
X168910000Y-107950000D02*
X169545000Y-108585000D01*
X169545000Y-108585000D02*
X169545000Y-120650000D01*
X170815000Y-121920000D02*
X178010744Y-121920000D01*
X168275000Y-90170000D02*
X168910000Y-90805000D01*
X169545000Y-120650000D02*
X170815000Y-121920000D01*
X180023205Y-85089295D02*
X180022500Y-85090000D01*
X193040705Y-85089295D02*
X180023205Y-85089295D01*
X178435000Y-84455000D02*
X178435000Y-83820000D01*
X171450000Y-121285000D02*
X170180000Y-120015000D01*
X169545000Y-107315000D02*
X169545000Y-93345000D01*
X179070000Y-121285000D02*
X171450000Y-121285000D01*
X170180000Y-120015000D02*
X170180000Y-107950000D01*
X170180000Y-107950000D02*
X169545000Y-107315000D01*
X169545000Y-93345000D02*
X178435000Y-84455000D01*
G04 #@! TA.AperFunction,Conductor*
G36*
X178211791Y-98448502D02*
G01*
X178258284Y-98502158D01*
X178269069Y-98542204D01*
X178274163Y-98594160D01*
X178331418Y-98766273D01*
X178425380Y-98921424D01*
X178551382Y-99051902D01*
X178703159Y-99151222D01*
X178844477Y-99203778D01*
X178901349Y-99246268D01*
X178920111Y-99282101D01*
X178961418Y-99406273D01*
X178965065Y-99412295D01*
X178965066Y-99412297D01*
X179003232Y-99475316D01*
X179055380Y-99561424D01*
X179181382Y-99691902D01*
X179333159Y-99791222D01*
X179489684Y-99849433D01*
X179546557Y-99891924D01*
X179565319Y-99927757D01*
X179601418Y-100036273D01*
X179695380Y-100191424D01*
X179821382Y-100321902D01*
X179973159Y-100421222D01*
X180114477Y-100473778D01*
X180171349Y-100516268D01*
X180190111Y-100552101D01*
X180231418Y-100676273D01*
X180235065Y-100682295D01*
X180235066Y-100682297D01*
X180273232Y-100745316D01*
X180325380Y-100831424D01*
X180451382Y-100961902D01*
X180603159Y-101061222D01*
X180609763Y-101063678D01*
X180609765Y-101063679D01*
X180766558Y-101121990D01*
X180766560Y-101121990D01*
X180773168Y-101124448D01*
X180856995Y-101135633D01*
X180945980Y-101147507D01*
X180945984Y-101147507D01*
X180952961Y-101148438D01*
X180959972Y-101147800D01*
X180959976Y-101147800D01*
X181102459Y-101134832D01*
X181133600Y-101131998D01*
X181140302Y-101129820D01*
X181140304Y-101129820D01*
X181299409Y-101078124D01*
X181299412Y-101078123D01*
X181306108Y-101075947D01*
X181355722Y-101046371D01*
X181424474Y-101028672D01*
X181491884Y-101050954D01*
X181536546Y-101106142D01*
X181544281Y-101176716D01*
X181526148Y-101222856D01*
X181516235Y-101238238D01*
X181513826Y-101244858D01*
X181513824Y-101244861D01*
X181464358Y-101380769D01*
X181422264Y-101437940D01*
X181386564Y-101456951D01*
X181263579Y-101498818D01*
X181257575Y-101502512D01*
X181115095Y-101590166D01*
X181115092Y-101590168D01*
X181109088Y-101593862D01*
X181104053Y-101598793D01*
X181104050Y-101598795D01*
X180984525Y-101715843D01*
X180979493Y-101720771D01*
X180881235Y-101873238D01*
X180878826Y-101879858D01*
X180878824Y-101879861D01*
X180821606Y-102037066D01*
X180819197Y-102043685D01*
X180796463Y-102223640D01*
X180814163Y-102404160D01*
X180871418Y-102576273D01*
X180875065Y-102582295D01*
X180875066Y-102582297D01*
X180955581Y-102715243D01*
X180965380Y-102731424D01*
X181091382Y-102861902D01*
X181097278Y-102865760D01*
X181204743Y-102936083D01*
X181243159Y-102961222D01*
X181249763Y-102963678D01*
X181249765Y-102963679D01*
X181406558Y-103021990D01*
X181406560Y-103021990D01*
X181413168Y-103024448D01*
X181496995Y-103035633D01*
X181585980Y-103047507D01*
X181585984Y-103047507D01*
X181592961Y-103048438D01*
X181599972Y-103047800D01*
X181599976Y-103047800D01*
X181742459Y-103034832D01*
X181773600Y-103031998D01*
X181780302Y-103029820D01*
X181780304Y-103029820D01*
X181939409Y-102978124D01*
X181939412Y-102978123D01*
X181946108Y-102975947D01*
X182059221Y-102908518D01*
X182096541Y-102886271D01*
X182161058Y-102868500D01*
X185772409Y-102868500D01*
X185840530Y-102888502D01*
X185887023Y-102942158D01*
X185897415Y-103010291D01*
X185876463Y-103176140D01*
X185877151Y-103183153D01*
X185891269Y-103327140D01*
X185894163Y-103356660D01*
X185894262Y-103356959D01*
X185889063Y-103425094D01*
X185846246Y-103481726D01*
X185779609Y-103506220D01*
X185771218Y-103506500D01*
X179617338Y-103506500D01*
X179549824Y-103486885D01*
X179452456Y-103425094D01*
X179426666Y-103408727D01*
X179397463Y-103398328D01*
X179262425Y-103350243D01*
X179262420Y-103350242D01*
X179255790Y-103347881D01*
X179248802Y-103347048D01*
X179248799Y-103347047D01*
X179120462Y-103331744D01*
X179075680Y-103326404D01*
X179068677Y-103327140D01*
X179068676Y-103327140D01*
X178902288Y-103344628D01*
X178902286Y-103344629D01*
X178895288Y-103345364D01*
X178723579Y-103403818D01*
X178688996Y-103425094D01*
X178575095Y-103495166D01*
X178575092Y-103495168D01*
X178569088Y-103498862D01*
X178564053Y-103503793D01*
X178564050Y-103503795D01*
X178444525Y-103620843D01*
X178439493Y-103625771D01*
X178341235Y-103778238D01*
X178338826Y-103784858D01*
X178338824Y-103784861D01*
X178281606Y-103942066D01*
X178279197Y-103948685D01*
X178256463Y-104128640D01*
X178274163Y-104309160D01*
X178331418Y-104481273D01*
X178335065Y-104487295D01*
X178335066Y-104487297D01*
X178376260Y-104555316D01*
X178425380Y-104636424D01*
X178551382Y-104766902D01*
X178703159Y-104866222D01*
X178852080Y-104921606D01*
X178908953Y-104964096D01*
X178927715Y-104999929D01*
X178966418Y-105116273D01*
X179060380Y-105271424D01*
X179186382Y-105401902D01*
X179338159Y-105501222D01*
X179487080Y-105556606D01*
X179543953Y-105599096D01*
X179562715Y-105634929D01*
X179601418Y-105751273D01*
X179605065Y-105757295D01*
X179605066Y-105757297D01*
X179646260Y-105825316D01*
X179695380Y-105906424D01*
X179821382Y-106036902D01*
X179973159Y-106136222D01*
X180122080Y-106191606D01*
X180178953Y-106234096D01*
X180197715Y-106269929D01*
X180236418Y-106386273D01*
X180330380Y-106541424D01*
X180456382Y-106671902D01*
X180608159Y-106771222D01*
X180614763Y-106773678D01*
X180614765Y-106773679D01*
X180771558Y-106831990D01*
X180771560Y-106831990D01*
X180778168Y-106834448D01*
X180861995Y-106845633D01*
X180950980Y-106857507D01*
X180950984Y-106857507D01*
X180957961Y-106858438D01*
X180964972Y-106857800D01*
X180964976Y-106857800D01*
X181107459Y-106844832D01*
X181138600Y-106841998D01*
X181145302Y-106839820D01*
X181145304Y-106839820D01*
X181304409Y-106788124D01*
X181304412Y-106788123D01*
X181311108Y-106785947D01*
X181461540Y-106696271D01*
X181526058Y-106678500D01*
X199710406Y-106678500D01*
X199778527Y-106698502D01*
X199799501Y-106715405D01*
X201729750Y-108645655D01*
X201763776Y-108707967D01*
X201766054Y-108722453D01*
X201769163Y-108754160D01*
X201826418Y-108926273D01*
X201830065Y-108932295D01*
X201830066Y-108932297D01*
X201889375Y-109030229D01*
X201907554Y-109098859D01*
X201885743Y-109166422D01*
X201830867Y-109211468D01*
X201781599Y-109221500D01*
X197967328Y-109221500D01*
X197899814Y-109201885D01*
X197843933Y-109166422D01*
X197776656Y-109123727D01*
X197747453Y-109113328D01*
X197612415Y-109065243D01*
X197612410Y-109065242D01*
X197605780Y-109062881D01*
X197598792Y-109062048D01*
X197598789Y-109062047D01*
X197475688Y-109047368D01*
X197425670Y-109041404D01*
X197418667Y-109042140D01*
X197418666Y-109042140D01*
X197252278Y-109059628D01*
X197252276Y-109059629D01*
X197245278Y-109060364D01*
X197073569Y-109118818D01*
X197034914Y-109142599D01*
X196925085Y-109210166D01*
X196925082Y-109210168D01*
X196919078Y-109213862D01*
X196914043Y-109218793D01*
X196914040Y-109218795D01*
X196911278Y-109221500D01*
X196789483Y-109340771D01*
X196788748Y-109340021D01*
X196735551Y-109376501D01*
X196664586Y-109378623D01*
X196607360Y-109345815D01*
X195454292Y-108192747D01*
X195446752Y-108184461D01*
X195442640Y-108177982D01*
X195392988Y-108131356D01*
X195390147Y-108128602D01*
X195370410Y-108108865D01*
X195367213Y-108106385D01*
X195358191Y-108098680D01*
X195325961Y-108068414D01*
X195319015Y-108064595D01*
X195319012Y-108064593D01*
X195308206Y-108058652D01*
X195291687Y-108047801D01*
X195284169Y-108041970D01*
X195275681Y-108035386D01*
X195268412Y-108032241D01*
X195268408Y-108032238D01*
X195235103Y-108017826D01*
X195224453Y-108012609D01*
X195185700Y-107991305D01*
X195166077Y-107986267D01*
X195147374Y-107979863D01*
X195136060Y-107974967D01*
X195136059Y-107974967D01*
X195128785Y-107971819D01*
X195120962Y-107970580D01*
X195120952Y-107970577D01*
X195085116Y-107964901D01*
X195073496Y-107962495D01*
X195038351Y-107953472D01*
X195038350Y-107953472D01*
X195030670Y-107951500D01*
X195010416Y-107951500D01*
X194990705Y-107949949D01*
X194978526Y-107948020D01*
X194970697Y-107946780D01*
X194962805Y-107947526D01*
X194926679Y-107950941D01*
X194914821Y-107951500D01*
X182792338Y-107951500D01*
X182724824Y-107931885D01*
X182658680Y-107889909D01*
X182601666Y-107853727D01*
X182572463Y-107843328D01*
X182437425Y-107795243D01*
X182437420Y-107795242D01*
X182430790Y-107792881D01*
X182423802Y-107792048D01*
X182423799Y-107792047D01*
X182300698Y-107777368D01*
X182250680Y-107771404D01*
X182243677Y-107772140D01*
X182243676Y-107772140D01*
X182077288Y-107789628D01*
X182077286Y-107789629D01*
X182070288Y-107790364D01*
X181898579Y-107848818D01*
X181892575Y-107852512D01*
X181750095Y-107940166D01*
X181750092Y-107940168D01*
X181744088Y-107943862D01*
X181739053Y-107948793D01*
X181739050Y-107948795D01*
X181619525Y-108065843D01*
X181614493Y-108070771D01*
X181516235Y-108223238D01*
X181513826Y-108229858D01*
X181513824Y-108229861D01*
X181476452Y-108332540D01*
X181434358Y-108389711D01*
X181371222Y-108414755D01*
X181277288Y-108424628D01*
X181277286Y-108424629D01*
X181270288Y-108425364D01*
X181098579Y-108483818D01*
X181036109Y-108522250D01*
X180950095Y-108575166D01*
X180950092Y-108575168D01*
X180944088Y-108578862D01*
X180939053Y-108583793D01*
X180939050Y-108583795D01*
X180819525Y-108700843D01*
X180814493Y-108705771D01*
X180716235Y-108858238D01*
X180713826Y-108864858D01*
X180713824Y-108864861D01*
X180676452Y-108967540D01*
X180634358Y-109024711D01*
X180571222Y-109049755D01*
X180477288Y-109059628D01*
X180477286Y-109059629D01*
X180470288Y-109060364D01*
X180298579Y-109118818D01*
X180259924Y-109142599D01*
X180150095Y-109210166D01*
X180150092Y-109210168D01*
X180144088Y-109213862D01*
X180139053Y-109218793D01*
X180139050Y-109218795D01*
X180136288Y-109221500D01*
X180014493Y-109340771D01*
X179916235Y-109493238D01*
X179913824Y-109499862D01*
X179913823Y-109499864D01*
X179882133Y-109586932D01*
X179840039Y-109644104D01*
X179776903Y-109669148D01*
X179677288Y-109679618D01*
X179677286Y-109679619D01*
X179670288Y-109680354D01*
X179498579Y-109738808D01*
X179492575Y-109742502D01*
X179350095Y-109830156D01*
X179350092Y-109830158D01*
X179344088Y-109833852D01*
X179339053Y-109838783D01*
X179339050Y-109838785D01*
X179227223Y-109948295D01*
X179214493Y-109960761D01*
X179116235Y-110113228D01*
X179113824Y-110119852D01*
X179113823Y-110119854D01*
X179080233Y-110212142D01*
X179038139Y-110269314D01*
X178975003Y-110294358D01*
X178877288Y-110304628D01*
X178877286Y-110304629D01*
X178870288Y-110305364D01*
X178698579Y-110363818D01*
X178692575Y-110367512D01*
X178550095Y-110455166D01*
X178550092Y-110455168D01*
X178544088Y-110458862D01*
X178539053Y-110463793D01*
X178539050Y-110463795D01*
X178430939Y-110569666D01*
X178414493Y-110585771D01*
X178316235Y-110738238D01*
X178254197Y-110908685D01*
X178231463Y-111088640D01*
X178249163Y-111269160D01*
X178306418Y-111441273D01*
X178400380Y-111596424D01*
X178526382Y-111726902D01*
X178678159Y-111826222D01*
X178684763Y-111828678D01*
X178684765Y-111828679D01*
X178841558Y-111886990D01*
X178841560Y-111886990D01*
X178848168Y-111889448D01*
X178931995Y-111900633D01*
X179020980Y-111912507D01*
X179020984Y-111912507D01*
X179027961Y-111913438D01*
X179034972Y-111912800D01*
X179034976Y-111912800D01*
X179177459Y-111899832D01*
X179208600Y-111896998D01*
X179215302Y-111894820D01*
X179215304Y-111894820D01*
X179374409Y-111843124D01*
X179374412Y-111843123D01*
X179381108Y-111840947D01*
X179499443Y-111770405D01*
X179531541Y-111751271D01*
X179596058Y-111733500D01*
X194605406Y-111733500D01*
X194673527Y-111753502D01*
X194694501Y-111770405D01*
X197010500Y-114086405D01*
X197044526Y-114148717D01*
X197039461Y-114219533D01*
X196996914Y-114276368D01*
X196930394Y-114301179D01*
X196921405Y-114301500D01*
X191047338Y-114301500D01*
X190979824Y-114281885D01*
X190944295Y-114259338D01*
X190856666Y-114203727D01*
X190827463Y-114193328D01*
X190692425Y-114145243D01*
X190692420Y-114145242D01*
X190685790Y-114142881D01*
X190678802Y-114142048D01*
X190678799Y-114142047D01*
X190555698Y-114127368D01*
X190505680Y-114121404D01*
X190498677Y-114122140D01*
X190498676Y-114122140D01*
X190332288Y-114139628D01*
X190332286Y-114139629D01*
X190325288Y-114140364D01*
X190153579Y-114198818D01*
X190091109Y-114237250D01*
X190005095Y-114290166D01*
X190005092Y-114290168D01*
X189999088Y-114293862D01*
X189994053Y-114298793D01*
X189994050Y-114298795D01*
X189991616Y-114301179D01*
X189869493Y-114420771D01*
X189771235Y-114573238D01*
X189768826Y-114579858D01*
X189768824Y-114579861D01*
X189711606Y-114737066D01*
X189709197Y-114743685D01*
X189686463Y-114923640D01*
X189704163Y-115104160D01*
X189761418Y-115276273D01*
X189765065Y-115282295D01*
X189765066Y-115282297D01*
X189775978Y-115300314D01*
X189855380Y-115431424D01*
X189981382Y-115561902D01*
X190133159Y-115661222D01*
X190282080Y-115716606D01*
X190338953Y-115759096D01*
X190357715Y-115794929D01*
X190396418Y-115911273D01*
X190400065Y-115917295D01*
X190400066Y-115917297D01*
X190441260Y-115985316D01*
X190490380Y-116066424D01*
X190616382Y-116196902D01*
X190768159Y-116296222D01*
X190774763Y-116298678D01*
X190774765Y-116298679D01*
X190798054Y-116307340D01*
X190938168Y-116359448D01*
X190938934Y-116359550D01*
X190998050Y-116394185D01*
X191030179Y-116457495D01*
X191024708Y-116523645D01*
X190989358Y-116620769D01*
X190947263Y-116677940D01*
X190911564Y-116696951D01*
X190788579Y-116738818D01*
X190782575Y-116742512D01*
X190640095Y-116830166D01*
X190640092Y-116830168D01*
X190634088Y-116833862D01*
X190629053Y-116838793D01*
X190629050Y-116838795D01*
X190604622Y-116862717D01*
X190504493Y-116960771D01*
X190406235Y-117113238D01*
X190403826Y-117119858D01*
X190403824Y-117119861D01*
X190385517Y-117170160D01*
X190355680Y-117252138D01*
X190354358Y-117255769D01*
X190312264Y-117312940D01*
X190276564Y-117331951D01*
X190153579Y-117373818D01*
X190091109Y-117412250D01*
X190005095Y-117465166D01*
X190005092Y-117465168D01*
X189999088Y-117468862D01*
X189994053Y-117473793D01*
X189994050Y-117473795D01*
X189874525Y-117590843D01*
X189869493Y-117595771D01*
X189771235Y-117748238D01*
X189709197Y-117918685D01*
X189686463Y-118098640D01*
X189704163Y-118279160D01*
X189761418Y-118451273D01*
X189765065Y-118457295D01*
X189765066Y-118457297D01*
X189806260Y-118525316D01*
X189855380Y-118606424D01*
X189981382Y-118736902D01*
X190133159Y-118836222D01*
X190139763Y-118838678D01*
X190139765Y-118838679D01*
X190296558Y-118896990D01*
X190296560Y-118896990D01*
X190303168Y-118899448D01*
X190386995Y-118910633D01*
X190475980Y-118922507D01*
X190475984Y-118922507D01*
X190482961Y-118923438D01*
X190489972Y-118922800D01*
X190489976Y-118922800D01*
X190632459Y-118909832D01*
X190663600Y-118906998D01*
X190670302Y-118904820D01*
X190670304Y-118904820D01*
X190829409Y-118853124D01*
X190829412Y-118853123D01*
X190836108Y-118850947D01*
X190986540Y-118761271D01*
X191051058Y-118743500D01*
X197805406Y-118743500D01*
X197873527Y-118763502D01*
X197894501Y-118780405D01*
X201094206Y-121980110D01*
X201128232Y-122042422D01*
X201130509Y-122056908D01*
X201133474Y-122087142D01*
X201133476Y-122087149D01*
X201134163Y-122094160D01*
X201191418Y-122266273D01*
X201195065Y-122272295D01*
X201195066Y-122272297D01*
X201280017Y-122412568D01*
X201285380Y-122421424D01*
X201290269Y-122426487D01*
X201290270Y-122426488D01*
X201315719Y-122452841D01*
X201411382Y-122551902D01*
X201563159Y-122651222D01*
X201569763Y-122653678D01*
X201569765Y-122653679D01*
X201726558Y-122711990D01*
X201726560Y-122711990D01*
X201733168Y-122714448D01*
X201800821Y-122723475D01*
X201905980Y-122737507D01*
X201905984Y-122737507D01*
X201912961Y-122738438D01*
X201919972Y-122737800D01*
X201919976Y-122737800D01*
X202077371Y-122723475D01*
X202093600Y-122721998D01*
X202100302Y-122719820D01*
X202100304Y-122719820D01*
X202259409Y-122668124D01*
X202259412Y-122668123D01*
X202266108Y-122665947D01*
X202362513Y-122608478D01*
X202415860Y-122576677D01*
X202415862Y-122576676D01*
X202421912Y-122573069D01*
X202553266Y-122447982D01*
X202579374Y-122408686D01*
X202633731Y-122363017D01*
X202704150Y-122353985D01*
X202773416Y-122389320D01*
X202785231Y-122401135D01*
X202788355Y-122403558D01*
X202788359Y-122403562D01*
X202788424Y-122403612D01*
X202797445Y-122411317D01*
X202829679Y-122441586D01*
X202836627Y-122445405D01*
X202836629Y-122445407D01*
X202847432Y-122451346D01*
X202863959Y-122462202D01*
X202873698Y-122469757D01*
X202873700Y-122469758D01*
X202879960Y-122474614D01*
X202920540Y-122492174D01*
X202931188Y-122497391D01*
X202969940Y-122518695D01*
X202977621Y-122520667D01*
X202984986Y-122523583D01*
X202984137Y-122525728D01*
X203035133Y-122556088D01*
X203066818Y-122619622D01*
X203060769Y-122686040D01*
X203026522Y-122777394D01*
X203022895Y-122792649D01*
X203017369Y-122843514D01*
X203017000Y-122850328D01*
X203017000Y-122922885D01*
X203021475Y-122938124D01*
X203022865Y-122939329D01*
X203030548Y-122941000D01*
X203200000Y-122941000D01*
X203200000Y-123449000D01*
X203035116Y-123449000D01*
X203019877Y-123453475D01*
X203018672Y-123454865D01*
X203017001Y-123462548D01*
X203017001Y-123539669D01*
X203017371Y-123546490D01*
X203022895Y-123597352D01*
X203026521Y-123612604D01*
X203071678Y-123733059D01*
X203080212Y-123748647D01*
X203084549Y-123754434D01*
X203109398Y-123820940D01*
X203094346Y-123890322D01*
X203084549Y-123905566D01*
X203080212Y-123911353D01*
X203071678Y-123926941D01*
X203026522Y-124047394D01*
X203022895Y-124062649D01*
X203017369Y-124113514D01*
X203017000Y-124120328D01*
X203017000Y-124192885D01*
X203021475Y-124208124D01*
X203022865Y-124209329D01*
X203030548Y-124211000D01*
X203200000Y-124211000D01*
X203200000Y-124719000D01*
X203035116Y-124719000D01*
X203019877Y-124723475D01*
X203018672Y-124724865D01*
X203017001Y-124732548D01*
X203017001Y-124809669D01*
X203017371Y-124816490D01*
X203022895Y-124867352D01*
X203026522Y-124882607D01*
X203042328Y-124924771D01*
X203047511Y-124995578D01*
X203013590Y-125057947D01*
X202951334Y-125092076D01*
X202924346Y-125095000D01*
X166496000Y-125095000D01*
X166427879Y-125074998D01*
X166381386Y-125021342D01*
X166370000Y-124969000D01*
X166370000Y-124136750D01*
X166390002Y-124068629D01*
X166443658Y-124022136D01*
X166513932Y-124012032D01*
X166578512Y-124041526D01*
X166591234Y-124054249D01*
X166635902Y-124105815D01*
X166682866Y-124160032D01*
X166682869Y-124160035D01*
X166686250Y-124163938D01*
X166858126Y-124306632D01*
X167051000Y-124419338D01*
X167259692Y-124499030D01*
X167264760Y-124500061D01*
X167264763Y-124500062D01*
X167372017Y-124521883D01*
X167478597Y-124543567D01*
X167483772Y-124543757D01*
X167483774Y-124543757D01*
X167696673Y-124551564D01*
X167696677Y-124551564D01*
X167701837Y-124551753D01*
X167706957Y-124551097D01*
X167706959Y-124551097D01*
X167918288Y-124524025D01*
X167918289Y-124524025D01*
X167923416Y-124523368D01*
X167928366Y-124521883D01*
X168132429Y-124460661D01*
X168132434Y-124460659D01*
X168137384Y-124459174D01*
X168337994Y-124360896D01*
X168519860Y-124231173D01*
X168541781Y-124209329D01*
X168674435Y-124077137D01*
X168678096Y-124073489D01*
X168691919Y-124054253D01*
X168805435Y-123896277D01*
X168808453Y-123892077D01*
X168835146Y-123838069D01*
X168905136Y-123696453D01*
X168905137Y-123696451D01*
X168907430Y-123691811D01*
X168972370Y-123478069D01*
X169001529Y-123256590D01*
X169002676Y-123209654D01*
X169024336Y-123142042D01*
X169079111Y-123096874D01*
X169149611Y-123088490D01*
X169217733Y-123123637D01*
X169676343Y-123582247D01*
X169683887Y-123590537D01*
X169688000Y-123597018D01*
X169693777Y-123602443D01*
X169737667Y-123643658D01*
X169740509Y-123646413D01*
X169760230Y-123666134D01*
X169763425Y-123668612D01*
X169772447Y-123676318D01*
X169804679Y-123706586D01*
X169811628Y-123710406D01*
X169822432Y-123716346D01*
X169838956Y-123727199D01*
X169854959Y-123739613D01*
X169895543Y-123757176D01*
X169906173Y-123762383D01*
X169944940Y-123783695D01*
X169952617Y-123785666D01*
X169952622Y-123785668D01*
X169964558Y-123788732D01*
X169983266Y-123795137D01*
X170001855Y-123803181D01*
X170009680Y-123804420D01*
X170009682Y-123804421D01*
X170045519Y-123810097D01*
X170057140Y-123812504D01*
X170088959Y-123820673D01*
X170099970Y-123823500D01*
X170120231Y-123823500D01*
X170139940Y-123825051D01*
X170159943Y-123828219D01*
X170167835Y-123827473D01*
X170173062Y-123826979D01*
X170203954Y-123824059D01*
X170215811Y-123823500D01*
X184706233Y-123823500D01*
X184717416Y-123824027D01*
X184724909Y-123825702D01*
X184732835Y-123825453D01*
X184732836Y-123825453D01*
X184792986Y-123823562D01*
X184796945Y-123823500D01*
X184824856Y-123823500D01*
X184828791Y-123823003D01*
X184828856Y-123822995D01*
X184840693Y-123822062D01*
X184872951Y-123821048D01*
X184876970Y-123820922D01*
X184884889Y-123820673D01*
X184904343Y-123815021D01*
X184923700Y-123811013D01*
X184935930Y-123809468D01*
X184935931Y-123809468D01*
X184943797Y-123808474D01*
X184951168Y-123805555D01*
X184951170Y-123805555D01*
X184984912Y-123792196D01*
X184996142Y-123788351D01*
X185030983Y-123778229D01*
X185030984Y-123778229D01*
X185038593Y-123776018D01*
X185045412Y-123771985D01*
X185045417Y-123771983D01*
X185056028Y-123765707D01*
X185073776Y-123757012D01*
X185092617Y-123749552D01*
X185112987Y-123734753D01*
X185128387Y-123723564D01*
X185138307Y-123717048D01*
X185169535Y-123698580D01*
X185169538Y-123698578D01*
X185176362Y-123694542D01*
X185190683Y-123680221D01*
X185205717Y-123667380D01*
X185207432Y-123666134D01*
X185222107Y-123655472D01*
X185250298Y-123621395D01*
X185258288Y-123612616D01*
X185692264Y-123178640D01*
X192861463Y-123178640D01*
X192879163Y-123359160D01*
X192936418Y-123531273D01*
X192940065Y-123537295D01*
X192940066Y-123537297D01*
X193024260Y-123676318D01*
X193030380Y-123686424D01*
X193035269Y-123691487D01*
X193035270Y-123691488D01*
X193066246Y-123723564D01*
X193156382Y-123816902D01*
X193172536Y-123827473D01*
X193271262Y-123892077D01*
X193308159Y-123916222D01*
X193314763Y-123918678D01*
X193314765Y-123918679D01*
X193471558Y-123976990D01*
X193471560Y-123976990D01*
X193478168Y-123979448D01*
X193561995Y-123990633D01*
X193650980Y-124002507D01*
X193650984Y-124002507D01*
X193657961Y-124003438D01*
X193664972Y-124002800D01*
X193664976Y-124002800D01*
X193807459Y-123989832D01*
X193838600Y-123986998D01*
X193845302Y-123984820D01*
X193845304Y-123984820D01*
X194004409Y-123933124D01*
X194004412Y-123933123D01*
X194011108Y-123930947D01*
X194166912Y-123838069D01*
X194298266Y-123712982D01*
X194398643Y-123561902D01*
X194463055Y-123392338D01*
X194464829Y-123379715D01*
X194487748Y-123216639D01*
X194487748Y-123216636D01*
X194488299Y-123212717D01*
X194488616Y-123190000D01*
X194468397Y-123009745D01*
X194466080Y-123003091D01*
X194411064Y-122845106D01*
X194411062Y-122845103D01*
X194408745Y-122838448D01*
X194357056Y-122755727D01*
X194327646Y-122708661D01*
X194308500Y-122641892D01*
X194308500Y-120560620D01*
X194329552Y-120490893D01*
X194331069Y-120488610D01*
X194398643Y-120386902D01*
X194463055Y-120217338D01*
X194464035Y-120210366D01*
X194487748Y-120041639D01*
X194487748Y-120041636D01*
X194488299Y-120037717D01*
X194488452Y-120026738D01*
X194488561Y-120018962D01*
X194488561Y-120018957D01*
X194488616Y-120015000D01*
X194468397Y-119834745D01*
X194466080Y-119828091D01*
X194411064Y-119670106D01*
X194411062Y-119670103D01*
X194408745Y-119663448D01*
X194402365Y-119653238D01*
X194316359Y-119515598D01*
X194312626Y-119509624D01*
X194297228Y-119494118D01*
X194189778Y-119385915D01*
X194189774Y-119385912D01*
X194184815Y-119380918D01*
X194173697Y-119373862D01*
X194119295Y-119339338D01*
X194031666Y-119283727D01*
X194001094Y-119272841D01*
X193867425Y-119225243D01*
X193867420Y-119225242D01*
X193860790Y-119222881D01*
X193853802Y-119222048D01*
X193853799Y-119222047D01*
X193730698Y-119207368D01*
X193680680Y-119201404D01*
X193673677Y-119202140D01*
X193673676Y-119202140D01*
X193507288Y-119219628D01*
X193507286Y-119219629D01*
X193500288Y-119220364D01*
X193328579Y-119278818D01*
X193322575Y-119282512D01*
X193180095Y-119370166D01*
X193180092Y-119370168D01*
X193174088Y-119373862D01*
X193169053Y-119378793D01*
X193169050Y-119378795D01*
X193055464Y-119490027D01*
X193044493Y-119500771D01*
X192946235Y-119653238D01*
X192943826Y-119659858D01*
X192943824Y-119659861D01*
X192886606Y-119817066D01*
X192884197Y-119823685D01*
X192861463Y-120003640D01*
X192879163Y-120184160D01*
X192936418Y-120356273D01*
X192940065Y-120362295D01*
X192940066Y-120362297D01*
X193023276Y-120499694D01*
X193041500Y-120564965D01*
X193041500Y-122643331D01*
X193021411Y-122711586D01*
X192950054Y-122822310D01*
X192950050Y-122822319D01*
X192946235Y-122828238D01*
X192943826Y-122834858D01*
X192943825Y-122834859D01*
X192905801Y-122939329D01*
X192884197Y-122998685D01*
X192861463Y-123178640D01*
X185692264Y-123178640D01*
X186115177Y-122755727D01*
X186177489Y-122721701D01*
X186192837Y-122719343D01*
X186218600Y-122716998D01*
X186225302Y-122714820D01*
X186225304Y-122714820D01*
X186384409Y-122663124D01*
X186384412Y-122663123D01*
X186391108Y-122660947D01*
X186532472Y-122576677D01*
X186540860Y-122571677D01*
X186540862Y-122571676D01*
X186546912Y-122568069D01*
X186678266Y-122442982D01*
X186778643Y-122291902D01*
X186823289Y-122174373D01*
X186840555Y-122128920D01*
X186840556Y-122128918D01*
X186843055Y-122122338D01*
X186844035Y-122115366D01*
X186867748Y-121946639D01*
X186867748Y-121946636D01*
X186868299Y-121942717D01*
X186868616Y-121920000D01*
X186848397Y-121739745D01*
X186846080Y-121733091D01*
X186791064Y-121575106D01*
X186791062Y-121575103D01*
X186788745Y-121568448D01*
X186728498Y-121472032D01*
X186696359Y-121420598D01*
X186692626Y-121414624D01*
X186656550Y-121378295D01*
X186569778Y-121290915D01*
X186569774Y-121290912D01*
X186564815Y-121285918D01*
X186553697Y-121278862D01*
X186505538Y-121248300D01*
X186411666Y-121188727D01*
X186350961Y-121167111D01*
X186247425Y-121130243D01*
X186247420Y-121130242D01*
X186240790Y-121127881D01*
X186233802Y-121127048D01*
X186233799Y-121127047D01*
X186110698Y-121112368D01*
X186060680Y-121106404D01*
X186053677Y-121107140D01*
X186053676Y-121107140D01*
X185887288Y-121124628D01*
X185887286Y-121124629D01*
X185880288Y-121125364D01*
X185708579Y-121183818D01*
X185646109Y-121222250D01*
X185560095Y-121275166D01*
X185560092Y-121275168D01*
X185554088Y-121278862D01*
X185549053Y-121283793D01*
X185549050Y-121283795D01*
X185429525Y-121400843D01*
X185424493Y-121405771D01*
X185326235Y-121558238D01*
X185323826Y-121564858D01*
X185323824Y-121564861D01*
X185302322Y-121623938D01*
X185264197Y-121728685D01*
X185257137Y-121784568D01*
X185228757Y-121849641D01*
X185221227Y-121857868D01*
X184559500Y-122519595D01*
X184497188Y-122553621D01*
X184470405Y-122556500D01*
X182392833Y-122556500D01*
X182324712Y-122536498D01*
X182278219Y-122482842D01*
X182268115Y-122412568D01*
X182287884Y-122360776D01*
X182333643Y-122291902D01*
X182378289Y-122174373D01*
X182395555Y-122128920D01*
X182395556Y-122128918D01*
X182398055Y-122122338D01*
X182399035Y-122115366D01*
X182422748Y-121946639D01*
X182422748Y-121946636D01*
X182423299Y-121942717D01*
X182423616Y-121920000D01*
X182403397Y-121739745D01*
X182401080Y-121733091D01*
X182346064Y-121575106D01*
X182346062Y-121575103D01*
X182343745Y-121568448D01*
X182283498Y-121472032D01*
X182251359Y-121420598D01*
X182247626Y-121414624D01*
X182211550Y-121378295D01*
X182124778Y-121290915D01*
X182124774Y-121290912D01*
X182119815Y-121285918D01*
X182108697Y-121278862D01*
X182060538Y-121248300D01*
X181966666Y-121188727D01*
X181905961Y-121167111D01*
X181802425Y-121130243D01*
X181802420Y-121130242D01*
X181795790Y-121127881D01*
X181788802Y-121127048D01*
X181788799Y-121127047D01*
X181665698Y-121112368D01*
X181615680Y-121106404D01*
X181608677Y-121107140D01*
X181608676Y-121107140D01*
X181442288Y-121124628D01*
X181442286Y-121124629D01*
X181435288Y-121125364D01*
X181263579Y-121183818D01*
X181201109Y-121222250D01*
X181115095Y-121275166D01*
X181115092Y-121275168D01*
X181109088Y-121278862D01*
X181104053Y-121283793D01*
X181104050Y-121283795D01*
X180984525Y-121400843D01*
X180979493Y-121405771D01*
X180881235Y-121558238D01*
X180878826Y-121564858D01*
X180878824Y-121564861D01*
X180857322Y-121623938D01*
X180819197Y-121728685D01*
X180812138Y-121784567D01*
X180783757Y-121849641D01*
X180776226Y-121857870D01*
X180749498Y-121884597D01*
X180687185Y-121918621D01*
X180660404Y-121921500D01*
X179852833Y-121921500D01*
X179784712Y-121901498D01*
X179738219Y-121847842D01*
X179728115Y-121777568D01*
X179747884Y-121725776D01*
X179793643Y-121656902D01*
X179852614Y-121501661D01*
X179895503Y-121445083D01*
X179931466Y-121426572D01*
X180034409Y-121393124D01*
X180034412Y-121393123D01*
X180041108Y-121390947D01*
X180196912Y-121298069D01*
X180328266Y-121172982D01*
X180428643Y-121021902D01*
X180493055Y-120852338D01*
X180518299Y-120672717D01*
X180518616Y-120650000D01*
X180498397Y-120469745D01*
X180496080Y-120463091D01*
X180441064Y-120305106D01*
X180441062Y-120305103D01*
X180438745Y-120298448D01*
X180342626Y-120144624D01*
X180306550Y-120108295D01*
X180219778Y-120020915D01*
X180219774Y-120020912D01*
X180214815Y-120015918D01*
X180207164Y-120011062D01*
X180130422Y-119962361D01*
X180061666Y-119918727D01*
X180008052Y-119899636D01*
X179897425Y-119860243D01*
X179897420Y-119860242D01*
X179890790Y-119857881D01*
X179883802Y-119857048D01*
X179883799Y-119857047D01*
X179755462Y-119841744D01*
X179710680Y-119836404D01*
X179703677Y-119837140D01*
X179703676Y-119837140D01*
X179537288Y-119854628D01*
X179537286Y-119854629D01*
X179530288Y-119855364D01*
X179358579Y-119913818D01*
X179222039Y-119997819D01*
X179156019Y-120016500D01*
X172399595Y-120016500D01*
X172331474Y-119996498D01*
X172310500Y-119979595D01*
X171919588Y-119588683D01*
X171885562Y-119526371D01*
X171890627Y-119455556D01*
X171932502Y-119399226D01*
X171935862Y-119396676D01*
X171941912Y-119393069D01*
X172073266Y-119267982D01*
X172173643Y-119116902D01*
X172232614Y-118961661D01*
X172275503Y-118905083D01*
X172311466Y-118886572D01*
X172414409Y-118853124D01*
X172414412Y-118853123D01*
X172421108Y-118850947D01*
X172539443Y-118780405D01*
X172570860Y-118761677D01*
X172570862Y-118761676D01*
X172576912Y-118758069D01*
X172708266Y-118632982D01*
X172808643Y-118481902D01*
X172867611Y-118326670D01*
X172910500Y-118270092D01*
X172946463Y-118251581D01*
X173049409Y-118218132D01*
X173049412Y-118218131D01*
X173056108Y-118215955D01*
X173211912Y-118123077D01*
X173343266Y-117997990D01*
X173443643Y-117846910D01*
X173502618Y-117691659D01*
X173545507Y-117635081D01*
X173581468Y-117616571D01*
X173645484Y-117595771D01*
X173684409Y-117583124D01*
X173684412Y-117583123D01*
X173691108Y-117580947D01*
X173846912Y-117488069D01*
X173978266Y-117362982D01*
X174078643Y-117211902D01*
X174123289Y-117094373D01*
X174140555Y-117048920D01*
X174140556Y-117048918D01*
X174143055Y-117042338D01*
X174153686Y-116966693D01*
X174167748Y-116866639D01*
X174167748Y-116866636D01*
X174168299Y-116862717D01*
X174168616Y-116840000D01*
X174148397Y-116659745D01*
X174144546Y-116648685D01*
X174134824Y-116620769D01*
X174099657Y-116519783D01*
X174096143Y-116448875D01*
X174131524Y-116387322D01*
X174179712Y-116358514D01*
X174319409Y-116313124D01*
X174319412Y-116313123D01*
X174326108Y-116310947D01*
X174481912Y-116218069D01*
X174613266Y-116092982D01*
X174713643Y-115941902D01*
X174772614Y-115786661D01*
X174815503Y-115730083D01*
X174851466Y-115711572D01*
X174954409Y-115678124D01*
X174954412Y-115678123D01*
X174961108Y-115675947D01*
X175116912Y-115583069D01*
X175248266Y-115457982D01*
X175348643Y-115306902D01*
X175413055Y-115137338D01*
X175414035Y-115130366D01*
X175437748Y-114961639D01*
X175437748Y-114961636D01*
X175438299Y-114957717D01*
X175438616Y-114935000D01*
X175418397Y-114754745D01*
X175416080Y-114748091D01*
X175361064Y-114590106D01*
X175361062Y-114590103D01*
X175358745Y-114583448D01*
X175277646Y-114453661D01*
X175258500Y-114386892D01*
X175258500Y-110637787D01*
X175278502Y-110569666D01*
X175332158Y-110523173D01*
X175402432Y-110513069D01*
X175453491Y-110532354D01*
X175498494Y-110561803D01*
X175510510Y-110569666D01*
X175528169Y-110581222D01*
X175534773Y-110583678D01*
X175534775Y-110583679D01*
X175691568Y-110641990D01*
X175691570Y-110641990D01*
X175698178Y-110644448D01*
X175782005Y-110655633D01*
X175870990Y-110667507D01*
X175870994Y-110667507D01*
X175877971Y-110668438D01*
X175884982Y-110667800D01*
X175884986Y-110667800D01*
X176027469Y-110654832D01*
X176058610Y-110651998D01*
X176065312Y-110649820D01*
X176065314Y-110649820D01*
X176224419Y-110598124D01*
X176224422Y-110598123D01*
X176231118Y-110595947D01*
X176337794Y-110532355D01*
X176380870Y-110506677D01*
X176380872Y-110506676D01*
X176386922Y-110503069D01*
X176518276Y-110377982D01*
X176618653Y-110226902D01*
X176683065Y-110057338D01*
X176708309Y-109877717D01*
X176708626Y-109855000D01*
X176688407Y-109674745D01*
X176677737Y-109644104D01*
X176631074Y-109510106D01*
X176631072Y-109510103D01*
X176628755Y-109503448D01*
X176598224Y-109454588D01*
X176547646Y-109373645D01*
X176528500Y-109306876D01*
X176528500Y-104050620D01*
X176549552Y-103980893D01*
X176614742Y-103882773D01*
X176618643Y-103876902D01*
X176675526Y-103727158D01*
X176680555Y-103713920D01*
X176680556Y-103713918D01*
X176683055Y-103707338D01*
X176687793Y-103673624D01*
X176707748Y-103531639D01*
X176707748Y-103531636D01*
X176708299Y-103527717D01*
X176708616Y-103505000D01*
X176688397Y-103324745D01*
X176686080Y-103318091D01*
X176631064Y-103160106D01*
X176631062Y-103160103D01*
X176628745Y-103153448D01*
X176532626Y-102999624D01*
X176475560Y-102942158D01*
X176409778Y-102875915D01*
X176409774Y-102875912D01*
X176404815Y-102870918D01*
X176396688Y-102865760D01*
X176345538Y-102833300D01*
X176251666Y-102773727D01*
X176222463Y-102763328D01*
X176087425Y-102715243D01*
X176087420Y-102715242D01*
X176080790Y-102712881D01*
X176073802Y-102712048D01*
X176073799Y-102712047D01*
X175950698Y-102697368D01*
X175900680Y-102691404D01*
X175893677Y-102692140D01*
X175893676Y-102692140D01*
X175727288Y-102709628D01*
X175727286Y-102709629D01*
X175720288Y-102710364D01*
X175548579Y-102768818D01*
X175542575Y-102772512D01*
X175400095Y-102860166D01*
X175400092Y-102860168D01*
X175394088Y-102863862D01*
X175389053Y-102868793D01*
X175389050Y-102868795D01*
X175348487Y-102908518D01*
X175285822Y-102941889D01*
X175215063Y-102936083D01*
X175170923Y-102907279D01*
X175139777Y-102875915D01*
X175134815Y-102870918D01*
X175126688Y-102865760D01*
X175075538Y-102833300D01*
X174981666Y-102773727D01*
X174952463Y-102763328D01*
X174817425Y-102715243D01*
X174817420Y-102715242D01*
X174810790Y-102712881D01*
X174803802Y-102712048D01*
X174803799Y-102712047D01*
X174761806Y-102707040D01*
X174696533Y-102679113D01*
X174687628Y-102671020D01*
X174660403Y-102643794D01*
X174626379Y-102581481D01*
X174623500Y-102554700D01*
X174623500Y-98721622D01*
X174643502Y-98653501D01*
X174697158Y-98607008D01*
X174738079Y-98596141D01*
X174776579Y-98592637D01*
X174783600Y-98591998D01*
X174790302Y-98589820D01*
X174790304Y-98589820D01*
X174949409Y-98538124D01*
X174949412Y-98538123D01*
X174956108Y-98535947D01*
X175106540Y-98446271D01*
X175171058Y-98428500D01*
X178143670Y-98428500D01*
X178211791Y-98448502D01*
G37*
G04 #@! TD.AperFunction*
G04 #@! TA.AperFunction,Conductor*
G36*
X202996216Y-81935002D02*
G01*
X203042709Y-81988658D01*
X203052813Y-82058932D01*
X203046077Y-82085229D01*
X203026522Y-82137391D01*
X203022895Y-82152649D01*
X203017369Y-82203514D01*
X203017000Y-82210328D01*
X203017000Y-82282885D01*
X203021475Y-82298124D01*
X203022865Y-82299329D01*
X203030548Y-82301000D01*
X203200000Y-82301000D01*
X203200000Y-82809000D01*
X203035116Y-82809000D01*
X203019877Y-82813475D01*
X203018672Y-82814865D01*
X203017001Y-82822548D01*
X203017001Y-82899669D01*
X203017371Y-82906490D01*
X203022895Y-82957352D01*
X203026521Y-82972604D01*
X203071678Y-83093059D01*
X203080212Y-83108647D01*
X203084549Y-83114434D01*
X203109398Y-83180940D01*
X203094346Y-83250322D01*
X203084549Y-83265566D01*
X203080212Y-83271353D01*
X203071678Y-83286941D01*
X203026522Y-83407394D01*
X203022895Y-83422649D01*
X203017369Y-83473514D01*
X203017000Y-83480328D01*
X203017000Y-83579058D01*
X202996998Y-83647179D01*
X202943342Y-83693672D01*
X202873068Y-83703776D01*
X202848735Y-83697757D01*
X202810187Y-83684031D01*
X202757424Y-83665243D01*
X202757422Y-83665243D01*
X202750790Y-83662881D01*
X202743802Y-83662048D01*
X202743799Y-83662047D01*
X202607101Y-83645747D01*
X202570680Y-83641404D01*
X202563677Y-83642140D01*
X202563676Y-83642140D01*
X202397288Y-83659628D01*
X202397286Y-83659629D01*
X202390288Y-83660364D01*
X202218579Y-83718818D01*
X202082039Y-83802819D01*
X202016019Y-83821500D01*
X184691654Y-83821500D01*
X184624140Y-83801885D01*
X184538981Y-83747842D01*
X184506666Y-83727334D01*
X184456709Y-83709545D01*
X184342425Y-83668850D01*
X184342420Y-83668849D01*
X184335790Y-83666488D01*
X184328802Y-83665655D01*
X184328799Y-83665654D01*
X184205698Y-83650975D01*
X184155680Y-83645011D01*
X184148677Y-83645747D01*
X184148676Y-83645747D01*
X183982288Y-83663235D01*
X183982286Y-83663236D01*
X183975288Y-83663971D01*
X183803579Y-83722425D01*
X183672902Y-83802819D01*
X183606882Y-83821500D01*
X179361441Y-83821500D01*
X179293320Y-83801498D01*
X179246827Y-83747842D01*
X179236226Y-83709545D01*
X179229182Y-83646743D01*
X179228397Y-83639745D01*
X179226080Y-83633091D01*
X179171064Y-83475106D01*
X179171062Y-83475103D01*
X179168745Y-83468448D01*
X179072626Y-83314624D01*
X179029656Y-83271353D01*
X178949778Y-83190915D01*
X178949774Y-83190912D01*
X178944815Y-83185918D01*
X178933697Y-83178862D01*
X178885538Y-83148300D01*
X178791666Y-83088727D01*
X178762463Y-83078328D01*
X178627425Y-83030243D01*
X178627420Y-83030242D01*
X178620790Y-83027881D01*
X178613802Y-83027048D01*
X178613799Y-83027047D01*
X178490698Y-83012368D01*
X178440680Y-83006404D01*
X178433677Y-83007140D01*
X178433676Y-83007140D01*
X178267288Y-83024628D01*
X178267286Y-83024629D01*
X178260288Y-83025364D01*
X178088579Y-83083818D01*
X178082575Y-83087512D01*
X177940095Y-83175166D01*
X177940092Y-83175168D01*
X177934088Y-83178862D01*
X177929053Y-83183793D01*
X177929050Y-83183795D01*
X177809525Y-83300843D01*
X177804493Y-83305771D01*
X177706235Y-83458238D01*
X177703826Y-83464858D01*
X177703824Y-83464861D01*
X177662260Y-83579058D01*
X177644197Y-83628685D01*
X177621463Y-83808640D01*
X177639163Y-83989160D01*
X177696418Y-84161273D01*
X177700066Y-84167297D01*
X177703022Y-84173694D01*
X177700184Y-84175005D01*
X177714873Y-84230210D01*
X177693138Y-84297798D01*
X177678009Y-84316087D01*
X169758595Y-92235500D01*
X169696283Y-92269526D01*
X169625468Y-92264461D01*
X169568632Y-92221914D01*
X169543821Y-92155394D01*
X169543500Y-92146405D01*
X169543500Y-90883768D01*
X169544027Y-90872585D01*
X169545702Y-90865092D01*
X169543562Y-90797001D01*
X169543500Y-90793044D01*
X169543500Y-90765144D01*
X169542996Y-90761153D01*
X169542063Y-90749311D01*
X169541196Y-90721705D01*
X169540674Y-90705111D01*
X169535021Y-90685652D01*
X169531012Y-90666293D01*
X169530846Y-90664983D01*
X169528474Y-90646203D01*
X169525558Y-90638837D01*
X169525556Y-90638831D01*
X169512200Y-90605098D01*
X169508355Y-90593868D01*
X169498230Y-90559017D01*
X169498230Y-90559016D01*
X169496019Y-90551407D01*
X169485705Y-90533966D01*
X169477008Y-90516213D01*
X169472472Y-90504758D01*
X169469552Y-90497383D01*
X169443563Y-90461612D01*
X169437047Y-90451692D01*
X169418578Y-90420463D01*
X169414542Y-90413638D01*
X169400221Y-90399317D01*
X169387380Y-90384283D01*
X169380132Y-90374307D01*
X169375472Y-90367893D01*
X169341407Y-90339712D01*
X169332626Y-90331722D01*
X169109420Y-90108515D01*
X169075395Y-90046203D01*
X169073301Y-90033465D01*
X169069182Y-89996745D01*
X169068397Y-89989745D01*
X169024833Y-89864646D01*
X169011064Y-89825106D01*
X169011062Y-89825103D01*
X169008745Y-89818448D01*
X168937612Y-89704610D01*
X168916359Y-89670598D01*
X168912626Y-89664624D01*
X168876550Y-89628295D01*
X168789778Y-89540915D01*
X168789774Y-89540912D01*
X168784815Y-89535918D01*
X168773697Y-89528862D01*
X168725538Y-89498300D01*
X168631666Y-89438727D01*
X168602463Y-89428328D01*
X168467425Y-89380243D01*
X168467420Y-89380242D01*
X168460790Y-89377881D01*
X168453802Y-89377048D01*
X168453799Y-89377047D01*
X168330698Y-89362368D01*
X168280680Y-89356404D01*
X168273677Y-89357140D01*
X168273676Y-89357140D01*
X168107288Y-89374628D01*
X168107286Y-89374629D01*
X168100288Y-89375364D01*
X167928579Y-89433818D01*
X167866109Y-89472250D01*
X167780095Y-89525166D01*
X167780092Y-89525168D01*
X167774088Y-89528862D01*
X167769053Y-89533793D01*
X167769050Y-89533795D01*
X167649525Y-89650843D01*
X167644493Y-89655771D01*
X167546235Y-89808238D01*
X167543826Y-89814858D01*
X167543824Y-89814861D01*
X167495471Y-89947711D01*
X167484197Y-89978685D01*
X167461463Y-90158640D01*
X167479163Y-90339160D01*
X167536418Y-90511273D01*
X167540065Y-90517295D01*
X167540066Y-90517297D01*
X167618134Y-90646203D01*
X167630380Y-90666424D01*
X167756382Y-90796902D01*
X167908159Y-90896222D01*
X167914763Y-90898678D01*
X167914765Y-90898679D01*
X168071558Y-90956990D01*
X168071560Y-90956990D01*
X168078168Y-90959448D01*
X168085153Y-90960380D01*
X168085157Y-90960381D01*
X168120087Y-90965041D01*
X168140187Y-90967723D01*
X168205063Y-90996558D01*
X168212617Y-91003521D01*
X168239595Y-91030499D01*
X168273621Y-91092811D01*
X168276500Y-91119594D01*
X168276500Y-107871233D01*
X168275973Y-107882416D01*
X168274298Y-107889909D01*
X168274547Y-107897835D01*
X168274547Y-107897836D01*
X168276438Y-107957986D01*
X168276500Y-107961945D01*
X168276500Y-107989856D01*
X168276997Y-107993790D01*
X168276997Y-107993791D01*
X168277005Y-107993856D01*
X168277938Y-108005693D01*
X168279327Y-108049889D01*
X168283599Y-108064593D01*
X168284978Y-108069339D01*
X168288987Y-108088700D01*
X168291526Y-108108797D01*
X168294445Y-108116168D01*
X168294445Y-108116170D01*
X168307804Y-108149912D01*
X168311649Y-108161142D01*
X168319017Y-108186502D01*
X168323982Y-108203593D01*
X168328015Y-108210412D01*
X168328017Y-108210417D01*
X168334293Y-108221028D01*
X168342988Y-108238776D01*
X168350448Y-108257617D01*
X168355110Y-108264033D01*
X168355110Y-108264034D01*
X168376436Y-108293387D01*
X168382952Y-108303307D01*
X168400241Y-108332540D01*
X168405458Y-108341362D01*
X168419779Y-108355683D01*
X168432619Y-108370716D01*
X168444528Y-108387107D01*
X168467854Y-108406404D01*
X168478605Y-108415298D01*
X168487384Y-108423288D01*
X168874595Y-108810499D01*
X168908621Y-108872811D01*
X168911500Y-108899594D01*
X168911500Y-109074478D01*
X168891498Y-109142599D01*
X168837842Y-109189092D01*
X168767568Y-109199196D01*
X168736797Y-109188935D01*
X168736462Y-109189828D01*
X168607606Y-109141522D01*
X168592351Y-109137895D01*
X168541486Y-109132369D01*
X168534672Y-109132000D01*
X167912115Y-109132000D01*
X167896876Y-109136475D01*
X167895671Y-109137865D01*
X167894000Y-109145548D01*
X167894000Y-110618000D01*
X167873998Y-110686121D01*
X167820342Y-110732614D01*
X167768000Y-110744000D01*
X167512000Y-110744000D01*
X167443879Y-110723998D01*
X167397386Y-110670342D01*
X167386000Y-110618000D01*
X167386000Y-109150116D01*
X167381525Y-109134877D01*
X167380135Y-109133672D01*
X167372452Y-109132001D01*
X166745331Y-109132001D01*
X166738510Y-109132371D01*
X166687648Y-109137895D01*
X166672396Y-109141521D01*
X166543538Y-109189828D01*
X166542563Y-109187228D01*
X166487149Y-109199346D01*
X166420601Y-109174608D01*
X166377993Y-109117818D01*
X166370000Y-109073657D01*
X166370000Y-82041000D01*
X166390002Y-81972879D01*
X166443658Y-81926386D01*
X166496000Y-81915000D01*
X202928095Y-81915000D01*
X202996216Y-81935002D01*
G37*
G04 #@! TD.AperFunction*
M02*
